<svg width="101" height="27" viewBox="0 0 101 27" fill="none" xmlns="http://www.w3.org/2000/svg">
<g clip-path="url(#clip0_1_3714)">
<mask id="mask0_1_3714" style="mask-type:luminance" maskUnits="userSpaceOnUse" x="0" y="0" width="101" height="27">
<path d="M0.941162 0.73999H100.21V26.74H0.941162V0.73999Z" fill="white"/>
</mask>
<g mask="url(#mask0_1_3714)">
<path d="M10.4989 3.16259H12.6735C13.9978 2.96748 15.3503 3.13903 16.584 3.65855C18.1317 4.58974 19.2544 6.08886 19.7124 7.8361C20.0367 8.75173 20.0367 8.75173 20.8188 8.42744H21.4292V1.17873H0.961103V2.45679H1.80043C2.16516 2.45427 2.52583 2.53349 2.85593 2.68864C3.18602 2.84378 3.47718 3.07091 3.70799 3.35334C4.49009 4.61233 4.62362 6.02392 4.62362 13.368C4.62362 21.1699 4.45194 23.0775 3.70799 24.0503C3.52432 24.3004 3.28654 24.5059 3.01238 24.6512C2.73823 24.7966 2.43479 24.878 2.12471 24.8897C0.961103 25.0995 0.961103 25.0804 0.961103 25.5955C0.896755 25.7677 0.896755 25.9573 0.961103 26.1296H13.8753C13.9607 25.9611 14.0053 25.7748 14.0053 25.5859C14.0053 25.3971 13.9607 25.2107 13.8753 25.0423C13.5625 24.9553 13.2437 24.8916 12.9215 24.8515C12.5729 24.8101 12.2284 24.7399 11.8914 24.6417C11.4088 24.2894 11.0265 23.8172 10.7823 23.2719C10.5381 22.7265 10.4404 22.127 10.4989 21.5324C10.3081 20.2734 10.2127 17.9652 10.2127 16.0577V14.5507H10.9758C11.9264 14.5216 12.8765 14.6243 13.799 14.8559C14.2409 15.129 14.6171 15.4963 14.9006 15.9316C15.1842 16.3668 15.3682 16.8593 15.4395 17.3739L15.6111 17.9652H16.7747V9.51475H15.7065L15.5348 10.335C15.4626 10.8612 15.2679 11.3632 14.9665 11.8005C14.665 12.2378 14.2651 12.5983 13.799 12.853C13.3475 12.9873 12.872 13.0199 12.4065 12.9484H10.2127V10.8882L10.4035 3.5441L10.4989 3.16259ZM99.7726 18.2895C98.8709 16.8383 97.4644 15.7716 95.8239 15.2947C94.5661 14.9015 93.4036 14.252 92.4094 13.3871C92.1857 13.1707 92.0184 12.9029 91.9218 12.607C91.8253 12.311 91.8028 11.996 91.8562 11.6894C91.8576 11.0879 92.0977 10.5116 92.5239 10.087C92.8125 9.78459 93.178 9.56627 93.5812 9.45541C93.9845 9.34454 94.4101 9.34527 94.8129 9.45753C95.6467 9.69519 96.401 10.154 96.9954 10.7853C97.5898 11.4167 98.0022 12.197 98.1893 13.0437C98.4945 13.9021 98.5327 13.9021 99.0859 13.6732L99.4292 13.5397V8.78988L99.1812 8.67543C97.3033 8.01585 95.3112 7.74332 93.325 7.87425C91.6145 7.91759 89.9821 8.59785 88.7469 9.78181C88.1867 10.3062 87.7479 10.9467 87.4612 11.6584C87.1745 12.3701 87.0469 13.1359 87.0873 13.9021C87.098 15.0736 87.5631 16.1952 88.3845 17.0305C89.2921 17.9233 90.4059 18.5785 91.6273 18.9381C94.584 20.1017 95.4424 20.8456 95.4424 22.2C95.455 22.7711 95.2732 23.3297 94.9264 23.7837C94.5796 24.2377 94.089 24.5606 93.5349 24.6989C92.8688 24.8452 92.1788 24.8452 91.5129 24.6989C90.6407 24.3605 89.8621 23.8186 89.2417 23.1185C88.6214 22.4184 88.1769 21.5804 87.9457 20.674L87.6978 20.0636H87.3544C87.1904 20.0758 87.0292 20.1145 86.8775 20.178H86.6868V25.5955H87.011C88.2998 26.0241 89.6293 26.3182 90.9788 26.4729H92.8863C93.7136 26.5336 94.5451 26.4563 95.3471 26.244C96.3651 26.0561 97.3162 25.6052 98.106 24.9358C98.8957 24.2665 99.4966 23.4023 99.8489 22.4289C100.076 21.8853 100.193 21.3016 100.192 20.7121C100.267 19.8818 100.123 19.0462 99.7726 18.2895ZM81.8034 8.42744C80.6602 7.94752 79.4287 7.71472 78.1893 7.74431C76.95 7.7739 75.7307 8.0652 74.6119 8.59912C73.5601 9.11355 72.6281 9.84281 71.8755 10.7398C71.123 11.6368 70.5671 12.6816 70.2436 13.8068C69.831 15.0342 69.6561 16.329 69.7286 17.6219C69.7148 18.3253 69.7724 19.0283 69.9003 19.7202C70.2083 21.4213 71.0295 22.9875 72.2536 24.2083C73.4777 25.4291 75.0463 26.2459 76.7484 26.5492C77.8567 26.6889 78.9781 26.6889 80.0866 26.5492C81.2367 26.3465 82.3373 25.9257 83.3295 25.3093C84.1499 24.8494 84.8444 24.1942 85.3515 23.4018C85.3188 23.2774 85.2616 23.161 85.1828 23.0594C85.1041 22.9577 85.0058 22.873 84.8937 22.8104C84.6758 22.8892 84.4704 22.9985 84.2832 23.1347C83.3344 23.76 82.2141 24.0734 81.0785 24.0313C80.3249 24.0822 79.5693 23.9649 78.8665 23.6877C78.1638 23.4105 77.5314 22.9806 77.0154 22.4289C76.6162 22.0581 76.2868 21.6188 76.0426 21.1318C75.4497 19.9459 75.1304 18.6422 75.1079 17.3167V16.5727H85.6757V16.1912C85.699 15.8101 85.699 15.4278 85.6757 15.0467C85.6719 13.6998 85.3116 12.3778 84.6315 11.2153C83.9515 10.0527 82.9756 9.0908 81.8034 8.42744ZM76.4813 15.0276H75.146V13.9021C75.5848 11.0217 76.6721 9.30492 78.0074 9.30492C79.3427 9.30492 79.9149 11.0027 80.1629 14.112V14.9894H79.0184L76.4813 15.0276ZM49.0507 7.79795C48.3914 7.77239 47.7362 7.90998 47.1431 8.19854C45.8538 8.82465 44.8124 9.86599 44.1864 11.1553L43.9384 11.6131V7.79795H43.843C43.6141 7.79795 36.5562 9.20954 36.3273 9.30492C36.0983 9.4003 36.1746 9.41937 36.1746 9.76273C36.1746 10.1061 36.1746 10.1633 36.3273 10.1824L37.0712 10.335C37.2795 10.3401 37.484 10.3926 37.669 10.4884C37.8541 10.5843 38.0151 10.721 38.1394 10.8882C38.6163 11.5177 38.7117 12.6241 38.7117 17.3357C38.8059 19.4569 38.7165 21.5822 38.4446 23.6879C38.3805 24.0055 38.2196 24.2953 37.9838 24.5173C37.748 24.7394 37.4491 24.8828 37.1284 24.9278L36.4799 25.0614H36.2319V25.5955C36.1626 25.7734 36.1626 25.9707 36.2319 26.1487H46.8951V25.5955C46.9321 25.4129 46.9321 25.2248 46.8951 25.0423C46.253 25.0173 45.6146 24.9343 44.9876 24.7943C44.6461 24.6157 44.3667 24.3378 44.1862 23.9973C44.0057 23.6568 43.9327 23.2696 43.9766 22.8867C43.824 21.7804 43.7476 18.5375 43.7858 16.0577C43.824 13.5779 43.7858 13.4253 43.9956 13.2536C44.6339 12.7642 45.4238 12.5144 46.2275 12.5478C46.985 12.5643 47.7287 12.7535 48.4021 13.101C48.6354 13.2306 48.8858 13.3269 49.146 13.3871L51.0536 8.56097C50.8094 8.27732 50.4985 8.05898 50.1486 7.92576C49.7988 7.79253 49.4215 7.7486 49.0507 7.79795ZM36.1937 15.8097C36.1272 14.4466 35.7357 13.1191 35.0522 11.9378C34.3688 10.7566 33.4127 9.75577 32.2642 9.01879C30.8991 8.28237 29.3803 7.87633 27.8299 7.83326C26.2794 7.79019 24.7406 8.1113 23.3368 8.7708C21.352 9.81744 19.8533 11.5966 19.1592 13.7305C18.4423 16.1195 18.4423 18.6664 19.1592 21.0555C19.535 22.3612 20.2376 23.5494 21.2003 24.5082C22.3994 25.6783 23.9455 26.4277 25.6068 26.6446C26.6731 26.7337 27.7452 26.7337 28.8115 26.6446C29.2039 26.5849 29.5924 26.5021 29.9751 26.3966C31.5276 25.9623 32.9246 25.0947 34.0023 23.8955C35.0801 22.6962 35.7937 21.215 36.0602 19.6248C36.2506 18.3624 36.2954 17.0823 36.1937 15.8097ZM28.2583 25.3475C26.3507 25.9198 24.9201 24.0694 24.4432 20.178C24.2681 18.1407 24.2681 16.0921 24.4432 14.0547C24.8247 10.9264 25.7975 9.34307 27.3045 9.34307C27.6086 9.32423 27.9126 9.37848 28.1913 9.50126C28.47 9.62405 28.7155 9.81183 28.9069 10.0489C30.1849 11.3269 30.8144 13.864 30.8144 17.6791C30.9731 19.8383 30.6338 22.0051 29.8225 24.0122C29.4642 24.5976 28.9099 25.0369 28.2583 25.2521V25.3475ZM62.5943 8.17946C62.056 8.1102 61.511 8.1102 60.9729 8.17946C59.9396 8.17858 58.9183 8.39977 57.978 8.82803L57.3867 9.07601V4.93662C57.4901 3.53965 57.4901 2.13696 57.3867 0.73999C57.1578 0.73999 49.8709 2.13251 49.7565 2.18973C49.7002 2.33057 49.7002 2.48764 49.7565 2.62847C49.7565 3.02906 49.7565 3.00998 50.6149 3.20074C50.8558 3.25478 51.0874 3.34482 51.3016 3.4678C51.6739 3.81795 51.9217 4.28011 52.0074 4.78401C52.2244 6.2357 52.2948 7.70559 52.2172 9.17139V25.9198L52.7322 26.0342C53.4953 26.2059 55.6508 26.5683 56.3566 26.6446C57.7659 26.7568 59.1819 26.7568 60.5914 26.6446C62.1556 26.4848 63.6467 25.9012 64.904 24.9566C66.1612 24.012 67.1366 22.7423 67.7256 21.2844C68.0766 20.3485 68.3198 19.3758 68.4505 18.3849C68.564 17.0427 68.5192 15.6917 68.317 14.36C68.1123 12.8671 67.4534 11.4734 66.4296 10.3678C65.4059 9.26213 64.0669 8.49816 62.5943 8.17946ZM57.5965 25.0232L57.4439 13.0819V10.4685L57.9971 10.335C58.3702 10.2815 58.7492 10.2815 59.1226 10.335C59.5354 10.293 59.9504 10.3868 60.3052 10.6021C61.0175 11.0937 61.6091 11.7406 62.0354 12.4939C62.4617 13.2473 62.7114 14.0875 62.766 14.9513C62.9049 16.3403 62.9049 17.7398 62.766 19.1288C62.6517 21.1478 61.8738 23.0723 60.5532 24.6035C60.1784 24.9597 59.7076 25.1983 59.1989 25.2903C58.8139 25.3572 58.4202 25.3572 58.0353 25.2903C57.6728 25.2903 57.6728 25.1758 57.6728 25.0232H57.5965Z" fill="black"/>
</g>
</g>
<defs>
<clipPath id="clip0_1_3714">
<rect width="100" height="26" fill="white" transform="translate(0.5 0.73999)"/>
</clipPath>
</defs>
</svg>
