<svg width="149" height="25" viewBox="0 0 149 25" fill="none" xmlns="http://www.w3.org/2000/svg">
<mask id="mask0_1_3705" style="mask-type:luminance" maskUnits="userSpaceOnUse" x="0" y="1" width="149" height="24">
<path d="M148.441 1.23999H0.85791V24.24H148.441V1.23999Z" fill="white"/>
</mask>
<g mask="url(#mask0_1_3705)">
<path fill-rule="evenodd" clip-rule="evenodd" d="M0.861816 2.00335H4.52169V23.4825H0.861816V2.00335ZM30.5141 15.7401L15.646 1.67224V23.482H19.165V9.50853L34.0331 23.8141V2.00335H30.5141V15.7401ZM53.1332 11.5182L49.6501 10.2584C47.8551 9.62976 46.834 8.99918 46.834 7.4256C46.834 5.67664 48.4536 4.83666 50.6348 4.83666C53.1681 4.83666 55.1394 5.7811 56.9334 7.14576V3.40203C55.2099 2.28318 52.9928 1.65308 50.5643 1.65308C46.5877 1.65308 43.2801 3.71685 43.2801 7.49508C43.2801 11.028 45.4617 12.5675 48.3472 13.6169L51.4791 14.7367C53.4144 15.4713 54.5055 16.1364 54.5055 17.8149C54.5055 19.7388 52.781 20.6137 50.3176 20.6137C47.7847 20.6137 45.4262 19.7047 43.4554 18.1297V21.9429C44.9691 22.9928 47.432 23.8323 50.3176 23.8323C54.7173 23.8323 58.0595 21.6626 58.0595 17.7449C58.0595 14.6318 56.5118 12.7424 53.1332 11.5182ZM66.3045 2.00335H69.9639V23.4825H66.3045V2.00335ZM89.558 2.00383H81.2703V23.4825H89.558C95.9275 23.4825 100.045 19.2845 100.045 12.7424C100.045 6.20133 95.9271 2.00383 89.558 2.00383ZM89.4171 20.2299H84.9307V5.22191H89.4171C93.9553 5.22191 96.3842 8.12518 96.3842 12.7424C96.3842 17.3247 93.9558 20.2299 89.4171 20.2299ZM108.351 23.4825H121.458V20.2299H111.94V13.5733H120.472V10.3897H111.94V5.22143H121.458V2.00335H108.351V23.4825ZM140.452 14.6318C143.865 14.1071 145.475 12.0429 145.475 8.43951C145.475 4.24201 142.59 2.00335 138.12 2.00335H130.282V23.4825H133.941V14.7717H136.546L144.068 23.4825H148.22L140.452 14.6318ZM133.942 11.728V5.15147H138.05C140.478 5.15147 141.85 6.4457 141.85 8.43951C141.85 10.4338 140.478 11.728 138.05 11.728H133.942Z" fill="#111111"/>
</g>
</svg>
