<svg xmlns="http://www.w3.org/2000/svg" viewBox="0 0 72 72" fill="#8f8f8f"><path d="M36,0C16.3,0,0,15.8,0,36c0,19.7,15.8,36,36,36c19.7,0,36-15.8,36-36C72,16.3,56.1,0,36,0z"/><path fill="#fff" d="M12.4 24.7c-15 0-14.9 22.6 0 22.6 6.2 0 5.3-5.9 5.3-.2h5.9c.1-8 2-22.4-11.2-22.4zm0 5.9c7.1 0 7.1 10.8 0 10.8s-7.1-10.8 0-10.8zm12.7-13.7V36c0 14.9 22.6 15 22.6 0 0-10.8-13.5-14.3-16.6-8.6V16.9h-6zm11.3 13.7c7.2 0 7.2 10.7.1 10.8-7.3.1-7.3-10.8-.1-10.8zm23.5-5.9c-15 0-14.9 22.6 0 22.6 5.3 0 9.9-3.6 11-8.8h-6.2c-2.5 5-10.2 3.2-10.2-2.5 0-5.6 7.6-7.5 10.2-2.5H71c-1.2-5.1-5.8-8.8-11.1-8.8z"/></svg>