<svg width="28" height="40" viewBox="0 0 28 40" fill="none" xmlns="http://www.w3.org/2000/svg">
<g clip-path="url(#clip0_1_2848)">
<path d="M27.19 31.3672V7.80291C27.1866 5.80081 26.3897 3.88169 24.974 2.46599C23.5583 1.05029 21.6392 0.253438 19.6371 0.25L7.55291 0.25C5.55081 0.253438 3.63169 1.05029 2.21599 2.46599C0.800293 3.88169 0.00343816 5.80081 0 7.80291L0 31.3672C0.00343816 33.3693 0.800293 35.2884 2.21599 36.7041C3.63169 38.1198 5.55081 38.9167 7.55291 38.9201H19.6371C21.6392 38.9167 23.5583 38.1198 24.974 36.7041C26.3897 35.2884 27.1866 33.3693 27.19 31.3672ZM3.02164 31.3672V7.80291C3.02382 6.60181 3.50193 5.45054 4.35123 4.60123C5.20054 3.75193 6.35181 3.27382 7.55291 3.27164H19.6371C20.8382 3.27382 21.9895 3.75193 22.8388 4.60123C23.6881 5.45054 24.1662 6.60181 24.1684 7.80291V31.3672C24.1662 32.5683 23.6881 33.7196 22.8388 34.5689C21.9895 35.4182 20.8382 35.8963 19.6371 35.8985H7.55291C6.35181 35.8963 5.20054 35.4182 4.35123 34.5689C3.50193 33.7196 3.02382 32.5683 3.02164 31.3672ZM7.55291 14.7517H19.6371C20.0376 14.7511 20.4215 14.5917 20.7047 14.3085C20.9879 14.0253 21.1473 13.6414 21.1479 13.2409C21.1473 12.8404 20.9879 12.4565 20.7047 12.1733C20.4215 11.8901 20.0376 11.7307 19.6371 11.7301H7.55291C7.15241 11.7307 6.76849 11.8901 6.48529 12.1733C6.20209 12.4565 6.04272 12.8404 6.04209 13.2409C6.04272 13.6414 6.20209 14.0253 6.48529 14.3085C6.76849 14.5917 7.15241 14.7511 7.55291 14.7517Z" fill="#162050"/>
<path d="M7.55293 20.7939C7.95343 20.7932 8.33735 20.6339 8.62055 20.3507C8.90375 20.0675 9.06313 19.6835 9.06375 19.283C9.06313 18.8825 8.90375 18.4986 8.62055 18.2154C8.33735 17.9322 7.95343 17.7728 7.55293 17.7722C7.15243 17.7728 6.76851 17.9322 6.48531 18.2154C6.20212 18.4986 6.04274 18.8825 6.04211 19.283C6.04274 19.6835 6.20212 20.0675 6.48531 20.3507C6.76851 20.6339 7.15243 20.7932 7.55293 20.7939Z" fill="#162050"/>
<path d="M13.595 20.7939C13.9955 20.7932 14.3795 20.6339 14.6627 20.3507C14.9459 20.0675 15.1052 19.6835 15.1059 19.283C15.1052 18.8825 14.9459 18.4986 14.6627 18.2154C14.3795 17.9322 13.9955 17.7728 13.595 17.7722C13.1945 17.7728 12.8106 17.9322 12.5274 18.2154C12.2442 18.4986 12.0849 18.8825 12.0842 19.283C12.0849 19.6835 12.2442 20.0675 12.5274 20.3507C12.8106 20.6339 13.1945 20.7932 13.595 20.7939Z" fill="#162050"/>
<path d="M19.6383 20.7939C20.0388 20.7932 20.4227 20.6339 20.7059 20.3507C20.9891 20.0675 21.1485 19.6835 21.1491 19.283C21.1485 18.8825 20.9891 18.4986 20.7059 18.2154C20.4227 17.9322 20.0388 17.7728 19.6383 17.7722C19.2378 17.7728 18.8538 17.9322 18.5706 18.2154C18.2874 18.4986 18.1281 18.8825 18.1274 19.283C18.1281 19.6835 18.2874 20.0675 18.5706 20.3507C18.8538 20.6339 19.2378 20.7932 19.6383 20.7939Z" fill="#162050"/>
<path d="M7.55293 26.8358C7.95343 26.8352 8.33735 26.6758 8.62055 26.3926C8.90375 26.1094 9.06313 25.7255 9.06375 25.325C9.06313 24.9245 8.90375 24.5406 8.62055 24.2574C8.33735 23.9742 7.95343 23.8148 7.55293 23.8142C7.15243 23.8148 6.76851 23.9742 6.48531 24.2574C6.20212 24.5406 6.04274 24.9245 6.04211 25.325C6.04274 25.7255 6.20212 26.1094 6.48531 26.3926C6.76851 26.6758 7.15243 26.8352 7.55293 26.8358Z" fill="#162050"/>
<path d="M13.595 26.8358C13.9955 26.8352 14.3795 26.6758 14.6627 26.3926C14.9459 26.1094 15.1052 25.7255 15.1059 25.325C15.1052 24.9245 14.9459 24.5406 14.6627 24.2574C14.3795 23.9742 13.9955 23.8148 13.595 23.8142C13.1945 23.8148 12.8106 23.9742 12.5274 24.2574C12.2442 24.5406 12.0849 24.9245 12.0842 25.325C12.0849 25.7255 12.2442 26.1094 12.5274 26.3926C12.8106 26.6758 13.1945 26.8352 13.595 26.8358Z" fill="#162050"/>
<path d="M7.55293 32.8793C7.95343 32.8787 8.33735 32.7193 8.62055 32.4361C8.90375 32.1529 9.06313 31.769 9.06375 31.3685C9.06313 30.968 8.90375 30.5841 8.62055 30.3009C8.33735 30.0177 7.95343 29.8583 7.55293 29.8577C7.15243 29.8583 6.76851 30.0177 6.48531 30.3009C6.20212 30.5841 6.04274 30.968 6.04211 31.3685C6.04274 31.769 6.20212 32.1529 6.48531 32.4361C6.76851 32.7193 7.15243 32.8787 7.55293 32.8793Z" fill="#162050"/>
<path d="M13.595 32.8793C13.9955 32.8787 14.3795 32.7193 14.6627 32.4361C14.9459 32.1529 15.1052 31.769 15.1059 31.3685C15.1052 30.968 14.9459 30.5841 14.6627 30.3009C14.3795 30.0177 13.9955 29.8583 13.595 29.8577C13.1945 29.8583 12.8106 30.0177 12.5274 30.3009C12.2442 30.5841 12.0849 30.968 12.0842 31.3685C12.0849 31.769 12.2442 32.1529 12.5274 32.4361C12.8106 32.7193 13.1945 32.8787 13.595 32.8793Z" fill="#162050"/>
<path d="M18.1274 25.325V31.3671C18.1281 31.7676 18.2874 32.1515 18.5706 32.4347C18.8538 32.7179 19.2378 32.8773 19.6383 32.8779C20.0388 32.8773 20.4227 32.7179 20.7059 32.4347C20.9891 32.1515 21.1485 31.7676 21.1491 31.3671V25.325C21.1485 24.9245 20.9891 24.5406 20.7059 24.2574C20.4227 23.9742 20.0388 23.8148 19.6383 23.8142C19.2378 23.8148 18.8538 23.9742 18.5706 24.2574C18.2874 24.5406 18.1281 24.9245 18.1274 25.325Z" fill="#1665D8"/>
</g>
<defs>
<clipPath id="clip0_1_2848">
<rect width="27.19" height="39.0117" fill="white" transform="translate(0 0.25)"/>
</clipPath>
</defs>
</svg>
