<svg width="144" height="49" viewBox="0 0 144 49" fill="none" xmlns="http://www.w3.org/2000/svg">
<g clip-path="url(#clip0_91_12790)">
<path d="M24.6118 8.4178H38.581V3.19739L24.6118 8.4178Z" fill="#FF9D28"/>
<path d="M38.5806 3.19741V21.6216L45.1822 0.739929L38.5806 3.19741Z" fill="#68C5ED"/>
<path d="M38.5807 8.41785H33.3022L38.5807 21.6216V8.41785Z" fill="#044D80"/>
<path d="M24.6118 8.41785L34.6535 11.8056L33.3025 8.41785H24.6118Z" fill="#E54747"/>
<path d="M56.603 16.776C56.5334 16.8454 56.3941 16.9426 56.227 17.0676C56.0459 17.1787 55.8092 17.2897 55.5306 17.4147C55.2381 17.5258 54.8899 17.6229 54.4721 17.7063C54.0543 17.7896 53.5808 17.8312 53.0515 17.8312C52.0209 17.8312 51.1295 17.6646 50.3775 17.3314C49.6254 16.9982 48.9986 16.54 48.5112 15.943C48.0237 15.346 47.6616 14.6518 47.4248 13.8465C47.202 13.0412 47.0767 12.1526 47.0767 11.1807C47.0767 10.2089 47.202 9.32027 47.4527 8.50111C47.7034 7.68195 48.0794 6.97386 48.5669 6.37685C49.0683 5.77983 49.6811 5.30778 50.4332 4.97456C51.1853 4.64134 52.0627 4.47473 53.0655 4.47473C53.5668 4.47473 54.0125 4.51638 54.4164 4.61357C54.8203 4.69688 55.1685 4.80795 55.4749 4.93291C55.7813 5.05786 56.0181 5.18282 56.227 5.30778C56.422 5.44662 56.5752 5.55769 56.6727 5.64099C56.7841 5.73818 56.8816 5.86314 56.9651 6.00198C57.0487 6.14082 57.0905 6.29355 57.0905 6.46015C57.0905 6.71007 56.993 6.97386 56.798 7.22378C56.603 7.47369 56.3941 7.70972 56.1713 7.93187C56.0181 7.77914 55.8509 7.62642 55.656 7.45981C55.461 7.30708 55.2521 7.15436 55.0153 7.04329C54.7785 6.91833 54.5139 6.82114 54.2075 6.73784C53.9011 6.65453 53.5668 6.61288 53.2047 6.61288C52.5501 6.61288 52.007 6.73784 51.5752 7.00163C51.1295 7.26543 50.7814 7.59865 50.5167 8.02905C50.2521 8.44558 50.0571 8.93152 49.9457 9.473C49.8343 10.0145 49.7786 10.5698 49.7786 11.1252C49.7786 11.7222 49.8343 12.2915 49.9457 12.8468C50.0571 13.3883 50.2521 13.8742 50.5446 14.2908C50.8231 14.7073 51.1853 15.0544 51.6449 15.3043C52.0905 15.5542 52.6616 15.6792 53.344 15.6792C53.7061 15.6792 54.0264 15.6375 54.3328 15.5403C54.6393 15.457 54.9039 15.346 55.1267 15.221C55.3496 15.096 55.5585 14.9572 55.7256 14.8184C55.8927 14.6795 56.0459 14.5546 56.1573 14.4574C56.227 14.5407 56.3245 14.6518 56.422 14.7767C56.5195 14.9017 56.6169 15.0405 56.7144 15.1794C56.798 15.3182 56.8816 15.457 56.9373 15.5959C57.0069 15.7347 57.0348 15.8597 57.0348 15.9707C57.0348 16.1374 57.0069 16.2762 56.9373 16.3873C56.8537 16.4983 56.7423 16.6372 56.603 16.776ZM66.4636 15.3043C66.4636 16.3178 66.6168 17.0537 66.9093 17.5119C66.6726 17.5952 66.4636 17.6646 66.2687 17.7063C66.0737 17.7479 65.8648 17.7618 65.6419 17.7618C65.1823 17.7618 64.8341 17.6785 64.5974 17.498C64.3606 17.3175 64.2074 17.0676 64.1517 16.7344C63.8731 17.0259 63.4971 17.2758 63.0375 17.4841C62.5779 17.6924 62.0069 17.7896 61.3383 17.7896C60.9902 17.7896 60.642 17.7479 60.2938 17.6507C59.9456 17.5535 59.6392 17.4008 59.3467 17.1787C59.0682 16.9565 58.8314 16.6649 58.6504 16.304C58.4693 15.943 58.3857 15.4987 58.3857 14.9711C58.3857 14.3185 58.5389 13.7909 58.8593 13.3883C59.1796 12.9857 59.5696 12.6525 60.0431 12.4164C60.5166 12.1804 61.0319 12.0138 61.589 11.9305C62.1461 11.8472 62.6475 11.7778 63.1071 11.7639C63.2603 11.75 63.4135 11.75 63.5528 11.75H63.9706V11.4029C63.9706 10.9169 63.8453 10.556 63.5807 10.3616C63.316 10.1533 62.8843 10.0561 62.2993 10.0561C61.7144 10.0561 61.2548 10.1394 60.823 10.3199C60.3913 10.5004 59.9735 10.7087 59.5556 10.9308C59.3746 10.7087 59.2353 10.4727 59.1239 10.2089C59.0125 9.94506 58.9568 9.75068 58.9568 9.62572C58.9568 9.44523 59.0542 9.27862 59.2492 9.11201C59.4442 8.9454 59.7228 8.79268 60.071 8.66772C60.4191 8.52888 60.8091 8.43169 61.2687 8.34839C61.7144 8.26508 62.1879 8.22343 62.6893 8.22343C63.3857 8.22343 63.9706 8.29285 64.4442 8.43169C64.9316 8.57053 65.3216 8.79268 65.6141 9.08424C65.9205 9.37581 66.1294 9.75068 66.2547 10.1811C66.3801 10.6254 66.4497 11.1391 66.4497 11.7222L66.4636 15.3043ZM63.9985 13.0829H63.7339C63.6503 13.0829 63.5528 13.0829 63.4692 13.0967C63.1489 13.1245 62.8286 13.1662 62.5222 13.2078C62.2018 13.2634 61.9233 13.3467 61.6865 13.4716C61.4358 13.5966 61.2409 13.7632 61.0877 13.9714C60.9345 14.1797 60.8509 14.4435 60.8509 14.7628C60.8509 15.1238 60.9484 15.4293 61.1573 15.6792C61.3662 15.9291 61.7144 16.054 62.2018 16.054C62.4386 16.054 62.6754 16.0263 62.8982 15.9569C63.1211 15.8874 63.3021 15.8041 63.4692 15.7069C63.6364 15.6098 63.7617 15.4987 63.8592 15.3737C63.9567 15.2488 63.9985 15.1377 63.9985 15.0405V13.0829ZM71.2547 9.30639C71.4636 9.07036 71.7839 8.82045 72.2157 8.57053C72.6474 8.32062 73.2045 8.19566 73.8591 8.19566C74.3326 8.19566 74.7783 8.27897 75.2101 8.43169C75.6418 8.5983 76.0179 8.84821 76.3521 9.2092C76.6864 9.57019 76.951 10.0422 77.146 10.6254C77.341 11.2085 77.4385 11.9305 77.4385 12.7913C77.4385 13.7909 77.327 14.6101 77.0903 15.2627C76.8535 15.9152 76.561 16.415 76.1989 16.8038C75.8368 17.1787 75.4329 17.4425 74.9872 17.5952C74.5415 17.7479 74.0959 17.8312 73.6502 17.8312C73.2742 17.8312 72.9538 17.7896 72.6753 17.7063C72.3967 17.6229 72.16 17.5258 71.9789 17.4286C71.7839 17.3314 71.6446 17.2203 71.5332 17.1231C71.4357 17.0259 71.3661 16.9565 71.3382 16.9149V21.6354H68.7199V8.47334C68.7895 8.45946 68.8592 8.44558 68.9566 8.43169C69.0402 8.41781 69.1238 8.40392 69.2352 8.40392C69.3327 8.40392 69.458 8.39004 69.5973 8.39004C70.0291 8.39004 70.3912 8.45946 70.6836 8.5983C70.9901 8.73714 71.185 8.97317 71.2547 9.30639ZM74.7226 12.8468C74.7226 12.4581 74.6948 12.111 74.6251 11.7778C74.5555 11.4445 74.458 11.153 74.3048 10.9169C74.1516 10.6809 73.9566 10.4865 73.7059 10.3477C73.4552 10.2089 73.1488 10.1394 72.8006 10.1394C72.2714 10.1394 71.8953 10.2366 71.6864 10.4449C71.4775 10.6531 71.3661 10.8753 71.3661 11.1113V15.1794C71.4636 15.2765 71.6446 15.4015 71.9093 15.5403C72.1739 15.6792 72.4803 15.7486 72.8145 15.7486C73.4691 15.7486 73.9427 15.4987 74.2491 14.985C74.5694 14.4851 74.7226 13.7771 74.7226 12.8468ZM79.4719 16.1512C79.3883 15.9013 79.3187 15.6236 79.3047 15.346C79.2769 15.0683 79.2629 14.7767 79.2629 14.499V5.59934C79.3465 5.58546 79.444 5.57157 79.5554 5.55769C79.639 5.54381 79.7365 5.52992 79.8479 5.52992C79.9454 5.52992 80.0568 5.51604 80.1543 5.51604C80.3632 5.51604 80.5582 5.52992 80.7671 5.57157C80.976 5.61323 81.1571 5.68265 81.3242 5.8076C81.4913 5.91868 81.6306 6.08528 81.7281 6.27966C81.8256 6.47404 81.8813 6.73784 81.8813 7.05717V8.41781H84.5832V10.3616H81.8813V14.4574C81.8813 15.346 82.2434 15.7903 82.9816 15.7903C83.1626 15.7903 83.3298 15.7625 83.4969 15.7069C83.664 15.6514 83.8033 15.582 83.9286 15.5126C84.054 15.4431 84.1654 15.3737 84.2629 15.2904C84.3604 15.2071 84.43 15.1516 84.4718 15.1238C84.6668 15.4015 84.8061 15.6514 84.9175 15.8597C85.015 16.0679 85.0707 16.2623 85.0707 16.4428C85.0707 16.6094 85.001 16.776 84.8618 16.9426C84.7225 17.1092 84.5414 17.2481 84.2908 17.3869C84.0401 17.5258 83.7476 17.6368 83.3994 17.7201C83.0512 17.8034 82.6752 17.8451 82.2573 17.8451C81.4635 17.8451 80.8367 17.6924 80.405 17.3869C79.9732 17.0537 79.6529 16.6511 79.4719 16.1512ZM91.2127 15.9013C91.533 15.9013 91.8116 15.8597 92.0623 15.7903C92.3129 15.7208 92.5219 15.6375 92.7168 15.5265C92.9118 15.4293 93.079 15.3182 93.2182 15.1932C93.3575 15.0683 93.4828 14.9572 93.6082 14.86C93.7614 15.0544 93.9285 15.3043 94.0957 15.5959C94.2628 15.9013 94.3464 16.1374 94.3464 16.3317C94.3464 16.6094 94.1792 16.8732 93.8589 17.0954C93.5943 17.3036 93.2043 17.4702 92.7168 17.6229C92.2294 17.7757 91.6444 17.8451 90.9759 17.8451C90.377 17.8451 89.7782 17.7618 89.1932 17.6091C88.6083 17.4563 88.0929 17.1925 87.6333 16.8038C87.1737 16.415 86.8116 15.9013 86.5331 15.2627C86.2545 14.6101 86.1152 13.8048 86.1152 12.8191C86.1152 12.0138 86.2406 11.3196 86.4913 10.7364C86.742 10.1533 87.0762 9.66737 87.4941 9.2925C87.9119 8.90375 88.3854 8.62607 88.9147 8.44558C89.4439 8.26508 89.9731 8.18178 90.5302 8.18178C91.2545 8.18178 91.8533 8.29285 92.3547 8.515C92.8561 8.73714 93.26 9.04259 93.5803 9.41746C93.9007 9.79233 94.1235 10.2227 94.2628 10.7087C94.4021 11.1946 94.4717 11.7083 94.4717 12.2498V12.5136C94.4717 12.6108 94.4717 12.7219 94.4578 12.8329C94.4578 12.944 94.4438 13.0551 94.4438 13.1662C94.4438 13.2772 94.4299 13.3605 94.416 13.43H88.7336C88.7893 14.138 88.9982 14.7212 89.3882 15.1794C89.7642 15.6653 90.377 15.9013 91.2127 15.9013ZM92.0901 12.0138C92.0901 11.4029 91.9648 10.9031 91.728 10.5143C91.4912 10.1255 91.0595 9.94506 90.4467 9.94506C89.9174 9.94506 89.4996 10.1255 89.1793 10.4865C88.8589 10.8475 88.7057 11.3612 88.7057 12.0138H92.0901ZM99.012 9.34804C99.0956 9.23697 99.1931 9.11201 99.3185 8.97317C99.4438 8.83433 99.597 8.70937 99.792 8.5983C99.973 8.48723 100.182 8.39004 100.405 8.30674C100.628 8.23732 100.864 8.19566 101.129 8.19566C101.282 8.19566 101.449 8.20955 101.616 8.23732C101.784 8.26508 101.951 8.30674 102.104 8.37616C102.257 8.44558 102.369 8.54276 102.466 8.66772C102.55 8.79268 102.605 8.93152 102.605 9.11201C102.605 9.38969 102.536 9.70903 102.396 10.07C102.257 10.431 102.118 10.7364 101.979 11.0002C101.756 10.8198 101.547 10.6809 101.324 10.5837C101.101 10.4865 100.85 10.4449 100.558 10.4449C100.154 10.4449 99.8198 10.556 99.5552 10.792C99.2906 11.028 99.1513 11.2918 99.1513 11.625V17.8312H96.533V8.47334C96.6026 8.45946 96.6722 8.44558 96.7697 8.43169C96.8533 8.41781 96.9369 8.40392 97.0343 8.40392C97.1318 8.40392 97.2572 8.39004 97.3965 8.39004C97.8004 8.39004 98.1625 8.47334 98.4689 8.62607C98.7474 8.77879 98.9285 9.01482 99.012 9.34804ZM106.449 9.34804C106.533 9.23697 106.63 9.11201 106.756 8.97317C106.881 8.83433 107.034 8.70937 107.229 8.5983C107.41 8.48723 107.619 8.39004 107.842 8.30674C108.065 8.23732 108.302 8.19566 108.566 8.19566C108.719 8.19566 108.887 8.20955 109.054 8.23732C109.221 8.26508 109.388 8.30674 109.541 8.37616C109.694 8.44558 109.806 8.54276 109.903 8.66772C109.987 8.79268 110.043 8.93152 110.043 9.11201C110.043 9.38969 109.973 9.70903 109.834 10.07C109.694 10.431 109.555 10.7364 109.416 11.0002C109.193 10.8198 108.984 10.6809 108.761 10.5837C108.538 10.4865 108.288 10.4449 107.995 10.4449C107.591 10.4449 107.257 10.556 106.992 10.792C106.728 11.028 106.589 11.2918 106.589 11.625V17.8312H103.97V8.47334C104.04 8.45946 104.109 8.44558 104.207 8.43169C104.291 8.41781 104.374 8.40392 104.472 8.40392C104.569 8.40392 104.694 8.39004 104.834 8.39004C105.238 8.39004 105.6 8.47334 105.906 8.62607C106.185 8.77879 106.38 9.01482 106.449 9.34804ZM118.942 15.3043C118.942 16.3178 119.095 17.0537 119.388 17.5119C119.151 17.5952 118.942 17.6646 118.747 17.7063C118.552 17.7479 118.343 17.7618 118.12 17.7618C117.661 17.7618 117.313 17.6785 117.076 17.498C116.839 17.3175 116.686 17.0676 116.63 16.7344C116.352 17.0259 115.976 17.2758 115.516 17.4841C115.056 17.6924 114.485 17.7896 113.817 17.7896C113.469 17.7896 113.121 17.7479 112.772 17.6507C112.424 17.5535 112.118 17.4008 111.825 17.1787C111.547 16.9565 111.31 16.6649 111.129 16.304C110.948 15.943 110.864 15.4987 110.864 14.9711C110.864 14.3185 111.017 13.7909 111.338 13.3883C111.658 12.9857 112.048 12.6525 112.522 12.4164C112.995 12.1804 113.51 12.0138 114.068 11.9305C114.625 11.8472 115.126 11.7778 115.586 11.7639C115.739 11.75 115.892 11.75 116.031 11.75H116.449V11.4029C116.449 10.9169 116.324 10.556 116.059 10.3616C115.795 10.1533 115.363 10.0561 114.778 10.0561C114.193 10.0561 113.733 10.1394 113.302 10.3199C112.87 10.5004 112.452 10.7087 112.034 10.9308C111.853 10.7087 111.714 10.4727 111.602 10.2089C111.491 9.94506 111.435 9.75068 111.435 9.62572C111.435 9.44523 111.533 9.27862 111.728 9.11201C111.923 8.9454 112.201 8.79268 112.55 8.66772C112.898 8.52888 113.288 8.43169 113.747 8.34839C114.193 8.26508 114.666 8.22343 115.168 8.22343C115.864 8.22343 116.449 8.29285 116.923 8.43169C117.41 8.57053 117.8 8.79268 118.093 9.08424C118.399 9.37581 118.608 9.75068 118.733 10.1811C118.859 10.6254 118.928 11.1391 118.928 11.7222L118.942 15.3043ZM116.477 13.0829H116.212C116.129 13.0829 116.031 13.0829 115.948 13.0967C115.627 13.1245 115.307 13.1662 115.001 13.2078C114.68 13.2634 114.402 13.3467 114.165 13.4716C113.914 13.5966 113.719 13.7632 113.566 13.9714C113.413 14.1797 113.329 14.4435 113.329 14.7628C113.329 15.1238 113.427 15.4293 113.636 15.6792C113.845 15.9291 114.193 16.054 114.68 16.054C114.917 16.054 115.154 16.0263 115.377 15.9569C115.6 15.8874 115.781 15.8041 115.948 15.7069C116.115 15.6098 116.24 15.4987 116.338 15.3737C116.435 15.2488 116.477 15.1377 116.477 15.0405V13.0829Z" fill="white"/>
</g>
<g clip-path="url(#clip1_91_12790)">
<path d="M44.4205 40.8948L39.6114 40.5859L37.7963 36.0533L35.9812 40.5859L31.1824 40.8948L34.8642 44.0143L33.6542 48.7399L37.7963 46.13L41.9384 48.7399L40.7283 44.0143L44.4205 40.8948Z" fill="url(#paint0_linear_91_12790)"/>
</g>
<g clip-path="url(#clip2_91_12790)">
<path d="M61.5199 40.8948L56.7107 40.5859L54.8956 36.0533L53.0806 40.5859L48.2817 40.8948L51.9636 44.0143L50.7536 48.7399L54.8956 46.13L59.0377 48.7399L57.8277 44.0143L61.5199 40.8948Z" fill="url(#paint1_linear_91_12790)"/>
</g>
<g clip-path="url(#clip3_91_12790)">
<path d="M78.619 40.8948L73.8098 40.5859L71.9948 36.0533L70.1797 40.5859L65.3809 40.8948L69.0627 44.0143L67.8527 48.7399L71.9948 46.13L76.1369 48.7399L74.9268 44.0143L78.619 40.8948Z" fill="url(#paint2_linear_91_12790)"/>
</g>
<g clip-path="url(#clip4_91_12790)">
<path d="M95.7184 40.8948L90.9092 40.5859L89.0941 36.0533L87.2791 40.5859L82.4802 40.8948L86.1621 44.0143L84.952 48.7399L89.0941 46.13L93.2362 48.7399L92.0262 44.0143L95.7184 40.8948Z" fill="url(#paint3_linear_91_12790)"/>
</g>
<g clip-path="url(#clip5_91_12790)">
<path d="M112.818 40.8948L108.008 40.5859L106.193 36.0533L104.378 40.5859L99.5793 40.8948L103.261 44.0143L102.051 48.7399L106.193 46.13L110.335 48.7399L109.125 44.0143L112.818 40.8948Z" fill="url(#paint4_linear_91_12790)"/>
</g>
<defs>
<linearGradient id="paint0_linear_91_12790" x1="37.7911" y1="35.988" x2="37.8167" y2="48.291" gradientUnits="userSpaceOnUse">
<stop stop-color="#FFD400"/>
<stop offset="1" stop-color="#FDBF00"/>
</linearGradient>
<linearGradient id="paint1_linear_91_12790" x1="54.8905" y1="35.988" x2="54.9161" y2="48.291" gradientUnits="userSpaceOnUse">
<stop stop-color="#FFD400"/>
<stop offset="1" stop-color="#FDBF00"/>
</linearGradient>
<linearGradient id="paint2_linear_91_12790" x1="71.9896" y1="35.988" x2="72.0152" y2="48.291" gradientUnits="userSpaceOnUse">
<stop stop-color="#FFD400"/>
<stop offset="1" stop-color="#FDBF00"/>
</linearGradient>
<linearGradient id="paint3_linear_91_12790" x1="89.089" y1="35.988" x2="89.1146" y2="48.291" gradientUnits="userSpaceOnUse">
<stop stop-color="#FFD400"/>
<stop offset="1" stop-color="#FDBF00"/>
</linearGradient>
<linearGradient id="paint4_linear_91_12790" x1="106.188" y1="35.988" x2="106.214" y2="48.291" gradientUnits="userSpaceOnUse">
<stop stop-color="#FFD400"/>
<stop offset="1" stop-color="#FDBF00"/>
</linearGradient>
<clipPath id="clip0_91_12790">
<rect width="94.7762" height="20.8955" fill="white" transform="translate(24.6118 0.739929)"/>
</clipPath>
<clipPath id="clip1_91_12790">
<rect width="13.2382" height="12.6866" fill="white" transform="translate(31.1824 36.0533)"/>
</clipPath>
<clipPath id="clip2_91_12790">
<rect width="13.2382" height="12.6866" fill="white" transform="translate(48.2817 36.0533)"/>
</clipPath>
<clipPath id="clip3_91_12790">
<rect width="13.2382" height="12.6866" fill="white" transform="translate(65.3809 36.0533)"/>
</clipPath>
<clipPath id="clip4_91_12790">
<rect width="13.2382" height="12.6866" fill="white" transform="translate(82.4802 36.0533)"/>
</clipPath>
<clipPath id="clip5_91_12790">
<rect width="13.2382" height="12.6866" fill="white" transform="translate(99.5793 36.0533)"/>
</clipPath>
</defs>
</svg>
