<svg xmlns="http://www.w3.org/2000/svg" viewBox="0 0 72 72" fill="#8f8f8f"><path d="M35.723 5C26.965 5 20 12.151 20 20.862c0 8.806 6.965 15.959 15.723 15.959 8.805 0 15.676-7.152 15.676-15.956C51.401 12.154 44.528 5 35.723 5zm0 6.733c7.151 0 12.39 4.542 14.604 9.132-2.214 4.66-7.453 9.224-14.604 9.224-7.198 0-12.395-4.565-14.607-9.224 2.212-4.589 7.411-9.129 14.607-9.129v-.003zm0 .722c-4.659 0-8.457 3.771-8.457 8.407 0 4.707 3.798 8.457 8.457 8.457s8.407-3.751 8.407-8.454c0-4.636-3.748-8.41-8.407-8.41zM13.955 38.762C5.731 38.762 0 45.004 0 52.597v.092c0 7.687 5.848 13.769 13.746 13.769 5.148 0 8.224-1.841 10.973-4.8l-3.751-3.77c-2.098 1.908-3.987 3.146-7.038 3.146-4.589 0-7.78-3.848-7.78-8.435v-.069c0-4.589 3.261-8.341 7.78-8.341 2.679 0 4.776 1.142 6.85 3.029l3.751-4.334c-2.493-2.445-5.52-4.12-10.576-4.12zm12.983.464v26.763h12.741c6.032 0 10.015-2.443 10.015-7.333v-.094c0-3.587-1.908-5.382-5.009-6.569 1.911-1.07 3.518-2.747 3.518-5.775v-.069c0-1.843-.606-3.333-1.841-4.567-1.535-1.513-3.935-2.355-6.988-2.355H26.938zm5.728 5.148h5.825c2.493 0 3.865 1.002 3.865 2.749v.094c0 1.98-1.653 2.818-4.262 2.818l-5.428.003v-5.664zm0 10.556h6.827c3.002 0 4.353 1.119 4.353 2.913v.092c0 1.98-1.582 2.888-4.167 2.888l-7.013.003v-5.895zm28.575-16.098c-5.45 0-9.362 3.214-9.362 8.08v.072c0 5.313 3.492 6.805 8.874 8.18 4.473 1.163 5.403 1.908 5.403 3.398v.094c0 1.559-1.469 2.516-3.868 2.516-3.076 0-5.59-1.26-7.991-3.24l-3.493 4.17c3.214 2.865 7.313 4.265 11.367 4.265v-.003c5.777 0 9.829-2.983 9.829-8.291v-.069c0-4.681-3.073-6.619-8.502-8.038-4.611-1.19-5.778-1.771-5.778-3.518v-.069c0-1.304 1.188-2.352 3.448-2.352s4.59 1 6.966 2.652l3.051-4.445c-2.703-2.166-6.032-3.401-9.945-3.401z"/></svg>