<svg width="352" height="239" viewBox="0 0 352 239" fill="none" xmlns="http://www.w3.org/2000/svg">
<g clip-path="url(#clip0_1_2905)">
<g clip-path="url(#clip1_1_2905)">
<g filter="url(#filter0_d_1_2905)">
<path d="M84.8334 7.32316H331.873C334.997 7.32316 337.538 10.0058 337.538 13.3266V212.062C337.538 215.383 334.997 218.065 331.873 218.065H84.8334C81.7093 218.065 79.1675 215.383 79.1675 212.062V13.3262C79.1675 10.0054 81.7093 7.32316 84.8334 7.32316Z" fill="white" stroke="#A8A8A8" stroke-width="0.185534"/>
</g>
<path d="M120.117 72.5548H120.711L119.479 69.1108H118.826L117.594 72.5548H118.182L118.43 71.852H119.87L120.117 72.5548ZM119.711 71.3921H118.588L119.152 69.7935L119.711 71.3921ZM121.059 71.1889C121.059 72.0453 121.613 72.5995 122.395 72.5995C123.063 72.5995 123.498 72.2284 123.652 71.6939H123.043C122.939 71.9757 122.732 72.1244 122.395 72.1244C121.939 72.1244 121.638 71.7877 121.638 71.1889C121.638 70.5955 121.939 70.2588 122.395 70.2588C122.732 70.2588 122.949 70.4271 123.043 70.6893H123.652C123.498 70.1155 123.063 69.7837 122.395 69.7837C121.613 69.7837 121.059 70.3379 121.059 71.1889ZM124.026 71.1889C124.026 72.0453 124.58 72.5995 125.362 72.5995C126.03 72.5995 126.466 72.2284 126.619 71.6939H126.01C125.907 71.9757 125.698 72.1244 125.362 72.1244C124.907 72.1244 124.605 71.7877 124.605 71.1889C124.605 70.5955 124.907 70.2588 125.362 70.2588C125.698 70.2588 125.916 70.4271 126.01 70.6893H126.619C126.466 70.1155 126.03 69.7837 125.362 69.7837C124.58 69.7837 124.026 70.3379 124.026 71.1889ZM129.779 71.1889C129.779 70.3329 129.165 69.7837 128.389 69.7837C127.612 69.7837 126.998 70.3329 126.998 71.1889C126.998 72.0449 127.587 72.5995 128.364 72.5995C129.146 72.5995 129.779 72.0453 129.779 71.1889ZM127.572 71.1889C127.572 70.5705 127.953 70.2735 128.379 70.2735C128.799 70.2735 129.2 70.5705 129.2 71.1889C129.2 71.8074 128.785 72.1096 128.364 72.1096C127.938 72.1096 127.572 71.8078 127.572 71.1889ZM132.806 69.8284H132.242V71.3474C132.242 71.8471 131.97 72.1047 131.554 72.1047C131.143 72.1047 130.871 71.8471 130.871 71.3474V69.8284H130.312V71.4314C130.312 72.1936 130.797 72.5946 131.435 72.5946C131.757 72.5946 132.064 72.4611 132.242 72.2284V72.5548H132.806V69.8284ZM135.485 72.5548H136.044V70.9465C136.044 70.1847 135.564 69.7837 134.926 69.7837C134.599 69.7837 134.297 69.9172 134.114 70.14V69.8284H133.55V72.5548H134.114V71.0308C134.114 70.5312 134.387 70.2735 134.802 70.2735C135.213 70.2735 135.485 70.5312 135.485 71.0308V72.5548ZM136.853 71.798C136.853 72.3521 137.155 72.5548 137.64 72.5548H138.085V72.0847H137.739C137.501 72.0847 137.422 72.0007 137.422 71.798V70.2883H138.085V69.8284H137.422V69.1505H136.853V69.8284H136.532V70.2883H136.853V71.798ZM140.639 71.7926C140.609 70.808 139.07 71.1148 139.07 70.5656C139.07 70.3825 139.229 70.2588 139.53 70.2588C139.837 70.2588 140.02 70.4222 140.04 70.6598H140.604C140.574 70.1155 140.169 69.7837 139.55 69.7837C138.907 69.7837 138.501 70.1351 138.501 70.5705C138.501 71.5702 140.085 71.2635 140.085 71.798C140.085 71.986 139.911 72.1244 139.585 72.1244C139.273 72.1244 139.06 71.9413 139.041 71.7185H138.457C138.481 72.2133 138.941 72.5995 139.595 72.5995C140.238 72.5995 140.639 72.253 140.639 71.7926ZM144.36 70.1449C144.36 70.4865 144.162 70.729 143.722 70.729H143.098V69.5761H143.722C144.162 69.5761 144.36 69.7985 144.36 70.1449ZM142.534 69.1157V72.5548H143.098V71.1791H143.529L144.32 72.5548H144.993L144.142 71.1296C144.721 70.9862 144.939 70.5508 144.939 70.1449C144.939 69.5859 144.538 69.1157 143.722 69.1157H142.534ZM146.808 70.2588C147.229 70.2588 147.561 70.5258 147.571 70.9465H146.061C146.121 70.516 146.428 70.2588 146.808 70.2588ZM148.085 71.7435H147.476C147.373 71.9561 147.179 72.1244 146.833 72.1244C146.418 72.1244 146.096 71.852 146.056 71.4019H148.14C148.154 71.3102 148.16 71.2174 148.16 71.1246C148.16 70.3231 147.61 69.7837 146.833 69.7837C146.027 69.7837 145.472 70.3329 145.472 71.1889C145.472 72.0449 146.052 72.5995 146.833 72.5995C147.501 72.5995 147.932 72.2186 148.085 71.7435ZM148.527 71.1889C148.527 72.0453 149.081 72.5995 149.863 72.5995C150.531 72.5995 150.966 72.2284 151.12 71.6939H150.511C150.407 71.9757 150.199 72.1244 149.863 72.1244C149.408 72.1244 149.106 71.7877 149.106 71.1889C149.106 70.5955 149.408 70.2588 149.863 70.2588C150.199 70.2588 150.417 70.4271 150.511 70.6893H151.12C150.966 70.1155 150.531 69.7837 149.863 69.7837C149.081 69.7837 148.527 70.3379 148.527 71.1889ZM151.682 72.5548H152.246V69.8284H151.682V72.5548ZM151.969 69.4671C152.016 69.4671 152.063 69.4577 152.106 69.4395C152.15 69.4213 152.189 69.3946 152.222 69.361C152.255 69.3274 152.282 69.2875 152.299 69.2437C152.317 69.1999 152.326 69.1531 152.325 69.1059C152.325 68.9027 152.167 68.7446 151.969 68.7446C151.873 68.7446 151.781 68.7827 151.713 68.8504C151.645 68.9182 151.607 69.0101 151.607 69.1059C151.607 69.2017 151.645 69.2936 151.713 69.3613C151.781 69.4291 151.873 69.4671 151.969 69.4671ZM154.134 70.2588C154.555 70.2588 154.887 70.5258 154.897 70.9465H153.387C153.447 70.516 153.753 70.2588 154.134 70.2588ZM155.411 71.7435H154.803C154.699 71.9561 154.506 72.1244 154.159 72.1244C153.744 72.1244 153.422 71.852 153.382 71.4019H155.466C155.481 71.3077 155.486 71.2188 155.486 71.1246C155.486 70.3231 154.936 69.7837 154.159 69.7837C153.353 69.7837 152.798 70.3329 152.798 71.1889C152.798 72.0449 153.377 72.5995 154.159 72.5995C154.827 72.5995 155.258 72.2186 155.411 71.7435ZM155.719 69.8284L156.753 72.5548H157.426L158.466 69.8284H157.867L157.095 72.0503L156.323 69.8284H155.719ZM158.704 71.1791C158.704 72.0204 159.273 72.5995 159.981 72.5995C160.436 72.5995 160.762 72.3816 160.936 72.149V72.5548H161.505V69.8284H160.936V70.224C160.767 70.0016 160.451 69.7837 159.99 69.7837C159.273 69.7837 158.704 70.3378 158.704 71.1791ZM160.936 71.1889C160.936 71.7779 160.535 72.1096 160.109 72.1096C159.689 72.1096 159.283 71.7681 159.283 71.1791C159.283 70.5901 159.689 70.2735 160.109 70.2735C160.535 70.2735 160.936 70.6053 160.936 71.1889ZM162.81 70.2342V68.8929H162.245V72.5548H162.81V72.1592C162.988 72.3963 163.31 72.5995 163.76 72.5995C164.477 72.5995 165.042 72.0204 165.042 71.1791C165.042 70.3378 164.482 69.7837 163.76 69.7837C163.329 69.7837 162.988 69.9864 162.81 70.2342ZM164.467 71.1791C164.467 71.7681 164.061 72.1096 163.636 72.1096C163.215 72.1096 162.81 71.7779 162.81 71.1889C162.81 70.6053 163.215 70.2735 163.636 70.2735C164.061 70.2735 164.467 70.5901 164.467 71.1791ZM165.599 72.5548H166.163V68.8929H165.599V72.5548ZM168.052 70.2588C168.473 70.2588 168.804 70.5258 168.814 70.9465H167.305C167.364 70.516 167.671 70.2588 168.052 70.2588ZM169.329 71.7435H168.72C168.616 71.9561 168.423 72.1244 168.077 72.1244C167.661 72.1244 167.34 71.852 167.3 71.4019H169.383C169.397 71.3102 169.404 71.2174 169.403 71.1246C169.403 70.3231 168.854 69.7837 168.077 69.7837C167.27 69.7837 166.716 70.3329 166.716 71.1889C166.716 72.0449 167.295 72.5995 168.077 72.5995C168.745 72.5995 169.175 72.2186 169.329 71.7435Z" fill="black"/>
<path d="M121.122 91.1031C121.122 90.0738 120.345 89.3464 119.365 89.3464C118.395 89.3464 117.608 90.0738 117.608 91.1031C117.608 92.1376 118.395 92.865 119.365 92.865C120.345 92.865 121.122 92.1376 121.122 91.1031ZM118.187 91.1031C118.187 90.3261 118.682 89.8412 119.365 89.8412C120.048 89.8412 120.543 90.3261 120.543 91.1031C120.543 91.88 120.048 92.3748 119.365 92.3748C118.683 92.3748 118.187 91.88 118.187 91.1031ZM122.241 90.5043V90.1037H121.677V94.1269H122.241V92.4342C122.357 92.5729 122.503 92.6843 122.667 92.7604C122.831 92.8366 123.01 92.8757 123.191 92.8749C123.909 92.8749 124.473 92.2957 124.473 91.4545C124.473 90.6132 123.909 90.0591 123.191 90.0591C122.746 90.0591 122.414 90.277 122.241 90.5043ZM123.899 91.4545C123.899 92.0434 123.493 92.385 123.067 92.385C122.647 92.385 122.241 92.0533 122.241 91.4643C122.241 90.8807 122.647 90.5489 123.067 90.5489C123.493 90.5489 123.899 90.8655 123.899 91.4545ZM126.179 90.5342C126.6 90.5342 126.931 90.8012 126.941 91.2218H125.431C125.491 90.7914 125.798 90.5342 126.179 90.5342ZM127.456 92.0189H126.847C126.743 92.2314 126.55 92.3998 126.203 92.3998C125.788 92.3998 125.466 92.1274 125.426 91.6773H127.51C127.525 91.5831 127.53 91.4942 127.53 91.4C127.53 90.5985 126.98 90.0591 126.203 90.0591C125.397 90.0591 124.842 90.6083 124.842 91.4643C124.842 92.3203 125.422 92.8749 126.203 92.8749C126.871 92.8749 127.302 92.4935 127.456 92.0189ZM128.649 91.3951C128.649 90.8164 128.906 90.6431 129.322 90.6431H129.465V90.0591C129.079 90.0591 128.807 90.2274 128.649 90.4994V90.1037H128.085V92.8302H128.649V91.3951ZM129.796 91.4545C129.796 92.2957 130.365 92.8749 131.073 92.8749C131.528 92.8749 131.854 92.657 132.028 92.4243V92.8302H132.597V90.1037H132.028V90.4994C131.86 90.277 131.543 90.0591 131.083 90.0591C130.365 90.0591 129.796 90.6132 129.796 91.4545ZM132.028 91.4643C132.028 92.0533 131.627 92.385 131.201 92.385C130.781 92.385 130.375 92.0434 130.375 91.4545C130.375 90.8655 130.781 90.5489 131.201 90.5489C131.627 90.5489 132.028 90.8807 132.028 91.4643ZM133.427 92.0729C133.427 92.6275 133.728 92.8302 134.213 92.8302H134.659V92.36H134.312C134.075 92.36 133.996 92.2761 133.996 92.0729V90.5637H134.659V90.1037H133.996V89.4259H133.427V90.1037H133.105V90.5637H133.427V92.0729ZM135.179 92.8302H135.743V90.1037H135.179V92.8302ZM135.466 89.7425C135.513 89.7425 135.56 89.7331 135.603 89.7149C135.647 89.6967 135.686 89.67 135.72 89.6364C135.753 89.6028 135.779 89.5629 135.796 89.5191C135.814 89.4753 135.823 89.4284 135.822 89.3812C135.822 89.2861 135.784 89.1948 135.717 89.1275C135.65 89.0603 135.559 89.0225 135.463 89.0225C135.368 89.0225 135.277 89.0603 135.21 89.1275C135.142 89.1948 135.105 89.2861 135.105 89.3812C135.104 89.4289 135.113 89.4761 135.131 89.5203C135.149 89.5644 135.175 89.6045 135.209 89.6382C135.243 89.6718 135.283 89.6984 135.327 89.7163C135.371 89.7343 135.418 89.7431 135.466 89.7425ZM138.418 92.8302H138.977V91.2218C138.977 90.46 138.497 90.0591 137.859 90.0591C137.533 90.0591 137.231 90.1926 137.048 90.4154V90.1037H136.484V92.8302H137.048V91.3062C137.048 90.8061 137.32 90.5489 137.736 90.5489C138.146 90.5489 138.418 90.8061 138.418 91.3062V92.8302ZM139.509 91.4545C139.509 92.2957 140.078 92.8749 140.796 92.8749C141.241 92.8749 141.568 92.6521 141.741 92.4194V92.8749C141.741 93.4192 141.414 93.6862 140.979 93.6862C140.588 93.6862 140.286 93.4933 140.202 93.2111H139.643C139.712 93.8148 140.252 94.1761 140.979 94.1761C141.83 94.1761 142.31 93.617 142.31 92.8749V90.1037H141.741V90.4994C141.573 90.2667 141.241 90.0591 140.796 90.0591C140.078 90.0591 139.509 90.6132 139.509 91.4545ZM141.741 91.4643C141.741 92.0533 141.34 92.385 140.915 92.385C140.494 92.385 140.088 92.0434 140.088 91.4545C140.088 90.8655 140.494 90.5489 140.915 90.5489C141.34 90.5489 141.741 90.8807 141.741 91.4643ZM146.657 92.8302H147.251L146.019 89.3862H145.366L144.134 92.8302H144.722L144.97 92.1274H146.41L146.657 92.8302ZM146.251 91.6674H145.128L145.692 90.0689L146.251 91.6674ZM147.599 91.4643C147.599 92.3207 148.153 92.8749 148.935 92.8749C149.603 92.8749 150.038 92.5038 150.192 91.9693H149.583C149.479 92.2511 149.271 92.3998 148.935 92.3998C148.479 92.3998 148.178 92.0631 148.178 91.4643C148.178 90.8704 148.479 90.5342 148.935 90.5342C149.271 90.5342 149.489 90.7025 149.583 90.9646H150.192C150.038 90.3908 149.603 90.0591 148.935 90.0591C148.153 90.0591 147.599 90.6132 147.599 91.4643ZM150.566 91.4643C150.566 92.3207 151.12 92.8749 151.902 92.8749C152.57 92.8749 153.006 92.5038 153.159 91.9693H152.55C152.446 92.2511 152.238 92.3998 151.902 92.3998C151.447 92.3998 151.145 92.0631 151.145 91.4643C151.145 90.8704 151.447 90.5342 151.902 90.5342C152.238 90.5342 152.456 90.7025 152.55 90.9646H153.159C153.006 90.3908 152.57 90.0591 151.902 90.0591C151.12 90.0591 150.566 90.6132 150.566 91.4643ZM156.319 91.4643C156.319 90.6083 155.705 90.0591 154.929 90.0591C154.152 90.0591 153.538 90.6083 153.538 91.4643C153.538 92.3203 154.127 92.8749 154.904 92.8749C155.685 92.8749 156.319 92.3207 156.319 91.4643ZM154.112 91.4643C154.112 90.8459 154.493 90.5489 154.919 90.5489C155.339 90.5489 155.74 90.8459 155.74 91.4643C155.74 92.0828 155.324 92.385 154.904 92.385C154.478 92.385 154.112 92.0832 154.112 91.4643ZM159.346 90.1037H158.782V91.6228C158.782 92.1225 158.51 92.3801 158.094 92.3801C157.683 92.3801 157.411 92.1225 157.411 91.6228V90.1037H156.852V91.7068C156.852 92.469 157.337 92.8699 157.975 92.8699C158.297 92.8699 158.604 92.736 158.782 92.5038V92.8302H159.346V90.1037ZM162.025 92.8302H162.584V91.2218C162.584 90.46 162.104 90.0591 161.466 90.0591C161.139 90.0591 160.837 90.1926 160.654 90.4154V90.1037H160.09V92.8302H160.654V91.3062C160.654 90.8061 160.927 90.5489 161.342 90.5489C161.753 90.5489 162.025 90.8061 162.025 91.3062V92.8302ZM163.393 92.0729C163.393 92.6275 163.695 92.8302 164.18 92.8302H164.625V92.36H164.279C164.041 92.36 163.962 92.2761 163.962 92.0729V90.5637H164.625V90.1037H163.962V89.4259H163.393V90.1037H163.071V90.5637H163.393V92.0729ZM121.122 112.401C121.122 111.371 120.345 110.644 119.365 110.644C118.395 110.644 117.608 111.371 117.608 112.401C117.608 113.435 118.395 114.163 119.365 114.163C120.345 114.163 121.122 113.435 121.122 112.401ZM118.187 112.401C118.187 111.624 118.682 111.139 119.365 111.139C120.048 111.139 120.543 111.624 120.543 112.401C120.543 113.178 120.048 113.672 119.365 113.672C118.683 113.672 118.187 113.178 118.187 112.401ZM122.241 111.802V111.401H121.677V115.424H122.241V113.732C122.357 113.87 122.503 113.982 122.667 114.058C122.831 114.134 123.01 114.173 123.191 114.172C123.909 114.172 124.473 113.593 124.473 112.752C124.473 111.911 123.909 111.357 123.191 111.357C122.746 111.357 122.414 111.575 122.241 111.802ZM123.899 112.752C123.899 113.341 123.493 113.683 123.067 113.683C122.647 113.683 122.241 113.351 122.241 112.762C122.241 112.178 122.647 111.846 123.067 111.846C123.493 111.846 123.899 112.163 123.899 112.752ZM126.179 111.832C126.6 111.832 126.931 112.099 126.941 112.519H125.431C125.491 112.089 125.798 111.832 126.179 111.832ZM127.456 113.316H126.847C126.743 113.529 126.55 113.697 126.203 113.697C125.788 113.697 125.466 113.425 125.426 112.975H127.51C127.525 112.881 127.53 112.792 127.53 112.698C127.53 111.896 126.98 111.357 126.203 111.357C125.397 111.357 124.842 111.906 124.842 112.762C124.842 113.618 125.422 114.172 126.203 114.172C126.871 114.172 127.302 113.791 127.456 113.316ZM130.02 114.128H130.579V112.519C130.579 111.758 130.099 111.357 129.46 111.357C129.134 111.357 128.832 111.49 128.649 111.713V111.401H128.085V114.128H128.649V112.604C128.649 112.104 128.921 111.846 129.337 111.846C129.747 111.846 130.02 112.104 130.02 112.604V114.128ZM131.298 114.128H131.862V111.401H131.298V114.128ZM131.586 111.04C131.783 111.04 131.942 110.882 131.942 110.679C131.942 110.476 131.783 110.318 131.586 110.318C131.49 110.318 131.398 110.356 131.33 110.423C131.262 110.491 131.224 110.583 131.224 110.679C131.224 110.775 131.262 110.866 131.33 110.934C131.398 111.002 131.49 111.04 131.586 111.04ZM134.538 114.128H135.097V112.519C135.097 111.758 134.617 111.357 133.979 111.357C133.652 111.357 133.35 111.49 133.167 111.713V111.401H132.603V114.128H133.167V112.604C133.167 112.104 133.439 111.846 133.855 111.846C134.266 111.846 134.538 112.104 134.538 112.604V114.128ZM135.629 112.752C135.629 113.593 136.198 114.172 136.915 114.172C137.361 114.172 137.687 113.95 137.861 113.717V114.172C137.861 114.717 137.534 114.984 137.098 114.984C136.708 114.984 136.406 114.791 136.321 114.509H135.762C135.832 115.112 136.371 115.474 137.098 115.474C137.949 115.474 138.429 114.915 138.429 114.172V111.401H137.861V111.797C137.692 111.564 137.361 111.357 136.915 111.357C136.198 111.357 135.629 111.911 135.629 112.752ZM137.861 112.762C137.861 113.351 137.46 113.683 137.034 113.683C136.613 113.683 136.208 113.341 136.208 112.752C136.208 112.163 136.613 111.846 137.034 111.846C137.46 111.846 137.861 112.178 137.861 112.762ZM142.396 113.143C142.396 113.475 142.163 113.667 141.782 113.667H141.02V112.594H141.762C142.139 112.594 142.396 112.802 142.396 113.143ZM142.306 111.644C142.306 111.96 142.084 112.134 141.718 112.134H141.02V111.149H141.718C142.084 111.149 142.306 111.332 142.306 111.644ZM142.96 113.203C142.96 112.792 142.663 112.426 142.297 112.361C142.628 112.243 142.881 111.99 142.881 111.575C142.881 111.09 142.495 110.689 141.767 110.689H140.456V114.128H141.832C142.534 114.128 142.96 113.727 142.96 113.203ZM143.385 112.752C143.385 113.593 143.954 114.172 144.661 114.172C145.117 114.172 145.443 113.955 145.617 113.722V114.128H146.185V111.401H145.617V111.797C145.448 111.575 145.132 111.357 144.671 111.357C143.954 111.357 143.385 111.911 143.385 112.752ZM145.617 112.762C145.617 113.351 145.216 113.683 144.79 113.683C144.369 113.683 143.964 113.341 143.964 112.752C143.964 112.163 144.369 111.846 144.79 111.846C145.216 111.846 145.617 112.178 145.617 112.762ZM146.927 114.128H147.491V110.466H146.927V114.128ZM148.043 112.752C148.043 113.593 148.613 114.172 149.32 114.172C149.775 114.172 150.102 113.955 150.275 113.722V114.128H150.844V111.401H150.275V111.797C150.107 111.575 149.79 111.357 149.33 111.357C148.613 111.357 148.043 111.911 148.043 112.752ZM150.275 112.762C150.275 113.351 149.874 113.683 149.449 113.683C149.028 113.683 148.622 113.341 148.622 112.752C148.622 112.163 149.028 111.846 149.449 111.846C149.874 111.846 150.275 112.178 150.275 112.762ZM153.52 114.128H154.079V112.519C154.079 111.758 153.599 111.357 152.961 111.357C152.634 111.357 152.332 111.49 152.149 111.713V111.401H151.585V114.128H152.149V112.604C152.149 112.104 152.422 111.846 152.837 111.846C153.248 111.846 153.52 112.104 153.52 112.604V114.128ZM154.611 112.762C154.611 113.618 155.165 114.172 155.947 114.172C156.615 114.172 157.05 113.801 157.204 113.267H156.595C156.491 113.549 156.283 113.697 155.947 113.697C155.491 113.697 155.189 113.361 155.189 112.762C155.189 112.168 155.491 111.832 155.947 111.832C156.283 111.832 156.501 112 156.595 112.262H157.204C157.05 111.688 156.615 111.357 155.947 111.357C155.165 111.357 154.611 111.911 154.611 112.762ZM158.914 111.832C159.335 111.832 159.666 112.099 159.676 112.519H158.167C158.226 112.089 158.533 111.832 158.914 111.832ZM160.191 113.316H159.582C159.478 113.529 159.285 113.697 158.939 113.697C158.523 113.697 158.201 113.425 158.162 112.975H160.245C160.26 112.881 160.265 112.792 160.265 112.698C160.265 111.896 159.716 111.357 158.939 111.357C158.132 111.357 157.578 111.906 157.578 112.762C157.578 113.618 158.157 114.172 158.939 114.172C159.607 114.172 160.037 113.791 160.191 113.316ZM121.122 130.012C121.122 128.983 120.345 128.255 119.365 128.255C118.395 128.255 117.608 128.983 117.608 130.012C117.608 131.047 118.395 131.774 119.365 131.774C120.345 131.774 121.122 131.047 121.122 130.012ZM118.187 130.012C118.187 129.235 118.682 128.75 119.365 128.75C120.048 128.75 120.543 129.235 120.543 130.012C120.543 130.789 120.048 131.284 119.365 131.284C118.683 131.284 118.187 130.789 118.187 130.012ZM122.206 131.739H122.8L123.35 129.725L123.899 131.739H124.493L125.339 129.013H124.785L124.22 131.195L123.666 129.013H123.077L122.499 131.205L121.929 129.013H121.355L122.206 131.739ZM127.695 131.739H128.255V130.131C128.255 129.369 127.775 128.968 127.136 128.968C126.81 128.968 126.508 129.102 126.325 129.324V129.013H125.76V131.739H126.325V130.215C126.325 129.715 126.597 129.458 127.012 129.458C127.423 129.458 127.695 129.715 127.695 130.215V131.739ZM130.122 129.443C130.543 129.443 130.874 129.71 130.884 130.131H129.375C129.434 129.7 129.741 129.443 130.122 129.443ZM131.399 130.928H130.79C130.686 131.14 130.493 131.309 130.147 131.309C129.731 131.309 129.41 131.036 129.37 130.586H131.453C131.468 130.492 131.473 130.403 131.473 130.309C131.473 129.507 130.924 128.968 130.147 128.968C129.34 128.968 128.786 129.517 128.786 130.373C128.786 131.229 129.365 131.784 130.147 131.784C130.815 131.784 131.245 131.403 131.399 130.928ZM132.592 130.304C132.592 129.725 132.85 129.552 133.265 129.552H133.409V128.968C133.023 128.968 132.75 129.136 132.592 129.408V129.013H132.028V131.739H132.592V130.304ZM136.336 128.3H135.213V131.739H136.336C137.44 131.739 138.162 131.091 138.162 130.032C138.162 128.968 137.44 128.3 136.336 128.3ZM135.777 131.279V128.76H136.336C137.148 128.76 137.583 129.245 137.583 130.032C137.583 130.814 137.148 131.279 136.336 131.279H135.777ZM138.721 131.739H139.285V129.013H138.721V131.739ZM139.008 128.651C139.055 128.651 139.102 128.642 139.146 128.624C139.189 128.606 139.229 128.579 139.262 128.545C139.295 128.512 139.321 128.472 139.339 128.428C139.356 128.384 139.365 128.337 139.365 128.29C139.365 128.195 139.327 128.104 139.259 128.037C139.192 127.969 139.101 127.931 139.006 127.931C138.911 127.931 138.819 127.969 138.752 128.037C138.685 128.104 138.647 128.195 138.647 128.29C138.646 128.338 138.655 128.385 138.673 128.429C138.691 128.473 138.718 128.513 138.751 128.547C138.785 128.581 138.825 128.607 138.869 128.625C138.913 128.643 138.961 128.652 139.008 128.651ZM142.059 130.977C142.03 129.992 140.491 130.299 140.491 129.75C140.491 129.567 140.649 129.443 140.951 129.443C141.258 129.443 141.441 129.607 141.461 129.844H142.025C141.995 129.3 141.59 128.968 140.971 128.968C140.328 128.968 139.922 129.319 139.922 129.755C139.922 130.755 141.505 130.448 141.505 130.982C141.505 131.17 141.332 131.309 141.006 131.309C140.694 131.309 140.481 131.126 140.461 130.903H139.877C139.902 131.398 140.362 131.784 141.015 131.784C141.659 131.784 142.059 131.437 142.059 130.977ZM142.758 130.982C142.758 131.536 143.06 131.739 143.545 131.739H143.991V131.269H143.644C143.407 131.269 143.327 131.185 143.327 130.982V129.473H143.991V129.013H143.327V128.335H142.758V129.013H142.437V129.473H142.758V130.982ZM145.074 130.304C145.074 129.725 145.332 129.552 145.748 129.552H145.891V128.968C145.505 128.968 145.233 129.136 145.074 129.408V129.013H144.51V131.739H145.074V130.304ZM146.41 131.739H146.973V129.013H146.41V131.739ZM146.697 128.651C146.744 128.651 146.791 128.642 146.834 128.624C146.878 128.606 146.917 128.579 146.95 128.545C146.983 128.512 147.01 128.472 147.027 128.428C147.045 128.384 147.054 128.337 147.053 128.29C147.053 128.195 147.015 128.104 146.948 128.037C146.881 127.969 146.789 127.931 146.694 127.931C146.599 127.931 146.508 127.969 146.44 128.037C146.373 128.104 146.335 128.195 146.335 128.29C146.335 128.338 146.344 128.385 146.362 128.429C146.379 128.473 146.406 128.513 146.44 128.547C146.473 128.581 146.513 128.607 146.558 128.625C146.602 128.643 146.649 128.652 146.697 128.651ZM148.278 129.418V128.077H147.714V131.739H148.278V131.343C148.457 131.581 148.778 131.784 149.229 131.784C149.946 131.784 150.51 131.205 150.51 130.363C150.51 129.522 149.951 128.968 149.229 128.968C148.798 128.968 148.457 129.171 148.278 129.418ZM149.936 130.363C149.936 130.952 149.53 131.294 149.105 131.294C148.684 131.294 148.278 130.962 148.278 130.373C148.278 129.79 148.684 129.458 149.105 129.458C149.53 129.458 149.936 129.774 149.936 130.363ZM153.537 129.013H152.973V130.532C152.973 131.031 152.701 131.289 152.285 131.289C151.875 131.289 151.602 131.031 151.602 130.532V129.013H151.043V130.616C151.043 131.378 151.528 131.779 152.166 131.779C152.488 131.779 152.795 131.645 152.973 131.413V131.739H153.537V129.013ZM154.371 130.982C154.371 131.536 154.673 131.739 155.157 131.739H155.603V131.269H155.257C155.019 131.269 154.94 131.185 154.94 130.982V129.473H155.603V129.013H154.94V128.335H154.371V129.013H154.049V129.473H154.371V130.982ZM156.123 131.739H156.687V129.013H156.123V131.739ZM156.41 128.651C156.457 128.651 156.504 128.642 156.547 128.624C156.591 128.606 156.63 128.579 156.664 128.545C156.697 128.512 156.723 128.472 156.741 128.428C156.758 128.384 156.767 128.337 156.766 128.29C156.766 128.195 156.728 128.104 156.661 128.037C156.594 127.969 156.503 127.931 156.407 127.931C156.312 127.931 156.221 127.969 156.154 128.037C156.086 128.104 156.049 128.195 156.049 128.29C156.048 128.338 156.057 128.385 156.075 128.429C156.093 128.473 156.119 128.513 156.153 128.547C156.187 128.581 156.227 128.607 156.271 128.625C156.315 128.643 156.362 128.652 156.41 128.651ZM160.026 130.373C160.026 129.517 159.412 128.968 158.635 128.968C157.858 128.968 157.245 129.517 157.245 130.373C157.245 131.229 157.833 131.784 158.61 131.784C159.392 131.784 160.026 131.23 160.026 130.373ZM157.818 130.373C157.818 129.755 158.199 129.458 158.625 129.458C159.046 129.458 159.446 129.755 159.446 130.373C159.446 130.992 159.031 131.294 158.61 131.294C158.185 131.294 157.818 130.992 157.818 130.373ZM162.518 131.739H163.077V130.131C163.077 129.369 162.597 128.968 161.959 128.968C161.632 128.968 161.33 129.102 161.147 129.324V129.013H160.583V131.739H161.147V130.215C161.147 129.715 161.419 129.458 161.835 129.458C162.246 129.458 162.518 129.715 162.518 130.215V131.739ZM120.117 149.256H120.711L119.479 145.812H118.826L117.594 149.256H118.182L118.43 148.553H119.87L120.117 149.256ZM119.711 148.093H118.588L119.152 146.494L119.711 148.093ZM121.059 147.88C121.059 148.721 121.628 149.3 122.345 149.3C122.791 149.3 123.117 149.093 123.291 148.845V149.256H123.859V145.594H123.291V146.91C123.083 146.653 122.707 146.484 122.35 146.484C121.628 146.484 121.059 147.039 121.059 147.88ZM123.291 147.89C123.291 148.479 122.89 148.81 122.464 148.81C122.043 148.81 121.638 148.469 121.638 147.88C121.638 147.291 122.043 146.974 122.464 146.974C122.89 146.974 123.291 147.306 123.291 147.89ZM124.279 146.529L125.313 149.256H125.986L127.025 146.529H126.427L125.655 148.751L124.883 146.529H124.279ZM128.6 146.96C129.02 146.96 129.352 147.227 129.362 147.648H127.852C127.912 147.217 128.219 146.96 128.6 146.96ZM129.876 148.444H129.268C129.164 148.657 128.971 148.825 128.624 148.825C128.209 148.825 127.887 148.553 127.847 148.103H129.931C129.945 148.011 129.951 147.918 129.951 147.826C129.951 147.024 129.401 146.484 128.624 146.484C127.818 146.484 127.264 147.034 127.264 147.89C127.264 148.747 127.843 149.3 128.624 149.3C129.292 149.3 129.723 148.919 129.876 148.444ZM131.07 147.82C131.07 147.242 131.327 147.069 131.743 147.069H131.887V146.484C131.5 146.484 131.228 146.653 131.07 146.925V146.529H130.506V149.256H131.07V147.82ZM132.494 148.499C132.494 149.053 132.796 149.256 133.281 149.256H133.726V148.786H133.38C133.142 148.786 133.063 148.701 133.063 148.499V146.989H133.726V146.529H133.063V145.851H132.494V146.529H132.173V146.989H132.494V148.499ZM134.246 149.256H134.81V146.529H134.246V149.256ZM134.533 146.168C134.58 146.168 134.627 146.159 134.671 146.14C134.714 146.122 134.754 146.095 134.787 146.062C134.82 146.028 134.846 145.988 134.864 145.945C134.881 145.901 134.89 145.854 134.89 145.807C134.89 145.711 134.852 145.62 134.785 145.553C134.717 145.486 134.626 145.448 134.531 145.448C134.436 145.448 134.344 145.486 134.277 145.553C134.21 145.62 134.172 145.711 134.172 145.807C134.171 145.854 134.18 145.902 134.198 145.946C134.216 145.99 134.243 146.03 134.276 146.064C134.31 146.097 134.35 146.124 134.394 146.142C134.438 146.16 134.486 146.169 134.533 146.168ZM137.585 148.494C137.555 147.509 136.016 147.816 136.016 147.266C136.016 147.083 136.174 146.96 136.476 146.96C136.783 146.96 136.966 147.123 136.986 147.361H137.55C137.521 146.816 137.115 146.484 136.496 146.484C135.853 146.484 135.447 146.836 135.447 147.271C135.447 148.271 137.03 147.964 137.03 148.499C137.03 148.687 136.858 148.825 136.531 148.825C136.219 148.825 136.006 148.642 135.986 148.419H135.402C135.427 148.914 135.887 149.3 136.541 149.3C137.184 149.3 137.585 148.954 137.585 148.494ZM138.194 149.256H138.758V146.529H138.194V149.256ZM138.481 146.168C138.529 146.168 138.575 146.159 138.619 146.14C138.663 146.122 138.702 146.095 138.735 146.062C138.768 146.028 138.794 145.988 138.812 145.945C138.83 145.901 138.838 145.854 138.838 145.807C138.838 145.711 138.8 145.62 138.733 145.553C138.665 145.486 138.574 145.448 138.479 145.448C138.384 145.448 138.293 145.486 138.225 145.553C138.158 145.62 138.12 145.711 138.12 145.807C138.12 145.854 138.128 145.902 138.146 145.946C138.164 145.99 138.191 146.03 138.225 146.064C138.258 146.097 138.298 146.124 138.342 146.142C138.387 146.16 138.434 146.169 138.481 146.168ZM141.434 149.256H141.993V147.648C141.993 146.885 141.513 146.484 140.875 146.484C140.548 146.484 140.246 146.618 140.063 146.841V146.529H139.499V149.256H140.063V147.732C140.063 147.232 140.335 146.974 140.751 146.974C141.162 146.974 141.434 147.232 141.434 147.732V149.256ZM142.525 147.88C142.525 148.721 143.094 149.3 143.811 149.3C144.256 149.3 144.583 149.077 144.756 148.845V149.3C144.756 149.845 144.43 150.112 143.994 150.112C143.604 150.112 143.302 149.919 143.217 149.637H142.658C142.727 150.241 143.267 150.602 143.994 150.602C144.845 150.602 145.325 150.042 145.325 149.3V146.529H144.756V146.925C144.588 146.693 144.256 146.484 143.811 146.484C143.094 146.484 142.525 147.039 142.525 147.88ZM144.756 147.89C144.756 148.479 144.356 148.81 143.93 148.81C143.509 148.81 143.103 148.469 143.103 147.88C143.103 147.291 143.509 146.974 143.93 146.974C144.356 146.974 144.756 147.306 144.756 147.89Z" fill="#D9D9D9"/>
<path d="M120.117 169.049H120.711L119.479 165.605H118.826L117.594 169.049H118.182L118.43 168.347H119.87L120.117 169.049ZM119.711 167.887H118.588L119.152 166.288L119.711 167.887ZM123.281 168.287C123.251 167.303 121.712 167.609 121.712 167.06C121.712 166.877 121.87 166.753 122.172 166.753C122.479 166.753 122.662 166.916 122.682 167.154H123.246C123.216 166.61 122.811 166.278 122.192 166.278C121.549 166.278 121.143 166.63 121.143 167.065C121.143 168.064 122.727 167.758 122.727 168.292C122.727 168.48 122.553 168.619 122.227 168.619C121.915 168.619 121.702 168.436 121.682 168.213H121.099C121.123 168.708 121.584 169.094 122.236 169.094C122.88 169.094 123.281 168.748 123.281 168.287ZM125.924 168.287C125.894 167.303 124.355 167.609 124.355 167.06C124.355 166.877 124.514 166.753 124.815 166.753C125.122 166.753 125.305 166.916 125.325 167.154H125.889C125.86 166.61 125.454 166.278 124.835 166.278C124.192 166.278 123.786 166.63 123.786 167.065C123.786 168.064 125.37 167.758 125.37 168.292C125.37 168.48 125.197 168.619 124.87 168.619C124.558 168.619 124.346 168.436 124.326 168.213H123.742C123.767 168.708 124.227 169.094 124.88 169.094C125.523 169.094 125.924 168.748 125.924 168.287ZM129.131 167.684C129.131 166.828 128.518 166.278 127.741 166.278C126.964 166.278 126.35 166.828 126.35 167.684C126.35 168.54 126.939 169.094 127.716 169.094C128.498 169.094 129.131 168.54 129.131 167.684ZM126.924 167.684C126.924 167.065 127.306 166.768 127.731 166.768C128.152 166.768 128.553 167.065 128.553 167.684C128.553 168.302 128.137 168.604 127.716 168.604C127.291 168.604 126.924 168.302 126.924 167.684ZM129.501 167.684C129.501 168.54 130.055 169.094 130.837 169.094C131.505 169.094 131.941 168.723 132.094 168.189H131.486C131.382 168.47 131.174 168.619 130.837 168.619C130.382 168.619 130.08 168.282 130.08 167.684C130.08 167.09 130.382 166.753 130.837 166.753C131.174 166.753 131.391 166.921 131.486 167.184H132.094C131.941 166.61 131.505 166.278 130.837 166.278C130.055 166.278 129.501 166.832 129.501 167.684ZM132.656 169.049H133.221V166.323H132.656V169.049ZM132.943 165.962C132.991 165.962 133.037 165.952 133.081 165.934C133.124 165.916 133.164 165.889 133.197 165.856C133.23 165.822 133.256 165.782 133.274 165.738C133.292 165.695 133.3 165.648 133.3 165.6C133.3 165.505 133.262 165.414 133.195 165.347C133.127 165.28 133.036 165.242 132.941 165.242C132.846 165.242 132.754 165.28 132.687 165.347C132.62 165.414 132.582 165.505 132.582 165.6C132.581 165.648 132.59 165.695 132.608 165.74C132.626 165.784 132.653 165.824 132.686 165.857C132.72 165.891 132.76 165.918 132.804 165.936C132.848 165.953 132.896 165.962 132.943 165.962ZM133.773 167.674C133.773 168.515 134.342 169.094 135.05 169.094C135.505 169.094 135.832 168.876 136.005 168.644V169.049H136.574V166.323H136.005V166.719C135.836 166.496 135.52 166.278 135.06 166.278C134.342 166.278 133.773 166.832 133.773 167.674ZM136.005 167.684C136.005 168.273 135.604 168.604 135.178 168.604C134.758 168.604 134.352 168.263 134.352 167.674C134.352 167.085 134.758 166.768 135.178 166.768C135.604 166.768 136.005 167.1 136.005 167.684ZM137.404 168.292C137.404 168.846 137.706 169.049 138.191 169.049H138.636V168.579H138.29C138.052 168.579 137.973 168.495 137.973 168.292V166.783H138.636V166.323H137.973V165.645H137.404V166.323H137.082V166.783H137.404V168.292ZM139.156 169.049H139.72V166.323H139.156V169.049ZM139.443 165.962C139.49 165.962 139.537 165.952 139.581 165.934C139.624 165.916 139.664 165.889 139.697 165.856C139.73 165.822 139.756 165.782 139.774 165.738C139.791 165.695 139.8 165.648 139.799 165.6C139.799 165.505 139.762 165.414 139.694 165.347C139.627 165.28 139.536 165.242 139.441 165.242C139.346 165.242 139.254 165.28 139.187 165.347C139.12 165.414 139.082 165.505 139.082 165.6C139.081 165.648 139.09 165.695 139.108 165.74C139.126 165.784 139.153 165.824 139.186 165.857C139.22 165.891 139.26 165.918 139.304 165.936C139.348 165.953 139.396 165.962 139.443 165.962ZM143.059 167.684C143.059 166.828 142.445 166.278 141.668 166.278C140.892 166.278 140.278 166.828 140.278 167.684C140.278 168.54 140.866 169.094 141.643 169.094C142.425 169.094 143.059 168.54 143.059 167.684ZM140.852 167.684C140.852 167.065 141.233 166.768 141.658 166.768C142.079 166.768 142.48 167.065 142.48 167.684C142.48 168.302 142.064 168.604 141.643 168.604C141.218 168.604 140.852 168.302 140.852 167.684ZM145.551 169.049H146.111V167.441C146.111 166.679 145.631 166.278 144.992 166.278C144.666 166.278 144.364 166.412 144.181 166.635V166.323H143.616V169.049H144.181V167.525C144.181 167.025 144.453 166.768 144.868 166.768C145.279 166.768 145.551 167.025 145.551 167.525V169.049ZM148.115 169.049H148.679V167.545H149.818V167.085H148.679V166.07H150.139V165.61H148.115V169.049ZM151.81 166.753C152.231 166.753 152.562 167.02 152.572 167.441H151.063C151.122 167.011 151.429 166.753 151.81 166.753ZM153.087 168.238H152.478C152.374 168.451 152.181 168.619 151.835 168.619C151.419 168.619 151.097 168.347 151.058 167.897H153.141C153.156 167.802 153.161 167.713 153.161 167.619C153.161 166.818 152.612 166.278 151.835 166.278C151.028 166.278 150.474 166.828 150.474 167.684C150.474 168.54 151.053 169.094 151.835 169.094C152.503 169.094 152.934 168.713 153.087 168.238ZM154.864 166.753C155.285 166.753 155.617 167.02 155.626 167.441H154.117C154.177 167.011 154.483 166.753 154.864 166.753ZM156.141 168.238H155.532C155.428 168.451 155.235 168.619 154.889 168.619C154.473 168.619 154.152 168.347 154.112 167.897H156.195C156.21 167.802 156.215 167.713 156.215 167.619C156.215 166.818 155.666 166.278 154.889 166.278C154.082 166.278 153.528 166.828 153.528 167.684C153.528 168.54 154.107 169.094 154.889 169.094C155.557 169.094 155.988 168.713 156.141 168.238ZM158.804 168.287C158.774 167.303 157.236 167.609 157.236 167.06C157.236 166.877 157.394 166.753 157.696 166.753C158.002 166.753 158.185 166.916 158.205 167.154H158.769C158.74 166.61 158.334 166.278 157.716 166.278C157.072 166.278 156.666 166.63 156.666 167.065C156.666 168.064 158.25 167.758 158.25 168.292C158.25 168.48 158.077 168.619 157.75 168.619C157.438 168.619 157.226 168.436 157.206 168.213H156.622C156.647 168.708 157.107 169.094 157.76 169.094C158.403 169.094 158.804 168.748 158.804 168.287Z" fill="#D9D9D9"/>
<path d="M98.8684 43.4155C98.8684 42.9031 99.2837 42.4878 99.7961 42.4878H128.868C129.381 42.4878 129.796 42.9031 129.796 43.4155C129.796 43.9282 129.381 44.3435 128.868 44.3435H99.7961C99.2837 44.3435 98.8684 43.9282 98.8684 43.4155Z" fill="#FF4998"/>
<path d="M315.363 163.725H177.425C176.058 163.725 174.951 164.833 174.951 166.199C174.951 167.566 176.058 168.674 177.425 168.674H315.363C316.729 168.674 317.837 167.566 317.837 166.199C317.837 164.833 316.729 163.725 315.363 163.725Z" fill="#D9D9D9"/>
<path d="M315.363 147.024H177.425C176.058 147.024 174.951 148.132 174.951 149.498C174.951 150.865 176.058 151.972 177.425 151.972H315.363C316.729 151.972 317.837 150.865 317.837 149.498C317.837 148.132 316.729 147.024 315.363 147.024Z" fill="#D9D9D9"/>
<path d="M315.363 126.824H177.425C176.058 126.824 174.951 127.932 174.951 129.298C174.951 130.665 176.058 131.773 177.425 131.773H315.363C316.729 131.773 317.837 130.665 317.837 129.298C317.837 127.932 316.729 126.824 315.363 126.824Z" fill="#D9D9D9"/>
<path d="M315.363 108.803H177.425C176.058 108.803 174.951 109.911 174.951 111.277C174.951 112.644 176.058 113.752 177.425 113.752H315.363C316.729 113.752 317.837 112.644 317.837 111.277C317.837 109.911 316.729 108.803 315.363 108.803Z" fill="#D9D9D9"/>
<path d="M315.363 87.5059H177.425C176.058 87.5059 174.951 88.6136 174.951 89.9801C174.951 91.3465 176.058 92.4543 177.425 92.4543H315.363C316.729 92.4543 317.837 91.3465 317.837 89.9801C317.837 88.6136 316.729 87.5059 315.363 87.5059Z" fill="#D9D9D9"/>
<path d="M315.363 67.2305H177.425C176.058 67.2305 174.951 68.3382 174.951 69.7047C174.951 71.0711 176.058 72.1789 177.425 72.1789H315.363C316.729 72.1789 317.837 71.0711 317.837 69.7047C317.837 68.3382 316.729 67.2305 315.363 67.2305Z" fill="#D9D9D9"/>
<path d="M205.878 67.2305H177.425C176.058 67.2305 174.951 68.3382 174.951 69.7047C174.951 71.0711 176.058 72.1789 177.425 72.1789H205.878C207.245 72.1789 208.353 71.0711 208.353 69.7047C208.353 68.3382 207.245 67.2305 205.878 67.2305Z" fill="#1665D8"/>
<path d="M99.1716 30.9389C99.1716 32.7488 100.497 34.0217 102.237 34.0217C103.579 34.0217 104.67 33.3115 105.078 32.0644H103.683C103.398 32.6533 102.878 32.9392 102.229 32.9392C101.172 32.9392 100.419 32.1598 100.419 30.9389C100.419 29.7094 101.172 28.9386 102.229 28.9386C102.878 28.9386 103.398 29.2244 103.683 29.8044H105.078C104.67 28.5659 103.579 27.8471 102.237 27.8471C100.497 27.8471 99.1716 29.129 99.1716 30.9389ZM106.113 33.9697H107.325V31.3198C107.325 30.549 107.75 30.1333 108.408 30.1333C109.049 30.1333 109.473 30.549 109.473 31.3198V33.9697H110.685V31.1551C110.685 29.8302 109.897 29.1028 108.815 29.1028C108.174 29.1028 107.637 29.3625 107.325 29.7696V27.5612H106.113V33.9697ZM111.527 31.5537C111.527 33.0519 112.497 34.0475 113.709 34.0475C114.471 34.0475 115.017 33.6838 115.302 33.2681V33.9697H116.523V29.1724H115.302V29.8564C115.017 29.4579 114.488 29.0942 113.717 29.0942C112.497 29.0942 111.527 30.0555 111.527 31.5537ZM115.302 31.5709C115.302 32.4801 114.696 32.9822 114.029 32.9822C113.38 32.9822 112.765 32.4625 112.765 31.5532C112.765 30.644 113.38 30.1591 114.029 30.1591C114.696 30.1591 115.302 30.6616 115.302 31.5709ZM118.92 31.5795C118.92 30.653 119.353 30.3757 120.071 30.3757H120.392V29.1028C119.725 29.1028 119.223 29.4231 118.92 29.917V29.1724H117.707V33.9701H118.92V31.5799V31.5795ZM121.399 32.4801C121.399 33.5798 122.014 33.9697 122.932 33.9697H123.694V32.9478H123.131C122.75 32.9478 122.62 32.8094 122.62 32.4887V30.1681H123.694V29.1724H122.62V27.9859H121.399V29.1724H120.828V30.1685H121.399V32.4801ZM128.289 32.6013C128.255 30.8435 125.596 31.389 125.596 30.5142C125.596 30.2369 125.83 30.055 126.281 30.055C126.757 30.055 127.051 30.3061 127.086 30.6784H128.246C128.177 29.7258 127.476 29.0938 126.315 29.0938C125.129 29.0938 124.419 29.7348 124.419 30.5314C124.419 32.2892 127.129 31.7437 127.129 32.6009C127.129 32.8782 126.87 33.0945 126.393 33.0945C125.908 33.0945 125.57 32.8172 125.527 32.4535H124.306C124.358 33.3455 125.198 34.0467 126.402 34.0467C127.571 34.0467 128.289 33.4233 128.289 32.6005V32.6013ZM135.981 31.5709C135.981 30.0555 134.899 29.0942 133.513 29.0942C132.128 29.0942 131.045 30.0555 131.045 31.5709C131.045 33.0777 132.093 34.0475 133.479 34.0475C134.873 34.0475 135.981 33.0777 135.981 31.5709ZM132.275 31.5709C132.275 30.6096 132.855 30.1505 133.496 30.1505C134.137 30.1505 134.734 30.6096 134.734 31.5709C134.734 32.5235 134.119 32.9912 133.479 32.9912C132.829 32.9912 132.275 32.5235 132.275 31.5709ZM137.001 33.9697H138.23V30.1681H139.07V29.1724H138.23V28.9734C138.23 28.4364 138.429 28.246 139.018 28.2632V27.2413C137.667 27.2065 137.001 27.752 137.001 28.93V29.1724H136.455V30.1685H137.001V33.9697ZM146.024 33.9697H147.306L145.132 27.9167H143.72L141.547 33.9697H142.82L143.218 32.818H145.626L146.024 33.9697ZM145.296 31.8481H143.547L144.422 29.3195L145.296 31.8481ZM147.806 31.5709C147.806 33.0777 148.794 34.0475 150.179 34.0475C151.374 34.0475 152.18 33.3721 152.439 32.3503H151.132C150.984 32.7832 150.673 33.0084 150.171 33.0084C149.495 33.0084 149.045 32.5063 149.045 31.5709C149.045 30.6354 149.495 30.1247 150.171 30.1247C150.673 30.1247 150.993 30.3843 151.132 30.7914H152.439C152.18 29.7176 151.374 29.0942 150.179 29.0942C148.794 29.0942 147.806 30.0641 147.806 31.5709ZM153.016 31.5709C153.016 33.0777 154.003 34.0475 155.389 34.0475C156.584 34.0475 157.389 33.3721 157.649 32.3503H156.341C156.194 32.7832 155.882 33.0084 155.38 33.0084C154.705 33.0084 154.254 32.5063 154.254 31.5709C154.254 30.6354 154.705 30.1247 155.38 30.1247C155.882 30.1247 156.202 30.3843 156.341 30.7914H157.649C157.389 29.7176 156.584 29.0942 155.389 29.0942C154.003 29.0942 153.016 30.0641 153.016 31.5709ZM163.17 31.5709C163.17 30.0555 162.087 29.0942 160.702 29.0942C159.316 29.0942 158.234 30.0555 158.234 31.5709C158.234 33.0777 159.282 34.0475 160.667 34.0475C162.061 34.0475 163.17 33.0777 163.17 31.5709ZM159.463 31.5709C159.463 30.6096 160.044 30.1505 160.685 30.1505C161.326 30.1505 161.923 30.6096 161.923 31.5709C161.923 32.5235 161.308 32.9912 160.667 32.9912C160.018 32.9912 159.463 32.5235 159.463 31.5709ZM168.588 29.172H167.367V31.8133C167.367 32.5841 166.951 32.9998 166.293 32.9998C165.653 32.9998 165.228 32.5841 165.228 31.8133V29.172H164.016V31.9866C164.016 33.3029 164.821 34.0303 165.938 34.0303C166.536 34.0303 167.064 33.7706 167.367 33.3635V33.9697H168.588V29.172ZM173.145 33.9697H174.357V31.1551C174.357 29.8302 173.56 29.1028 172.443 29.1028C171.828 29.1028 171.308 29.3625 170.997 29.7696V29.172H169.784V33.9697H170.997V31.3198C170.997 30.549 171.421 30.1333 172.079 30.1333C172.72 30.1333 173.145 30.549 173.145 31.3198V33.9697ZM175.7 32.4801C175.7 33.5798 176.315 33.9697 177.233 33.9697H177.995V32.9478H177.432C177.051 32.9478 176.921 32.8094 176.921 32.4887V30.1681H177.995V29.1724H176.921V27.9859H175.7V29.1724H175.129V30.1685H175.7V32.4801ZM182.591 32.6013C182.556 30.8435 179.898 31.389 179.898 30.5142C179.898 30.2369 180.131 30.055 180.582 30.055C181.058 30.055 181.352 30.3061 181.387 30.6784H182.547C182.478 29.7258 181.777 29.0938 180.616 29.0938C179.43 29.0938 178.72 29.7348 178.72 30.5314C178.72 32.2892 181.431 31.7437 181.431 32.6009C181.431 32.8782 181.17 33.0945 180.694 33.0945C180.209 33.0945 179.872 32.8172 179.828 32.4535H178.607C178.659 33.3455 179.499 34.0467 180.703 34.0467C181.872 34.0467 182.591 33.4233 182.591 32.6005V32.6013Z" fill="black"/>
<path d="M105.054 76.5086C108.47 76.5086 111.24 73.7392 111.24 70.3229C111.24 66.9066 108.47 64.1372 105.054 64.1372C101.638 64.1372 98.8682 66.9066 98.8682 70.3229C98.8682 73.7392 101.638 76.5086 105.054 76.5086Z" fill="#1665D8"/>
<path d="M105.054 96.1908C108.47 96.1908 111.24 93.4213 111.24 90.005C111.24 86.5888 108.47 83.8193 105.054 83.8193C101.638 83.8193 98.8682 86.5888 98.8682 90.005C98.8682 93.4213 101.638 96.1908 105.054 96.1908Z" fill="#D9D9D9"/>
<path d="M105.054 117.952C108.47 117.952 111.24 115.183 111.24 111.766C111.24 108.35 108.47 105.581 105.054 105.581C101.638 105.581 98.8682 108.35 98.8682 111.766C98.8682 115.183 101.638 117.952 105.054 117.952Z" fill="#D9D9D9"/>
<path d="M105.054 135.89C108.47 135.89 111.24 133.121 111.24 129.704C111.24 126.288 108.47 123.519 105.054 123.519C101.638 123.519 98.8682 126.288 98.8682 129.704C98.8682 133.121 101.638 135.89 105.054 135.89Z" fill="#D9D9D9"/>
<path d="M105.054 153.21C108.47 153.21 111.24 150.44 111.24 147.024C111.24 143.608 108.47 140.838 105.054 140.838C101.638 140.838 98.8682 143.608 98.8682 147.024C98.8682 150.44 101.638 153.21 105.054 153.21Z" fill="#D9D9D9"/>
<path d="M105.054 173.004C108.47 173.004 111.24 170.234 111.24 166.818C111.24 163.402 108.47 160.632 105.054 160.632C101.638 160.632 98.8682 163.402 98.8682 166.818C98.8682 170.234 101.638 173.004 105.054 173.004Z" fill="#D9D9D9"/>
<path d="M316.601 183.519H258.457C257.773 183.519 257.219 184.073 257.219 184.756V199.601C257.219 200.284 257.773 200.838 258.457 200.838H316.601C317.284 200.838 317.838 200.284 317.838 199.601V184.756C317.838 184.073 317.284 183.519 316.601 183.519Z" fill="#01CC74"/>
<path d="M266.371 191.549V192.878H265.08V194.013H266.371V195.335H267.574V194.013H268.866V192.878H267.574V191.549H266.371ZM275.934 190.966V193.529L274.237 190.966H273.673V194.41H274.237V191.842L275.934 194.41H276.498V190.966H275.934ZM278.387 192.114C278.808 192.114 279.14 192.381 279.149 192.801H277.64C277.7 192.371 278.006 192.114 278.387 192.114ZM279.664 193.598H279.055C278.951 193.811 278.758 193.979 278.412 193.979C277.997 193.979 277.675 193.707 277.635 193.257H279.718C279.733 193.163 279.738 193.074 279.738 192.98C279.738 192.178 279.189 191.639 278.412 191.639C277.605 191.639 277.051 192.188 277.051 193.044C277.051 193.9 277.63 194.454 278.412 194.454C279.08 194.454 279.511 194.073 279.664 193.598ZM280.823 194.41H281.417L281.966 192.396L282.515 194.41H283.109L283.955 191.683H283.401L282.837 193.865L282.283 191.683H281.694L281.115 193.875L280.546 191.683H279.972L280.823 194.41ZM287.983 194.41H288.577L287.345 190.966H286.692L285.459 194.41H286.048L286.296 193.707H287.736L287.983 194.41ZM287.577 193.247H286.454L287.018 191.648L287.577 193.247ZM288.925 193.044C288.925 193.9 289.479 194.454 290.261 194.454C290.929 194.454 291.364 194.083 291.518 193.549H290.909C290.805 193.831 290.597 193.979 290.261 193.979C289.806 193.979 289.504 193.643 289.504 193.044C289.504 192.45 289.806 192.114 290.261 192.114C290.597 192.114 290.815 192.282 290.909 192.544H291.518C291.364 191.97 290.929 191.639 290.261 191.639C289.479 191.639 288.925 192.193 288.925 193.044ZM291.892 193.044C291.892 193.9 292.446 194.454 293.228 194.454C293.896 194.454 294.331 194.083 294.485 193.549H293.876C293.772 193.831 293.564 193.979 293.228 193.979C292.773 193.979 292.471 193.643 292.471 193.044C292.471 192.45 292.773 192.114 293.228 192.114C293.564 192.114 293.782 192.282 293.876 192.544H294.485C294.331 191.97 293.896 191.639 293.228 191.639C292.446 191.639 291.892 192.193 291.892 193.044ZM297.645 193.044C297.645 192.188 297.031 191.639 296.254 191.639C295.477 191.639 294.864 192.188 294.864 193.044C294.864 193.9 295.453 194.454 296.23 194.454C297.012 194.454 297.645 193.9 297.645 193.044ZM295.438 193.044C295.438 192.425 295.819 192.128 296.244 192.128C296.665 192.128 297.066 192.425 297.066 193.044C297.066 193.662 296.65 193.965 296.23 193.965C295.804 193.965 295.438 193.663 295.438 193.044ZM300.672 191.683H300.107V193.202C300.107 193.702 299.836 193.96 299.42 193.96C299.009 193.96 298.737 193.702 298.737 193.202V191.683H298.178V193.287C298.178 194.048 298.663 194.449 299.301 194.449C299.623 194.449 299.93 194.316 300.107 194.083V194.41H300.672V191.683ZM303.351 194.41H303.91V192.801C303.91 192.04 303.43 191.639 302.792 191.639C302.465 191.639 302.163 191.772 301.98 191.995V191.683H301.416V194.41H301.98V192.886C301.98 192.386 302.252 192.128 302.668 192.128C303.079 192.128 303.351 192.386 303.351 192.886V194.41ZM304.719 193.653C304.719 194.207 305.021 194.41 305.506 194.41H305.951V193.94H305.605C305.367 193.94 305.288 193.856 305.288 193.653V192.144H305.951V191.683H305.288V191.005H304.719V191.683H304.397V192.144H304.719V193.653ZM308.505 193.648C308.475 192.663 306.936 192.97 306.936 192.42C306.936 192.237 307.094 192.114 307.396 192.114C307.703 192.114 307.886 192.277 307.906 192.515H308.47C308.441 191.97 308.035 191.639 307.416 191.639C306.773 191.639 306.367 191.99 306.367 192.425C306.367 193.425 307.95 193.118 307.95 193.653C307.95 193.841 307.777 193.979 307.451 193.979C307.139 193.979 306.926 193.796 306.906 193.573H306.322C306.347 194.068 306.807 194.454 307.46 194.454C308.104 194.454 308.505 194.108 308.505 193.648ZM107.862 72.2167H102.251C102.213 72.2162 102.175 72.2234 102.14 72.2379C102.104 72.2523 102.072 72.2736 102.045 72.3006C102.018 72.3276 101.997 72.3598 101.982 72.3952C101.968 72.4305 101.961 72.4685 101.961 72.5067C101.96 72.5452 101.966 72.5837 101.98 72.6196C101.994 72.6556 102.015 72.6883 102.042 72.7156C102.07 72.7429 102.102 72.7642 102.138 72.7782C102.174 72.7923 102.213 72.7987 102.251 72.797H107.862C107.9 72.7975 107.938 72.7903 107.974 72.7758C108.009 72.7614 108.041 72.74 108.068 72.7129C108.095 72.6859 108.117 72.6537 108.131 72.6183C108.146 72.5828 108.153 72.5449 108.152 72.5067C108.151 72.4301 108.12 72.3571 108.066 72.303C108.012 72.2489 107.939 72.2179 107.862 72.2167ZM107.476 71.8292C107.514 71.8297 107.552 71.8225 107.587 71.8081C107.622 71.7936 107.655 71.7723 107.682 71.7453C107.709 71.7183 107.73 71.6861 107.744 71.6507C107.759 71.6154 107.766 71.5775 107.766 71.5393C107.764 71.4627 107.734 71.3895 107.679 71.3354C107.625 71.2812 107.552 71.2501 107.476 71.2489H102.638C102.6 71.2484 102.562 71.2555 102.527 71.27C102.491 71.2844 102.459 71.3058 102.432 71.3328C102.405 71.3599 102.383 71.3921 102.369 71.4275C102.355 71.463 102.347 71.501 102.348 71.5393C102.346 71.5778 102.353 71.6163 102.367 71.6522C102.381 71.6882 102.402 71.7208 102.429 71.7481C102.457 71.7753 102.489 71.7966 102.525 71.8106C102.561 71.8246 102.6 71.8309 102.638 71.8292H107.476ZM107.971 67.7909L105.165 66.6298C105.093 66.6052 105.008 66.6052 104.935 66.6298L102.13 67.7909C102.021 67.8392 101.961 67.9478 101.961 68.0567V68.8304C101.96 68.8689 101.966 68.9074 101.98 68.9434C101.994 68.9793 102.015 69.012 102.042 69.0393C102.07 69.0666 102.102 69.0879 102.138 69.102C102.174 69.116 102.213 69.1224 102.251 69.1208H102.734V70.8622H103.315V69.1208H104.089V70.8622H104.67V69.1208H105.444V70.8622H106.024V69.1208H106.798V70.8622H107.379V69.1208H107.862C107.9 69.1212 107.938 69.114 107.974 69.0995C108.009 69.0851 108.041 69.0637 108.068 69.0367C108.095 69.0096 108.117 68.9774 108.131 68.942C108.146 68.9066 108.153 68.8686 108.152 68.8304V68.0567C108.152 67.9478 108.08 67.8392 107.971 67.7909ZM107.572 68.5404H105.601C105.613 68.4798 105.637 68.4196 105.637 68.3467C105.635 68.1934 105.573 68.0472 105.465 67.9388C105.356 67.8305 105.21 67.7686 105.057 67.7663C104.73 67.7663 104.476 68.0321 104.476 68.3467C104.476 68.4196 104.488 68.4798 104.501 68.5404H102.542V68.25L105.057 67.2101L107.572 68.2619V68.5404Z" fill="white"/>
<path opacity="0.5" d="M307.012 22.6943C302.744 22.6943 299.28 26.1585 299.28 30.4262C299.28 34.6939 302.744 38.158 307.012 38.158C309.062 38.1568 311.028 37.3418 312.478 35.8921C313.928 34.4424 314.743 32.4764 314.744 30.4262C314.743 28.3759 313.928 26.41 312.478 24.9602C311.028 23.5105 309.062 22.6955 307.012 22.6943Z" fill="#EDEDED"/>
<path fill-rule="evenodd" clip-rule="evenodd" d="M307.011 31.4823L304.889 33.6051C304.826 33.6673 304.751 33.7267 304.657 33.7685C304.564 33.8091 304.463 33.8295 304.361 33.8283C304.258 33.8283 304.159 33.8107 304.064 33.7685C303.968 33.7263 303.895 33.6677 303.832 33.6051C303.535 33.3077 303.535 32.8465 303.832 32.5492L305.956 30.4264L303.832 28.3036C303.535 28.0063 303.535 27.5451 303.832 27.2477C304.13 26.9504 304.591 26.95 304.889 27.2477L307.011 29.3705L309.134 27.2477C309.432 26.95 309.892 26.95 310.191 27.2477C310.489 27.5455 310.488 28.0063 310.191 28.3036L308.067 30.4264L310.191 32.5492C310.488 32.8465 310.488 33.3077 310.191 33.6051C310.04 33.7554 309.827 33.8283 309.662 33.8283C309.498 33.8283 309.284 33.7554 309.134 33.6051L307.011 31.4823Z" fill="white"/>
<path d="M150.827 103.106H3.61023C1.9022 103.106 0.517578 104.491 0.517578 106.199V180.426C0.517578 182.134 1.9022 183.519 3.61023 183.519H150.827C152.535 183.519 153.919 182.134 153.919 180.426V106.199C153.919 104.491 152.535 103.106 150.827 103.106Z" fill="white"/>
<path d="M150.827 103.261H3.61073C1.98798 103.261 0.672485 104.576 0.672485 106.199V180.425C0.672485 182.048 1.98798 183.364 3.61073 183.364H150.827C152.45 183.364 153.765 182.048 153.765 180.425V106.199C153.765 104.576 152.45 103.261 150.827 103.261Z" stroke="#A8A8A8" stroke-opacity="0.5" stroke-width="0.309224"/>
<path d="M16.3536 123.042H17.6351L15.4615 116.989H14.0502L11.8766 123.042H13.1495L13.548 121.891H15.9555L16.3536 123.042ZM15.6262 120.92H13.8769L14.7518 118.392L15.6262 120.92ZM18.136 120.644C18.136 122.15 19.1231 123.12 20.5086 123.12C21.7038 123.12 22.509 122.445 22.7686 121.423H21.4609C21.3134 121.856 21.0018 122.081 20.4996 122.081C19.8243 122.081 19.3737 121.579 19.3737 120.644C19.3737 119.708 19.8239 119.197 20.4996 119.197C21.0018 119.197 21.3225 119.457 21.4609 119.864H22.7686C22.509 118.79 21.7034 118.167 20.5086 118.167C19.1231 118.167 18.136 119.137 18.136 120.644ZM23.3453 120.644C23.3453 122.15 24.3324 123.12 25.7179 123.12C26.9131 123.12 27.7183 122.445 27.9784 121.423H26.6706C26.5236 121.856 26.2115 122.081 25.7093 122.081C25.034 122.081 24.5834 121.579 24.5834 120.644C24.5834 119.708 25.0336 119.197 25.7093 119.197C26.2115 119.197 26.5322 119.457 26.6706 119.864H27.9784C27.7187 118.79 26.9131 118.167 25.7179 118.167C24.3324 118.167 23.3453 119.137 23.3453 120.644ZM33.4993 120.644C33.4993 119.128 32.4168 118.167 31.0313 118.167C29.6457 118.167 28.5632 119.128 28.5632 120.644C28.5632 122.15 29.6109 123.12 30.9965 123.12C32.3906 123.12 33.4993 122.15 33.4993 120.644ZM29.7932 120.644C29.7932 119.682 30.3735 119.223 31.0141 119.223C31.6546 119.223 32.2526 119.682 32.2526 120.644C32.2526 121.596 31.6378 122.063 30.9969 122.063C30.3473 122.063 29.7932 121.596 29.7932 120.644ZM38.9179 118.245H37.697V120.886C37.697 121.657 37.2813 122.072 36.6231 122.072C35.9821 122.072 35.5578 121.657 35.5578 120.886V118.245H34.3455V121.059C34.3455 122.376 35.1507 123.103 36.268 123.103C36.8656 123.103 37.3939 122.843 37.697 122.436V123.042H38.9179V118.245ZM43.474 123.042H44.6863V120.228C44.6863 118.903 43.8897 118.175 42.7724 118.175C42.1576 118.175 41.6379 118.435 41.3262 118.842V118.245H40.1139V123.042H41.3262V120.392C41.3262 119.622 41.7505 119.206 42.4087 119.206C43.0496 119.206 43.474 119.622 43.474 120.392V123.042ZM46.0297 121.553C46.0297 122.652 46.6444 123.042 47.5623 123.042H48.3245V122.02H47.7617C47.3804 122.02 47.2506 121.882 47.2506 121.561V119.241H48.3245V118.245H47.2506V117.058H46.0297V118.245H45.4583V119.241H46.0297V121.553ZM52.9202 121.674C52.8854 119.916 50.2269 120.462 50.2269 119.587C50.2269 119.31 50.4608 119.128 50.9113 119.128C51.3876 119.128 51.6817 119.379 51.7165 119.751H52.8768C52.8076 118.799 52.106 118.167 50.9457 118.167C49.7596 118.167 49.0494 118.807 49.0494 119.604C49.0494 121.362 51.7599 120.817 51.7599 121.674C51.7599 121.951 51.4999 122.168 51.0239 122.168C50.5386 122.168 50.2011 121.891 50.1577 121.527H48.9368C48.9888 122.419 49.8288 123.12 51.0325 123.12C52.2015 123.12 52.9202 122.497 52.9202 121.674ZM59.183 118.877C59.183 119.423 58.8799 119.777 58.2045 119.777H57.1912V118.002H58.2045C58.8799 118.002 59.183 118.34 59.183 118.877ZM55.9789 116.998V123.042H57.1912V120.687H57.763L59.0965 123.042H60.4993L59.0531 120.591C60.023 120.332 60.4301 119.587 60.4301 118.851C60.4301 117.838 59.7027 116.998 58.2479 116.998H55.9789ZM63.5874 119.163C64.2112 119.163 64.7134 119.561 64.7306 120.193H62.4534C62.5484 119.535 63.0075 119.163 63.5874 119.163ZM65.8651 121.536H64.5573C64.4017 121.856 64.1158 122.115 63.5965 122.115C62.9899 122.115 62.505 121.717 62.4443 121.007H65.9519C65.9777 120.851 65.9863 120.696 65.9863 120.539C65.9863 119.11 65.0078 118.167 63.6223 118.167C62.2019 118.167 61.2148 119.128 61.2148 120.644C61.2148 122.15 62.2281 123.12 63.6223 123.12C64.8088 123.12 65.6054 122.419 65.8651 121.536ZM66.5597 120.644C66.5597 122.15 67.5467 123.12 68.9323 123.12C70.1274 123.12 70.9326 122.445 71.1927 121.423H69.885C69.7375 121.856 69.4258 122.081 68.9237 122.081C68.2483 122.081 67.7978 121.579 67.7978 120.644C67.7978 119.708 68.2483 119.197 68.9237 119.197C69.4258 119.197 69.7465 119.457 69.885 119.864H71.1927C70.9326 118.79 70.1274 118.167 68.9323 118.167C67.5467 118.167 66.5597 119.137 66.5597 120.644ZM72.0807 123.042H73.293V118.245H72.0807V123.042ZM72.6954 117.673C73.1197 117.673 73.4404 117.361 73.4404 116.963C73.4404 116.565 73.1197 116.253 72.6954 116.253C72.2625 116.253 71.9508 116.565 71.9508 116.963C71.9508 117.362 72.2625 117.673 72.6954 117.673ZM76.5519 119.163C77.1753 119.163 77.6778 119.561 77.695 120.193H75.4174C75.5128 119.535 75.9716 119.163 76.5519 119.163ZM78.8295 121.536H77.5218C77.3657 121.856 77.0803 122.115 76.5605 122.115C75.9544 122.115 75.4694 121.717 75.4088 121.007H78.916C78.9406 120.853 78.9522 120.696 78.9508 120.539C78.9508 119.11 77.9723 118.167 76.5867 118.167C75.1664 118.167 74.1793 119.128 74.1793 120.644C74.1793 122.15 75.1922 123.12 76.5867 123.12C77.7729 123.12 78.5695 122.419 78.8295 121.536ZM79.3247 118.245L81.0912 123.042H82.5636L84.3386 118.245H83.0485L81.8362 121.925L80.6234 118.245H79.3247ZM84.7081 120.626C84.7081 122.124 85.6779 123.12 86.8902 123.12C87.652 123.12 88.1976 122.756 88.4835 122.341V123.042H89.7044V118.245H88.4835V118.929C88.1976 118.531 87.6697 118.167 86.8988 118.167C85.6779 118.167 84.7081 119.128 84.7081 120.626ZM88.4835 120.644C88.4835 121.553 87.8773 122.055 87.2105 122.055C86.561 122.055 85.9462 121.536 85.9462 120.626C85.9462 119.717 86.561 119.232 87.2105 119.232C87.8773 119.232 88.4835 119.734 88.4835 120.644ZM92.1012 118.946V116.634H90.8889V123.042H92.1012V122.358C92.3957 122.774 92.9322 123.12 93.6858 123.12C94.9153 123.12 95.8766 122.124 95.8766 120.626C95.8766 119.129 94.9153 118.167 93.6858 118.167C92.9584 118.167 92.3957 118.504 92.1012 118.946ZM94.6385 120.626C94.6385 121.536 94.0237 122.055 93.3655 122.055C92.716 122.055 92.1012 121.553 92.1012 120.644C92.1012 119.734 92.716 119.232 93.3655 119.232C94.0237 119.232 94.6385 119.717 94.6385 120.626ZM96.7576 123.042H97.9699V116.634H96.7576V123.042ZM101.229 119.163C101.853 119.163 102.355 119.561 102.372 120.193H100.094C100.19 119.535 100.649 119.163 101.229 119.163ZM103.506 121.536H102.199C102.043 121.856 101.757 122.115 101.237 122.115C100.631 122.115 100.146 121.717 100.086 121.007H103.593C103.617 120.853 103.629 120.696 103.628 120.539C103.628 119.11 102.649 118.167 101.264 118.167C99.8433 118.167 98.8562 119.128 98.8562 120.644C98.8562 122.15 99.8695 123.12 101.264 123.12C102.45 123.12 103.247 122.419 103.506 121.536ZM108.863 143.5H109.185V143.095C109.853 143.035 110.219 142.57 110.219 142.09C110.219 141.392 109.679 141.259 109.185 141.14V140.071C109.422 140.13 109.561 140.313 109.58 140.512H110.184C110.14 139.952 109.754 139.641 109.185 139.591V139.19H108.863V139.596C108.249 139.65 107.824 140.032 107.824 140.586C107.824 141.284 108.368 141.422 108.863 141.546V142.634C108.586 142.585 108.447 142.402 108.427 142.154H107.824C107.824 142.713 108.259 143.045 108.863 143.1V143.5ZM109.65 142.12C109.65 142.377 109.482 142.585 109.185 142.634V141.63C109.452 141.714 109.65 141.838 109.65 142.12ZM108.398 140.556C108.398 140.254 108.591 140.091 108.863 140.056V141.056C108.596 140.972 108.398 140.843 108.398 140.556ZM111.428 143.07H111.997V139.462H110.968V139.977H111.428V143.07ZM112.772 141.219C112.772 142.268 113.049 143.06 114.059 143.06C115.069 143.06 115.345 142.268 115.345 141.219C115.345 140.19 115.069 139.398 114.059 139.398C113.049 139.398 112.772 140.19 112.772 141.219ZM114.791 141.219C114.791 141.927 114.717 142.545 114.059 142.545C113.401 142.545 113.327 141.927 113.327 141.219C113.327 140.546 113.401 139.913 114.059 139.913C114.717 139.913 114.791 140.546 114.791 141.219ZM115.67 143.758H116.036L116.635 142.392H116.022L115.67 143.758ZM117.054 141.219C117.054 142.268 117.331 143.06 118.341 143.06C119.35 143.06 119.627 142.268 119.627 141.219C119.627 140.19 119.35 139.398 118.341 139.398C117.331 139.398 117.054 140.19 117.054 141.219ZM119.073 141.219C119.073 141.927 118.999 142.545 118.341 142.545C117.682 142.545 117.608 141.927 117.608 141.219C117.608 140.546 117.682 139.913 118.341 139.913C118.999 139.913 119.073 140.546 119.073 141.219ZM120.224 141.219C120.224 142.268 120.501 143.06 121.511 143.06C122.52 143.06 122.797 142.268 122.797 141.219C122.797 140.19 122.52 139.398 121.511 139.398C120.501 139.398 120.224 140.19 120.224 141.219ZM122.243 141.219C122.243 141.927 122.169 142.545 121.511 142.545C120.852 142.545 120.778 141.927 120.778 141.219C120.778 140.546 120.852 139.913 121.511 139.913C122.169 139.913 122.243 140.546 122.243 141.219ZM123.394 141.219C123.394 142.268 123.671 143.06 124.681 143.06C125.69 143.06 125.967 142.268 125.967 141.219C125.967 140.19 125.69 139.398 124.681 139.398C123.671 139.398 123.394 140.19 123.394 141.219ZM125.413 141.219C125.413 141.927 125.339 142.545 124.681 142.545C124.023 142.545 123.948 141.927 123.948 141.219C123.948 140.546 124.023 139.913 124.681 139.913C125.339 139.913 125.413 140.546 125.413 141.219ZM127.222 142.743C127.222 142.648 127.185 142.557 127.117 142.49C127.05 142.422 126.959 142.385 126.864 142.385C126.769 142.385 126.677 142.422 126.61 142.49C126.543 142.557 126.505 142.648 126.505 142.743C126.505 142.839 126.543 142.93 126.61 142.997C126.677 143.064 126.769 143.102 126.864 143.102C126.959 143.102 127.05 143.064 127.117 142.997C127.185 142.93 127.222 142.839 127.222 142.743ZM127.758 141.219C127.758 142.268 128.035 143.06 129.044 143.06C130.053 143.06 130.331 142.268 130.331 141.219C130.331 140.19 130.054 139.398 129.044 139.398C128.035 139.398 127.758 140.19 127.758 141.219ZM129.777 141.219C129.777 141.927 129.702 142.545 129.044 142.545C128.386 142.545 128.312 141.927 128.312 141.219C128.312 140.546 128.386 139.913 129.044 139.913C129.702 139.913 129.777 140.546 129.777 141.219ZM130.928 141.219C130.928 142.268 131.205 143.06 132.214 143.06C133.223 143.06 133.501 142.268 133.501 141.219C133.501 140.19 133.224 139.398 132.214 139.398C131.205 139.398 130.928 140.19 130.928 141.219ZM132.947 141.219C132.947 141.927 132.872 142.545 132.214 142.545C131.556 142.545 131.482 141.927 131.482 141.219C131.482 140.546 131.556 139.913 132.214 139.913C132.872 139.913 132.947 140.546 132.947 141.219ZM11.9483 141.219C11.9483 142.268 12.2255 143.06 13.2347 143.06C14.2439 143.06 14.5212 142.268 14.5212 141.219C14.5212 140.19 14.2439 139.398 13.2347 139.398C12.2255 139.398 11.9483 140.19 11.9483 141.219ZM13.9674 141.219C13.9674 141.927 13.8933 142.545 13.2351 142.545C12.5769 142.545 12.5028 141.927 12.5028 141.219C12.5028 140.546 12.5769 139.913 13.2351 139.913C13.8933 139.913 13.9674 140.546 13.9674 141.219ZM15.2522 141.516H17.2862V141.041H15.2522V141.516ZM18.0033 140.353H18.5525C18.5874 140.101 18.7704 139.863 19.1661 139.863C19.5519 139.863 19.755 140.071 19.755 140.383C19.755 140.769 19.4434 140.917 18.9334 140.922H18.7999V141.387H18.9285C19.5175 141.387 19.8243 141.551 19.8243 142.026C19.8243 142.362 19.6166 142.62 19.196 142.62C18.7704 142.62 18.5231 142.362 18.4981 142.026H17.9538C17.9886 142.734 18.5177 143.089 19.2009 143.089C19.9529 143.089 20.3587 142.654 20.3587 142.08C20.3587 141.58 20.1163 141.269 19.7403 141.155V141.135C20.0225 141.041 20.2944 140.749 20.2944 140.319C20.2944 139.794 19.9033 139.378 19.1862 139.378C18.528 139.378 18.043 139.73 18.0033 140.353ZM20.9514 141.219C20.9514 142.268 21.2287 143.06 22.2378 143.06C23.247 143.06 23.5243 142.268 23.5243 141.219C23.5243 140.19 23.247 139.398 22.2378 139.398C21.2287 139.398 20.9514 140.19 20.9514 141.219ZM22.9706 141.219C22.9706 141.927 22.8964 142.545 22.2383 142.545C21.5801 142.545 21.5059 141.927 21.5059 141.219C21.5059 140.546 21.5801 139.913 22.2383 139.913C22.8964 139.913 22.9706 140.546 22.9706 141.219ZM76.6973 157.727H77.0192V157.322C77.6872 157.262 78.0534 156.797 78.0534 156.317C78.0534 155.619 77.514 155.485 77.0192 155.367V154.298C77.2568 154.357 77.3952 154.541 77.4149 154.738H78.0186C77.9744 154.179 77.5881 153.867 77.0192 153.818V153.417H76.6973V153.823C76.0838 153.878 75.6582 154.258 75.6582 154.813C75.6582 155.51 76.2026 155.649 76.6973 155.773V156.861C76.4204 156.812 76.282 156.629 76.2619 156.381H75.6582C75.6582 156.94 76.0936 157.272 76.6973 157.326V157.727ZM77.4841 156.346C77.4841 156.604 77.3162 156.812 77.0192 156.861V155.857C77.2863 155.941 77.4841 156.065 77.4841 156.346ZM76.2325 154.783C76.2325 154.481 76.4254 154.318 76.6973 154.283V155.283C76.4303 155.198 76.2325 155.07 76.2325 154.783ZM79.0253 153.679V155.763H79.5598C79.6536 155.495 79.8764 155.312 80.2077 155.312C80.6779 155.312 80.9106 155.58 80.9106 156.05C80.9106 156.495 80.6927 156.826 80.2077 156.826C79.8268 156.826 79.5696 156.629 79.4955 156.322H78.9459C79.0302 156.886 79.4607 157.297 80.2028 157.297C81.0392 157.297 81.45 156.752 81.45 156.035C81.45 155.49 81.1776 154.832 80.2921 154.832C79.9702 154.832 79.6786 154.981 79.5446 155.159V154.174H81.2026V153.679H79.0253ZM81.7649 157.985H82.1311L82.7299 156.619H82.1163L81.7649 157.985ZM83.1488 155.446C83.1488 156.495 83.4257 157.287 84.4353 157.287C85.4449 157.287 85.7217 156.495 85.7217 155.446C85.7217 154.417 85.4449 153.625 84.4353 153.625C83.4257 153.625 83.1488 154.417 83.1488 155.446ZM85.1676 155.446C85.1676 156.153 85.0935 156.772 84.4353 156.772C83.7771 156.772 83.703 156.153 83.703 155.446C83.703 154.773 83.7771 154.14 84.4353 154.14C85.0935 154.14 85.1676 154.773 85.1676 155.446ZM86.3189 155.446C86.3189 156.495 86.5958 157.287 87.6053 157.287C88.6149 157.287 88.8918 156.495 88.8918 155.446C88.8918 154.417 88.6149 153.625 87.6053 153.625C86.5958 153.625 86.3189 154.417 86.3189 155.446ZM88.3377 155.446C88.3377 156.153 88.2635 156.772 87.6053 156.772C86.9472 156.772 86.873 156.153 86.873 155.446C86.873 154.773 86.9472 154.14 87.6053 154.14C88.2635 154.14 88.3377 154.773 88.3377 155.446ZM89.489 155.446C89.489 156.495 89.7658 157.287 90.7754 157.287C91.785 157.287 92.0619 156.495 92.0619 155.446C92.0619 154.417 91.785 153.625 90.7754 153.625C89.7658 153.625 89.489 154.417 89.489 155.446ZM91.5077 155.446C91.5077 156.153 91.4336 156.772 90.7754 156.772C90.1172 156.772 90.0431 156.153 90.0431 155.446C90.0431 154.773 90.1172 154.14 90.7754 154.14C91.4336 154.14 91.5077 154.773 91.5077 155.446ZM93.3172 156.97C93.3172 156.875 93.2794 156.784 93.2121 156.716C93.1448 156.649 93.0536 156.611 92.9584 156.611C92.8633 156.611 92.772 156.649 92.7047 156.716C92.6374 156.784 92.5996 156.875 92.5996 156.97C92.5996 157.065 92.6374 157.157 92.7047 157.224C92.772 157.291 92.8633 157.329 92.9584 157.329C93.0536 157.329 93.1448 157.291 93.2121 157.224C93.2794 157.157 93.3172 157.065 93.3172 156.97ZM93.8525 155.446C93.8525 156.495 94.1298 157.287 95.1394 157.287C96.1489 157.287 96.4258 156.495 96.4258 155.446C96.4258 154.417 96.1485 153.625 95.1394 153.625C94.1302 153.625 93.8525 154.417 93.8525 155.446ZM95.8717 155.446C95.8717 156.153 95.7971 156.772 95.1394 156.772C94.4816 156.772 94.4066 156.153 94.4066 155.446C94.4066 154.773 94.4812 154.14 95.1394 154.14C95.7975 154.14 95.8717 154.773 95.8717 155.446ZM97.0226 155.446C97.0226 156.495 97.2998 157.287 98.3094 157.287C99.319 157.287 99.5959 156.495 99.5959 155.446C99.5959 154.417 99.3186 153.625 98.3094 153.625C97.3002 153.625 97.0226 154.417 97.0226 155.446ZM99.0417 155.446C99.0417 156.153 98.9676 156.772 98.3094 156.772C97.6512 156.772 97.5767 156.153 97.5767 155.446C97.5767 154.773 97.6512 154.14 98.3094 154.14C98.9676 154.14 99.0417 154.773 99.0417 155.446ZM11.938 153.343H12.4873C12.5221 153.09 12.7051 152.853 13.1008 152.853C13.4866 152.853 13.6897 153.061 13.6897 153.373C13.6897 153.759 13.3781 153.907 12.8682 153.912H12.7346V154.377H12.8632C13.4522 154.377 13.759 154.541 13.759 155.015C13.759 155.352 13.5513 155.609 13.1307 155.609C12.7051 155.609 12.4578 155.352 12.4328 155.015H11.8885C11.9233 155.723 12.4524 156.079 13.1356 156.079C13.888 156.079 14.2934 155.644 14.2934 155.07C14.2934 154.57 14.051 154.258 13.675 154.145V154.125C13.9572 154.031 14.2291 153.739 14.2291 153.308C14.2291 152.784 13.8384 152.368 13.1209 152.368C12.4627 152.368 11.9778 152.719 11.938 153.343ZM15.2719 156.06H15.8408V152.452H14.8116V152.967H15.2719V156.06ZM16.7496 154.506H18.7835V154.031H16.7496V154.506ZM21.97 153.289C21.9106 152.809 21.5592 152.363 20.8568 152.363C19.9561 152.363 19.5802 153.046 19.5802 154.174C19.5802 155.322 19.8525 156.06 20.9014 156.06C21.6735 156.06 22.0843 155.54 22.0843 154.857C22.0843 154.105 21.6239 153.669 20.976 153.669C20.6 153.669 20.2437 153.828 20.0655 154.125C20.0802 153.18 20.3428 152.833 20.8523 152.833C21.2086 152.833 21.3818 152.997 21.4511 153.289H21.9708H21.97ZM20.8519 154.145C21.327 154.145 21.5444 154.451 21.5444 154.882C21.5444 155.307 21.2872 155.59 20.8715 155.59C20.3915 155.59 20.1294 155.293 20.1294 154.847C20.1294 154.367 20.4808 154.145 20.8519 154.145ZM22.6859 154.209C22.6859 155.258 22.9632 156.05 23.9724 156.05C24.9815 156.05 25.2588 155.258 25.2588 154.209C25.2588 153.18 24.9815 152.388 23.9724 152.388C22.9632 152.388 22.6859 153.18 22.6859 154.209ZM24.7047 154.209C24.7047 154.917 24.6305 155.535 23.9724 155.535C23.3142 155.535 23.2401 154.917 23.2401 154.209C23.2401 153.536 23.3142 152.902 23.9724 152.902C24.6305 152.902 24.7047 153.536 24.7047 154.209ZM59.998 170.717H60.3195V170.311C60.9875 170.252 61.3537 169.787 61.3537 169.307C61.3537 168.609 60.8147 168.475 60.3195 168.357V167.288C60.557 167.347 60.6959 167.53 60.7156 167.728H61.3193C61.2746 167.169 60.8888 166.857 60.3195 166.808V166.407H59.998V166.813C59.3845 166.867 58.9589 167.248 58.9589 167.802C58.9589 168.5 59.5032 168.639 59.998 168.762V169.851C59.7207 169.802 59.5823 169.618 59.5626 169.371H58.9589C58.9589 169.93 59.3943 170.262 59.998 170.316V170.717ZM60.7848 169.336C60.7848 169.594 60.6164 169.802 60.3195 169.851V168.846C60.5869 168.931 60.7848 169.054 60.7848 169.336ZM59.5327 167.773C59.5327 167.471 59.7256 167.308 59.998 167.273V168.273C59.731 168.188 59.5327 168.06 59.5327 167.773ZM62.1327 170.237H64.5376V169.767H62.969C63.5481 169.238 64.4385 168.57 64.4385 167.693C64.4385 167.045 64.0228 166.605 63.2905 166.605C62.6524 166.605 62.1474 166.986 62.1277 167.768H62.6721C62.6868 167.362 62.8998 167.085 63.2954 167.085C63.7161 167.085 63.8795 167.342 63.8795 167.718C63.8795 168.426 62.9837 169.079 62.1327 169.826V170.237ZM64.7609 170.975H65.1274L65.7258 169.609H65.1123L64.7609 170.975ZM66.2931 166.669V168.753H66.8275C66.9217 168.485 67.1441 168.302 67.4759 168.302C67.9461 168.302 68.1787 168.57 68.1787 169.039C68.1787 169.485 67.9608 169.816 67.4759 169.816C67.095 169.816 66.8374 169.618 66.7632 169.312H66.214C66.298 169.876 66.7284 170.286 67.471 170.286C68.3073 170.286 68.7177 169.742 68.7177 169.025C68.7177 168.48 68.4457 167.822 67.5598 167.822C67.2383 167.822 66.9463 167.971 66.8128 168.149V167.164H68.4703V166.669H66.2931ZM69.305 168.436C69.305 169.485 69.5823 170.277 70.5919 170.277C71.6015 170.277 71.8783 169.485 71.8783 168.436C71.8783 167.406 71.6011 166.615 70.5919 166.615C69.5827 166.615 69.305 167.406 69.305 168.436ZM71.3242 168.436C71.3242 169.143 71.2501 169.762 70.5919 169.762C69.9337 169.762 69.8592 169.143 69.8592 168.436C69.8592 167.763 69.9337 167.129 70.5919 167.129C71.2501 167.129 71.3242 167.763 71.3242 168.436ZM72.4751 168.436C72.4751 169.485 72.7524 170.277 73.7619 170.277C74.7715 170.277 75.0484 169.485 75.0484 168.436C75.0484 167.406 74.7711 166.615 73.7619 166.615C72.7528 166.615 72.4751 167.406 72.4751 168.436ZM74.4943 168.436C74.4943 169.143 74.4201 169.762 73.7619 169.762C73.1038 169.762 73.0296 169.143 73.0296 168.436C73.0296 167.763 73.1038 167.129 73.7619 167.129C74.4201 167.129 74.4943 167.763 74.4943 168.436ZM76.3033 169.96C76.3033 169.757 76.1452 169.599 75.947 169.599C75.8512 169.599 75.7593 169.637 75.6916 169.705C75.6238 169.772 75.5858 169.864 75.5858 169.96C75.5858 170.056 75.6238 170.148 75.6916 170.215C75.7593 170.283 75.8512 170.321 75.947 170.321C75.9942 170.321 76.0409 170.312 76.0845 170.294C76.128 170.275 76.1675 170.249 76.2007 170.215C76.2339 170.182 76.26 170.142 76.2776 170.098C76.2952 170.054 76.304 170.007 76.3033 169.96ZM76.839 168.436C76.839 169.485 77.1159 170.277 78.1255 170.277C79.1351 170.277 79.4123 169.485 79.4123 168.436C79.4123 167.406 79.1351 166.615 78.1255 166.615C77.1159 166.615 76.839 167.406 76.839 168.436ZM78.8578 168.436C78.8578 169.143 78.7837 169.762 78.1255 169.762C77.4673 169.762 77.3932 169.143 77.3932 168.436C77.3932 167.763 77.4673 167.129 78.1255 167.129C78.7837 167.129 78.8578 167.763 78.8578 168.436ZM80.0091 168.436C80.0091 169.485 80.2864 170.277 81.2955 170.277C82.3047 170.277 82.5824 169.485 82.5824 168.436C82.5824 167.406 82.3051 166.615 81.2955 166.615C80.286 166.615 80.0091 167.406 80.0091 168.436ZM82.0279 168.436C82.0279 169.143 81.9537 169.762 81.2955 169.762C80.6374 169.762 80.5632 169.143 80.5632 168.436C80.5632 167.763 80.6374 167.129 81.2955 167.129C81.9537 167.129 82.0279 167.763 82.0279 168.436ZM14.4073 168.134C14.3479 167.654 13.9965 167.209 13.2941 167.209C12.3935 167.209 12.0175 167.891 12.0175 169.02C12.0175 170.168 12.2898 170.905 13.3387 170.905C14.1108 170.905 14.5216 170.385 14.5216 169.702C14.5216 168.95 14.0612 168.515 13.4133 168.515C13.0373 168.515 12.681 168.673 12.5028 168.97C12.5176 168.025 12.7801 167.679 13.2896 167.679C13.6459 167.679 13.8192 167.842 13.8884 168.134H14.4081H14.4073ZM13.2888 168.99C13.7639 168.99 13.9818 169.297 13.9818 169.727C13.9818 170.153 13.7246 170.435 13.3088 170.435C12.8288 170.435 12.5667 170.138 12.5667 169.693C12.5667 169.213 12.9177 168.99 13.2888 168.99ZM15.5086 170.905H16.0775V167.297H15.0483V167.812H15.5086V170.905ZM16.9864 169.351H19.0203V168.876H16.9864V169.351ZM19.9303 169.925C19.975 170.44 20.3215 170.9 21.0685 170.9C22.0138 170.9 22.271 170.252 22.271 169.034C22.271 167.852 21.9593 167.213 21.0288 167.213C20.2715 167.213 19.8312 167.689 19.8312 168.406C19.8312 169.168 20.3456 169.559 20.9792 169.559C21.3057 169.559 21.6178 169.435 21.7808 169.208C21.7808 170.128 21.553 170.43 21.1029 170.43C20.7269 170.43 20.514 170.247 20.4497 169.925H19.9299H19.9303ZM21.0784 169.084C20.5787 169.084 20.3706 168.762 20.3706 168.391C20.3706 167.975 20.6229 167.684 21.0435 167.684C21.4543 167.684 21.7165 167.946 21.7165 168.406C21.7165 168.812 21.4793 169.084 21.0784 169.084ZM22.8882 169.054C22.8882 170.103 23.1655 170.895 24.1747 170.895C25.1839 170.895 25.4611 170.103 25.4611 169.054C25.4611 168.025 25.1839 167.233 24.1747 167.233C23.1655 167.233 22.8882 168.025 22.8882 169.054ZM24.9074 169.054C24.9074 169.762 24.8333 170.38 24.1751 170.38C23.5169 170.38 23.4428 169.762 23.4428 169.054C23.4428 168.381 23.5169 167.748 24.1751 167.748C24.8333 167.748 24.9074 168.381 24.9074 169.054Z" fill="black"/>
<path d="M11.6514 130.014C11.6514 129.501 12.0667 129.085 12.579 129.085H41.651C42.1638 129.085 42.5791 129.501 42.5791 130.014C42.5791 130.526 42.1638 130.941 41.651 130.941H12.579C12.0667 130.941 11.6514 130.526 11.6514 130.014Z" fill="#FF4998"/>
<path d="M101.031 140.22H28.6608C27.8067 140.22 27.1143 140.912 27.1143 141.766C27.1143 142.62 27.8067 143.312 28.6608 143.312H101.031C101.886 143.312 102.578 142.62 102.578 141.766C102.578 140.912 101.886 140.22 101.031 140.22Z" fill="#D9D9D9"/>
<path d="M57.1143 140.22H28.6608C27.8067 140.22 27.1143 140.912 27.1143 141.766C27.1143 142.62 27.8067 143.312 28.6608 143.312H57.1143C57.9684 143.312 58.6608 142.62 58.6608 141.766C58.6608 140.912 57.9684 140.22 57.1143 140.22Z" fill="#1665D8"/>
<path d="M68.2482 153.828H29.2794C28.4253 153.828 27.7329 154.52 27.7329 155.374C27.7329 156.228 28.4253 156.92 29.2794 156.92H68.2482C69.1023 156.92 69.7948 156.228 69.7948 155.374C69.7948 154.52 69.1023 153.828 68.2482 153.828Z" fill="#D9D9D9"/>
<path d="M49.6924 167.436H29.8988C29.0447 167.436 28.3523 168.128 28.3523 168.982C28.3523 169.836 29.0447 170.529 29.8988 170.529H49.6924C50.5466 170.529 51.239 169.836 51.239 168.982C51.239 168.128 50.5466 167.436 49.6924 167.436Z" fill="#D9D9D9"/>
<path d="M39.7947 153.828H29.2794C28.4253 153.828 27.7329 154.52 27.7329 155.374C27.7329 156.228 28.4253 156.92 29.2794 156.92H39.7947C40.6488 156.92 41.3412 156.228 41.3412 155.374C41.3412 154.52 40.6488 153.828 39.7947 153.828Z" fill="#1665D8"/>
<path d="M34.2284 167.436H29.8988C29.0447 167.436 28.3523 168.128 28.3523 168.982C28.3523 169.836 29.0447 170.529 29.8988 170.529H34.2284C35.0825 170.529 35.7749 169.836 35.7749 168.982C35.7749 168.128 35.0825 167.436 34.2284 167.436Z" fill="#1665D8"/>
<path d="M142.476 117.951C142.988 117.951 143.404 117.536 143.404 117.023C143.404 116.511 142.988 116.096 142.476 116.096C141.964 116.096 141.548 116.511 141.548 117.023C141.548 117.536 141.964 117.951 142.476 117.951Z" fill="#D9D9D9"/>
<path d="M142.476 120.425C142.988 120.425 143.404 120.01 143.404 119.498C143.404 118.985 142.988 118.57 142.476 118.57C141.964 118.57 141.548 118.985 141.548 119.498C141.548 120.01 141.964 120.425 142.476 120.425Z" fill="#D9D9D9"/>
<path d="M142.476 122.899C142.988 122.899 143.404 122.484 143.404 121.972C143.404 121.459 142.988 121.044 142.476 121.044C141.964 121.044 141.548 121.459 141.548 121.972C141.548 122.484 141.964 122.899 142.476 122.899Z" fill="#D9D9D9"/>
</g>
</g>
<defs>
<filter id="filter0_d_1_2905" x="65.4664" y="0.42627" width="285.773" height="238.144" filterUnits="userSpaceOnUse" color-interpolation-filters="sRGB">
<feFlood flood-opacity="0" result="BackgroundImageFix"/>
<feColorMatrix in="SourceAlpha" type="matrix" values="0 0 0 0 0 0 0 0 0 0 0 0 0 0 0 0 0 0 127 0" result="hardAlpha"/>
<feOffset dy="6.80412"/>
<feGaussianBlur stdDeviation="6.80416"/>
<feComposite in2="hardAlpha" operator="out"/>
<feColorMatrix type="matrix" values="0 0 0 0 0 0 0 0 0 0 0 0 0 0 0 0 0 0 0.05 0"/>
<feBlend mode="normal" in2="BackgroundImageFix" result="effect1_dropShadow_1_2905"/>
<feBlend mode="normal" in="SourceGraphic" in2="effect1_dropShadow_1_2905" result="shape"/>
</filter>
<clipPath id="clip0_1_2905">
<rect width="351" height="238.36" fill="white" transform="translate(0.5 0.271973)"/>
</clipPath>
<clipPath id="clip1_1_2905">
<rect width="351" height="238.369" fill="white" transform="translate(0.5 0.267578)"/>
</clipPath>
</defs>
</svg>
