<svg width="352" height="272" viewBox="0 0 352 272" fill="none" xmlns="http://www.w3.org/2000/svg">
<g clip-path="url(#clip0_1_2788)">
<g filter="url(#filter0_f_1_2788)">
<path d="M171.856 38.2522H41.7995C40.0541 38.2522 38.6392 39.6671 38.6392 41.4125V198.197C38.6392 199.942 40.0541 201.357 41.7995 201.357H171.856C173.602 201.357 175.017 199.942 175.017 198.197V41.4125C175.017 39.6671 173.602 38.2522 171.856 38.2522Z" fill="#D9D9D9" fill-opacity="0.35"/>
</g>
<path d="M167.058 43.7981H46.5949C44.8844 43.7981 43.4978 45.1847 43.4978 46.8952V192.714C43.4978 194.425 44.8844 195.811 46.5949 195.811H167.058C168.768 195.811 170.155 194.425 170.155 192.714V46.8952C170.155 45.1847 168.768 43.7981 167.058 43.7981Z" fill="white" stroke="#989898" stroke-width="0.126412"/>
<path d="M111.283 78.0005H61.2547C60.1192 78.0005 59.1987 78.921 59.1987 80.0564C59.1987 81.1919 60.1192 82.1124 61.2547 82.1124H111.283C112.418 82.1124 113.339 81.1919 113.339 80.0564C113.339 78.921 112.418 78.0005 111.283 78.0005Z" fill="#D9D9D9" fill-opacity="0.35"/>
<path d="M111.283 165.036H61.2547C60.1192 165.036 59.1987 165.956 59.1987 167.092C59.1987 168.227 60.1192 169.148 61.2547 169.148H111.283C112.418 169.148 113.339 168.227 113.339 167.092C113.339 165.956 112.418 165.036 111.283 165.036Z" fill="#D9D9D9" fill-opacity="0.35"/>
<path d="M82.4994 90.3354H61.2547C60.1192 90.3354 59.1987 91.2559 59.1987 92.3914C59.1987 93.5269 60.1192 94.4473 61.2547 94.4473H82.4994C83.6349 94.4473 84.5554 93.5269 84.5554 92.3914C84.5554 91.2559 83.6349 90.3354 82.4994 90.3354Z" fill="#D9D9D9" fill-opacity="0.35"/>
<path opacity="0.6" d="M82.4994 99.2451H61.2547C60.1192 99.2451 59.1987 100.166 59.1987 101.301C59.1987 102.437 60.1192 103.357 61.2547 103.357H82.4994C83.6349 103.357 84.5554 102.437 84.5554 101.301C84.5554 100.166 83.6349 99.2451 82.4994 99.2451Z" fill="#D9D9D9" fill-opacity="0.35"/>
<path opacity="0.6" d="M82.4994 108.154H61.2547C60.1192 108.154 59.1987 109.075 59.1987 110.21C59.1987 111.346 60.1192 112.266 61.2547 112.266H82.4994C83.6349 112.266 84.5554 111.346 84.5554 110.21C84.5554 109.075 83.6349 108.154 82.4994 108.154Z" fill="#D9D9D9" fill-opacity="0.35"/>
<path d="M118.823 90.3354H97.5779C96.4424 90.3354 95.522 91.2559 95.522 92.3914C95.522 93.5269 96.4424 94.4473 97.5779 94.4473H118.823C119.958 94.4473 120.879 93.5269 120.879 92.3914C120.879 91.2559 119.958 90.3354 118.823 90.3354Z" fill="#D9D9D9" fill-opacity="0.35"/>
<path opacity="0.6" d="M118.823 99.2451H97.5779C96.4424 99.2451 95.522 100.166 95.522 101.301C95.522 102.437 96.4424 103.357 97.5779 103.357H118.823C119.958 103.357 120.879 102.437 120.879 101.301C120.879 100.166 119.958 99.2451 118.823 99.2451Z" fill="#D9D9D9" fill-opacity="0.35"/>
<path opacity="0.6" d="M118.823 108.154H97.5779C96.4424 108.154 95.522 109.075 95.522 110.21C95.522 111.346 96.4424 112.266 97.5779 112.266H118.823C119.958 112.266 120.879 111.346 120.879 110.21C120.879 109.075 119.958 108.154 118.823 108.154Z" fill="#D9D9D9" fill-opacity="0.35"/>
<path d="M155.141 90.3354H133.897C132.761 90.3354 131.841 91.2559 131.841 92.3914C131.841 93.5269 132.761 94.4473 133.897 94.4473H155.141C156.277 94.4473 157.197 93.5269 157.197 92.3914C157.197 91.2559 156.277 90.3354 155.141 90.3354Z" fill="#D9D9D9" fill-opacity="0.35"/>
<path opacity="0.6" d="M155.141 99.2451H133.897C132.761 99.2451 131.841 100.166 131.841 101.301C131.841 102.437 132.761 103.357 133.897 103.357H155.141C156.277 103.357 157.197 102.437 157.197 101.301C157.197 100.166 156.277 99.2451 155.141 99.2451Z" fill="#D9D9D9" fill-opacity="0.35"/>
<path opacity="0.6" d="M155.141 108.154H133.897C132.761 108.154 131.841 109.075 131.841 110.21C131.841 111.346 132.761 112.266 133.897 112.266H155.141C156.277 112.266 157.197 111.346 157.197 110.21C157.197 109.075 156.277 108.154 155.141 108.154Z" fill="#D9D9D9" fill-opacity="0.35"/>
<path opacity="0.6" d="M155.141 165.036H133.897C132.761 165.036 131.841 165.956 131.841 167.092C131.841 168.227 132.761 169.148 133.897 169.148H155.141C156.277 169.148 157.197 168.227 157.197 167.092C157.197 165.956 156.277 165.036 155.141 165.036Z" fill="#01CC74"/>
<path d="M60.2553 62.2478V61.2216H60.8166C61.2165 61.2216 61.3935 61.4135 61.3935 61.7371C61.3935 62.0506 61.2165 62.2478 60.8166 62.2478H60.2553ZM62.1211 61.7371C62.1211 61.1257 61.6968 60.6448 60.847 60.6448H59.5476V64.1745H60.2553V62.8193H60.847C61.757 62.8193 62.1211 62.2734 62.1211 61.7371ZM64.8111 61.7425C64.8111 62.0607 64.6341 62.2681 64.2396 62.2681H63.6479V61.2318H64.2396C64.6341 61.2318 64.8111 61.429 64.8111 61.7425ZM62.9399 60.6448V64.1745H63.6479V62.7991H63.9816L64.7605 64.1745H65.5793L64.7348 62.7436C65.3016 62.5917 65.5387 62.1566 65.5387 61.727C65.5387 61.1352 65.1144 60.6448 64.2647 60.6448H62.9399ZM69.9385 62.3998C69.9385 61.3426 69.1399 60.5947 68.1334 60.5947C67.1376 60.5947 66.3236 61.3426 66.3236 62.3998C66.3236 63.4617 67.1376 64.2096 68.1334 64.2096C69.1346 64.2096 69.9385 63.4617 69.9385 62.3998ZM67.0518 62.3998C67.0518 61.6817 67.4916 61.2318 68.1334 61.2318C68.7704 61.2318 69.2108 61.6817 69.2108 62.3998C69.2108 63.1179 68.7704 63.5779 68.1334 63.5779C67.4916 63.5779 67.0518 63.1179 67.0518 62.3998ZM71.4891 62.2478V61.2216H72.0504C72.4503 61.2216 72.6273 61.4135 72.6273 61.7371C72.6273 62.0506 72.4503 62.2478 72.0504 62.2478H71.4891ZM73.3549 61.7371C73.3549 61.1257 72.9306 60.6448 72.0808 60.6448H70.7817V64.1745H71.4891V62.8193H72.0808C72.9914 62.8193 73.3549 62.2734 73.3549 61.7371ZM76.2219 60.64H74.1737V64.1745H76.2219V63.5982H74.8817V62.6626H76.0699V62.1012H74.8817V61.2163H76.2219V60.64ZM79.0519 61.7425C79.0519 62.0607 78.875 62.2681 78.4805 62.2681H77.8887V61.2318H78.4805C78.875 61.2318 79.0519 61.429 79.0519 61.7425ZM77.1807 60.6448V64.1745H77.8887V62.7991H78.2224L79.0013 64.1745H79.8207L78.9763 62.7436C79.5424 62.5917 79.7802 62.1566 79.7802 61.727C79.7802 61.1352 79.3553 60.6448 78.5061 60.6448H77.1807ZM80.5495 61.2163H81.4899V64.1745H82.1978V61.2163H83.1382V60.6448H80.5495V61.2163ZM84.8759 62.9457V64.1745H85.5839V62.9457L86.7769 60.6448H85.9885L85.2347 62.258L84.4767 60.6448H83.6775L84.8759 62.9457ZM89.0224 64.1745H89.7303V60.6448H89.0224V64.1745ZM93.0562 60.64V63.0672L91.4537 60.64H90.7458V64.1745H91.4537V61.7526L93.0562 64.1745H93.7641V60.64H93.0562ZM94.608 62.4046C94.608 63.4617 95.3815 64.2048 96.3981 64.2048C97.1818 64.2048 97.8188 63.7901 98.0566 63.0619H97.2426C97.0757 63.4057 96.7724 63.5726 96.3928 63.5726C95.776 63.5726 95.3362 63.1179 95.3362 62.4046C95.3362 61.6865 95.776 61.2365 96.3928 61.2365C96.7724 61.2365 97.0757 61.4034 97.2426 61.7425H98.0566C97.8188 61.019 97.1818 60.5995 96.3981 60.5995C95.3815 60.5995 94.608 61.348 94.608 62.4046ZM99.7204 63.7954C99.7204 63.5624 99.5387 63.3807 99.2908 63.3807C99.0327 63.3807 98.851 63.5624 98.851 63.7954C98.851 64.0279 99.0327 64.2096 99.2908 64.2096C99.5387 64.2096 99.7204 64.0279 99.7204 63.7954Z" fill="#373535"/>
<path d="M144.549 178.067V177.04H145.11C145.509 177.04 145.686 177.233 145.686 177.556C145.686 177.87 145.509 178.067 145.11 178.067H144.549ZM146.415 177.556C146.415 176.944 145.99 176.464 145.14 176.464H143.841V179.994H144.549V178.639H145.14C146.051 178.639 146.415 178.092 146.415 177.556ZM149.63 179.994H150.378L149.109 176.459H148.285L147.015 179.994H147.759L147.991 179.321H149.397L149.63 179.994ZM149.205 178.755H148.184L148.694 177.278L149.205 178.755ZM151.168 179.994H151.876V176.464H151.168V179.994ZM154.126 176.464H152.892V179.994H154.126C155.253 179.994 155.986 179.301 155.986 178.234C155.986 177.162 155.253 176.464 154.126 176.464ZM153.6 179.392V177.061H154.1C154.844 177.061 155.264 177.5 155.264 178.234C155.264 178.967 154.844 179.392 154.1 179.392H153.6Z" fill="#373535"/>
<path d="M132.042 62.936C132.042 63.7435 132.285 64.3466 133.066 64.3466C133.847 64.3466 134.09 63.7435 134.09 62.936C134.09 62.1357 133.847 61.5362 133.066 61.5362C132.285 61.5362 132.042 62.1357 132.042 62.936ZM133.567 62.936C133.567 63.4289 133.514 63.8538 133.066 63.8538C132.618 63.8538 132.565 63.4289 132.565 62.936C132.565 62.4617 132.618 62.0296 133.066 62.0296C133.514 62.0296 133.567 62.4617 133.567 62.936ZM135.113 64.3543H135.66V61.5898H134.745V62.0785H135.113V64.3543ZM136.439 65.0408H136.959L137.982 60.7627H137.463L136.439 65.0408ZM138.963 64.3543H139.51V61.5898H138.596V62.0785H138.963V64.3543ZM140.653 64.3543H141.2V61.5898H140.286V62.0785H140.653V64.3543ZM141.979 65.0408H142.499L143.523 60.7627H143.004L141.979 65.0408ZM144.171 64.3162H146.044V63.8764H144.925C145.365 63.5045 145.983 63.004 145.983 62.3633C145.983 61.8818 145.684 61.5291 145.088 61.5291C144.591 61.5291 144.185 61.8211 144.166 62.4545H144.682C144.686 62.1625 144.826 61.9802 145.08 61.9802C145.342 61.9802 145.452 62.147 145.452 62.3937C145.452 62.9015 144.796 63.3907 144.171 63.9217V64.3162ZM146.664 64.3162H148.537V63.8764H147.418C147.859 63.5045 148.477 63.004 148.477 62.3633C148.477 61.8818 148.177 61.5291 147.582 61.5291C147.085 61.5291 146.679 61.8211 146.66 62.4545H147.176C147.18 62.1625 147.32 61.9802 147.574 61.9802C147.835 61.9802 147.946 62.147 147.946 62.3937C147.946 62.9015 147.29 63.3907 146.664 63.9217V64.3162Z" fill="#373535"/>
<g filter="url(#filter1_d_1_2788)">
<path d="M336.804 143.909H191.256C190.479 143.909 189.709 143.756 188.991 143.459C188.274 143.162 187.621 142.727 187.072 142.178C186.523 141.63 186.087 140.978 185.79 140.262C185.493 139.544 185.339 138.776 185.339 138.001V50.8521C185.339 49.2853 185.963 47.7827 187.072 46.6746C188.181 45.5665 189.685 44.9439 191.255 44.9436H336.804C338.373 44.9436 339.878 45.5661 340.987 46.6742C342.097 47.7822 342.72 49.2851 342.72 50.8521V138.001C342.72 139.568 342.097 141.071 340.987 142.179C339.878 143.287 338.373 143.91 336.804 143.91" fill="#2F3E83"/>
</g>
<path opacity="0.7" fill-rule="evenodd" clip-rule="evenodd" d="M217.916 77.8522H203.223C202.063 77.8522 200.951 77.3921 200.131 76.5727C199.311 75.7539 198.85 74.6431 198.85 73.4853V63.5059C198.85 62.932 198.963 62.3641 199.183 61.8343C199.403 61.3045 199.724 60.8224 200.131 60.4172C200.537 60.0114 201.019 59.6897 201.549 59.4702C202.08 59.2507 202.649 59.1377 203.223 59.1377H217.916C218.491 59.1375 219.06 59.2504 219.591 59.4699C220.121 59.6893 220.603 60.0108 221.009 60.4166C221.415 60.8224 221.738 61.3039 221.957 61.8337C222.177 62.3641 222.29 62.932 222.29 63.5059V73.4841C222.29 74.0573 222.178 74.6259 221.958 75.1556C221.738 75.686 221.415 76.1675 221.009 76.5733C220.603 76.9792 220.121 77.301 219.59 77.5203C219.059 77.7396 218.491 77.8528 217.916 77.8522Z" fill="white"/>
<path d="M204.477 104.793C201.961 104.793 200.703 103.029 200.703 99.5014C200.703 97.6713 201.043 96.2774 201.724 95.3192C202.054 94.8496 202.5 94.4706 203.017 94.2191C203.534 93.967 204.107 93.8508 204.682 93.8812C207.138 93.8812 208.366 95.6743 208.366 99.2606C208.366 101.047 208.031 102.415 207.361 103.366C207.041 103.829 206.608 104.203 206.104 104.452C205.6 104.703 205.04 104.819 204.477 104.793ZM204.581 95.6523C203.573 95.6523 203.07 96.9157 203.07 99.4424C203.07 101.821 203.564 103.011 204.551 103.011C205.514 103.011 205.996 101.784 205.996 99.3309C205.996 96.8775 205.524 95.6517 204.579 95.6523H204.581ZM213.157 104.793C210.642 104.793 209.384 103.029 209.384 99.5014C209.384 97.6713 209.724 96.2774 210.405 95.3192C210.735 94.8496 211.18 94.4706 211.698 94.2191C212.215 93.967 212.788 93.8508 213.363 93.8812C215.819 93.8812 217.047 95.6743 217.047 99.2606C217.047 101.047 216.712 102.415 216.041 103.366C215.722 103.829 215.289 104.203 214.785 104.453C214.28 104.703 213.72 104.82 213.157 104.793ZM213.26 95.6523C212.253 95.6523 211.75 96.9157 211.75 99.4424C211.75 101.821 212.244 103.011 213.231 103.011C214.194 103.011 214.676 101.784 214.676 99.3309C214.676 96.8775 214.204 95.6517 213.26 95.6523H213.26ZM221.837 104.793C219.322 104.793 218.065 103.029 218.065 99.5014C218.065 97.6713 218.405 96.2774 219.085 95.3192C219.416 94.8496 219.861 94.4706 220.379 94.2191C220.896 93.967 221.468 93.8508 222.043 93.8812C224.499 93.8812 225.728 95.6743 225.728 99.2606C225.728 101.047 225.393 102.415 224.722 103.366C224.402 103.829 223.97 104.203 223.465 104.453C222.96 104.703 222.4 104.82 221.837 104.793ZM221.94 95.6523C220.934 95.6523 220.43 96.9157 220.43 99.4424C220.43 101.821 220.924 103.011 221.911 103.011C222.874 103.011 223.356 101.784 223.356 99.3309C223.356 96.8775 222.884 95.6517 221.94 95.6523ZM230.518 104.793C228.003 104.793 226.745 103.029 226.745 99.5014C226.745 97.6713 227.085 96.2774 227.766 95.3192C228.097 94.8496 228.542 94.4706 229.059 94.2191C229.576 93.967 230.149 93.8508 230.724 93.8812C233.18 93.8812 234.408 95.6743 234.408 99.2606C234.408 101.047 234.074 102.415 233.402 103.366C233.083 103.829 232.65 104.203 232.146 104.453C231.641 104.703 231.081 104.82 230.518 104.793ZM230.621 95.6523C229.614 95.6523 229.111 96.9157 229.111 99.4424C229.111 101.821 229.605 103.011 230.592 103.011C231.555 103.011 232.037 101.784 232.037 99.3309C232.037 96.8775 231.565 95.6517 230.621 95.6523ZM243.362 104.793C240.847 104.793 239.59 103.029 239.59 99.5014C239.59 97.6713 239.93 96.2774 240.611 95.3192C240.942 94.8496 241.387 94.4706 241.904 94.2191C242.421 93.967 242.994 93.8508 243.568 93.8812C246.025 93.8812 247.253 95.6743 247.253 99.2606C247.253 101.047 246.918 102.415 246.248 103.366C245.928 103.829 245.495 104.203 244.99 104.453C244.486 104.703 243.925 104.82 243.362 104.793ZM243.466 95.6523C242.459 95.6523 241.955 96.9157 241.955 99.4424C241.955 101.821 242.449 103.011 243.437 103.011C244.4 103.011 244.881 101.784 244.881 99.3309C244.881 96.8775 244.409 95.6517 243.465 95.6523H243.466ZM252.043 104.793C249.528 104.793 248.27 103.029 248.27 99.5014C248.27 97.6713 248.611 96.2774 249.291 95.3192C249.622 94.8496 250.067 94.4706 250.585 94.2191C251.101 93.967 251.675 93.8508 252.249 93.8812C254.706 93.8812 255.934 95.6743 255.934 99.2606C255.934 101.047 255.599 102.415 254.928 103.366C254.609 103.829 254.176 104.203 253.671 104.453C253.166 104.703 252.606 104.82 252.043 104.793ZM252.147 95.6523C251.14 95.6523 250.636 96.9157 250.636 99.4424C250.636 101.821 251.13 103.011 252.118 103.011C253.081 103.011 253.562 101.784 253.562 99.3309C253.562 96.8775 253.091 95.6517 252.147 95.6523ZM260.724 104.793C258.209 104.793 256.951 103.029 256.951 99.5014C256.951 97.6713 257.292 96.2774 257.972 95.3192C258.303 94.8496 258.748 94.4706 259.266 94.2191C259.783 93.967 260.356 93.8508 260.93 93.8812C263.386 93.8812 264.615 95.6743 264.615 99.2606C264.615 101.047 264.28 102.415 263.609 103.366C263.289 103.829 262.857 104.203 262.352 104.453C261.847 104.703 261.286 104.82 260.724 104.793H260.724ZM260.828 95.6523C259.82 95.6523 259.317 96.9157 259.317 99.4424C259.317 101.821 259.811 103.011 260.798 103.011C261.761 103.011 262.243 101.784 262.243 99.3309C262.243 96.8775 261.771 95.6517 260.827 95.6523H260.828ZM269.405 104.793C266.89 104.793 265.633 103.029 265.633 99.5014C265.633 97.6713 265.973 96.2774 266.653 95.3192C266.984 94.8496 267.429 94.4706 267.946 94.2191C268.464 93.967 269.036 93.8508 269.611 93.8812C272.067 93.8812 273.296 95.6743 273.296 99.2606C273.296 101.047 272.961 102.415 272.29 103.366C271.97 103.829 271.538 104.203 271.033 104.453C270.527 104.703 269.968 104.82 269.405 104.793ZM269.508 95.6523C268.502 95.6523 267.998 96.9157 267.998 99.4424C267.998 101.821 268.492 103.011 269.479 103.011C270.442 103.011 270.924 101.784 270.924 99.3309C270.924 96.8775 270.452 95.6517 269.508 95.6523H269.508ZM282.25 104.793C279.734 104.793 278.477 103.029 278.477 99.5014C278.477 97.6713 278.817 96.2774 279.497 95.3192C279.829 94.8496 280.274 94.4706 280.791 94.2191C281.308 93.967 281.881 93.8508 282.455 93.8812C284.912 93.8812 286.14 95.6743 286.14 99.2606C286.14 101.047 285.805 102.415 285.134 103.366C284.815 103.829 284.382 104.203 283.877 104.453C283.372 104.703 282.812 104.82 282.249 104.793H282.25ZM282.353 95.6523C281.346 95.6523 280.842 96.9157 280.842 99.4424C280.842 101.821 281.336 103.011 282.324 103.011C283.287 103.011 283.768 101.784 283.768 99.3309C283.768 96.8775 283.296 95.6517 282.352 95.6523H282.353ZM290.93 104.793C288.414 104.793 287.157 103.029 287.157 99.5014C287.157 97.6713 287.497 96.2774 288.178 95.3192C288.508 94.8496 288.953 94.4706 289.471 94.2191C289.988 93.967 290.561 93.8508 291.135 93.8812C293.592 93.8812 294.82 95.6743 294.82 99.2606C294.82 101.047 294.485 102.415 293.814 103.366C293.494 103.829 293.062 104.203 292.557 104.453C292.052 104.703 291.492 104.82 290.93 104.793ZM291.033 95.6523C290.026 95.6523 289.523 96.9157 289.523 99.4424C289.523 101.821 290.017 103.011 291.003 103.011C291.967 103.011 292.448 101.784 292.448 99.3309C292.448 96.8775 291.977 95.6517 291.033 95.6523Z" fill="#D9D9D9"/>
<path d="M285.288 128.016H203.076C201.91 128.016 200.964 128.96 200.964 130.126C200.964 131.291 201.91 132.236 203.076 132.236H285.288C286.455 132.236 287.4 131.291 287.4 130.126C287.4 128.96 286.455 128.016 285.288 128.016Z" fill="#D9D9D9"/>
<path d="M205.434 113.699H84.9714C83.2609 113.699 81.8743 115.086 81.8743 116.797V262.616C81.8743 264.326 83.2609 265.713 84.9714 265.713H205.434C207.144 265.713 208.531 264.326 208.531 262.616V116.797C208.531 115.086 207.144 113.699 205.434 113.699Z" fill="white" stroke="#A8A8A8" stroke-width="0.126412"/>
<path d="M149.659 147.902H99.6309C98.4954 147.902 97.575 148.822 97.575 149.958C97.575 151.093 98.4954 152.014 99.6309 152.014H149.659C150.794 152.014 151.715 151.093 151.715 149.958C151.715 148.822 150.794 147.902 149.659 147.902Z" fill="#D9D9D9"/>
<path d="M149.659 234.938H99.6309C98.4954 234.938 97.575 235.858 97.575 236.993C97.575 238.129 98.4954 239.049 99.6309 239.049H149.659C150.794 239.049 151.715 238.129 151.715 236.993C151.715 235.858 150.794 234.938 149.659 234.938Z" fill="#D9D9D9"/>
<path d="M120.876 160.237H99.6309C98.4954 160.237 97.575 161.158 97.575 162.293C97.575 163.428 98.4954 164.349 99.6309 164.349H120.876C122.011 164.349 122.932 163.428 122.932 162.293C122.932 161.158 122.011 160.237 120.876 160.237Z" fill="#D9D9D9"/>
<path opacity="0.6" d="M120.876 169.146H99.6309C98.4954 169.146 97.575 170.066 97.575 171.202C97.575 172.337 98.4954 173.258 99.6309 173.258H120.876C122.011 173.258 122.932 172.337 122.932 171.202C122.932 170.066 122.011 169.146 120.876 169.146Z" fill="#D9D9D9"/>
<path opacity="0.6" d="M120.876 178.056H99.6309C98.4954 178.056 97.575 178.976 97.575 180.112C97.575 181.247 98.4954 182.168 99.6309 182.168H120.876C122.011 182.168 122.932 181.247 122.932 180.112C122.932 178.976 122.011 178.056 120.876 178.056Z" fill="#D9D9D9"/>
<path d="M157.2 160.237H135.955C134.82 160.237 133.899 161.158 133.899 162.293C133.899 163.428 134.82 164.349 135.955 164.349H157.2C158.335 164.349 159.256 163.428 159.256 162.293C159.256 161.158 158.335 160.237 157.2 160.237Z" fill="#D9D9D9"/>
<path opacity="0.6" d="M157.2 169.146H135.955C134.82 169.146 133.899 170.066 133.899 171.202C133.899 172.337 134.82 173.258 135.955 173.258H157.2C158.335 173.258 159.256 172.337 159.256 171.202C159.256 170.066 158.335 169.146 157.2 169.146Z" fill="#D9D9D9"/>
<path opacity="0.6" d="M157.2 178.056H135.955C134.82 178.056 133.899 178.976 133.899 180.112C133.899 181.247 134.82 182.168 135.955 182.168H157.2C158.335 182.168 159.256 181.247 159.256 180.112C159.256 178.976 158.335 178.056 157.2 178.056Z" fill="#D9D9D9"/>
<path d="M193.518 160.237H172.274C171.138 160.237 170.218 161.158 170.218 162.293C170.218 163.428 171.138 164.349 172.274 164.349H193.518C194.654 164.349 195.574 163.428 195.574 162.293C195.574 161.158 194.654 160.237 193.518 160.237Z" fill="#D9D9D9"/>
<path opacity="0.6" d="M193.518 169.146H172.274C171.138 169.146 170.218 170.066 170.218 171.202C170.218 172.337 171.138 173.258 172.274 173.258H193.518C194.654 173.258 195.574 172.337 195.574 171.202C195.574 170.066 194.654 169.146 193.518 169.146Z" fill="#D9D9D9"/>
<path opacity="0.6" d="M193.518 178.056H172.274C171.138 178.056 170.218 178.976 170.218 180.112C170.218 181.247 171.138 182.168 172.274 182.168H193.518C194.654 182.168 195.574 181.247 195.574 180.112C195.574 178.976 194.654 178.056 193.518 178.056Z" fill="#D9D9D9"/>
<path d="M98.6323 132.149V131.123H99.1936C99.5929 131.123 99.7699 131.315 99.7699 131.639C99.7699 131.952 99.5929 132.149 99.1936 132.149H98.6323ZM100.498 131.639C100.498 131.027 100.073 130.546 99.224 130.546H97.9243V134.076H98.6323V132.721H99.224C100.134 132.721 100.498 132.174 100.498 131.639ZM103.188 131.644C103.188 131.962 103.011 132.17 102.616 132.17H102.024V131.133H102.616C103.011 131.133 103.188 131.33 103.188 131.644ZM101.317 130.546V134.076H102.024V132.701H102.358L103.137 134.076H103.956L103.112 132.645C103.678 132.493 103.916 132.058 103.916 131.628C103.916 131.037 103.491 130.546 102.642 130.546H101.317ZM108.315 132.301C108.315 131.244 107.516 130.496 106.51 130.496C105.514 130.496 104.7 131.244 104.7 132.301C104.7 133.363 105.514 134.111 106.51 134.111C107.512 134.111 108.315 133.363 108.315 132.301ZM105.428 132.301C105.428 131.583 105.868 131.133 106.51 131.133C107.147 131.133 107.587 131.583 107.587 132.301C107.587 133.019 107.147 133.479 106.51 133.479C105.868 133.479 105.428 133.019 105.428 132.301ZM109.866 132.149V131.123H110.427C110.827 131.123 111.004 131.315 111.004 131.639C111.004 131.952 110.827 132.149 110.427 132.149H109.866ZM111.732 131.639C111.732 131.027 111.307 130.546 110.458 130.546H109.158V134.076H109.866V132.721H110.458C111.368 132.721 111.732 132.174 111.732 131.639ZM114.598 130.541H112.551V134.076H114.598V133.5H113.259V132.564H114.447V132.003H113.259V131.118H114.598V130.541ZM117.428 131.644C117.428 131.962 117.251 132.17 116.857 132.17H116.266V131.133H116.857C117.251 131.133 117.428 131.33 117.428 131.644ZM115.558 130.546V134.076H116.266V132.701H116.599L117.378 134.076H118.197L117.353 132.645C117.919 132.493 118.157 132.058 118.157 131.628C118.157 131.037 117.732 130.546 116.882 130.546H115.558ZM118.926 131.118H119.866V134.076H120.574V131.118H121.515V130.546H118.926V131.118ZM123.252 132.847V134.076H123.96V132.847L125.154 130.546H124.365L123.612 132.159L122.853 130.546H122.054L123.252 132.847ZM127.399 134.076H128.107V130.546H127.399V134.076ZM131.433 130.541V132.969L129.83 130.541H129.122V134.076H129.83V131.654L131.433 134.076H132.141V130.541H131.433ZM132.984 132.306C132.984 133.363 133.759 134.106 134.775 134.106C135.558 134.106 136.195 133.692 136.433 132.963H135.619C135.452 133.307 135.149 133.474 134.77 133.474C134.153 133.474 133.713 133.019 133.713 132.306C133.713 131.588 134.153 131.138 134.77 131.138C135.149 131.138 135.452 131.305 135.619 131.644H136.433C136.195 130.921 135.558 130.501 134.775 130.501C133.759 130.501 132.984 131.249 132.984 132.306ZM138.097 133.696C138.097 133.464 137.915 133.282 137.667 133.282C137.41 133.282 137.227 133.464 137.227 133.696C137.227 133.929 137.41 134.111 137.667 134.111C137.915 134.111 138.097 133.929 138.097 133.696Z" fill="#373535"/>
<path d="M188.905 229.134H170.738C170.389 229.134 170.106 229.417 170.106 229.766V238.777C170.106 239.126 170.389 239.409 170.738 239.409H188.905C189.254 239.409 189.537 239.126 189.537 238.777V229.766C189.537 229.417 189.254 229.134 188.905 229.134Z" fill="#01CC74"/>
<path d="M174.323 233.834V232.808H174.884C175.284 232.808 175.461 233 175.461 233.324C175.461 233.637 175.284 233.834 174.884 233.834H174.323ZM176.189 233.324C176.189 232.712 175.764 232.231 174.915 232.231H173.615V235.761H174.323V234.406H174.915C175.825 234.406 176.189 233.859 176.189 233.324ZM179.404 235.761H180.152L178.884 232.227H178.059L176.79 235.761H177.533L177.766 235.088H179.171L179.404 235.761ZM178.98 234.522H177.958L178.469 233.045L178.98 234.522ZM180.943 235.761H181.651V232.231H180.943V235.761ZM183.9 232.231H182.667V235.761H183.9C185.028 235.761 185.761 235.068 185.761 234.001C185.761 232.929 185.028 232.231 183.9 232.231ZM183.374 235.159V232.828H183.875C184.618 232.828 185.038 233.268 185.038 234.001C185.038 234.734 184.618 235.159 183.875 235.159H183.374Z" fill="white"/>
<path d="M170.418 132.837C170.418 133.645 170.661 134.248 171.442 134.248C172.224 134.248 172.467 133.645 172.467 132.837C172.467 132.037 172.224 131.438 171.442 131.438C170.661 131.438 170.418 132.037 170.418 132.837ZM171.943 132.837C171.943 133.33 171.89 133.755 171.442 133.755C170.995 133.755 170.942 133.33 170.942 132.837C170.942 132.363 170.995 131.931 171.442 131.931C171.89 131.931 171.943 132.363 171.943 132.837ZM173.49 134.256H174.036V131.491H173.122V131.98H173.49V134.256ZM174.816 134.942H175.335L176.359 130.664H175.84L174.816 134.942ZM177.34 134.256H177.886V131.491H176.972V131.98H177.34V134.256ZM178.696 134.218H180.569V133.778H179.451C179.891 133.406 180.509 132.905 180.509 132.265C180.509 131.783 180.21 131.43 179.614 131.43C179.117 131.43 178.711 131.722 178.692 132.355H179.208C179.212 132.063 179.353 131.882 179.606 131.882C179.868 131.882 179.978 132.048 179.978 132.295C179.978 132.803 179.322 133.292 178.696 133.823V134.218ZM181.159 134.942H181.679L182.703 130.664H182.184L181.159 134.942ZM183.351 134.218H185.224V133.778H184.105C184.545 133.406 185.163 132.905 185.163 132.265C185.163 131.783 184.864 131.43 184.268 131.43C183.771 131.43 183.366 131.722 183.346 132.355H183.863C183.866 132.063 184.006 131.882 184.261 131.882C184.522 131.882 184.632 132.048 184.632 132.295C184.632 132.803 183.976 133.292 183.351 133.823V134.218ZM185.844 134.218H187.718V133.778H186.598C187.039 133.406 187.657 132.905 187.657 132.265C187.657 131.783 187.357 131.43 186.762 131.43C186.265 131.43 185.859 131.722 185.84 132.355H186.356C186.36 132.063 186.5 131.882 186.754 131.882C187.016 131.882 187.126 132.048 187.126 132.295C187.126 132.803 186.47 133.292 185.844 133.823V134.218Z" fill="#373535"/>
<path d="M121.497 111.868C121.497 103.465 114.688 96.6528 106.289 96.6528C97.8896 96.6528 91.0806 103.465 91.0806 111.868C91.0806 120.272 97.8896 127.084 106.289 127.084C114.688 127.084 121.497 120.272 121.497 111.868Z" fill="#E3E5EA"/>
<path d="M119.422 111.831C119.422 104.548 113.521 98.644 106.241 98.644C98.9622 98.644 93.0608 104.548 93.0608 111.831C93.0608 119.113 98.9622 125.017 106.241 125.017C113.521 125.017 119.422 119.113 119.422 111.831Z" fill="white"/>
<path d="M105.844 116.845C108.911 114.215 113.221 111.658 115.586 110.737C115.221 110.503 114.651 110.167 114.009 109.802C110.956 110.81 107.392 113.046 104.208 115.574C104.748 115.984 105.318 116.407 105.844 116.845Z" fill="#E31837"/>
<path d="M104.441 109.7L103.112 109.1C101.958 109.67 100.454 110.532 98.5547 111.891C98.9641 112.111 99.4021 112.374 99.8693 112.637C101.331 111.555 102.805 110.532 104.441 109.7Z" fill="#012169"/>
<path d="M107.174 108.443C106.619 108.136 104.69 107.419 103.361 107.113C102.967 107.259 102.412 107.478 102.032 107.639C102.514 107.77 104.311 108.253 105.844 109.027C106.239 108.837 106.794 108.604 107.174 108.443Z" fill="#E31837"/>
<path d="M100.643 108.253C98.9337 109.042 97.137 110.123 96.1584 110.751C96.5089 110.912 96.8599 111.044 97.3414 111.278C99.5034 109.816 101.198 108.925 101.87 108.633C101.388 108.457 100.935 108.34 100.643 108.253Z" fill="#012169"/>
<path d="M108.458 107.99L109.7 107.625C108.561 107.142 107.129 106.631 105.844 106.309L104.602 106.66C105.04 106.791 106.487 107.128 108.458 107.99ZM101.257 113.484C101.725 113.762 102.222 114.142 102.704 114.463C105.903 111.979 109.057 110.065 112.519 108.983L111.073 108.253C108.999 108.779 105.45 110.197 101.257 113.484Z" fill="#E31837"/>
<path d="M161.783 111.868C161.783 103.465 154.974 96.6528 146.575 96.6528C138.175 96.6528 131.366 103.465 131.366 111.868C131.366 120.272 138.175 127.084 146.575 127.084C154.974 127.084 161.783 120.272 161.783 111.868Z" fill="#E3E5EA"/>
<path d="M159.708 111.831C159.708 104.548 153.807 98.644 146.527 98.644C139.248 98.644 133.347 104.548 133.347 111.831C133.347 119.113 139.248 125.017 146.527 125.017C153.807 125.017 159.708 119.113 159.708 111.831Z" fill="white"/>
<path d="M143.22 114.049L143.19 114.078C142.713 114.564 142.162 114.82 141.595 114.82C140.409 114.82 139.549 113.931 139.549 112.704C139.549 111.476 140.409 110.586 141.595 110.586C142.162 110.586 142.713 110.844 143.19 111.332L143.22 111.361L143.983 110.438L143.962 110.413C143.328 109.664 142.567 109.3 141.632 109.3C140.694 109.3 139.835 109.615 139.218 110.185C138.545 110.803 138.191 111.673 138.191 112.704C138.191 113.734 138.545 114.606 139.218 115.223C139.835 115.796 140.694 116.11 141.632 116.11C142.567 116.11 143.328 115.745 143.962 114.995L143.983 114.972L143.22 114.049ZM144.751 115.984H146.098V109.406H144.751V115.984ZM151.375 114.554C151.015 114.773 150.681 114.883 150.381 114.883C149.945 114.883 149.748 114.653 149.748 114.141V110.651H151.121V109.412H149.748V107.365L148.428 108.073V109.412H147.29V110.651H148.428V114.363C148.428 115.374 149.027 116.067 149.922 116.084C150.529 116.096 150.895 115.915 151.117 115.783L151.131 115.773L151.454 114.505L151.375 114.554ZM152.489 115.984H153.838V109.406H152.489V115.984Z" fill="#004685"/>
<path d="M154.625 108.253C153.394 106.51 151.351 105.47 149.272 105.47C147.193 105.47 145.15 106.51 143.922 108.253L143.858 108.343H145.408L145.425 108.324C146.48 107.235 147.856 106.659 149.272 106.659C150.688 106.659 152.064 107.235 153.121 108.324L153.137 108.343H154.686L154.625 108.253Z" fill="#EE1C25"/>
<path d="M202.069 111.868C202.069 103.465 195.26 96.6528 186.861 96.6528C178.461 96.6528 171.652 103.465 171.652 111.868C171.652 120.272 178.461 127.084 186.861 127.084C195.26 127.084 202.069 120.272 202.069 111.868Z" fill="#E3E5EA"/>
<path d="M199.994 111.831C199.994 104.548 194.093 98.644 186.813 98.644C179.534 98.644 173.632 104.548 173.632 111.831C173.632 119.113 179.534 125.017 186.813 125.017C194.093 125.017 199.994 119.113 199.994 111.831Z" fill="white"/>
<path d="M184.56 103.479C184.244 103.479 183.987 103.735 183.987 104.051V108.063H194.582L189.758 103.479H184.56ZM194.97 109.277C194.97 108.961 194.715 108.706 194.397 108.706H190.387V119.305L194.967 114.477L194.97 109.277ZM189.173 119.689C189.488 119.689 189.745 119.433 189.745 119.116V115.105H179.15L183.975 119.689L189.173 119.689ZM178.762 113.891C178.762 114.208 179.018 114.465 179.335 114.465H183.344V103.864L178.763 108.693L178.762 113.891Z" fill="#117ACA"/>
</g>
<defs>
<filter id="filter0_f_1_2788" x="0.715668" y="0.328705" width="212.224" height="238.952" filterUnits="userSpaceOnUse" color-interpolation-filters="sRGB">
<feFlood flood-opacity="0" result="BackgroundImageFix"/>
<feBlend mode="normal" in="SourceGraphic" in2="BackgroundImageFix" result="shape"/>
<feGaussianBlur stdDeviation="18.9617" result="effect1_foregroundBlur_1_2788"/>
</filter>
<filter id="filter1_d_1_2788" x="177.123" y="38.623" width="173.814" height="115.4" filterUnits="userSpaceOnUse" color-interpolation-filters="sRGB">
<feFlood flood-opacity="0" result="BackgroundImageFix"/>
<feColorMatrix in="SourceAlpha" type="matrix" values="0 0 0 0 0 0 0 0 0 0 0 0 0 0 0 0 0 0 127 0" result="hardAlpha"/>
<feOffset dy="1.89617"/>
<feGaussianBlur stdDeviation="4.10838"/>
<feColorMatrix type="matrix" values="0 0 0 0 0 0 0 0 0 0 0 0 0 0 0 0 0 0 0.149 0"/>
<feBlend mode="normal" in2="BackgroundImageFix" result="effect1_dropShadow_1_2788"/>
<feBlend mode="normal" in="SourceGraphic" in2="effect1_dropShadow_1_2788" result="shape"/>
</filter>
<clipPath id="clip0_1_2788">
<rect width="351" height="271.146" fill="white" transform="translate(0.5 0.113037)"/>
</clipPath>
</defs>
</svg>
