<svg width="35" height="34" viewBox="0 0 35 34" fill="none" xmlns="http://www.w3.org/2000/svg">
<g clip-path="url(#clip0_591_269)">
<path fill-rule="evenodd" clip-rule="evenodd" d="M15.2491 15.5619C15.2491 13.359 17.0341 11.5811 19.2299 11.5811C21.4258 11.5811 23.2108 13.3661 23.2108 15.5619C23.2108 17.7577 21.3903 19.5427 19.2299 19.5427C17.0695 19.5427 15.2491 17.7577 15.2491 15.5619ZM17.9053 15.5619C17.9053 16.2986 18.5003 16.8936 19.237 16.8936C19.9737 16.8936 20.5687 16.2986 20.5687 15.5619C20.5687 14.8252 19.9737 14.2302 19.237 14.2302C18.5003 14.2302 17.9053 14.8252 17.9053 15.5619Z" fill="#1D84FF"/>
<path fill-rule="evenodd" clip-rule="evenodd" d="M34.6074 1.33215C34.5295 0.737154 34.062 0.269654 33.467 0.191738C26.922 -0.679512 20.1715 1.4809 15.3195 6.33299L8.90196 12.7505C7.35071 14.3017 7.35071 16.8305 8.90196 18.3817L16.4174 25.8972C17.9757 27.4555 20.4974 27.4555 22.0486 25.8972L28.4661 19.4797C33.134 14.8117 35.514 8.13216 34.6074 1.33215ZM26.589 17.6026L20.1715 24.0201C19.6545 24.5372 18.8115 24.5372 18.2945 24.0201L10.779 16.5047C10.262 15.9876 10.262 15.1447 10.779 14.6276L17.1965 8.21007C20.7595 4.64715 25.647 2.65674 30.6407 2.65674C31.1224 2.65674 31.604 2.67799 32.0857 2.7134C32.5107 8.1959 30.492 13.6926 26.589 17.6026Z" fill="white"/>
<path d="M7.71984 6.41679L1.17483 13.153C0.664835 13.6772 0.679002 14.5201 1.20317 15.0301C1.72734 15.5401 2.57025 15.533 3.08025 15.0018L9.62525 8.26554C10.1353 7.74137 10.1211 6.89846 9.59692 6.38846C9.07275 5.87846 8.22984 5.89262 7.71984 6.41679Z" fill="white"/>
<path d="M26.5332 25.1736L19.7969 31.7186C19.2728 32.2286 19.2586 33.0715 19.7686 33.5957C20.2786 34.1199 21.1215 34.134 21.6457 33.624L28.3819 27.079C28.9061 26.569 28.9203 25.7261 28.4103 25.2019C27.9003 24.6778 27.0573 24.6636 26.5332 25.1736Z" fill="white"/>
<path fill-rule="evenodd" clip-rule="evenodd" d="M1.64156 28.7231C2.61197 24.9973 3.42656 23.8639 3.95072 23.3398C6.02614 21.2643 9.39072 21.2643 11.4661 23.3398C13.5416 25.4152 13.5416 28.7798 11.4661 30.8552C10.942 31.3793 9.80864 32.1939 6.08281 33.1643C4.14906 33.6673 2.43489 33.9718 2.36406 33.986C1.93197 34.0639 1.49281 33.9152 1.19531 33.6177C0.890722 33.3131 0.749055 32.8739 0.826972 32.4489C0.841139 32.3781 1.14572 30.6639 1.64864 28.7302L1.64156 28.7231ZM5.42406 30.586C8.70364 29.7289 9.46864 29.0914 9.58197 28.971C10.6232 27.9298 10.6232 26.251 9.58197 25.2168C8.54072 24.1756 6.86197 24.1756 5.82781 25.2168C5.70739 25.3373 5.06989 26.0952 4.21281 29.3748C4.06406 29.9344 3.93656 30.4798 3.83031 30.9685C4.31906 30.8623 4.86447 30.7277 5.42406 30.586Z" fill="#1D84FF"/>
</g>
<defs>
<clipPath id="clip0_591_269">
<rect width="34" height="34" fill="white" transform="translate(0.799072)"/>
</clipPath>
</defs>
</svg>
