<svg width="352" height="418" viewBox="0 0 352 418" fill="none" xmlns="http://www.w3.org/2000/svg">
<g clip-path="url(#clip0_1_3010)">
<g filter="url(#filter0_d_1_3010)">
<path d="M310.917 214.93H109.426C102.319 214.93 96.5562 220.693 96.5562 227.8V364.221C96.5562 371.328 102.319 377.091 109.426 377.091H310.917C318.025 377.091 323.786 371.328 323.786 364.221V227.8C323.786 220.693 318.025 214.93 310.917 214.93Z" fill="#F5F6FA" fill-opacity="0.01"/>
</g>
<g filter="url(#filter1_d_1_3010)">
<path d="M309.885 210.8H108.394C101.286 210.8 95.5244 216.561 95.5244 223.669V360.089C95.5244 367.198 101.286 372.959 108.394 372.959H309.885C316.992 372.959 322.755 367.198 322.755 360.089V223.669C322.755 216.561 316.992 210.8 309.885 210.8Z" fill="#F5F6FA" fill-opacity="0.01"/>
</g>
<path d="M319.695 217.079H101.68C99.4656 217.079 97.6707 218.874 97.6707 221.088V373C97.6707 375.214 99.4656 377.009 101.68 377.009H319.695C321.909 377.009 323.704 375.214 323.704 373V221.088C323.704 218.874 321.909 217.079 319.695 217.079Z" fill="white" stroke="#A8A8A8" stroke-width="0.163636"/>
<path d="M110.456 270.764H311.155V272.05H110.456V270.764Z" fill="#E6E6E6"/>
<path d="M192.913 322.938C192.913 300.25 174.521 281.858 151.833 281.858C129.146 281.858 110.753 300.25 110.753 322.938C110.753 345.626 129.145 364.018 151.833 364.018C174.521 364.018 192.913 345.626 192.913 322.938Z" fill="#E3E5EA"/>
<path d="M185.456 322.939C185.456 304.369 170.402 289.315 151.832 289.315C133.263 289.315 118.209 304.369 118.209 322.939C118.209 341.508 133.263 356.562 151.832 356.562C170.402 356.562 185.456 341.508 185.456 322.939Z" fill="#E3E5EA"/>
<path d="M185.456 322.937C185.456 304.368 170.402 289.314 151.833 289.314C133.263 289.314 118.209 304.368 118.209 322.937C118.209 341.507 133.263 356.56 151.833 356.56C170.402 356.56 185.456 341.507 185.456 322.937Z" stroke="white" stroke-width="3.13691"/>
<path d="M212.588 293.832C210.751 293.832 208.988 294.562 207.689 295.862C206.39 297.161 205.659 298.924 205.659 300.761C205.659 302.599 206.39 304.361 207.689 305.661C208.988 306.96 210.751 307.69 212.588 307.69C214.426 307.69 216.188 306.96 217.488 305.661C218.787 304.361 219.517 302.599 219.518 300.761C219.517 298.924 218.787 297.161 217.488 295.862C216.188 294.562 214.426 293.832 212.588 293.832Z" fill="#E3E5EA"/>
<path d="M211.498 302.974C211.201 302.974 210.934 302.856 210.755 302.677L209.716 301.638C209.36 301.282 209.36 300.716 209.716 300.391C210.073 300.034 210.637 300.034 210.963 300.391L211.498 300.925L213.874 298.55C214.23 298.193 214.794 298.193 215.12 298.55C215.477 298.906 215.477 299.47 215.12 299.797L212.24 302.677C212.033 302.856 211.765 302.974 211.498 302.974Z" fill="white"/>
<path d="M212.588 317.199C210.751 317.199 208.988 317.93 207.689 319.229C206.39 320.528 205.659 322.291 205.659 324.128C205.659 325.966 206.39 327.728 207.689 329.028C208.988 330.327 210.751 331.057 212.588 331.058C214.426 331.057 216.188 330.327 217.488 329.028C218.787 327.728 219.517 325.966 219.518 324.128C219.517 322.291 218.787 320.528 217.488 319.229C216.188 317.93 214.426 317.199 212.588 317.199Z" fill="#7A8699" fill-opacity="0.2"/>
<path opacity="0.5" d="M214.831 322.508C214.657 322.166 214.401 321.874 214.086 321.657C213.77 321.44 213.405 321.307 213.024 321.269C212.851 321.251 212.677 321.251 212.505 321.269C212.124 321.307 211.759 321.441 211.444 321.657C211.127 321.873 210.871 322.166 210.697 322.508C210.48 322.944 210.396 323.434 210.456 323.918C210.516 324.401 210.718 324.856 211.036 325.225L212.587 327.112C212.61 327.137 212.637 327.159 212.668 327.174C212.699 327.188 212.731 327.195 212.764 327.195C212.797 327.195 212.831 327.187 212.862 327.174C212.893 327.161 212.92 327.137 212.941 327.112L214.494 325.225C214.812 324.856 215.013 324.401 215.073 323.917C215.133 323.434 215.049 322.943 214.831 322.508ZM212.764 324.454C212.584 324.454 212.407 324.4 212.257 324.3C212.107 324.2 211.99 324.056 211.921 323.889C211.851 323.721 211.833 323.538 211.869 323.361C211.905 323.183 211.991 323.021 212.119 322.893C212.247 322.766 212.41 322.679 212.587 322.644C212.764 322.609 212.947 322.627 213.114 322.696C213.281 322.764 213.424 322.881 213.524 323.031C213.625 323.182 213.679 323.359 213.679 323.54C213.679 323.782 213.582 324.014 213.411 324.186C213.241 324.358 213.007 324.453 212.764 324.454Z" fill="#7A8699"/>
<path opacity="0.2" d="M307.295 320.269H227.337C226.313 320.269 225.332 320.676 224.608 321.4C223.884 322.124 223.477 323.106 223.477 324.129C223.477 325.153 223.884 326.134 224.608 326.858C225.332 327.581 226.313 327.988 227.337 327.989H307.295C308.318 327.988 309.3 327.581 310.023 326.858C310.747 326.134 311.154 325.153 311.155 324.129C311.154 323.106 310.747 322.124 310.024 321.4C309.3 320.676 308.318 320.269 307.295 320.269ZM212.092 352.832C215.644 352.832 218.524 349.952 218.524 346.399C218.524 342.847 215.644 339.967 212.092 339.967C208.539 339.967 205.659 342.847 205.659 346.399C205.659 349.952 208.539 352.832 212.092 352.832Z" fill="#7A8699"/>
<path opacity="0.5" d="M215.195 348.919H214.617V344.895C214.617 344.567 214.359 344.3 214.041 344.3H212.692V345.07H213.848V349.689H215.195C215.301 349.689 215.387 349.603 215.387 349.507V349.134C215.387 349.004 215.302 348.919 215.195 348.919ZM211.83 343.542L209.521 344.14C209.338 344.186 209.228 344.345 209.228 344.526V348.919H208.651C208.545 348.919 208.459 349.005 208.459 349.101V349.475C208.459 349.603 208.545 349.689 208.651 349.689H212.309V343.928C212.309 343.67 212.074 343.478 211.83 343.542ZM211.25 346.994C211.089 346.994 210.96 346.821 210.96 346.62C210.96 346.408 211.089 346.246 211.25 346.246C211.41 346.246 211.538 346.398 211.538 346.61C211.538 346.822 211.41 346.994 211.25 346.994Z" fill="#7A8699"/>
<path opacity="0.2" d="M271.978 342.44H227.433C226.383 342.44 225.376 342.857 224.634 343.6C223.891 344.342 223.474 345.349 223.473 346.399C223.473 347.449 223.891 348.457 224.633 349.199C225.376 349.942 226.383 350.359 227.433 350.359H271.978C273.028 350.359 274.035 349.942 274.778 349.199C275.52 348.457 275.938 347.449 275.938 346.399C275.937 345.349 275.52 344.342 274.778 343.6C274.035 342.857 273.028 342.44 271.978 342.44Z" fill="#7A8699"/>
<path opacity="0.3" d="M165.816 323.675L159.681 325.319L157.315 323.954V321.394L159.654 320.052L165.815 321.703C165.939 321.736 166.064 321.752 166.187 321.752C166.502 321.752 166.809 321.648 167.059 321.456C167.309 321.264 167.488 320.994 167.569 320.69C167.776 319.924 167.322 319.138 166.557 318.932L163.178 318.028L166.292 316.24C166.622 316.05 166.863 315.738 166.962 315.371C167.061 315.004 167.011 314.613 166.822 314.283C166.632 313.954 166.32 313.713 165.953 313.613C165.586 313.514 165.195 313.565 164.865 313.754L161.745 315.546L162.649 312.166C162.698 311.984 162.71 311.794 162.686 311.608C162.661 311.421 162.6 311.241 162.506 311.079C162.412 310.916 162.287 310.773 162.137 310.658C161.988 310.544 161.818 310.46 161.636 310.411C161.454 310.362 161.265 310.35 161.078 310.374C160.892 310.399 160.712 310.46 160.549 310.554C160.386 310.648 160.243 310.773 160.128 310.922C160.014 311.072 159.93 311.242 159.881 311.424L158.236 317.558L155.884 318.91L153.654 317.621V314.915L158.164 310.405C158.724 309.845 158.724 308.939 158.164 308.378C158.031 308.244 157.873 308.138 157.7 308.066C157.526 307.994 157.339 307.957 157.151 307.957C156.962 307.957 156.776 307.994 156.602 308.066C156.428 308.138 156.27 308.244 156.137 308.378L153.654 310.861V307.257C153.654 306.877 153.503 306.512 153.234 306.243C152.965 305.974 152.601 305.823 152.22 305.823C151.84 305.823 151.476 305.974 151.207 306.243C150.938 306.512 150.787 306.877 150.787 307.257V310.842L148.323 308.378C147.763 307.818 146.856 307.818 146.296 308.378C146.163 308.511 146.057 308.669 145.985 308.843C145.912 309.017 145.875 309.203 145.875 309.391C145.875 309.58 145.912 309.766 145.985 309.94C146.057 310.114 146.163 310.272 146.296 310.405L150.787 314.897V317.631L148.575 318.908L146.221 317.558L144.579 311.424C144.374 310.66 143.588 310.21 142.824 310.41C142.642 310.458 142.471 310.542 142.321 310.657C142.172 310.772 142.047 310.914 141.952 311.078C141.858 311.241 141.797 311.421 141.773 311.607C141.748 311.794 141.761 311.984 141.81 312.166L142.715 315.545L139.595 313.754C139.432 313.66 139.252 313.599 139.065 313.575C138.878 313.551 138.689 313.564 138.507 313.613C138.325 313.662 138.155 313.747 138.006 313.862C137.857 313.976 137.732 314.12 137.638 314.283C137.545 314.446 137.484 314.626 137.46 314.813C137.436 314.999 137.448 315.189 137.498 315.371C137.547 315.552 137.631 315.723 137.746 315.872C137.861 316.021 138.004 316.146 138.167 316.24L141.281 318.028L137.903 318.932C137.137 319.138 136.684 319.924 136.888 320.69C137.06 321.329 137.64 321.752 138.273 321.752C138.396 321.752 138.521 321.736 138.644 321.703L144.807 320.051L147.142 321.392L147.145 323.954L144.779 325.321L138.644 323.675C137.884 323.476 137.094 323.926 136.888 324.689C136.683 325.452 137.137 326.24 137.903 326.445L141.269 327.347L138.163 329.139C138 329.233 137.857 329.358 137.743 329.508C137.628 329.657 137.544 329.827 137.495 330.009C137.447 330.191 137.434 330.381 137.459 330.567C137.484 330.754 137.545 330.934 137.64 331.097C137.905 331.558 138.387 331.814 138.882 331.814C139.125 331.814 139.372 331.753 139.597 331.621L142.718 329.82L141.81 333.212C141.761 333.394 141.748 333.583 141.773 333.77C141.797 333.957 141.858 334.137 141.952 334.3C142.047 334.463 142.172 334.606 142.321 334.721C142.471 334.835 142.642 334.919 142.824 334.968C142.947 335.002 143.072 335.018 143.195 335.018C143.828 335.018 144.407 334.594 144.579 333.953L146.23 327.792L148.579 326.438L150.787 327.713V330.481L146.296 334.973C146.163 335.106 146.057 335.264 145.985 335.438C145.912 335.612 145.875 335.798 145.875 335.986C145.875 336.175 145.912 336.361 145.985 336.535C146.057 336.709 146.163 336.867 146.296 337C146.429 337.133 146.587 337.239 146.76 337.311C146.934 337.383 147.121 337.42 147.309 337.419C147.677 337.419 148.043 337.281 148.323 337L150.787 334.536V338.12C150.787 338.308 150.824 338.495 150.896 338.669C150.968 338.843 151.073 339.001 151.206 339.134C151.339 339.267 151.498 339.373 151.672 339.445C151.846 339.517 152.032 339.554 152.22 339.554C153.012 339.554 153.655 338.913 153.655 338.12V334.519L156.137 337C156.27 337.133 156.428 337.239 156.602 337.311C156.775 337.383 156.962 337.42 157.15 337.419C157.338 337.42 157.525 337.383 157.699 337.311C157.873 337.239 158.032 337.134 158.164 337C158.724 336.44 158.724 335.533 158.164 334.973L153.655 330.464V327.724L155.882 326.437L158.231 327.792L159.881 333.953C160.053 334.594 160.632 335.018 161.265 335.018C161.387 335.018 161.512 335.002 161.636 334.968C162.401 334.762 162.855 333.979 162.651 333.212L161.74 329.82L164.863 331.621C165.089 331.753 165.335 331.814 165.579 331.814C166.073 331.814 166.554 331.558 166.82 331.097C166.914 330.934 166.976 330.754 167 330.567C167.025 330.381 167.013 330.191 166.964 330.009C166.916 329.827 166.832 329.657 166.717 329.508C166.602 329.358 166.459 329.233 166.296 329.139L163.191 327.347L166.557 326.445C166.739 326.396 166.909 326.312 167.059 326.198C167.208 326.083 167.334 325.941 167.428 325.778C167.522 325.615 167.583 325.435 167.608 325.248C167.632 325.061 167.62 324.872 167.571 324.69C167.367 323.926 166.579 323.475 165.816 323.675ZM154.448 323.954L152.229 325.236L150.012 323.954L150.01 321.39L152.229 320.109L154.448 321.392V323.954Z" fill="#515F78"/>
<path opacity="0.3" d="M28.3877 108.547C43.7892 108.547 56.2755 96.0612 56.2755 80.6597C56.2755 65.2582 43.79 52.772 28.3877 52.772C12.9855 52.772 0.5 65.2574 0.5 80.6597C0.5 96.062 12.9855 108.547 28.3877 108.547Z" fill="#1665D8" fill-opacity="0.92"/>
<path d="M28.3869 101.317C39.7957 101.317 49.0444 92.0686 49.0444 80.6599C49.0444 69.2512 39.7957 60.0024 28.3869 60.0024C16.9782 60.0024 7.72949 69.2512 7.72949 80.6599C7.72949 92.0686 16.9782 101.317 28.3869 101.317Z" fill="#1665D8" fill-opacity="0.92"/>
<path d="M37.2298 78.9979C38.4391 77.7944 38.9136 76.1277 38.642 74.6288C38.6264 74.4087 38.5078 74.2582 38.4219 74.1723C38.3777 74.1281 38.3319 74.0913 38.3049 74.0692L38.2983 74.0651L38.2697 74.0414L38.2591 74.0332L38.2108 73.9849L38.1486 73.9538C37.7436 73.7517 37.3771 73.9661 37.2232 74.1191L36.1931 75.1451C35.5877 75.7481 34.4856 75.7481 33.881 75.1451C33.2763 74.5421 33.2763 73.4449 33.881 72.8427L34.9119 71.8167C35.0649 71.6637 35.2809 71.298 35.078 70.8955C35.0264 70.7924 34.9495 70.6623 34.8227 70.5608C34.6959 70.4594 34.5437 70.4111 34.3931 70.4037C32.819 70.137 31.1384 70.5976 30.0052 71.8167C28.5824 73.2379 28.1791 75.1713 28.7092 76.9541L18.7634 86.8598C17.8233 87.795 17.8233 89.3487 18.7634 90.2855C19.7035 91.2224 21.2638 91.2224 22.2039 90.2855L27.3551 85.1556L31.6481 80.7946L31.6514 80.7914L32.1472 80.298C33.8801 80.8208 35.8111 80.3234 37.22 79.0086L37.2241 79.0036L37.229 78.9987L37.2298 78.9979Z" fill="white"/>
<path opacity="0.5" d="M28.3877 318.219C43.7892 318.219 56.2755 305.734 56.2755 290.331C56.2755 274.929 43.79 262.444 28.3877 262.444C12.9855 262.444 0.5 274.93 0.5 290.331C0.5 305.733 12.9855 318.219 28.3877 318.219Z" fill="#E3E5EA" fill-opacity="0.92"/>
<path opacity="0.1" d="M28.3869 310.988C39.7957 310.988 49.0444 301.739 49.0444 290.33C49.0444 278.922 39.7957 269.674 28.3869 269.674C16.9782 269.674 7.72949 278.922 7.72949 290.33C7.72949 301.739 16.9782 310.988 28.3869 310.988Z" fill="#7A8699"/>
<path opacity="0.1" d="M37.2299 288.67C38.4392 287.467 38.9137 285.8 38.6421 284.301C38.6265 284.081 38.5079 283.931 38.422 283.845C38.3778 283.8 38.332 283.764 38.305 283.742L38.2985 283.737L38.2698 283.714L38.2592 283.706L38.2109 283.657L38.1487 283.626C37.7437 283.423 37.3772 283.638 37.2234 283.791L36.1933 284.817C35.5878 285.42 34.4857 285.42 33.8811 284.817C33.2764 284.214 33.2764 283.116 33.8811 282.514L34.912 281.489C35.065 281.336 35.281 280.97 35.0781 280.568C35.0265 280.464 34.9496 280.334 34.8228 280.233C34.696 280.133 34.5438 280.083 34.3933 280.076C32.8191 279.809 31.1385 280.27 30.0054 281.489C28.5825 282.91 28.1792 284.844 28.7094 286.626L18.7635 296.531C17.8234 297.467 17.8234 299.021 18.7635 299.958C19.7036 300.895 21.2639 300.895 22.204 299.958L27.3553 294.827L31.6483 290.466L31.6515 290.464L32.1474 289.97C33.8803 290.492 35.8112 289.996 37.2201 288.681L37.2242 288.675L37.2299 288.67Z" fill="#7A8699"/>
<path opacity="0.5" d="M32.6143 120.292C32.6139 119.036 32.1148 117.832 31.2268 116.944C30.3388 116.056 29.1345 115.557 27.8787 115.556C26.6229 115.557 25.4186 116.056 24.5306 116.944C23.6426 117.832 23.1435 119.036 23.1431 120.292V251.698C23.1435 252.954 23.6426 254.158 24.5306 255.046C25.4186 255.934 26.6229 256.434 27.8787 256.434C29.1345 256.434 30.3388 255.934 31.2268 255.046C32.1148 254.158 32.6139 252.954 32.6143 251.698V120.292ZM23.2232 330.095C23.2232 329.484 23.3435 328.88 23.5771 328.316C23.8107 327.752 24.153 327.24 24.5846 326.808C25.0163 326.377 25.5287 326.034 26.0926 325.801C26.6565 325.567 27.2609 325.447 27.8713 325.447C28.4817 325.447 29.0862 325.567 29.6501 325.801C30.214 326.034 30.7264 326.377 31.158 326.808C31.5897 327.24 31.932 327.752 32.1656 328.316C32.3992 328.88 32.5194 329.484 32.5194 330.095V369.86H23.2232V330.095Z" fill="#E3E5EA" fill-opacity="0.92"/>
<path d="M151.729 232.491H112.655C111.751 232.491 111.018 233.223 111.018 234.127V245.315C111.018 246.219 111.751 246.951 112.655 246.951H151.729C152.633 246.951 153.366 246.219 153.366 245.315V234.127C153.366 233.223 152.633 232.491 151.729 232.491Z" fill="#E3E5EA"/>
<path d="M116.244 236.999V239.854H117.758V239.4H116.817V236.999H116.244ZM120.311 238.721C120.311 238.005 119.799 237.551 119.145 237.551C118.49 237.551 117.979 238.005 117.979 238.721C117.979 239.437 118.474 239.891 119.128 239.891C119.783 239.891 120.311 239.433 120.311 238.721ZM118.56 238.721C118.56 238.267 118.834 238.05 119.136 238.05C119.439 238.05 119.721 238.267 119.721 238.721C119.721 239.171 119.431 239.392 119.128 239.392C118.826 239.392 118.56 239.171 118.56 238.721ZM121.144 239.854H121.766L122.179 238.271L122.592 239.854H123.21L123.873 237.588H123.325L122.924 239.31L122.498 237.588H121.893L121.459 239.314L121.058 237.588H120.477L121.144 239.854ZM125.73 238.296V237.465H126.184C126.507 237.465 126.651 237.621 126.651 237.882C126.651 238.136 126.507 238.296 126.184 238.296H125.73ZM127.24 237.882C127.24 237.387 126.896 236.999 126.209 236.999H125.157V239.854H125.73V238.758H126.209C126.945 238.758 127.24 238.316 127.24 237.882ZM128.219 238.725C128.219 238.287 128.424 238.156 128.763 238.156H128.915V237.555C128.775 237.552 128.637 237.585 128.515 237.653C128.392 237.72 128.29 237.819 128.219 237.94V237.588H127.646V239.854H128.219V238.725ZM129.3 239.854H129.873V237.588H129.3V239.854ZM129.59 237.318C129.791 237.318 129.942 237.171 129.942 236.982C129.942 236.794 129.791 236.647 129.59 236.647C129.545 236.645 129.5 236.652 129.457 236.668C129.414 236.683 129.375 236.708 129.342 236.739C129.31 236.771 129.283 236.808 129.266 236.85C129.248 236.892 129.238 236.937 129.239 236.982C129.238 237.028 129.248 237.073 129.266 237.115C129.283 237.156 129.31 237.194 129.342 237.226C129.375 237.257 129.414 237.281 129.457 237.297C129.5 237.313 129.545 237.32 129.59 237.318ZM132.627 238.721C132.627 238.005 132.116 237.551 131.462 237.551C130.807 237.551 130.296 238.005 130.296 238.721C130.296 239.437 130.791 239.891 131.445 239.891C132.1 239.891 132.627 239.433 132.627 238.721ZM130.877 238.721C130.877 238.267 131.151 238.05 131.453 238.05C131.756 238.05 132.038 238.267 132.038 238.721C132.038 239.171 131.748 239.392 131.445 239.392C131.138 239.392 130.877 239.171 130.877 238.721ZM133.62 238.725C133.62 238.287 133.824 238.156 134.164 238.156H134.315V237.555C134.176 237.552 134.038 237.585 133.915 237.653C133.793 237.72 133.691 237.819 133.62 237.94V237.588H133.047V239.854H133.62V238.725ZM134.702 239.854H135.274V237.588H134.702V239.854ZM134.992 237.318C135.192 237.318 135.344 237.171 135.344 236.982C135.344 236.794 135.192 236.647 134.992 236.647C134.947 236.645 134.901 236.652 134.859 236.668C134.816 236.683 134.777 236.708 134.744 236.739C134.711 236.771 134.685 236.808 134.667 236.85C134.649 236.892 134.64 236.937 134.64 236.982C134.64 237.028 134.649 237.073 134.667 237.115C134.685 237.156 134.711 237.194 134.744 237.226C134.777 237.257 134.816 237.281 134.859 237.297C134.901 237.313 134.947 237.32 134.992 237.318ZM135.93 239.151C135.93 239.67 136.22 239.854 136.654 239.854H137.014V239.371H136.748C136.568 239.371 136.506 239.306 136.506 239.155V238.058H137.014V237.588H136.506V237.027H135.93V237.588H135.66V238.058H135.93V239.151ZM138.392 239.171L137.807 237.588H137.164L138.072 239.797L137.582 240.926H138.191L139.594 237.588H138.985L138.392 239.171Z" fill="#B7BDC8"/>
<path d="M111.305 260.317C111.305 262.027 112.557 263.23 114.201 263.23C115.469 263.23 116.5 262.559 116.885 261.381H115.567C115.297 261.937 114.807 262.207 114.193 262.207C113.195 262.207 112.483 261.471 112.483 260.317C112.483 259.155 113.195 258.427 114.193 258.427C114.807 258.427 115.297 258.697 115.567 259.245H116.885C116.5 258.075 115.469 257.396 114.201 257.396C112.557 257.396 111.305 258.607 111.305 260.317ZM117.863 263.181H119.009V257.126H117.863V263.181ZM122.088 259.515C122.677 259.515 123.151 259.892 123.168 260.489H121.016C121.106 259.867 121.539 259.515 122.088 259.515ZM124.239 261.757H123.004C122.857 262.06 122.587 262.305 122.096 262.305C121.523 262.305 121.065 261.929 121.008 261.258H124.321C124.346 261.111 124.354 260.964 124.354 260.816C124.354 259.466 123.429 258.574 122.12 258.574C120.778 258.574 119.846 259.483 119.846 260.914C119.846 262.338 120.803 263.254 122.12 263.254C123.241 263.254 123.994 262.592 124.239 261.757ZM124.896 260.898C124.896 262.314 125.812 263.254 126.957 263.254C127.677 263.254 128.193 262.911 128.463 262.518V263.181H129.616V258.648H128.463V259.294C128.193 258.918 127.694 258.574 126.966 258.574C125.812 258.574 124.896 259.483 124.896 260.898ZM128.463 260.914C128.463 261.774 127.89 262.248 127.26 262.248C126.646 262.248 126.066 261.757 126.066 260.898C126.066 260.039 126.646 259.581 127.26 259.581C127.89 259.581 128.463 260.055 128.463 260.914ZM133.909 263.181H135.055V260.522C135.055 259.27 134.302 258.583 133.247 258.583C132.666 258.583 132.175 258.828 131.88 259.213V258.648H130.735V263.181H131.88V260.677C131.88 259.949 132.281 259.556 132.903 259.556C133.509 259.556 133.909 259.949 133.909 260.677V263.181ZM138.274 261.774C138.274 262.813 138.855 263.181 139.722 263.181H140.442V262.215H139.91C139.55 262.215 139.427 262.084 139.427 261.782V259.589H140.442V258.648H139.427V257.527H138.274V258.648H137.734V259.589H138.274V261.774ZM141.266 263.181H142.411V260.677C142.411 259.949 142.812 259.556 143.434 259.556C144.039 259.556 144.44 259.949 144.44 260.677V263.181H145.586V260.522C145.586 259.27 144.841 258.583 143.818 258.583C143.213 258.583 142.706 258.828 142.411 259.213V257.126H141.266V263.181ZM148.623 259.515C149.212 259.515 149.686 259.892 149.703 260.489H147.551C147.641 259.867 148.075 259.515 148.623 259.515ZM150.775 261.757H149.539C149.392 262.06 149.122 262.305 148.631 262.305C148.058 262.305 147.6 261.929 147.543 261.258H150.856C150.881 261.111 150.889 260.964 150.889 260.816C150.889 259.466 149.965 258.574 148.656 258.574C147.314 258.574 146.381 259.483 146.381 260.914C146.381 262.338 147.338 263.254 148.656 263.254C149.776 263.254 150.529 262.592 150.775 261.757ZM157.552 263.181H158.763L156.71 257.462H155.376L153.322 263.181H154.525L154.902 262.093H157.176L157.552 263.181ZM156.865 261.176H155.212L156.039 258.787L156.865 261.176ZM159.27 264.662H160.391L162.6 255.433H161.479L159.27 264.662ZM163.232 260.317C163.232 262.027 164.484 263.23 166.129 263.23C167.397 263.23 168.428 262.559 168.812 261.381H167.495C167.225 261.937 166.734 262.207 166.12 262.207C165.122 262.207 164.41 261.471 164.41 260.317C164.41 259.155 165.122 258.427 166.12 258.427C166.734 258.427 167.225 258.697 167.495 259.245H168.812C168.428 258.075 167.397 257.396 166.129 257.396C164.484 257.396 163.232 258.607 163.232 260.317ZM171.741 263.181H172.886V260.767H174.711V259.859H172.886V258.394H175.267V257.47H171.741V263.181ZM176.079 263.181H177.224V258.648H176.079V263.181ZM176.659 258.108C177.06 258.108 177.363 257.814 177.363 257.437C177.363 257.061 177.06 256.766 176.659 256.766C176.25 256.766 175.956 257.061 175.956 257.437C175.956 257.814 176.25 258.108 176.659 258.108ZM178.356 263.181H179.501V257.126H178.356V263.181ZM180.813 261.774C180.813 262.813 181.394 263.181 182.262 263.181H182.982V262.215H182.45C182.09 262.215 181.967 262.084 181.967 261.782V259.589H182.982V258.648H181.967V257.527H180.813V258.648H180.273V259.589H180.813V261.774ZM185.753 259.515C186.342 259.515 186.816 259.892 186.833 260.489H184.681C184.771 259.867 185.205 259.515 185.753 259.515ZM187.905 261.757H186.669C186.522 262.06 186.252 262.305 185.761 262.305C185.188 262.305 184.73 261.929 184.673 261.258H187.986C188.011 261.111 188.019 260.964 188.019 260.816C188.019 259.466 187.095 258.574 185.785 258.574C184.444 258.574 183.511 259.483 183.511 260.914C183.511 262.338 184.468 263.254 185.785 263.254C186.906 263.254 187.659 262.592 187.905 261.757ZM190 260.923C190 260.047 190.409 259.785 191.088 259.785H191.391V258.583C191.111 258.576 190.835 258.643 190.591 258.778C190.346 258.913 190.142 259.111 190 259.352V258.648H188.854V263.181H190V260.923ZM195.681 261.888C195.648 260.227 193.136 260.743 193.136 259.916C193.136 259.654 193.357 259.483 193.782 259.483C194.232 259.483 194.511 259.72 194.543 260.072H195.64C195.574 259.172 194.911 258.574 193.815 258.574C192.694 258.574 192.023 259.18 192.023 259.933C192.023 261.594 194.584 261.078 194.584 261.888C194.584 262.15 194.339 262.354 193.889 262.354C193.431 262.354 193.111 262.093 193.071 261.749H191.917C191.966 262.592 192.76 263.254 193.897 263.254C195.001 263.254 195.681 262.665 195.681 261.888ZM198.57 263.181H199.716V258.648H198.57V263.181ZM199.151 258.108C199.552 258.108 199.855 257.814 199.855 257.437C199.855 257.061 199.552 256.766 199.151 256.766C198.742 256.766 198.448 257.061 198.448 257.437C198.448 257.814 198.742 258.108 199.151 258.108ZM204.023 263.181H205.168V260.522C205.168 259.27 204.415 258.583 203.36 258.583C202.779 258.583 202.288 258.828 201.994 259.213V258.648H200.848V263.181H201.994V260.677C201.994 259.949 202.395 259.556 203.016 259.556C203.622 259.556 204.023 259.949 204.023 260.677V263.181ZM208.191 260.996C208.191 262.502 209.221 263.238 210.473 263.238C211.725 263.238 212.805 262.502 212.805 260.996V257.47H211.651V261.004C211.651 261.79 211.226 262.199 210.49 262.199C209.761 262.199 209.336 261.79 209.336 261.004V257.47H208.191V260.996ZM217.086 263.181H218.231V260.522C218.231 259.27 217.479 258.583 216.423 258.583C215.842 258.583 215.351 258.828 215.057 259.213V258.648H213.911V263.181H215.057V260.677C215.057 259.949 215.458 259.556 216.079 259.556C216.685 259.556 217.086 259.949 217.086 260.677V263.181ZM219.321 263.181H220.467V258.648H219.321V263.181ZM219.902 258.108C220.303 258.108 220.606 257.814 220.606 257.437C220.606 257.061 220.303 256.766 219.902 256.766C219.493 256.766 219.198 257.061 219.198 257.437C219.198 257.814 219.493 258.108 219.902 258.108ZM221.778 261.774C221.778 262.813 222.359 263.181 223.226 263.181H223.946V262.215H223.414C223.054 262.215 222.932 262.084 222.932 261.782V259.589H223.946V258.648H222.932V257.527H221.778V258.648H221.238V259.589H221.778V261.774ZM227.244 263.181H228.422V257.216H226.45V258.272H227.244V263.181Z" fill="#D9D9D9"/>
<g filter="url(#filter2_d_1_3010)">
<path d="M309.885 14.5557H108.394C101.286 14.5557 95.5244 20.3173 95.5244 27.4248V163.846C95.5244 170.954 101.286 176.715 108.394 176.715H309.885C316.992 176.715 322.755 170.954 322.755 163.846V27.4248C322.755 20.3173 316.992 14.5557 309.885 14.5557Z" fill="#F5F6FA" fill-opacity="0.01"/>
</g>
<path d="M318.666 16.7031H100.65C98.4363 16.7031 96.6414 18.4981 96.6414 20.7122V172.625C96.6414 174.839 98.4363 176.634 100.65 176.634H318.666C320.88 176.634 322.675 174.839 322.675 172.625V20.7122C322.675 18.4981 320.88 16.7031 318.666 16.7031Z" fill="white" stroke="#A8A8A8" stroke-width="0.163636"/>
<path d="M109.427 70.3877H310.126V71.6739H109.427V70.3877Z" fill="#E6E6E6"/>
<path d="M191.884 122.562C191.884 99.8738 173.492 81.4819 150.804 81.4819C128.116 81.4819 109.724 99.8738 109.724 122.562C109.724 145.25 128.116 163.642 150.804 163.642C173.492 163.642 191.884 145.249 191.884 122.562Z" fill="#E3E5EA"/>
<path d="M184.427 122.562C184.427 103.993 169.373 88.939 150.803 88.939C132.234 88.939 117.18 103.993 117.18 122.562C117.18 141.132 132.234 156.185 150.803 156.185C169.373 156.185 184.427 141.132 184.427 122.562Z" fill="#E3E5EA"/>
<path opacity="0.4" d="M162.428 119.707H161.287V115.519C161.283 112.794 160.199 110.182 158.272 108.255C156.345 106.328 153.733 105.244 151.008 105.24C145.34 105.24 140.727 109.851 140.727 115.519V119.707H139.585C137.696 119.707 136.159 121.245 136.159 123.134V136.839C136.159 138.73 137.696 140.267 139.585 140.267H162.428C164.319 140.267 165.855 138.73 165.855 136.839V123.134C165.855 121.245 164.319 119.707 162.428 119.707ZM152.149 130.918V134.556C152.149 134.858 152.028 135.149 151.814 135.363C151.6 135.577 151.31 135.698 151.007 135.699C150.376 135.699 149.865 135.187 149.865 134.556V130.918C148.537 130.446 147.582 129.193 147.581 127.703C147.581 126.794 147.942 125.923 148.585 125.28C149.227 124.638 150.098 124.276 151.007 124.276C152.9 124.274 154.432 125.809 154.434 127.703C154.432 129.193 153.476 130.446 152.149 130.918ZM156.719 119.707H145.296V115.519C145.298 114.005 145.901 112.554 146.971 111.483C148.042 110.413 149.493 109.81 151.007 109.808C152.521 109.81 153.973 110.412 155.043 111.483C156.114 112.553 156.717 114.005 156.719 115.519V119.707Z" fill="#515F78"/>
<path d="M184.427 122.562C184.427 103.993 169.373 88.939 150.803 88.939C132.234 88.939 117.18 103.993 117.18 122.562C117.18 141.132 132.234 156.185 150.803 156.185C169.373 156.185 184.427 141.132 184.427 122.562Z" stroke="white" stroke-width="3.13691"/>
<path d="M211.559 93.457C209.721 93.4572 207.959 94.1874 206.66 95.4868C205.36 96.7862 204.63 98.5485 204.63 100.386C204.63 102.224 205.36 103.986 206.66 105.286C207.959 106.585 209.721 107.315 211.559 107.315C213.397 107.315 215.159 106.585 216.458 105.286C217.758 103.986 218.488 102.224 218.488 100.386C218.488 98.5485 217.758 96.7862 216.458 95.4868C215.159 94.1874 213.397 93.4572 211.559 93.457Z" fill="#01CC74"/>
<path d="M210.469 102.599C210.172 102.599 209.905 102.48 209.727 102.301L208.688 101.262C208.331 100.906 208.331 100.34 208.688 100.014C209.044 99.658 209.608 99.658 209.934 100.014L210.469 100.549L212.845 98.1738C213.201 97.8171 213.766 97.8171 214.091 98.1738C214.448 98.5297 214.448 99.0934 214.091 99.4199L211.211 102.301C211.003 102.48 210.736 102.599 210.469 102.599Z" fill="white"/>
<path d="M211.559 116.825C209.721 116.825 207.959 117.556 206.66 118.855C205.36 120.154 204.63 121.917 204.63 123.754C204.63 125.592 205.36 127.354 206.66 128.654C207.959 129.953 209.721 130.683 211.559 130.684C213.397 130.683 215.159 129.953 216.458 128.654C217.758 127.354 218.488 125.592 218.488 123.754C218.488 121.917 217.758 120.154 216.458 118.855C215.159 117.556 213.397 116.825 211.559 116.825Z" fill="#7A8699" fill-opacity="0.2"/>
<path opacity="0.5" d="M213.803 122.135C213.628 121.793 213.372 121.501 213.056 121.284C212.741 121.068 212.376 120.934 211.994 120.896C211.822 120.879 211.649 120.879 211.477 120.896C211.096 120.934 210.73 121.068 210.415 121.284C210.099 121.5 209.843 121.793 209.668 122.135C209.451 122.571 209.367 123.061 209.427 123.545C209.487 124.028 209.689 124.483 210.008 124.852L211.559 126.739C211.58 126.765 211.607 126.787 211.639 126.801C211.67 126.814 211.702 126.823 211.735 126.823C211.768 126.823 211.803 126.814 211.833 126.801C211.864 126.787 211.891 126.765 211.912 126.739L213.465 124.852C213.783 124.483 213.984 124.028 214.044 123.545C214.104 123.061 214.02 122.571 213.803 122.135ZM211.735 124.081C211.555 124.081 211.378 124.027 211.229 123.927C211.079 123.827 210.961 123.683 210.892 123.516C210.822 123.349 210.804 123.166 210.84 122.989C210.875 122.811 210.962 122.649 211.09 122.521C211.218 122.392 211.38 122.305 211.558 122.27C211.735 122.235 211.918 122.254 212.085 122.323C212.252 122.393 212.395 122.509 212.496 122.659C212.613 122.835 212.665 123.046 212.645 123.256C212.624 123.466 212.531 123.663 212.382 123.813C212.211 123.984 211.978 124.081 211.735 124.081Z" fill="#7A8699"/>
<path opacity="0.2" d="M306.266 119.895H226.308C225.284 119.896 224.303 120.302 223.579 121.026C222.856 121.75 222.449 122.731 222.448 123.754C222.449 124.778 222.855 125.759 223.579 126.483C224.303 127.207 225.284 127.614 226.308 127.615H306.266C307.29 127.614 308.271 127.207 308.995 126.483C309.718 125.759 310.125 124.778 310.125 123.754C310.125 122.731 309.718 121.75 308.994 121.026C308.271 120.302 307.289 119.896 306.266 119.895ZM211.062 152.459C214.615 152.459 217.495 149.579 217.495 146.025C217.495 142.472 214.615 139.593 211.062 139.593C207.51 139.593 204.63 142.473 204.63 146.025C204.63 149.578 207.51 152.459 211.062 152.459Z" fill="#7A8699"/>
<path opacity="0.5" d="M214.166 148.546H213.589V144.522C213.589 144.194 213.33 143.926 213.011 143.926H211.664V144.697H212.818V149.315H214.166C214.272 149.315 214.358 149.23 214.358 149.134V148.76C214.358 148.63 214.274 148.546 214.166 148.546ZM210.801 143.169L208.492 143.767C208.406 143.788 208.33 143.838 208.277 143.909C208.224 143.979 208.197 144.065 208.2 144.153V148.546H207.622C207.516 148.546 207.43 148.632 207.43 148.728V149.102C207.43 149.23 207.516 149.315 207.622 149.315H211.279V143.555C211.279 143.296 211.044 143.105 210.801 143.169ZM210.221 146.621C210.06 146.621 209.932 146.448 209.932 146.247C209.932 146.035 210.06 145.873 210.221 145.873C210.381 145.873 210.509 146.025 210.509 146.236C210.509 146.448 210.381 146.621 210.221 146.621Z" fill="#7A8699"/>
<path opacity="0.2" d="M270.949 142.067H226.404C225.354 142.067 224.347 142.484 223.605 143.227C222.862 143.969 222.445 144.976 222.445 146.026C222.445 147.076 222.862 148.083 223.605 148.826C224.347 149.569 225.354 149.986 226.404 149.986H270.949C271.999 149.986 273.006 149.569 273.749 148.826C274.491 148.084 274.909 147.076 274.909 146.026C274.908 144.976 274.491 143.969 273.748 143.226C273.006 142.484 271.999 142.067 270.949 142.067Z" fill="#7A8699"/>
<path d="M143.528 32.1147H111.619C110.715 32.1147 109.982 32.8474 109.982 33.7511V41.9329C109.982 42.8367 110.715 43.5693 111.619 43.5693H143.528C144.432 43.5693 145.164 42.8367 145.164 41.9329V33.7511C145.164 32.8474 144.432 32.1147 143.528 32.1147Z" fill="#FFEBEE"/>
<path d="M117.018 39.4782H117.591V36.6227H117.018V37.7968H115.795V36.6227H115.222V39.4782H115.795V38.2632H117.018V39.4782ZM118.155 39.4782H118.727V37.2118H118.155V39.4782ZM118.445 36.9418C118.645 36.9418 118.797 36.7945 118.797 36.6064C118.797 36.4182 118.645 36.2709 118.445 36.2709C118.4 36.2687 118.354 36.2757 118.312 36.2916C118.269 36.3075 118.23 36.3318 118.197 36.3632C118.164 36.3946 118.138 36.4323 118.12 36.4741C118.102 36.5159 118.093 36.5609 118.093 36.6064C118.093 36.6518 118.102 36.6968 118.12 36.7386C118.138 36.7804 118.164 36.8182 118.197 36.8495C118.23 36.8809 118.269 36.9053 118.312 36.9211C118.354 36.937 118.4 36.944 118.445 36.9418ZM119.145 38.3368C119.145 39.0445 119.604 39.515 120.18 39.515C120.536 39.515 120.794 39.3391 120.929 39.1427V39.4945C120.929 39.9159 120.684 40.0959 120.369 40.0959C120.082 40.0959 119.869 39.9609 119.812 39.7564H119.244C119.301 40.2759 119.747 40.595 120.385 40.595C121.129 40.595 121.506 40.1082 121.506 39.4945V37.2118H120.929V37.535C120.794 37.3386 120.536 37.175 120.18 37.175C119.604 37.175 119.145 37.6291 119.145 38.3368ZM120.929 38.345C120.929 38.7745 120.643 39.0118 120.328 39.0118C120.021 39.0118 119.73 38.7664 119.73 38.3368C119.73 37.9073 120.021 37.6782 120.328 37.6782C120.643 37.6782 120.929 37.9155 120.929 38.345ZM122.065 39.4782H122.638V38.2264C122.638 37.8623 122.839 37.6659 123.15 37.6659C123.452 37.6659 123.653 37.8623 123.653 38.2264V39.4782H124.225V38.1486C124.225 37.5227 123.853 37.1791 123.342 37.1791C123.039 37.1791 122.785 37.3018 122.638 37.4941V36.4509H122.065V39.4782ZM126.318 37.9195V37.0891H126.772C127.095 37.0891 127.238 37.2445 127.238 37.5064C127.238 37.76 127.095 37.9195 126.772 37.9195H126.318ZM127.827 37.5064C127.827 37.0114 127.483 36.6227 126.796 36.6227H125.745V39.4782H126.318V38.3818H126.796C127.533 38.3818 127.827 37.94 127.827 37.5064ZM128.806 38.3491C128.806 37.9114 129.011 37.7805 129.351 37.7805H129.502V37.1791C129.362 37.1756 129.224 37.2093 129.102 37.2769C128.98 37.3445 128.878 37.4435 128.806 37.5636V37.2118H128.234V39.4782H128.806V38.3491ZM129.887 39.4782H130.46V37.2118H129.887V39.4782ZM130.178 36.9418C130.378 36.9418 130.53 36.7945 130.53 36.6064C130.53 36.4182 130.378 36.2709 130.178 36.2709C130.132 36.2687 130.087 36.2757 130.044 36.2916C130.002 36.3075 129.963 36.3318 129.93 36.3632C129.897 36.3946 129.871 36.4323 129.853 36.4741C129.835 36.5159 129.826 36.5609 129.826 36.6064C129.826 36.6518 129.835 36.6968 129.853 36.7386C129.871 36.7804 129.897 36.8182 129.93 36.8495C129.963 36.8809 130.002 36.9053 130.044 36.9211C130.087 36.937 130.132 36.944 130.178 36.9418ZM133.215 38.345C133.215 37.6291 132.703 37.175 132.049 37.175C131.394 37.175 130.883 37.6291 130.883 38.345C130.883 39.0609 131.378 39.515 132.033 39.515C132.687 39.515 133.215 39.0568 133.215 38.345ZM131.464 38.345C131.464 37.8909 131.738 37.6741 132.041 37.6741C132.343 37.6741 132.626 37.8909 132.626 38.345C132.626 38.7991 132.335 39.0159 132.033 39.0159C131.73 39.0159 131.464 38.795 131.464 38.345ZM134.207 38.3491C134.207 37.9114 134.412 37.7805 134.751 37.7805H134.903V37.1791C134.763 37.1756 134.625 37.2093 134.503 37.2769C134.381 37.3445 134.279 37.4435 134.207 37.5636V37.2118H133.635V39.4782H134.207V38.3491ZM135.289 39.4782H135.862V37.2118H135.289V39.4782ZM135.579 36.9418C135.78 36.9418 135.931 36.7945 135.931 36.6064C135.931 36.4182 135.78 36.2709 135.579 36.2709C135.534 36.2687 135.489 36.2757 135.446 36.2916C135.403 36.3075 135.364 36.3318 135.331 36.3632C135.299 36.3946 135.272 36.4323 135.255 36.4741C135.237 36.5159 135.227 36.5609 135.228 36.6064C135.227 36.6518 135.237 36.6968 135.255 36.7386C135.272 36.7804 135.299 36.8182 135.331 36.8495C135.364 36.8809 135.403 36.9053 135.446 36.9211C135.489 36.937 135.534 36.944 135.579 36.9418ZM136.518 38.7745C136.518 39.2941 136.808 39.4782 137.242 39.4782H137.602V38.9955H137.336C137.156 38.9955 137.095 38.93 137.095 38.7786V37.6823H137.602V37.2118H137.095V36.6514H136.518V37.2118H136.248V37.6823H136.518V38.7745ZM138.979 38.795L138.394 37.2118H137.752L138.66 39.4209L138.169 40.55H138.778L140.182 37.2118H139.572L138.979 38.795Z" fill="#F2447A"/>
<path d="M109.237 57.875C109.237 59.585 110.489 60.7877 112.134 60.7877C113.402 60.7877 114.433 60.1168 114.817 58.9386H113.5C113.23 59.495 112.739 59.765 112.125 59.765C111.127 59.765 110.415 59.0286 110.415 57.875C110.415 56.7132 111.127 55.985 112.125 55.985C112.739 55.985 113.23 56.255 113.5 56.8032H114.817C114.433 55.6332 113.402 54.9541 112.134 54.9541C110.489 54.9541 109.237 56.165 109.237 57.875ZM115.796 60.7386H116.941V58.235C116.941 57.5068 117.342 57.1141 117.964 57.1141C118.569 57.1141 118.97 57.5068 118.97 58.235V60.7386H120.116V58.0795C120.116 56.8277 119.371 56.1404 118.349 56.1404C117.743 56.1404 117.236 56.3859 116.941 56.7704V54.6841H115.796V60.7386ZM120.91 58.4559C120.91 59.8714 121.827 60.8123 122.972 60.8123C123.692 60.8123 124.208 60.4686 124.478 60.0759V60.7386H125.631V56.2059H124.478V56.8523C124.208 56.4759 123.708 56.1323 122.98 56.1323C121.827 56.1323 120.91 57.0404 120.91 58.4559ZM124.478 58.4723C124.478 59.3314 123.905 59.8059 123.275 59.8059C122.661 59.8059 122.08 59.315 122.08 58.4559C122.08 57.5968 122.661 57.1386 123.275 57.1386C123.905 57.1386 124.478 57.6132 124.478 58.4723ZM129.924 60.7386H131.07V58.0795C131.07 56.8277 130.317 56.1404 129.261 56.1404C128.681 56.1404 128.19 56.3859 127.895 56.7704V56.2059H126.75V60.7386H127.895V58.235C127.895 57.5068 128.296 57.1141 128.918 57.1141C129.523 57.1141 129.924 57.5068 129.924 58.235V60.7386ZM131.865 58.4559C131.865 59.8714 132.781 60.8123 133.935 60.8123C134.647 60.8123 135.162 60.4604 135.432 60.0677V60.7714C135.432 61.6141 134.941 61.9741 134.311 61.9741C133.739 61.9741 133.313 61.7041 133.199 61.295H132.061C132.176 62.3341 133.068 62.9723 134.344 62.9723C135.833 62.9723 136.586 61.9986 136.586 60.7714V56.2059H135.432V56.8523C135.162 56.4595 134.647 56.1323 133.935 56.1323C132.781 56.1323 131.865 57.0404 131.865 58.4559ZM135.432 58.4723C135.432 59.3314 134.859 59.8059 134.229 59.8059C133.616 59.8059 133.035 59.315 133.035 58.4559C133.035 57.5968 133.616 57.1386 134.229 57.1386C134.859 57.1386 135.432 57.6132 135.432 58.4723ZM139.652 57.0732C140.241 57.0732 140.715 57.4495 140.732 58.0468H138.58C138.67 57.425 139.103 57.0732 139.652 57.0732ZM141.803 59.315H140.568C140.421 59.6177 140.151 59.8632 139.66 59.8632C139.087 59.8632 138.629 59.4868 138.572 58.8159H141.885C141.91 58.6686 141.918 58.5214 141.918 58.3741C141.918 57.0241 140.993 56.1323 139.684 56.1323C138.342 56.1323 137.41 57.0404 137.41 58.4723C137.41 59.8959 138.367 60.8123 139.684 60.8123C140.805 60.8123 141.558 60.1495 141.803 59.315ZM144.884 59.3314C144.884 60.3704 145.465 60.7386 146.332 60.7386H147.052V59.7732H146.52C146.16 59.7732 146.037 59.6423 146.037 59.3395V57.1468H147.052V56.2059H146.037V55.085H144.884V56.2059H144.344V57.1468H144.884V59.3314ZM147.876 60.7386H149.021V58.235C149.021 57.5068 149.422 57.1141 150.044 57.1141C150.65 57.1141 151.05 57.5068 151.05 58.235V60.7386H152.196V58.0795C152.196 56.8277 151.451 56.1404 150.429 56.1404C149.823 56.1404 149.316 56.3859 149.021 56.7704V54.6841H147.876V60.7386ZM155.232 57.0732C155.821 57.0732 156.296 57.4495 156.312 58.0468H154.16C154.25 57.425 154.684 57.0732 155.232 57.0732ZM157.384 59.315H156.149C156.001 59.6177 155.731 59.8632 155.24 59.8632C154.668 59.8632 154.209 59.4868 154.152 58.8159H157.466C157.49 58.6686 157.499 58.5214 157.499 58.3741C157.499 57.0241 156.574 56.1323 155.265 56.1323C153.923 56.1323 152.99 57.0404 152.99 58.4723C152.99 59.8959 153.948 60.8123 155.265 60.8123C156.386 60.8123 157.139 60.1495 157.384 59.315ZM159.99 58.4559C159.99 59.8714 160.906 60.8123 162.06 60.8123C162.772 60.8123 163.279 60.485 163.549 60.0677V60.7386H164.711V54.6841H163.549V56.8359C163.238 56.4104 162.665 56.1323 162.068 56.1323C160.906 56.1323 159.99 57.0404 159.99 58.4559ZM163.557 58.4723C163.557 59.3314 162.984 59.8059 162.354 59.8059C161.741 59.8059 161.16 59.315 161.16 58.4559C161.16 57.5968 161.741 57.1386 162.354 57.1386C162.984 57.1386 163.557 57.6132 163.557 58.4723ZM170.207 58.4723C170.207 57.0404 169.184 56.1323 167.875 56.1323C166.566 56.1323 165.543 57.0404 165.543 58.4723C165.543 59.8959 166.533 60.8123 167.842 60.8123C169.159 60.8123 170.207 59.8959 170.207 58.4723ZM166.705 58.4723C166.705 57.5641 167.253 57.1305 167.858 57.1305C168.464 57.1305 169.028 57.5641 169.028 58.4723C169.028 59.3723 168.447 59.8141 167.842 59.8141C167.228 59.8141 166.705 59.3723 166.705 58.4723ZM175.424 58.4723C175.424 57.0404 174.401 56.1323 173.092 56.1323C171.783 56.1323 170.76 57.0404 170.76 58.4723C170.76 59.8959 171.75 60.8123 173.06 60.8123C174.377 60.8123 175.424 59.8959 175.424 58.4723ZM171.922 58.4723C171.922 57.5641 172.47 57.1305 173.076 57.1305C173.681 57.1305 174.246 57.5641 174.246 58.4723C174.246 59.3723 173.665 59.8141 173.06 59.8141C172.446 59.8141 171.922 59.3723 171.922 58.4723ZM177.41 58.4804C177.41 57.605 177.819 57.3432 178.498 57.3432H178.801V56.1404C178.521 56.1334 178.245 56.2009 178.001 56.3361C177.756 56.4713 177.552 56.6692 177.41 56.9095V56.2059H176.264V60.7386H177.41V58.4804ZM181.522 60.7386H182.667V54.6841H181.522V60.7386ZM188.176 58.4723C188.176 57.0404 187.154 56.1323 185.844 56.1323C184.535 56.1323 183.513 57.0404 183.513 58.4723C183.513 59.8959 184.503 60.8123 185.812 60.8123C187.129 60.8123 188.176 59.8959 188.176 58.4723ZM184.674 58.4723C184.674 57.5641 185.223 57.1305 185.828 57.1305C186.434 57.1305 186.998 57.5641 186.998 58.4723C186.998 59.3723 186.417 59.8141 185.812 59.8141C185.198 59.8141 184.674 59.3723 184.674 58.4723ZM188.722 58.4723C188.722 59.8959 189.655 60.8123 190.964 60.8123C192.093 60.8123 192.854 60.1741 193.099 59.2086H191.864C191.725 59.6177 191.43 59.8304 190.956 59.8304C190.317 59.8304 189.892 59.3559 189.892 58.4723C189.892 57.5886 190.317 57.1059 190.956 57.1059C191.43 57.1059 191.733 57.3514 191.864 57.7359H193.099C192.854 56.7214 192.093 56.1323 190.964 56.1323C189.655 56.1323 188.722 57.0486 188.722 58.4723ZM193.938 60.7386H195.083V58.8077L196.622 60.7386H198.111L196.098 58.4804L198.094 56.2059H196.605L195.083 58.1286V54.6841H193.938V60.7386Z" fill="black"/>
<path d="M226.212 100.127C226.212 98.5171 223.869 99.0277 223.869 98.1113C223.869 97.7382 224.137 97.5615 224.497 97.5746C224.89 97.5811 225.132 97.8168 225.152 98.1179H226.16C226.101 97.2931 225.459 96.8153 224.523 96.8153C223.581 96.8153 222.913 97.3128 222.913 98.1375C222.906 99.7935 225.263 99.1979 225.263 100.186C225.263 100.514 225.008 100.743 224.576 100.743C224.15 100.743 223.908 100.5 223.882 100.134H222.9C222.913 100.998 223.646 101.495 224.595 101.495C225.636 101.495 226.212 100.847 226.212 100.127ZM228.564 98.5171C229.035 98.5171 229.415 98.8182 229.428 99.2961H227.707C227.779 98.7986 228.126 98.5171 228.564 98.5171ZM230.286 100.311H229.297C229.235 100.449 229.132 100.565 229.003 100.644C228.873 100.722 228.722 100.759 228.571 100.749C228.113 100.749 227.746 100.448 227.7 99.9113H230.351C230.371 99.7935 230.377 99.6757 230.377 99.5579C230.377 98.4779 229.638 97.7644 228.59 97.7644C227.517 97.7644 226.771 98.491 226.771 99.6364C226.771 100.775 227.537 101.508 228.59 101.508C229.487 101.508 230.089 100.978 230.286 100.311ZM233.586 101.45H234.503V99.3222C234.503 98.3208 233.9 97.771 233.056 97.771C232.591 97.771 232.199 97.9673 231.963 98.275V97.8233H231.047V101.45H231.963V99.4466C231.963 98.8641 232.284 98.5499 232.781 98.5499C233.265 98.5499 233.586 98.8641 233.586 99.4466V101.45ZM235.518 100.324C235.518 101.155 235.983 101.45 236.676 101.45H237.252V100.677H236.827C236.539 100.677 236.441 100.572 236.441 100.33V98.5761H237.252V97.8233H236.441V96.9266H235.518V97.8233H235.086V98.5761H235.518V100.324ZM239.615 100.324C239.615 101.155 240.079 101.45 240.773 101.45H241.349V100.677H240.924C240.636 100.677 240.537 100.572 240.537 100.33V98.5761H241.349V97.8233H240.537V96.9266H239.615V97.8233H239.183V98.5761H239.615V100.324ZM245.51 99.6364C245.51 98.491 244.692 97.7644 243.645 97.7644C242.598 97.7644 241.779 98.491 241.779 99.6364C241.779 100.775 242.571 101.508 243.619 101.508C244.673 101.508 245.51 100.775 245.51 99.6364ZM242.709 99.6364C242.709 98.9099 243.147 98.563 243.632 98.563C244.116 98.563 244.568 98.9099 244.568 99.6364C244.568 100.356 244.103 100.71 243.619 100.71C243.128 100.71 242.709 100.356 242.709 99.6364ZM247.742 96.8808V101.45H250.164V100.723H248.659V96.8808H247.742ZM254.249 99.6364C254.249 98.491 253.43 97.7644 252.383 97.7644C251.336 97.7644 250.518 98.491 250.518 99.6364C250.518 100.775 251.31 101.508 252.357 101.508C253.411 101.508 254.249 100.775 254.249 99.6364ZM251.447 99.6364C251.447 98.9099 251.886 98.563 252.37 98.563C252.854 98.563 253.306 98.9099 253.306 99.6364C253.306 100.356 252.841 100.71 252.357 100.71C251.866 100.71 251.447 100.356 251.447 99.6364ZM254.685 99.6364C254.685 100.775 255.431 101.508 256.478 101.508C257.381 101.508 257.99 100.998 258.186 100.226H257.198C257.087 100.553 256.851 100.723 256.472 100.723C255.961 100.723 255.621 100.343 255.621 99.6364C255.621 98.9295 255.961 98.5433 256.472 98.5433C256.851 98.5433 257.093 98.7397 257.198 99.0473H258.186C257.99 98.2357 257.381 97.7644 256.478 97.7644C255.431 97.7644 254.685 98.4975 254.685 99.6364ZM258.858 101.45H259.775V99.9048L261.005 101.45H262.196L260.586 99.643L262.183 97.8233H260.992L259.775 99.3615V96.6059H258.858V101.45ZM265.495 100.415C265.469 99.0866 263.46 99.499 263.46 98.8379C263.46 98.6284 263.636 98.491 263.977 98.491C264.337 98.491 264.559 98.6808 264.585 98.9622H265.463C265.41 98.2422 264.88 97.7644 264.003 97.7644C263.106 97.7644 262.569 98.2488 262.569 98.851C262.569 100.18 264.618 99.7673 264.618 100.415C264.618 100.625 264.422 100.788 264.062 100.788C263.695 100.788 263.44 100.579 263.407 100.304H262.484C262.524 100.978 263.159 101.508 264.068 101.508C264.952 101.508 265.495 101.037 265.495 100.415ZM271.32 101.45H272.236V99.3222C272.236 98.3208 271.621 97.771 270.75 97.771C270.22 97.771 269.742 98.0524 269.507 98.4648C269.258 98.0131 268.793 97.771 268.23 97.771C267.779 97.771 267.393 97.9608 267.164 98.2619V97.8233H266.247V101.45H267.164V99.4466C267.164 98.8706 267.484 98.5695 267.982 98.5695C268.466 98.5695 268.787 98.8706 268.787 99.4466V101.45H269.703V99.4466C269.703 98.8706 270.024 98.5695 270.515 98.5695C270.999 98.5695 271.32 98.8706 271.32 99.4466V101.45ZM273.106 101.45H274.022V97.8233H273.106V101.45ZM273.571 97.3913C273.891 97.3913 274.134 97.1557 274.134 96.8546C274.134 96.5535 273.891 96.3179 273.571 96.3179C273.243 96.3179 273.008 96.5535 273.008 96.8546C273.008 97.1557 273.243 97.3913 273.571 97.3913ZM275.071 100.324C275.071 101.155 275.536 101.45 276.23 101.45H276.806V100.677H276.38C276.092 100.677 275.994 100.572 275.994 100.33V98.5761H276.806V97.8233H275.994V96.9266H275.071V97.8233H274.639V98.5761H275.071V100.324ZM277.465 101.45H278.382V99.4466C278.382 98.8641 278.702 98.5499 279.2 98.5499C279.684 98.5499 280.005 98.8641 280.005 99.4466V101.45H280.921V99.3222C280.921 98.3208 280.326 97.771 279.507 97.771C279.023 97.771 278.617 97.9673 278.382 98.275V96.6059H277.465V101.45Z" fill="#01CC74"/>
<path d="M224.037 300.077C224.037 301.282 224.862 301.871 225.863 301.871C226.865 301.871 227.729 301.282 227.729 300.077V297.256H226.806V300.084C226.806 300.712 226.465 301.04 225.876 301.04C225.294 301.04 224.953 300.712 224.953 300.084V297.256H224.037V300.077ZM231.154 301.825H232.07V299.698C232.07 298.696 231.468 298.146 230.623 298.146C230.159 298.146 229.766 298.343 229.53 298.65V298.199H228.614V301.825H229.53V299.822C229.53 299.24 229.851 298.925 230.349 298.925C230.833 298.925 231.154 299.24 231.154 299.822V301.825ZM232.706 299.999C232.706 301.131 233.439 301.884 234.355 301.884C234.931 301.884 235.344 301.609 235.56 301.295V301.825H236.482V298.199H235.56V298.716C235.344 298.415 234.944 298.14 234.362 298.14C233.439 298.14 232.706 298.866 232.706 299.999ZM235.56 300.012C235.56 300.699 235.101 301.079 234.597 301.079C234.106 301.079 233.642 300.686 233.642 299.999C233.642 299.312 234.106 298.945 234.597 298.945C235.101 298.945 235.56 299.325 235.56 300.012ZM240.192 300.791C240.166 299.462 238.156 299.874 238.156 299.213C238.156 299.004 238.333 298.866 238.674 298.866C239.034 298.866 239.256 299.056 239.282 299.338H240.159C240.107 298.618 239.577 298.14 238.7 298.14C237.803 298.14 237.266 298.624 237.266 299.226C237.266 300.555 239.315 300.143 239.315 300.791C239.315 301 239.119 301.164 238.759 301.164C238.392 301.164 238.137 300.954 238.104 300.68H237.181C237.22 301.354 237.855 301.884 238.765 301.884C239.649 301.884 240.192 301.413 240.192 300.791ZM243.759 300.791C243.732 299.462 241.723 299.874 241.723 299.213C241.723 299.004 241.9 298.866 242.24 298.866C242.6 298.866 242.823 299.056 242.849 299.338H243.726C243.673 298.618 243.143 298.14 242.266 298.14C241.369 298.14 240.833 298.624 240.833 299.226C240.833 300.555 242.881 300.143 242.881 300.791C242.881 301 242.685 301.164 242.325 301.164C241.959 301.164 241.703 300.954 241.671 300.68H240.748C240.787 301.354 241.422 301.884 242.332 301.884C243.215 301.884 243.759 301.413 243.759 300.791ZM244.511 301.825H245.428V298.199H244.511V301.825ZM244.976 297.767C245.297 297.767 245.539 297.531 245.539 297.23C245.539 296.929 245.297 296.693 244.976 296.693C244.649 296.693 244.413 296.929 244.413 297.23C244.413 297.531 244.649 297.767 244.976 297.767ZM246.097 299.999C246.097 301.131 246.83 301.884 247.753 301.884C248.322 301.884 248.735 301.602 248.951 301.288V301.851C248.951 302.525 248.558 302.813 248.054 302.813C247.596 302.813 247.255 302.597 247.164 302.27H246.254C246.346 303.101 247.059 303.612 248.08 303.612C249.271 303.612 249.874 302.833 249.874 301.851V298.199H248.951V298.716C248.735 298.402 248.322 298.14 247.753 298.14C246.83 298.14 246.097 298.866 246.097 299.999ZM248.951 300.012C248.951 300.699 248.493 301.079 247.989 301.079C247.498 301.079 247.033 300.686 247.033 299.999C247.033 299.312 247.498 298.945 247.989 298.945C248.493 298.945 248.951 299.325 248.951 300.012ZM253.308 301.825H254.225V299.698C254.225 298.696 253.623 298.146 252.778 298.146C252.313 298.146 251.921 298.343 251.685 298.65V298.199H250.769V301.825H251.685V299.822C251.685 299.24 252.006 298.925 252.503 298.925C252.988 298.925 253.308 299.24 253.308 299.822V301.825ZM256.654 298.893C257.125 298.893 257.505 299.194 257.518 299.672H255.796C255.868 299.174 256.215 298.893 256.654 298.893ZM258.375 300.686H257.387C257.325 300.824 257.222 300.941 257.092 301.019C256.963 301.097 256.812 301.134 256.66 301.125C256.202 301.125 255.836 300.824 255.79 300.287H258.441C258.46 300.169 258.467 300.051 258.467 299.933C258.467 298.853 257.727 298.14 256.68 298.14C255.607 298.14 254.86 298.866 254.86 300.012C254.86 301.151 255.626 301.884 256.68 301.884C257.577 301.884 258.179 301.354 258.375 300.686ZM258.901 299.999C258.901 301.131 259.634 301.884 260.557 301.884C261.126 301.884 261.532 301.622 261.748 301.288V301.825H262.677V296.981H261.748V298.703C261.499 298.362 261.041 298.14 260.563 298.14C259.634 298.14 258.901 298.866 258.901 299.999ZM261.754 300.012C261.754 300.699 261.296 301.079 260.792 301.079C260.301 301.079 259.837 300.686 259.837 299.999C259.837 299.312 260.301 298.945 260.792 298.945C261.296 298.945 261.754 299.325 261.754 300.012Z" fill="#E3E5EA"/>
</g>
<defs>
<filter id="filter0_d_1_3010" x="69.6511" y="201.477" width="281.041" height="215.97" filterUnits="userSpaceOnUse" color-interpolation-filters="sRGB">
<feFlood flood-opacity="0" result="BackgroundImageFix"/>
<feColorMatrix in="SourceAlpha" type="matrix" values="0 0 0 0 0 0 0 0 0 0 0 0 0 0 0 0 0 0 127 0" result="hardAlpha"/>
<feOffset dy="13.4524"/>
<feGaussianBlur stdDeviation="13.4525"/>
<feColorMatrix type="matrix" values="0 0 0 0 0 0 0 0 0 0 0 0 0 0 0 0 0 0 0.03 0"/>
<feBlend mode="normal" in2="BackgroundImageFix" result="effect1_dropShadow_1_3010"/>
<feBlend mode="normal" in="SourceGraphic" in2="effect1_dropShadow_1_3010" result="shape"/>
</filter>
<filter id="filter1_d_1_3010" x="68.6193" y="197.347" width="281.041" height="215.97" filterUnits="userSpaceOnUse" color-interpolation-filters="sRGB">
<feFlood flood-opacity="0" result="BackgroundImageFix"/>
<feColorMatrix in="SourceAlpha" type="matrix" values="0 0 0 0 0 0 0 0 0 0 0 0 0 0 0 0 0 0 127 0" result="hardAlpha"/>
<feOffset dy="13.4524"/>
<feGaussianBlur stdDeviation="13.4525"/>
<feColorMatrix type="matrix" values="0 0 0 0 0 0 0 0 0 0 0 0 0 0 0 0 0 0 0.1 0"/>
<feBlend mode="normal" in2="BackgroundImageFix" result="effect1_dropShadow_1_3010"/>
<feBlend mode="normal" in="SourceGraphic" in2="effect1_dropShadow_1_3010" result="shape"/>
</filter>
<filter id="filter2_d_1_3010" x="68.6193" y="1.10295" width="281.041" height="215.97" filterUnits="userSpaceOnUse" color-interpolation-filters="sRGB">
<feFlood flood-opacity="0" result="BackgroundImageFix"/>
<feColorMatrix in="SourceAlpha" type="matrix" values="0 0 0 0 0 0 0 0 0 0 0 0 0 0 0 0 0 0 127 0" result="hardAlpha"/>
<feOffset dy="13.4524"/>
<feGaussianBlur stdDeviation="13.4525"/>
<feColorMatrix type="matrix" values="0 0 0 0 0 0 0 0 0 0 0 0 0 0 0 0 0 0 0.05 0"/>
<feBlend mode="normal" in2="BackgroundImageFix" result="effect1_dropShadow_1_3010"/>
<feBlend mode="normal" in="SourceGraphic" in2="effect1_dropShadow_1_3010" result="shape"/>
</filter>
<clipPath id="clip0_1_3010">
<rect width="351" height="417.273" fill="white" transform="translate(0.5 0.646484)"/>
</clipPath>
</defs>
</svg>
