<svg width="256" height="71" viewBox="0 0 256 71" fill="none" xmlns="http://www.w3.org/2000/svg">
<path fill-rule="evenodd" clip-rule="evenodd" d="M55.7445 43.5019C54.5808 42.2844 53.9314 40.665 53.9314 38.9809C53.9314 37.2967 54.5808 35.6773 55.7445 34.4598C56.522 33.6705 57.4925 33.0985 58.5597 32.8007C59.6268 32.5029 60.7533 32.4896 61.8272 32.7622C62.9011 33.0348 63.8848 33.5838 64.6807 34.3546C65.4766 35.1254 66.0568 36.0911 66.3636 37.1557C66.6783 38.3515 66.6783 39.6085 66.3636 40.8043C66.0414 41.8571 65.4534 42.8091 64.6562 43.5686C63.8591 44.3281 62.8797 44.8693 61.8126 45.1403C60.7454 45.4112 59.6265 45.4026 58.5636 45.1153C57.5008 44.828 56.5298 44.2735 55.7445 43.5019ZM247.315 33.3272C248.478 34.5442 249.128 36.1633 249.128 37.8474C249.128 39.5314 248.478 41.1505 247.315 42.3675C246.537 43.1568 245.566 43.7288 244.499 44.0267C243.432 44.3245 242.306 44.3378 241.232 44.0651C240.158 43.7925 239.174 43.2435 238.378 42.4727C237.582 41.702 237.002 40.7363 236.695 39.6717C236.381 38.4758 236.381 37.2189 236.695 36.023C237.018 34.9702 237.606 34.0182 238.403 33.2587C239.2 32.4993 240.179 31.958 241.246 31.6871C242.314 31.4162 243.432 31.4248 244.495 31.712C245.558 31.9993 246.529 32.5556 247.315 33.3272ZM236.695 49.236C238.574 50.0821 240.615 50.5031 242.675 50.4689C244.418 50.5168 246.153 50.2167 247.778 49.586C249.403 48.9553 250.886 48.0069 252.141 46.7961C253.376 45.6415 254.354 44.2401 255.012 42.683C255.67 41.1258 255.993 39.4476 255.961 37.7574C256.003 36.0905 255.697 34.4331 255.06 32.8919C254.424 31.3506 253.472 29.9597 252.265 28.8087C251.025 27.619 249.558 26.6895 247.953 26.0751C246.347 25.4607 244.635 25.1736 242.917 25.231C240.762 25.1965 238.629 25.6704 236.692 26.6143V25.7013H229.863V58.6637H236.692L236.695 49.236ZM202.887 30.0416C201.654 31.1975 200.677 32.5998 200.02 34.1575C199.363 35.7152 199.041 37.3935 199.074 39.0837C199.033 40.7495 199.34 42.4056 199.976 43.9456C200.613 45.4856 201.564 46.8753 202.77 48.0256C204.011 49.2146 205.477 50.1437 207.083 50.7581C208.688 51.3725 210.4 51.6598 212.118 51.6033C213.863 51.6506 215.599 51.3479 217.225 50.7133C218.85 50.0786 220.333 49.1247 221.584 47.908C222.817 46.7467 223.794 45.3401 224.451 43.7786C225.108 42.2171 225.431 40.5354 225.398 38.8417C225.443 37.1786 225.136 35.5248 224.499 33.988C223.862 32.4512 222.908 31.0659 221.7 29.9223C220.455 28.739 218.988 27.8153 217.383 27.2049C215.778 26.5945 214.068 26.3097 212.351 26.3671C210.609 26.3198 208.874 26.6204 207.249 27.2513C205.623 27.8823 204.142 28.8309 202.887 30.0416ZM212.211 32.6355C213.055 32.6119 213.894 32.7628 214.676 33.0788C215.459 33.3948 216.167 33.8691 216.757 34.4719C217.653 35.3664 218.263 36.5064 218.511 37.7477C218.759 38.9891 218.632 40.276 218.148 41.4456C217.664 42.6152 216.844 43.615 215.792 44.3184C214.74 45.0218 213.502 45.3973 212.236 45.3973C210.971 45.3973 209.733 45.0218 208.681 44.3184C207.629 43.615 206.808 42.6152 206.324 41.4456C205.84 40.276 205.714 38.9891 205.962 37.7477C206.209 36.5064 206.82 35.3664 207.715 34.4719C208.297 33.8708 208.997 33.3964 209.77 33.0783C210.544 32.7602 211.375 32.6053 212.211 32.6234V32.6355ZM182.591 32.6355C183.847 32.6456 185.072 33.0243 186.115 33.7246C187.157 34.4249 187.971 35.4159 188.455 36.5746C188.939 37.7333 189.072 39.0087 188.837 40.2424C188.603 41.476 188.011 42.6137 187.136 43.514C185.922 44.6407 184.319 45.2531 182.664 45.2224C181.008 45.1918 179.429 44.5204 178.258 43.3496C177.087 42.1787 176.416 40.5995 176.385 38.9439C176.355 37.2883 176.967 35.6853 178.094 34.4719C178.676 33.8709 179.375 33.3965 180.149 33.0785C180.923 32.7604 181.753 32.6055 182.59 32.6234L182.591 32.6355ZM173.268 30.0416C172.033 31.1972 171.056 32.5994 170.399 34.1571C169.742 35.7149 169.419 37.3934 169.453 39.0837C169.41 40.7508 169.717 42.4083 170.354 43.9495C170.991 45.4908 171.943 46.8816 173.15 48.0325C174.391 49.2219 175.857 50.1511 177.463 50.7655C179.068 51.38 180.78 51.6671 182.498 51.6102C184.242 51.6574 185.979 51.3548 187.604 50.7201C189.229 50.0854 190.711 49.1316 191.962 47.9149C193.196 46.7539 194.173 45.3473 194.83 43.7858C195.487 42.2242 195.809 40.5424 195.777 38.8486C195.821 37.1857 195.514 35.5322 194.877 33.9955C194.24 32.4588 193.287 31.0734 192.08 29.9292C190.835 28.7461 189.368 27.8224 187.763 27.2121C186.158 26.6017 184.448 26.3168 182.732 26.374C180.989 26.3254 179.255 26.6247 177.629 27.2545C176.004 27.8843 174.522 28.8318 173.268 30.0416ZM157.819 18.174V51.1381H164.736V18.1671L157.819 18.174ZM111.104 30.0416C109.87 31.1973 108.892 32.5995 108.235 34.1572C107.578 35.7149 107.256 37.3934 107.289 39.0837C107.247 40.7496 107.555 42.4058 108.192 43.9458C108.828 45.4858 109.78 46.8755 110.986 48.0256C112.227 49.2148 113.694 50.1439 115.299 50.7583C116.904 51.3728 118.616 51.66 120.334 51.6033C122.079 51.6504 123.815 51.3476 125.441 50.713C127.067 50.0783 128.549 49.1246 129.8 47.908C131.033 46.7466 132.01 45.3399 132.667 43.7785C133.324 42.217 133.647 40.5354 133.615 38.8417C133.659 37.1784 133.353 35.5245 132.716 33.9874C132.079 32.4503 131.126 31.0647 129.918 29.9206C128.672 28.7366 127.204 27.8125 125.598 27.2021C123.992 26.5917 122.28 26.3072 120.563 26.3653C118.821 26.3191 117.087 26.6204 115.463 27.2516C113.839 27.8828 112.357 28.8313 111.104 30.0416ZM115.932 34.4685C116.514 33.8685 117.214 33.3956 117.987 33.0795C118.761 32.7634 119.592 32.6111 120.428 32.632C121.271 32.6085 122.11 32.7595 122.892 33.0756C123.674 33.3916 124.382 33.8658 124.972 34.4685C125.868 35.3629 126.478 36.5029 126.726 37.7443C126.973 38.9856 126.847 40.2725 126.363 41.4421C125.879 42.6118 125.059 43.6115 124.007 44.3149C122.954 45.0184 121.717 45.3938 120.451 45.3938C119.185 45.3938 117.948 45.0184 116.896 44.3149C115.843 43.6115 115.023 42.6118 114.539 41.4421C114.055 40.2725 113.929 38.9856 114.177 37.7443C114.424 36.5029 115.036 35.3629 115.932 34.4685ZM104 38.8468C104.044 37.1836 103.738 35.5297 103.101 33.9925C102.465 32.4553 101.512 31.0691 100.305 29.9241C99.0605 28.7408 97.5931 27.817 95.9881 27.2066C94.3832 26.5962 92.6727 26.3114 90.9566 26.3688C89.2125 26.32 87.4761 26.6198 85.8493 27.2504C84.2224 27.8811 82.7377 28.83 81.4822 30.0416C80.2493 31.1977 79.2735 32.6001 78.618 34.158C77.9626 35.7158 77.6423 37.394 77.6779 39.0837C77.635 40.749 77.9411 42.4048 78.5763 43.9448C79.2115 45.4848 80.1619 46.8748 81.3663 48.0256C82.6071 49.2154 84.0733 50.1449 85.6788 50.7593C87.2843 51.3738 88.9964 51.6607 90.7145 51.6033C92.4591 51.6507 94.1955 51.3481 95.8213 50.7134C97.447 50.0787 98.9292 49.1248 100.18 47.908C101.414 46.7467 102.39 45.3401 103.047 43.7786C103.704 42.2171 104.027 40.5354 103.995 38.8417L104 38.8468ZM90.82 32.6355C91.6631 32.6119 92.502 32.7628 93.2841 33.0789C94.0661 33.3949 94.7743 33.8692 95.3644 34.4719C96.26 35.3664 96.8703 36.5064 97.1179 37.7477C97.3655 38.9891 97.2393 40.276 96.7553 41.4456C96.2713 42.6152 95.4512 43.615 94.3988 44.3184C93.3465 45.0218 92.1091 45.3973 90.8433 45.3973C89.5775 45.3973 88.3402 45.0218 87.2878 44.3184C86.2355 43.615 85.4154 42.6152 84.9314 41.4456C84.4474 40.276 84.3212 38.9891 84.5688 37.7477C84.8164 36.5064 85.4266 35.3664 86.3223 34.4719C86.9043 33.8715 87.6041 33.3977 88.3777 33.0802C89.1514 32.7627 89.9822 32.6084 90.8183 32.6268L90.82 32.6355ZM138.1 26.8426V51.1381H144.927V41.1087C144.927 35.9279 147.314 33.3381 152.086 33.3393H153.501L153.592 26.3688C151.874 26.2339 150.153 26.5817 148.622 27.3731C147.09 28.1644 145.811 29.3678 144.927 30.8475V26.8322L138.1 26.8426ZM66.3792 27.6052C64.5004 26.759 62.4581 26.3375 60.3978 26.3705C58.6535 26.3211 56.9168 26.6204 55.2896 27.2508C53.6624 27.8811 52.1774 28.83 50.9217 30.0416C49.6874 31.1971 48.71 32.5993 48.0528 34.1571C47.3956 35.7148 47.0734 37.3934 47.107 39.0837C47.0654 40.7496 47.3728 42.4058 48.0095 43.9458C48.6462 45.4858 49.5981 46.8755 50.8041 48.0256C52.0448 49.2154 53.5111 50.1449 55.1165 50.7593C56.722 51.3738 58.4342 51.6607 60.1522 51.6033C62.3072 51.6378 64.4399 51.1639 66.3774 50.2199V51.1278H73.2061V18.1671H66.3757L66.3792 27.6052Z" fill="white"/>
<path fill-rule="evenodd" clip-rule="evenodd" d="M20.0949 60.7267C17.229 61.1567 14.2593 61.6068 11.1859 62.0772C10.7848 62.1393 10.3749 62.1109 9.98618 61.9939C9.59747 61.877 9.23987 61.6746 8.93958 61.4015C8.63928 61.1284 8.40392 60.7915 8.25074 60.4157C8.09756 60.0398 8.03044 59.6344 8.05432 59.2292V35.6391C8.05956 34.5831 7.65407 33.5665 6.92352 32.804C6.19297 32.0415 5.19459 31.5929 4.13936 31.553C3.60035 31.5472 3.06559 31.6489 2.56627 31.8519C2.06696 32.055 1.61308 32.3555 1.23111 32.7359C0.84915 33.1162 0.546747 33.5688 0.341544 34.0673C0.136341 34.5658 0.0324471 35.1001 0.0359214 35.6391V64.4808C0.011158 65.426 0.198708 66.3647 0.584762 67.2277C0.970815 68.0908 1.54554 68.8563 2.26662 69.4679C2.97986 70.0371 3.81149 70.4394 4.70048 70.6452C5.58948 70.8511 6.51329 70.8553 7.40413 70.6576L13.9371 69.3676C16.0416 68.956 18.0873 68.5393 20.0932 68.1416L25.7321 67.0262L31.0754 65.9679C32.5727 65.6222 33.8804 64.7155 34.7293 63.4346C35.6756 62.0815 36.1839 60.4705 36.1853 58.8193V39.682C35.4227 40.3877 34.422 40.7796 33.3831 40.7796C32.3442 40.7796 31.3435 40.3877 30.5809 39.682V45.9505L30.593 56.2238C30.621 56.9711 30.3913 57.7054 29.9424 58.3036C29.4934 58.9017 28.8526 59.3274 28.1271 59.5093C25.5391 59.9024 22.8616 60.3082 20.0949 60.7267Z" fill="#FF4998"/>
<path fill-rule="evenodd" clip-rule="evenodd" d="M30.5806 24.6586V35.8051C30.5466 36.6085 30.8249 37.3939 31.3571 37.9967C31.8893 38.5995 32.6341 38.9729 33.4356 39.0388C34.213 38.9377 34.9247 38.5502 35.4316 37.9522C35.9384 37.3542 36.204 36.5886 36.1764 35.8051V12.6353C36.1722 10.9795 35.6611 9.36459 34.7117 8.00791C33.86 6.71813 32.5471 5.80308 31.0423 5.45039L25.7111 4.39729L20.0946 3.28194L13.949 2.06976L7.43153 0.779761C6.53731 0.581545 5.60986 0.587926 4.71846 0.798426C3.82705 1.00893 2.99472 1.41811 2.28364 1.9954C1.55963 2.60888 0.982 3.37652 0.593038 4.24211C0.204076 5.1077 0.013631 6.04933 0.0356488 6.99804V31.4855C1.10196 30.4197 2.54672 29.8192 4.05436 29.8151H4.18578C5.64499 29.8478 7.03542 30.4418 8.06788 31.4734V12.2307C8.04459 11.8261 8.11222 11.4215 8.26579 11.0465C8.41937 10.6715 8.65499 10.3356 8.95536 10.0636C9.25572 9.79163 9.61321 9.59036 10.0015 9.47461C10.3899 9.35886 10.7992 9.33157 11.1995 9.39474C14.266 9.85587 17.2305 10.3078 20.0929 10.7505C22.8441 11.1741 25.5278 11.5718 28.1078 11.9609C28.8306 12.1416 29.4696 12.5646 29.9183 13.1593C30.367 13.754 30.5983 14.4845 30.5737 15.2291L30.5806 24.6586Z" fill="#01CC74"/>
<path fill-rule="evenodd" clip-rule="evenodd" d="M17.5114 33.9186C17.8822 34.0797 18.1966 34.3477 18.4144 34.6884C18.6321 35.029 18.7434 35.4269 18.734 35.8311C18.7556 36.3447 18.5732 36.8461 18.2266 37.2258C17.8799 37.6054 17.3972 37.8326 16.8837 37.8577H16.7488C16.2525 37.7833 15.8009 37.5291 15.4798 37.1434C15.1588 36.7577 14.9907 36.2675 15.0076 35.7659C15.0244 35.2643 15.2251 34.7865 15.5713 34.4232C15.9176 34.06 16.3853 33.8367 16.8854 33.7958C17.0999 33.798 17.312 33.8396 17.5114 33.9186ZM27.1103 44.5031V18.1878C27.1293 17.5783 26.9345 16.9814 26.5596 16.5004C26.1847 16.0194 25.6534 15.6847 25.0577 15.5542C23.4375 15.3502 21.7861 15.1461 20.1052 14.93C18.376 14.7086 16.6278 14.4873 14.8277 14.2625C14.513 14.2273 14.1945 14.2614 13.8944 14.3624C13.5944 14.4635 13.3201 14.629 13.0909 14.8474C12.8616 15.0657 12.683 15.3317 12.5675 15.6265C12.452 15.9212 12.4024 16.2377 12.4223 16.5537V54.8906C12.4024 55.2056 12.4512 55.5211 12.5656 55.8153C12.6799 56.1095 12.8569 56.3753 13.0844 56.5942C13.3118 56.813 13.5841 56.9798 13.8825 57.0827C14.1809 57.1857 14.4981 57.2225 14.8121 57.1904L20.0966 56.5247C21.7843 56.3137 23.4375 56.1045 25.056 55.897C25.6554 55.7666 26.19 55.43 26.5666 54.9459C26.9433 54.4618 27.1382 53.8608 27.1172 53.2478C27.1172 50.3358 27.1172 47.4215 27.1172 44.5049L27.1103 44.5031Z" fill="white"/>
</svg>
