<svg width="120" height="34" viewBox="0 0 120 34" fill="none" xmlns="http://www.w3.org/2000/svg">
    <path fill-rule="evenodd" clip-rule="evenodd"
        d="M26.1301 20.4916C25.5627 19.9177 25.2806 19.211 25.2806 18.3729C25.2806 17.5349 25.5643 16.8282 26.1301 16.2543C26.6959 15.6805 27.3995 15.3928 28.2377 15.3936C29.0912 15.3936 29.8021 15.6805 30.3679 16.2543C30.7201 16.6041 30.9749 17.0396 31.1072 17.5179C31.2545 18.0784 31.2545 18.6675 31.1072 19.228C30.9749 19.7063 30.7201 20.1418 30.3679 20.4916C29.8005 21.0654 29.0912 21.3523 28.2377 21.3523C27.3987 21.3523 26.6959 21.0654 26.1301 20.4916ZM115.934 15.7235C116.501 16.2973 116.783 17.004 116.785 17.8421C116.786 18.6801 116.501 19.3869 115.934 19.9607C115.366 20.5345 114.664 20.8214 113.826 20.8214C112.972 20.8214 112.262 20.5345 111.696 19.9607C111.343 19.6106 111.088 19.1745 110.956 18.6963C110.809 18.1355 110.809 17.5471 110.956 16.9943C111.089 16.508 111.343 16.0801 111.696 15.7299C112.263 15.1561 112.972 14.8692 113.826 14.8692C114.665 14.8692 115.368 15.1561 115.934 15.7299V15.7235ZM110.956 23.18C111.785 23.5657 112.72 23.7586 113.76 23.7578C115.527 23.7578 117.005 23.184 118.197 22.0364C119.388 20.8887 119.984 19.476 119.984 17.7983C119.984 16.1206 119.407 14.7233 118.252 13.604C117.097 12.4848 115.636 11.9263 113.87 11.9263C112.792 11.9263 111.819 12.1419 110.956 12.5747V12.1476H107.754V27.5971H110.956V23.18H110.956ZM95.1069 14.1787C93.9153 15.3263 93.3195 16.7398 93.3195 18.4175C93.3195 20.0952 93.8967 21.4925 95.0518 22.6118C96.2069 23.7311 97.6684 24.2895 99.4339 24.2895C101.199 24.2895 102.679 23.7116 103.871 22.5575C105.063 21.4034 105.659 19.9858 105.659 18.3081C105.659 16.6304 105.081 15.2364 103.925 14.1276C102.768 13.0189 101.309 12.4604 99.5425 12.4604C97.7762 12.4604 96.2977 13.0343 95.1053 14.1819L95.1061 14.1795L95.1069 14.1787ZM99.4776 15.3928C100.332 15.3928 101.042 15.6797 101.608 16.2535C102.174 16.8273 102.457 17.5341 102.459 18.3721C102.461 19.2102 102.175 19.9169 101.608 20.4908C101.04 21.0646 100.332 21.3515 99.4776 21.3515C98.6395 21.3515 97.9375 21.0646 97.3701 20.4908C96.8027 19.9169 96.519 19.2102 96.519 18.3721C96.519 17.5341 96.8027 16.8265 97.3701 16.2535C97.9375 15.6805 98.6395 15.3928 99.4776 15.3928ZM85.5921 15.3928C86.4457 15.3928 87.1566 15.6797 87.7224 16.2535C88.2882 16.8273 88.5735 17.5341 88.5735 18.3721C88.5735 19.2102 88.2898 19.9169 87.7224 20.4908C87.155 21.0646 86.4457 21.3515 85.5921 21.3515C84.7532 21.3515 84.0504 21.0646 83.4846 20.4908C82.9188 19.9169 82.6351 19.2102 82.6351 18.3721C82.6351 17.5341 82.9188 16.8265 83.4846 16.2535C84.0504 15.6805 84.754 15.3928 85.5921 15.3928ZM81.2206 14.1787C80.029 15.3263 79.4332 16.7398 79.4332 18.4175C79.4332 20.0952 80.0112 21.4925 81.1663 22.6118C82.3214 23.7311 83.7821 24.2895 85.5484 24.2895C87.3147 24.2895 88.7932 23.7116 89.9848 22.5575C91.1763 21.4034 91.7729 19.9858 91.7729 18.3081C91.7729 16.6304 91.195 15.2364 90.0383 14.1276C88.8815 13.0189 87.4225 12.4604 85.6562 12.4604C83.8899 12.4604 82.4114 13.0343 81.219 14.1819L81.2198 14.1795L81.2206 14.1787ZM73.9796 8.61711V24.2887H77.2244V8.61711H73.9796ZM52.0805 14.1787C50.889 15.3263 50.2924 16.7398 50.2924 18.4175C50.2924 20.0952 50.8695 21.4925 52.0246 22.6118C53.1797 23.7311 54.6412 24.2895 56.4067 24.2895C58.1721 24.2895 59.6515 23.7116 60.8439 22.5575C62.0363 21.4034 62.632 19.9858 62.632 18.3081C62.632 16.6304 62.0549 15.2364 60.899 14.1276C59.7431 13.0189 58.2832 12.4604 56.5169 12.4604C54.7506 12.4604 53.2721 13.0343 52.0797 14.1819V14.1795L52.0805 14.1787ZM54.3437 16.2535C54.9111 15.6781 55.6131 15.392 56.4513 15.3928C57.3048 15.3928 58.0157 15.6797 58.5815 16.2535C59.1473 16.8273 59.431 17.5341 59.431 18.3721C59.431 19.2102 59.1473 19.9169 58.5815 20.4908C58.0157 21.0646 57.3048 21.3515 56.4513 21.3515C55.6123 21.3515 54.9111 21.0646 54.3437 20.4908C53.7763 19.9169 53.4942 19.2102 53.4942 18.3721C53.4942 17.5341 53.7779 16.8265 54.3437 16.2535ZM48.7474 18.3057C48.7474 16.628 48.1702 15.2339 47.0151 14.1236C45.86 13.0132 44.3993 12.4572 42.633 12.4572C40.8668 12.4572 39.3882 13.031 38.1958 14.1787C37.0035 15.3263 36.4077 16.7398 36.4085 18.4175C36.4093 20.0952 36.9864 21.4925 38.1415 22.6118C39.2966 23.7311 40.7573 24.2895 42.5236 24.2895C44.2899 24.2895 45.7684 23.7116 46.9608 22.5575C48.1532 21.4034 48.749 19.9858 48.749 18.3081L48.7474 18.3057ZM42.5666 15.392C43.4201 15.392 44.131 15.6789 44.6968 16.2527C45.2626 16.8265 45.5463 17.5333 45.5463 18.3713C45.5463 19.2094 45.2626 19.9161 44.6968 20.4899C44.131 21.0638 43.4201 21.3507 42.5666 21.3507C41.7276 21.3507 41.0248 21.0638 40.459 20.4899C39.8932 19.9161 39.6095 19.2094 39.6079 18.3713C39.6063 17.5333 39.8916 16.8257 40.459 16.2527C41.0264 15.6797 41.7284 15.392 42.5666 15.392ZM64.7299 12.6768V24.2863H67.9301V19.3642C67.9301 16.936 69.0487 15.7218 71.2859 15.7227H71.949L71.992 12.4564C70.1033 12.4564 68.7496 13.1558 67.9309 14.5637V12.6858H64.7307L64.7299 12.6768ZM31.1096 13.0335C30.2812 12.6477 29.3466 12.4548 28.305 12.4548C26.5395 12.4548 25.0601 13.0286 23.8678 14.1762C22.6754 15.3239 22.0796 16.7374 22.0796 18.4151C22.0796 20.0928 22.6575 21.4901 23.8126 22.6094C24.9677 23.7287 26.4284 24.2871 28.1947 24.2871C29.2728 24.2871 30.2439 24.0715 31.1088 23.6387L31.1072 24.2871H34.309V8.61711H31.1072V13.0359L31.1096 13.0335Z"
        fill="#2F3E83" />
    <path fill-rule="evenodd" clip-rule="evenodd"
        d="M9.42052 28.1596L5.24433 28.7918C4.44184 28.915 3.77715 28.3055 3.77715 27.4569V16.401C3.77715 15.3701 2.96656 14.5085 1.94197 14.4858C0.893866 14.4615 0.0159912 15.3239 0.0159912 16.4018V29.9192C0.0159912 30.9063 0.418857 31.7298 1.06976 32.2574C1.69798 32.7786 2.55315 32.9917 3.47723 32.815L6.53966 32.2104L14.5743 30.6178C15.2536 30.4816 15.8566 30.0423 16.2879 29.4304C16.7313 28.7958 16.9688 28.0413 16.9704 27.2664V18.2943C16.6121 18.625 16.1436 18.8082 15.6572 18.8074C15.1709 18.8066 14.7007 18.6226 14.3441 18.2911V21.2275L14.3506 26.0418C14.3506 26.7955 13.835 27.4844 13.1946 27.5817L9.43024 28.1588L9.42052 28.1596Z"
        fill="#FF4998" />
    <path fill-rule="evenodd" clip-rule="evenodd"
        d="M14.3343 11.2561V16.4805C14.3724 17.338 14.9665 18.0204 15.6734 17.9961C16.364 17.9799 16.9217 17.3055 16.9598 16.4788V5.6183C16.958 4.84231 16.7187 4.08545 16.274 3.44944C15.842 2.83995 15.2365 2.38283 14.5539 2.24991L12.0524 1.75552L3.48203 0.0632189C2.55795 -0.123193 1.69872 0.111848 1.06889 0.632992C0.426894 1.159 0.019165 1.99056 0.019165 2.97773V14.4542C0.519302 13.955 1.19696 13.6737 1.90299 13.6713L1.90947 13.6745H1.96135C2.64537 13.6899 3.29716 13.9683 3.78114 14.4518V5.43027C3.78114 4.57439 4.44907 3.9795 5.24831 4.10107L13.1743 5.30707C13.8228 5.40271 14.3302 6.09487 14.3302 6.847L14.3335 11.2642L14.3343 11.2561Z"
        fill="#01CC74" />
    <path fill-rule="evenodd" clip-rule="evenodd"
        d="M8.20862 15.5938C8.54502 15.7283 8.78171 16.0801 8.78171 16.4894C8.78171 17.0105 8.39911 17.4352 7.91438 17.4393H7.85196C7.3956 17.4093 7.03164 16.9984 7.03164 16.4894C7.03164 15.9577 7.43126 15.5298 7.91681 15.5354C8.0171 15.5368 8.11548 15.5566 8.20862 15.5938ZM12.7074 20.554L12.7042 8.21997C12.7042 7.60967 12.2721 7.05449 11.742 6.98559L6.94653 6.38178C6.33534 6.30235 5.82385 6.78865 5.82385 7.45811V25.425C5.82385 26.0945 6.3321 26.5799 6.94247 26.5046L9.41965 26.1925L11.7444 25.8983C12.2794 25.8302 12.7107 25.271 12.7107 24.6567L12.7066 20.5556L12.7074 20.554Z"
        fill="#2F3E83" />
</svg>