<svg width="41" height="39" viewBox="0 0 41 39" fill="none" xmlns="http://www.w3.org/2000/svg">
    <path d="M39.0008 8.27148H35.8652" stroke="#1665D8" stroke-width="3.34463" stroke-miterlimit="10"
        stroke-linecap="round" stroke-linejoin="round" />
    <path
        d="M20.1864 14.5424H8.27119C4.80769 14.5424 2 11.7347 2 8.27119C2 4.80769 4.80769 2 8.27119 2H20.1864C21.9182 2 23.322 3.40388 23.322 5.13559V11.4068C23.322 13.1385 21.9182 14.5424 20.1864 14.5424Z"
        stroke="#162050" stroke-width="3.34463" stroke-miterlimit="10" stroke-linecap="round" stroke-linejoin="round" />
    <path
        d="M14.9178 20.8134L13.6635 27.0846H14.5424C18.0059 27.0846 20.8136 29.8923 20.8136 33.3557C20.8136 35.0875 19.4097 36.4913 17.678 36.4913H5.13559C3.40388 36.4913 2 35.0875 2 33.3557V30.2202C2 28.4884 3.40388 27.0846 5.13559 27.0846H5.70086L8.21169 14.5303"
        stroke="#162050" stroke-width="3.34463" stroke-miterlimit="10" stroke-linecap="round" stroke-linejoin="round" />
    <path
        d="M23.322 5.13574H26.4576C28.1893 5.13574 29.5932 6.53963 29.5932 8.27134C29.5932 10.003 28.1893 11.4069 26.4576 11.4069H23.322"
        stroke="#162050" stroke-width="3.34463" stroke-miterlimit="10" stroke-linecap="round" stroke-linejoin="round" />
</svg>