<svg width="21" height="16" viewBox="0 0 21 16" fill="none" xmlns="http://www.w3.org/2000/svg">
<path fill-rule="evenodd" clip-rule="evenodd" d="M18.5951 0.599586H1.93492C1.71378 0.597158 1.49442 0.639374 1.28998 0.72371C1.08553 0.808046 0.900183 0.932768 0.745035 1.09041C0.589886 1.24806 0.46812 1.43539 0.387021 1.64121C0.305922 1.84702 0.267157 2.06708 0.273044 2.28822V14.041C0.267157 14.2621 0.305922 14.4822 0.387021 14.688C0.46812 14.8938 0.589886 15.0811 0.745035 15.2388C0.900183 15.3964 1.08553 15.5211 1.28998 15.6055C1.49442 15.6898 1.71378 15.732 1.93492 15.7296H18.5951C18.8163 15.732 19.0356 15.6898 19.2401 15.6055C19.4445 15.5211 19.6299 15.3964 19.785 15.2388C19.9402 15.0811 20.0619 14.8938 20.143 14.688C20.2241 14.4822 20.2629 14.2621 20.257 14.041V2.28822C20.2629 2.06708 20.2241 1.84702 20.143 1.64121C20.0619 1.43539 19.9402 1.24806 19.785 1.09041C19.6299 0.932768 19.4445 0.808046 19.2401 0.72371C19.0356 0.639374 18.8163 0.597158 18.5951 0.599586ZM18.7818 3.00911L10.7487 9.44253C10.6116 9.55281 10.441 9.61293 10.265 9.61293C10.0891 9.61293 9.91843 9.55281 9.78131 9.44253L1.7482 3.00911C1.7482 3.00911 1.78969 12.3261 1.79624 13.9514C1.79682 14.0151 1.82246 14.0761 1.86762 14.1211C1.91278 14.166 1.97383 14.1914 2.03755 14.1917H18.4969C18.5606 14.1914 18.6216 14.166 18.6668 14.1211C18.712 14.0761 18.7376 14.0151 18.7382 13.9514C18.7447 12.3261 18.7818 3.00911 18.7818 3.00911ZM2.96676 2.08943L10.265 8.16459L17.5633 2.09052L2.96676 2.08943Z" fill="#A8A8A8"/>
</svg>
