<svg xmlns="http://www.w3.org/2000/svg" viewBox="0 0 72 72" fill="#8f8f8f"><path d="M72 54.992h-.134a57.96 57.96 0 0 0-2.712-5.756h.885l1.96 4.1v1.657zM.002 21.036c3.54-1.194 7.2-2.04 10.894-2.525L11.952 13h8.553l-1.917 5.002c2.3-.007 4.597.13 6.883.403L28.138 13h9.397l-4.477 6.83a57.53 57.53 0 0 1 16.748 7.361c1.028.66 2.025 1.357 2.992 2.08H51.44a57.41 57.41 0 0 0-18.837-8.731l-5.474 8.53H23.2v5.812L13.506 50.77h-3.102v5.313L.467 71.667H.15L25.1 19.153c-2.256-.262-4.526-.385-6.797-.366L.07 71.665H0l.002-50.63zm0 49.653L10.72 19.342A56.74 56.74 0 0 0 .045 21.921H0L.002 70.7zm30.204-28.097h5.287v-4.944h-5.287v-2.36h6.433l-.35-4.955H24.83V48.48h5.38v-5.9zm22.358 5.838h5.782l2.635-4.453 2.7 4.457h5.916l-5.705-9.404 5.138-8.667h-5.86l-2.208 3.764-2.3-3.776h-5.96l5.3 8.723-5.442 9.356zm-6.726.198a9.24 9.24 0 0 0 6.592-2.623c1.764-1.723 2.776-4.054 2.816-6.512a9.44 9.44 0 0 0-9.813-9.044 9.44 9.44 0 0 0-9.033 9.046 9.32 9.32 0 0 0 .76 3.54 9.28 9.28 0 0 0 2.058 2.978 9.29 9.29 0 0 0 3.04 1.964 9.25 9.25 0 0 0 3.56.65h.017zm-1.663-13.116a1.68 1.68 0 0 1 1.605-1.665 1.74 1.74 0 0 1 1.18.496c.316.3.5.728.518 1.17v7.702c-.026.42-.212.814-.52 1.103s-.712.45-1.133.45a1.65 1.65 0 0 1-1.133-.45 1.67 1.67 0 0 1-.52-1.103v-7.702zM31.432 62.03h5.472v-3.632h-5.472v-2.47H38.1V52H27.2v16.97h10.98v-4.082h-6.75V62.03zM54.983 52l-2.098 9.714L50.836 52h-3.62l-1.95 9.813L43.23 52h-4.317l3.92 16.97h3.936l1.928-9.727 1.986 9.725h3.856L58.473 52h-3.5zm14.294 7.667c-1.124-1.038-2.413-1.314-3.86-1.724-1.7-.483-2.654-.536-2.654-1.532a1.36 1.36 0 0 1 .15-.502 1.34 1.34 0 0 1 .331-.406c.136-.112.293-.197.462-.248a1.33 1.33 0 0 1 .52-.052h.01a2.22 2.22 0 0 1 2.338 1.702l3.697-1.234a5.68 5.68 0 0 0-5.741-4.216c-3.86 0-6.222 2.374-6.222 5.57 0 2.764 1.605 4.123 4.82 5.084 1.922.582 2.94.536 2.94 1.773 0 .65-.603 1.163-1.605 1.163a2.51 2.51 0 0 1-2.758-2.072l-4.054.892c.7 3.22 3.087 5.132 6.76 5.132a6.41 6.41 0 0 0 2.62-.484 6.45 6.45 0 0 0 2.2-1.505 5.48 5.48 0 0 0 1.422-3.736c.037-.666-.068-1.332-.307-1.955s-.608-1.188-1.08-1.658h.006v.007zm-47.33.85l-5.048-8.44H12V68.98h4.3v-9.878l5.765 9.854h4.078V52.054H21.96l-.013 8.462z"/></svg>