<svg width="38" height="36" viewBox="0 0 38 36" fill="none" xmlns="http://www.w3.org/2000/svg">
<g clip-path="url(#clip0_591_291)">
<path d="M20.4196 27.0185V12.8015C20.4196 12.0133 19.7834 11.377 18.9951 11.377C18.2069 11.377 17.5706 12.0133 17.5706 12.8015V27.0185C17.5706 27.8067 18.2069 28.443 18.9951 28.443C19.7834 28.443 20.4196 27.8067 20.4196 27.0185Z" fill="white"/>
<path d="M32.9368 0H27.533C24.665 0 21.9488 1.23461 20.0589 3.37142C19.4986 4.00772 18.5204 4.01722 17.9506 3.37142C16.0607 1.22511 13.3351 0 10.4765 0H5.07271C2.70796 0 0.799072 1.90889 0.799072 4.26414V27.0094C0.799072 29.3646 2.70796 31.2735 5.06321 31.2735H10.467C12.5183 31.2735 14.4652 32.1567 15.8043 33.6858C17.4947 35.6136 20.4768 35.6231 22.1863 33.6858C23.5348 32.1567 25.4817 31.2735 27.5236 31.2735H32.9273C35.2826 31.2735 37.1915 29.3646 37.1915 27.0094V4.26414C37.1915 1.90889 35.2826 0 32.9273 0H32.9368ZM34.3519 27.0189C34.3519 27.8071 33.7156 28.4434 32.9273 28.4434H27.5236C24.6555 28.4434 21.9393 29.678 20.0494 31.8149C19.4891 32.4511 18.5109 32.4606 17.9411 31.8149C16.0512 29.6685 13.3256 28.4434 10.467 28.4434H5.06321C4.27496 28.4434 3.63867 27.8071 3.63867 27.0189V4.26414C3.63867 3.47589 4.27496 2.83959 5.06321 2.83959H10.467C12.5183 2.83959 14.4652 3.72281 15.8043 5.25182C17.4947 7.17021 20.4768 7.18921 22.1863 5.25182C23.5348 3.72281 25.4817 2.83959 27.5236 2.83959H32.9273C33.7156 2.83959 34.3519 3.47589 34.3519 4.26414V27.0094V27.0189Z" fill="#1D84FF"/>
<path d="M30.0878 8.52805H27.2482C26.1085 8.52805 24.9974 8.71799 23.9337 9.08837C23.193 9.34479 22.8036 10.1615 23.0695 10.9023C23.3259 11.6431 24.1427 12.0324 24.8834 11.7665C25.6432 11.5006 26.4409 11.3676 27.2577 11.3676H30.0973C30.8855 11.3676 31.5218 10.7313 31.5218 9.9431C31.5218 9.15485 30.8855 8.51855 30.0973 8.51855L30.0878 8.52805Z" fill="white"/>
<path d="M14.0661 9.09841C13.0025 8.72803 11.8913 8.53809 10.7517 8.53809H7.91209C7.12385 8.53809 6.48755 9.17438 6.48755 9.96263C6.48755 10.7509 7.12385 11.3872 7.91209 11.3872H10.7517C11.5684 11.3872 12.3662 11.5201 13.1259 11.7861C13.8667 12.052 14.6834 11.6531 14.9399 10.9218C15.1963 10.1811 14.8164 9.37382 14.0756 9.1079L14.0661 9.09841Z" fill="white"/>
<path d="M30.0875 14.2165H27.2479C26.1083 14.2165 24.9971 14.4065 23.9335 14.7768C23.1927 15.0333 22.8033 15.85 23.0693 16.5908C23.3257 17.3315 24.1424 17.7209 24.8832 17.455C25.6429 17.1891 26.4407 17.0561 27.2574 17.0561H30.097C30.8853 17.0561 31.5216 16.4198 31.5216 15.6316C31.5216 14.8433 30.8853 14.207 30.097 14.207L30.0875 14.2165Z" fill="white"/>
<path d="M14.0664 14.7869C13.0027 14.4165 11.8916 14.2266 10.7519 14.2266H7.91234C7.12409 14.2266 6.48779 14.8629 6.48779 15.6511C6.48779 16.4394 7.12409 17.0757 7.91234 17.0757H10.7519C11.5687 17.0757 12.3664 17.2086 13.1262 17.4745C13.8669 17.7404 14.6837 17.3416 14.9401 16.6103C15.1965 15.8695 14.8166 15.0623 14.0759 14.7964L14.0664 14.7869Z" fill="white"/>
<path d="M30.0875 19.906H27.2479C26.1083 19.906 24.9971 20.0959 23.9335 20.4663C23.1927 20.7227 22.8033 21.5395 23.0693 22.2802C23.3257 23.021 24.1424 23.4104 24.8832 23.1444C25.6429 22.8785 26.4407 22.7456 27.2574 22.7456H30.097C30.8853 22.7456 31.5216 22.1093 31.5216 21.321C31.5216 20.5328 30.8853 19.8965 30.097 19.8965L30.0875 19.906Z" fill="white"/>
<path d="M14.0661 20.4656C13.0025 20.0952 11.8913 19.9053 10.7517 19.9053H7.91209C7.12385 19.9053 6.48755 20.5416 6.48755 21.3298C6.48755 22.1181 7.12385 22.7544 7.91209 22.7544H10.7517C11.5684 22.7544 12.3662 22.8873 13.1259 23.1532C13.8667 23.4192 14.6834 23.0203 14.9399 22.289C15.1963 21.5482 14.8164 20.741 14.0756 20.4751L14.0661 20.4656Z" fill="white"/>
</g>
<defs>
<clipPath id="clip0_591_291">
<rect width="36.4019" height="35.1388" fill="white" transform="translate(0.799072)"/>
</clipPath>
</defs>
</svg>
