<svg width="144" height="49" viewBox="0 0 144 49" fill="none" xmlns="http://www.w3.org/2000/svg">
<g clip-path="url(#clip0_91_12809)">
<path d="M47.7001 4.58019C48.0713 4.14613 48.3099 3.69219 48.3099 3.21174C48.3099 2.40658 47.6437 1.89631 46.8284 1.89631C46.0695 1.89631 45.4398 2.3867 45.3205 3.21174L44.2102 2.94336C44.4223 1.59148 45.526 0.739929 46.8218 0.739929C48.2768 0.739929 49.4334 1.73064 49.4334 3.2018C49.4334 4.00697 49.0622 4.73923 48.5253 5.35884C47.4515 6.60801 47.425 6.65439 46.265 8.02284H49.4599V9.16928H44.3096V8.6789L47.7001 4.58019Z" fill="white"/>
<path d="M44.3295 14.7889L44.3394 10.604H53.4204C53.5132 11.1872 53.5596 11.7902 53.5596 12.39C53.5596 18.7219 48.4026 23.8743 42.0725 23.8743C35.739 23.8842 30.582 18.7318 30.582 12.3999C30.582 6.06793 35.739 0.915557 42.0692 0.915557V4.96788C37.9694 4.96788 34.6353 8.30118 34.6353 12.3999C34.6353 16.4986 37.9694 19.8319 42.0692 19.8319C45.327 19.8319 48.1143 17.7213 49.1152 14.7889M62.0573 11.8996C62.0573 8.8744 62.2429 7.64181 62.7433 6.90292C63.373 5.97847 64.586 5.4682 66.1702 5.4682C67.5688 5.4682 68.7354 5.87576 69.3552 6.60802C69.8258 7.12492 70.0214 7.84724 70.0214 8.98706V9.67294H67.4562C67.4197 8.37739 67.3832 8.14545 67.1976 7.86712C66.9955 7.55235 66.6044 7.35686 66.1338 7.35686C65.6234 7.35686 65.2091 7.57886 65.0335 7.91351C64.7749 8.43041 64.6987 9.38467 64.6987 11.883C64.6987 13.9473 64.7915 15.15 64.9572 15.6603C65.1064 16.0844 65.5306 16.3263 66.0973 16.3263C67.0982 16.3263 67.3733 15.816 67.4595 13.9108H70.0147C69.9949 15.5211 69.9021 16.1772 69.5607 16.8067C69.0901 17.7146 67.8472 18.2216 66.0609 18.2216C63.9795 18.2216 62.7201 17.4529 62.3025 15.9718C62.1401 15.372 62.0573 13.9174 62.0573 11.8996ZM71.4929 5.6637H75.4633C77.369 5.6637 77.7137 5.73659 78.3799 6.27337C78.9731 6.76375 79.2681 7.56892 79.2681 8.76175C79.2681 9.7624 79.0659 10.5311 78.6748 11.048C78.3401 11.502 77.9357 11.6974 77.0641 11.8896C78.7212 12.0917 79.2946 12.8704 79.3145 14.9545C79.3145 15.2892 79.3509 15.9718 79.3874 16.8233C79.4238 17.4164 79.4437 17.5258 79.5895 18.046H76.8586C76.7459 17.2408 76.7459 17.2209 76.7459 15.7034C76.7459 14.1858 76.6333 13.4734 76.3383 13.1388C76.1361 12.9168 75.9141 12.8605 75.2545 12.8605H74.015V18.0526H71.4863L71.4929 5.6637ZM75.0557 11.0314C76.2123 11.0314 76.6299 10.5411 76.6299 9.24551C76.6299 8.55963 76.4443 8.00629 76.1394 7.7379C75.9174 7.55235 75.7517 7.5159 75.122 7.5159H74.0018V11.0314H75.0557ZM80.8788 11.8366C80.8788 8.9473 81.008 7.94996 81.5085 7.07853C82.1017 6.01492 83.3313 5.4682 85.0812 5.4682C87.0167 5.4682 88.3292 6.19053 88.8396 7.54904C89.0981 8.21503 89.2108 9.52052 89.2108 11.8996C89.2108 14.5006 89.0815 15.7299 88.7202 16.4356C88.127 17.6119 86.861 18.2415 85.1011 18.2415C83.3413 18.2415 82.1283 17.7047 81.5184 16.6311C81.018 15.7696 80.8788 14.7425 80.8788 11.8366ZM85.0448 16.3329C85.8137 16.3329 86.2677 15.9618 86.4235 15.2329C86.5163 14.7624 86.5892 13.152 86.5892 11.4191C86.5892 9.56028 86.4964 8.46685 86.3108 8.02285C86.1451 7.6153 85.6612 7.35686 85.0514 7.35686C84.3488 7.35686 83.8583 7.67163 83.7191 8.20841C83.5898 8.7253 83.5169 10.0142 83.5169 11.9857C83.5169 13.6225 83.5732 14.6961 83.666 15.2163C83.8052 15.9618 84.256 16.3329 85.0448 16.3329ZM90.0426 5.6637H92.6244L93.4662 10.1799C93.7612 11.8167 93.8374 13.3078 93.9766 16.1573C94.4936 12.3634 94.6627 11.3065 94.9013 10.1799L95.8823 5.6637H98.7789L99.7036 10.1799C100.128 12.2442 100.221 13.6424 100.353 16.1573C100.519 14.0566 100.688 12.5192 101.092 10.1799L101.898 5.6637H104.165L101.666 18.0559H98.8618L97.6919 12.2972C97.4897 11.2965 97.2378 8.95724 97.1815 7.6882C96.8103 10.4748 96.7937 10.8724 96.4954 12.2972L95.2924 18.0526H92.4222L90.0426 5.6637ZM105.272 5.6637H108.735C110.743 5.6637 111.356 5.77635 111.983 6.22035C112.768 6.79357 113.159 7.79423 113.325 9.75578C113.381 10.5245 113.418 11.5053 113.418 12.3767C113.418 14.6066 113.262 15.7001 112.901 16.429C112.384 17.4761 111.187 18.0658 109.653 18.0658H105.285L105.272 5.6637ZM108.967 16.101C109.855 16.101 110.346 15.8989 110.521 15.435C110.707 14.9446 110.763 14.2322 110.763 12.2044C110.763 9.99103 110.69 9.0202 110.485 8.41053C110.299 7.89363 109.799 7.60536 109.03 7.60536H107.873V16.101H108.967ZM58.2989 0.78302H57.4737V23.6523H58.2989V0.78302Z" fill="white"/>
</g>
<g clip-path="url(#clip1_91_12809)">
<path d="M44.4205 40.8948L39.6114 40.5859L37.7963 36.0533L35.9812 40.5859L31.1824 40.8948L34.8642 44.0143L33.6542 48.7399L37.7963 46.13L41.9384 48.7399L40.7283 44.0143L44.4205 40.8948Z" fill="url(#paint0_linear_91_12809)"/>
</g>
<g clip-path="url(#clip2_91_12809)">
<path d="M61.5197 40.8948L56.7105 40.5859L54.8954 36.0533L53.0803 40.5859L48.2815 40.8948L51.9634 44.0143L50.7533 48.7399L54.8954 46.13L59.0375 48.7399L57.8275 44.0143L61.5197 40.8948Z" fill="url(#paint1_linear_91_12809)"/>
</g>
<g clip-path="url(#clip3_91_12809)">
<path d="M78.619 40.8948L73.8098 40.5859L71.9948 36.0533L70.1797 40.5859L65.3809 40.8948L69.0627 44.0143L67.8527 48.7399L71.9948 46.13L76.1369 48.7399L74.9268 44.0143L78.619 40.8948Z" fill="url(#paint2_linear_91_12809)"/>
</g>
<g clip-path="url(#clip4_91_12809)">
<path d="M95.7186 40.8948L90.9095 40.5859L89.0944 36.0533L87.2793 40.5859L82.4805 40.8948L86.1623 44.0143L84.9523 48.7399L89.0944 46.13L93.2365 48.7399L92.0264 44.0143L95.7186 40.8948Z" fill="url(#paint3_linear_91_12809)"/>
</g>
<g clip-path="url(#clip5_91_12809)">
<path d="M112.818 40.8948L108.009 40.5859L106.194 36.0533L104.378 40.5859L99.5796 40.8948L103.261 44.0143L102.051 48.7399L106.194 46.13L110.336 48.7399L109.126 44.0143L112.818 40.8948Z" fill="url(#paint4_linear_91_12809)"/>
</g>
<defs>
<linearGradient id="paint0_linear_91_12809" x1="37.7911" y1="35.988" x2="37.8167" y2="48.291" gradientUnits="userSpaceOnUse">
<stop stop-color="#FFD400"/>
<stop offset="1" stop-color="#FDBF00"/>
</linearGradient>
<linearGradient id="paint1_linear_91_12809" x1="54.8902" y1="35.988" x2="54.9159" y2="48.291" gradientUnits="userSpaceOnUse">
<stop stop-color="#FFD400"/>
<stop offset="1" stop-color="#FDBF00"/>
</linearGradient>
<linearGradient id="paint2_linear_91_12809" x1="71.9896" y1="35.988" x2="72.0152" y2="48.291" gradientUnits="userSpaceOnUse">
<stop stop-color="#FFD400"/>
<stop offset="1" stop-color="#FDBF00"/>
</linearGradient>
<linearGradient id="paint3_linear_91_12809" x1="89.0892" y1="35.988" x2="89.1148" y2="48.291" gradientUnits="userSpaceOnUse">
<stop stop-color="#FFD400"/>
<stop offset="1" stop-color="#FDBF00"/>
</linearGradient>
<linearGradient id="paint4_linear_91_12809" x1="106.188" y1="35.988" x2="106.214" y2="48.291" gradientUnits="userSpaceOnUse">
<stop stop-color="#FFD400"/>
<stop offset="1" stop-color="#FDBF00"/>
</linearGradient>
<clipPath id="clip0_91_12809">
<rect width="82.8359" height="23.1343" fill="white" transform="translate(30.582 0.739929)"/>
</clipPath>
<clipPath id="clip1_91_12809">
<rect width="13.2382" height="12.6866" fill="white" transform="translate(31.1824 36.0533)"/>
</clipPath>
<clipPath id="clip2_91_12809">
<rect width="13.2382" height="12.6866" fill="white" transform="translate(48.2815 36.0533)"/>
</clipPath>
<clipPath id="clip3_91_12809">
<rect width="13.2382" height="12.6866" fill="white" transform="translate(65.3809 36.0533)"/>
</clipPath>
<clipPath id="clip4_91_12809">
<rect width="13.2382" height="12.6866" fill="white" transform="translate(82.4805 36.0533)"/>
</clipPath>
<clipPath id="clip5_91_12809">
<rect width="13.2382" height="12.6866" fill="white" transform="translate(99.5796 36.0533)"/>
</clipPath>
</defs>
</svg>
