<svg width="144" height="49" viewBox="0 0 144 49" fill="none" xmlns="http://www.w3.org/2000/svg">
<mask id="mask0_91_12825" style="mask-type:luminance" maskUnits="userSpaceOnUse" x="22" y="0" width="100" height="22">
<path d="M121.5 0.739929H22.5V21.3114H121.5V0.739929Z" fill="white"/>
</mask>
<g mask="url(#mask0_91_12825)">
<path d="M47.3329 9.96635L40.6576 3.29112C40.55 3.1899 40.4078 3.13354 40.26 3.13354C40.1122 3.13354 39.97 3.1899 39.8624 3.29112L38.5506 4.60295L43.914 9.96635C43.9665 10.0184 44.0081 10.0804 44.0366 10.1487C44.065 10.2169 44.0796 10.2901 44.0796 10.364C44.0796 10.4379 44.065 10.5111 44.0366 10.5794C44.0081 10.6476 43.9665 10.7096 43.914 10.7616L38.3997 16.2759L39.7115 17.5878C39.8192 17.689 39.9614 17.7454 40.1091 17.7454C40.2569 17.7454 40.3991 17.689 40.5067 17.5878L47.3329 10.7616C47.4341 10.654 47.4905 10.5118 47.4905 10.364C47.4905 10.2162 47.4341 10.074 47.3329 9.96635Z" fill="#009C9C"/>
<path d="M35.9609 3.7758L35.4762 3.29112C35.3686 3.1899 35.2264 3.13354 35.0786 3.13354C34.9308 3.13354 34.7886 3.1899 34.681 3.29112L33.3691 4.60295L34.2398 5.47364L35.9492 7.1831L37.6558 5.47364L35.9609 3.7758Z" fill="#40E3E3"/>
<path d="M35.7982 13.6928L34.0916 15.4023L33.2209 16.273L34.5328 17.5848C34.6404 17.686 34.7826 17.7424 34.9304 17.7424C35.0782 17.7424 35.2204 17.686 35.328 17.5848L35.8098 17.1001L37.5192 15.3907L35.7982 13.6928Z" fill="#40E3E3"/>
<path d="M38.7333 9.96634C38.8345 10.074 38.8909 10.2162 38.8909 10.364C38.8909 10.5117 38.8345 10.6539 38.7333 10.7616L35.7991 13.6929L37.5086 15.4023L42.1522 10.7587C42.2047 10.7067 42.2464 10.6447 42.2748 10.5764C42.3032 10.5082 42.3178 10.435 42.3178 10.3611C42.3178 10.2872 42.3032 10.214 42.2748 10.1457C42.2464 10.0775 42.2047 10.0155 42.1522 9.96344L37.6711 5.48523L35.9617 7.19466L38.7333 9.96634Z" fill="#1ABAB8"/>
<path d="M27.8462 10.126L32.4898 5.48234L30.7804 3.77289L30.2928 3.29112C30.1852 3.1899 30.043 3.13354 29.8952 3.13354C29.7475 3.13354 29.6053 3.1899 29.4976 3.29112L22.6656 10.126C22.6131 10.178 22.5715 10.24 22.5431 10.3083C22.5146 10.3765 22.5 10.4497 22.5 10.5236C22.5 10.5976 22.5146 10.6707 22.5431 10.739C22.5715 10.8072 22.6131 10.8692 22.6656 10.9213L29.3409 17.5965C29.4485 17.6977 29.5907 17.7541 29.7385 17.7541C29.8863 17.7541 30.0285 17.6977 30.1361 17.5965L30.6266 17.1118L32.336 15.4024L27.8462 10.9213C27.7937 10.8692 27.7521 10.8072 27.7236 10.739C27.6952 10.6707 27.6806 10.5976 27.6806 10.5236C27.6806 10.4497 27.6952 10.3765 27.7236 10.3083C27.7521 10.24 27.7937 10.178 27.8462 10.126Z" fill="#87F0F0"/>
<path d="M33.0267 10.126L35.0786 8.07696L33.3691 6.36751L32.4984 5.49683L27.8548 10.1405C27.8023 10.1925 27.7607 10.2545 27.7323 10.3227C27.7038 10.391 27.6892 10.4642 27.6892 10.5381C27.6892 10.612 27.7038 10.6852 27.7323 10.7535C27.7607 10.8217 27.8023 10.8837 27.8548 10.9357L32.3273 15.4023L33.1979 14.5316L34.9074 12.8222L33.0151 10.9328C32.9139 10.8252 32.8575 10.683 32.8575 10.5352C32.8575 10.3875 32.9139 10.2453 33.0151 10.1376" fill="#40E3E3"/>
<path d="M33.0267 10.9212L34.919 12.8105L36.968 10.7615C37.0205 10.7095 37.0621 10.6475 37.0905 10.5793C37.1189 10.511 37.1336 10.4378 37.1336 10.3639C37.1336 10.29 37.1189 10.2168 37.0905 10.1485C37.0621 10.0803 37.0205 10.0183 36.968 9.96626L35.0786 8.0769L33.0267 10.1259C32.9255 10.2336 32.8691 10.3758 32.8691 10.5236C32.8691 10.6713 32.9255 10.8135 33.0267 10.9212Z" fill="#17CFCF"/>
<path d="M52.6856 8.54993C52.7045 7.79451 52.8548 7.04813 53.1297 6.34422C53.3869 5.69549 53.7833 5.111 54.2907 4.63186C54.8334 4.13675 55.4728 3.75927 56.1686 3.52319C57.0111 3.24666 57.8942 3.1142 58.7808 3.13138C59.7681 3.09946 60.7526 3.25304 61.6833 3.58414C62.3505 3.8305 62.9658 4.19966 63.4973 4.6725C63.9041 5.03477 64.227 5.48148 64.4435 5.98143C64.6001 6.34596 64.7037 6.73103 64.7511 7.12493C64.7595 7.19756 64.7501 7.27116 64.7238 7.33937C64.6976 7.40764 64.6551 7.46846 64.6002 7.51674C64.4923 7.61484 64.3513 7.66871 64.2054 7.66768H62.5743C62.447 7.67359 62.3216 7.63457 62.2202 7.55736C62.1417 7.49411 62.0774 7.41497 62.0315 7.32516C62.0025 7.27296 61.9328 7.15395 61.8197 6.97111C61.6701 6.75459 61.4857 6.56433 61.2739 6.40806C60.9763 6.18696 60.6477 6.01093 60.2987 5.88565C59.8131 5.71665 59.3006 5.63797 58.7865 5.65347C57.9065 5.60971 57.0425 5.90114 56.3688 6.46901C56.0653 6.74658 55.8226 7.08413 55.6562 7.46029C55.4898 7.83649 55.4034 8.2431 55.4023 8.65446C55.3733 9.16521 55.3617 9.71376 55.3617 10.2972C55.3617 10.8805 55.3617 11.429 55.4023 11.9398C55.44 13.0543 55.7651 13.864 56.3688 14.3661C57.0572 14.897 57.9126 15.1645 58.7808 15.1208C59.2425 15.1244 59.7027 15.0698 60.1508 14.9582C60.5426 14.8623 60.9096 14.6843 61.2275 14.4358C61.5393 14.1808 61.7818 13.8514 61.9328 13.478C62.1123 13.0158 62.1981 12.5225 62.1853 12.0269V11.8556H59.727C59.6553 11.8568 59.5842 11.8429 59.5182 11.8149C59.4522 11.7869 59.3928 11.7454 59.3438 11.6931C59.2927 11.644 59.2522 11.5849 59.2247 11.5195C59.1973 11.4542 59.1834 11.3838 59.1842 11.3129V9.88213C59.1857 9.73839 59.2433 9.60088 59.3447 9.49899C59.4461 9.39703 59.5832 9.33872 59.727 9.33647H64.3709C64.5147 9.33872 64.6518 9.39703 64.7532 9.49899C64.8546 9.60088 64.9122 9.73839 64.9137 9.88213V12.0966C64.922 12.8557 64.7922 13.61 64.5305 14.3226C64.2791 14.9828 63.8823 15.578 63.3695 16.064C62.8206 16.5824 62.1676 16.9782 61.454 17.2249C59.7162 17.7686 57.854 17.7686 56.1163 17.2249C55.4231 16.9955 54.7876 16.6193 54.2529 16.122C53.7516 15.6312 53.3633 15.0369 53.1152 14.3806C52.8455 13.6685 52.6983 12.9158 52.6798 12.1546C52.6798 11.8992 52.6566 11.6176 52.6508 11.31C52.6449 11.0024 52.6508 10.6831 52.6508 10.361C52.6508 10.0389 52.6508 9.7254 52.6508 9.41483C52.6508 9.10427 52.6682 8.8344 52.6798 8.56736" fill="white"/>
<path d="M71.119 9.17699C70.7781 9.16734 70.4387 9.22559 70.1206 9.34818C69.8634 9.44975 69.6279 9.59947 69.4269 9.78937C69.2448 9.96217 69.097 10.168 68.9916 10.3959C68.8985 10.5966 68.8349 10.8097 68.8029 11.0286H73.3537C73.3246 10.8132 73.2741 10.6012 73.2028 10.3959C73.1276 10.1697 73.0037 9.96262 72.84 9.78937C72.653 9.59594 72.4262 9.44544 72.1754 9.34818C71.8379 9.22237 71.479 9.16419 71.119 9.17699ZM66.1851 12.1982C66.1798 11.4759 66.2956 10.7578 66.5275 10.0738C66.7385 9.434 67.0739 8.84219 67.5143 8.3324C67.9477 7.84029 68.4796 7.44474 69.0758 7.17147C69.7146 6.88602 70.4077 6.74246 71.1074 6.75065C71.8062 6.74171 72.4988 6.88223 73.1389 7.16277C73.7388 7.42411 74.2783 7.80648 74.7236 8.28599C75.1601 8.75894 75.4994 9.31314 75.722 9.91704C75.9582 10.5451 76.0782 11.2109 76.0761 11.8819V12.7874C76.0738 12.9314 76.0156 13.0689 75.9138 13.1707C75.8119 13.2726 75.6744 13.3308 75.5304 13.3331H68.8029C68.7961 13.6164 68.861 13.897 68.9916 14.1486C69.1199 14.3771 69.2961 14.5751 69.5082 14.729C69.7316 14.8943 69.9834 15.0173 70.2512 15.0919C70.5347 15.1708 70.8276 15.2108 71.1218 15.2108C71.4757 15.2208 71.829 15.1768 72.1696 15.0802C72.4081 15.008 72.6328 14.8962 72.8342 14.7493C72.947 14.6624 73.0685 14.5875 73.197 14.5259C73.3193 14.4802 73.4496 14.4595 73.5801 14.4649H75.1909C75.3383 14.467 75.4794 14.5251 75.5856 14.6275C75.6391 14.675 75.6806 14.7344 75.7068 14.801C75.733 14.8676 75.7432 14.9394 75.7365 15.0105C75.6913 15.2739 75.5838 15.5227 75.4231 15.7361C75.1874 16.0763 74.8925 16.3712 74.5524 16.6068C74.106 16.9172 73.6173 17.1616 73.1012 17.3324C72.4608 17.5413 71.7895 17.6394 71.1161 17.6226C70.4194 17.6304 69.7283 17.4971 69.0844 17.2308C68.4844 16.9824 67.9471 16.6037 67.5114 16.1222C67.0715 15.6185 66.736 15.0326 66.5246 14.3982C66.2884 13.6871 66.1726 12.9416 66.1822 12.1924" fill="white"/>
<path d="M80.9001 13.6492C80.8809 14.0114 81.0002 14.3674 81.2338 14.6447C81.4544 14.8943 81.8665 15.0191 82.4731 15.0191H83.7008C83.8445 15.0206 83.982 15.0782 84.0839 15.1795C84.1858 15.2809 84.2441 15.4181 84.2465 15.5618V16.8911C84.2442 17.0351 84.186 17.1726 84.0841 17.2744C83.9823 17.3763 83.8448 17.4345 83.7008 17.4367H82.209C80.9456 17.4367 79.9781 17.131 79.3067 16.5196C78.6353 15.9082 78.2967 14.9717 78.291 13.7102V9.37705H76.9501C76.8789 9.37801 76.8083 9.364 76.7428 9.33603C76.6773 9.308 76.6184 9.26667 76.5699 9.21453C76.5173 9.16632 76.4757 9.1075 76.4476 9.04192C76.4197 8.97642 76.4059 8.90564 76.4073 8.83435V7.50222C76.4064 7.43099 76.4204 7.3604 76.4484 7.2949C76.4764 7.22945 76.5178 7.17057 76.5699 7.122C76.6188 7.07046 76.6778 7.02946 76.7432 7.00151C76.8086 6.97357 76.879 6.95926 76.9501 6.95947H78.2822V3.67407C78.2845 3.53084 78.3424 3.39409 78.4436 3.29279C78.545 3.19149 78.6817 3.13359 78.825 3.13135H80.3574C80.5006 3.13359 80.6373 3.19149 80.7386 3.29279C80.84 3.39409 80.8979 3.53084 80.9001 3.67407V6.95947H83.5122C83.6513 6.96753 83.7822 7.02798 83.8786 7.12867C83.975 7.22939 84.0297 7.36285 84.0317 7.50222V8.83435C84.0294 8.97757 83.9715 9.11431 83.8702 9.21562C83.7689 9.31694 83.6322 9.37486 83.4889 9.37705H80.8769L80.9001 13.6492Z" fill="white"/>
<path d="M94.1388 12.1779L91.921 6.43426L89.7063 12.1779H94.1388ZM93.0299 3.33171C93.118 3.32528 93.2067 3.33718 93.2903 3.36665C93.3738 3.39612 93.4497 3.44252 93.5146 3.50294C93.6445 3.65333 93.7428 3.82793 93.8046 4.01665L98.7391 16.7519C98.7526 16.7971 98.7591 16.8441 98.7591 16.8912C98.7571 17.0352 98.6986 17.1727 98.5971 17.2745C98.4955 17.3764 98.3579 17.4346 98.2139 17.4368H96.7623C96.6614 17.4474 96.5592 17.4377 96.4621 17.4082C96.3651 17.3789 96.2744 17.3303 96.1966 17.2656C96.1015 17.17 96.0269 17.0565 95.9761 16.9318L95.1051 14.697H88.7401L87.8691 16.9318C87.8183 17.0565 87.7437 17.17 87.6486 17.2656C87.5708 17.3303 87.4801 17.3789 87.3831 17.4082C87.286 17.4377 87.1838 17.4474 87.0828 17.4368H85.6315C85.488 17.4338 85.3512 17.3753 85.25 17.2736C85.1488 17.1718 85.0909 17.0347 85.0888 16.8912C85.0875 16.8439 85.0944 16.7968 85.1091 16.7519L90.0432 4.01665C90.1049 3.82793 90.2039 3.65333 90.3338 3.50294C90.3981 3.44252 90.4746 3.39612 90.5581 3.36665C90.6411 3.33718 90.7298 3.32528 90.8185 3.33171H93.0299Z" fill="white"/>
<path d="M107.376 12.7612C107.417 12.3869 107.417 12.0094 107.376 11.6351C107.298 10.7644 107.028 10.1317 106.572 9.75153C106.103 9.36247 105.509 9.15631 104.901 9.17109C104.293 9.15193 103.7 9.35881 103.238 9.75153C103.004 9.96528 102.816 10.2231 102.683 10.51C102.55 10.7969 102.475 11.1072 102.462 11.4233C102.431 11.6775 102.418 11.9334 102.422 12.1894C102.418 12.4455 102.431 12.7015 102.462 12.9557C102.498 13.5857 102.775 14.1776 103.238 14.6071C103.695 15.0127 104.289 15.2286 104.901 15.2107C105.509 15.2255 106.103 15.0194 106.572 14.6303C107.028 14.25 107.298 13.6203 107.376 12.7467V12.7612ZM105.51 17.6371C105.134 17.6411 104.759 17.6012 104.393 17.5181C104.093 17.4512 103.801 17.3539 103.522 17.2278C103.299 17.1159 103.09 16.9796 102.898 16.8215C102.747 16.7024 102.606 16.5713 102.477 16.4297V20.7193C102.475 20.8633 102.417 21.0008 102.314 21.1026C102.213 21.2045 102.075 21.2627 101.931 21.2649H100.402C100.258 21.2627 100.12 21.2045 100.019 21.1026C99.9166 21.0008 99.8588 20.8633 99.8562 20.7193V7.50223C99.8594 7.35875 99.9179 7.22201 100.019 7.12078C100.121 7.01956 100.259 6.96175 100.402 6.95953H101.931C102.075 6.96175 102.212 7.01956 102.314 7.12078C102.415 7.22201 102.474 7.35875 102.477 7.50223V7.96663C102.606 7.82495 102.747 7.69393 102.898 7.57481C103.094 7.42001 103.308 7.28758 103.533 7.1801C103.813 7.05402 104.105 6.95678 104.404 6.88987C104.771 6.80673 105.146 6.76679 105.522 6.77088C106.151 6.76178 106.774 6.89575 107.344 7.16269C107.874 7.41365 108.347 7.77018 108.734 8.21041C109.124 8.65719 109.431 9.16903 109.643 9.72253C109.864 10.292 109.99 10.8941 110.014 11.5045C110.029 11.7048 110.035 11.9399 110.035 12.2097C110.035 12.4797 110.035 12.7148 110.014 12.915C109.99 13.5254 109.864 14.1275 109.643 14.697C109.431 15.2505 109.124 15.7623 108.734 16.2092C108.347 16.6493 107.874 17.0058 107.344 17.2568C106.769 17.5215 106.142 17.6515 105.51 17.6371Z" fill="white"/>
<path d="M118.766 12.7612C118.806 12.3869 118.806 12.0094 118.766 11.6351C118.685 10.7644 118.418 10.1317 117.959 9.75153C117.491 9.36157 116.896 9.15522 116.287 9.17109C115.68 9.15194 115.088 9.35881 114.624 9.75153C114.391 9.96528 114.203 10.2231 114.07 10.51C113.936 10.7969 113.862 11.1073 113.849 11.4233C113.82 11.6776 113.806 11.9335 113.809 12.1894C113.806 12.4455 113.819 12.7013 113.849 12.9557C113.884 13.5857 114.162 14.1776 114.624 14.6071C115.081 15.0127 115.676 15.2286 116.287 15.2107C116.896 15.2266 117.491 15.0203 117.959 14.6303C118.418 14.2501 118.685 13.6203 118.766 12.7467V12.7612ZM116.891 17.6225C116.515 17.6265 116.14 17.5865 115.774 17.5036C115.474 17.4362 115.182 17.3389 114.903 17.2133C114.678 17.1058 114.466 16.9735 114.27 16.8186C114.119 16.6995 113.977 16.5685 113.846 16.4268V20.7193C113.847 20.7909 113.832 20.8618 113.805 20.9276C113.777 20.9935 113.736 21.053 113.684 21.1024C113.635 21.1541 113.576 21.1952 113.511 21.2231C113.445 21.2511 113.375 21.2653 113.304 21.2649H111.771C111.627 21.2627 111.49 21.2044 111.389 21.1025C111.288 21.0005 111.23 20.8631 111.229 20.7193V7.50224C111.231 7.35901 111.289 7.22227 111.39 7.12098C111.491 7.01968 111.628 6.96178 111.771 6.95953H113.304C113.447 6.9625 113.583 7.02063 113.684 7.12178C113.785 7.22292 113.843 7.35927 113.846 7.50224V7.96664C113.977 7.82502 114.119 7.694 114.27 7.57482C114.466 7.42002 114.678 7.28759 114.903 7.1801C115.182 7.05449 115.474 6.95726 115.774 6.88988C116.14 6.8069 116.515 6.76696 116.891 6.77088C117.521 6.76175 118.145 6.89571 118.717 7.16269C119.246 7.41481 119.718 7.77114 120.107 8.21041C120.495 8.65732 120.802 9.16917 121.012 9.72254C121.234 10.292 121.359 10.8941 121.384 11.5045C121.398 11.7048 121.404 11.9399 121.404 12.2098C121.404 12.4797 121.404 12.7148 121.384 12.915C121.359 13.5254 121.234 14.1275 121.012 14.697C120.802 15.2503 120.495 15.7622 120.107 16.2092C119.718 16.6484 119.246 17.0048 118.717 17.2569C118.145 17.5239 117.521 17.6578 116.891 17.6486" fill="white"/>
</g>
<g clip-path="url(#clip0_91_12825)">
<path d="M44.4205 40.8948L39.6114 40.5859L37.7963 36.0533L35.9812 40.5859L31.1824 40.8948L34.8642 44.0143L33.6542 48.7399L37.7963 46.13L41.9384 48.7399L40.7283 44.0143L44.4205 40.8948Z" fill="url(#paint0_linear_91_12825)"/>
</g>
<g clip-path="url(#clip1_91_12825)">
<path d="M61.5199 40.8948L56.7107 40.5859L54.8956 36.0533L53.0806 40.5859L48.2817 40.8948L51.9636 44.0143L50.7536 48.7399L54.8956 46.13L59.0377 48.7399L57.8277 44.0143L61.5199 40.8948Z" fill="url(#paint1_linear_91_12825)"/>
</g>
<g clip-path="url(#clip2_91_12825)">
<path d="M78.6193 40.8948L73.8101 40.5859L71.995 36.0533L70.1799 40.5859L65.3811 40.8948L69.063 44.0143L67.8529 48.7399L71.995 46.13L76.1371 48.7399L74.9271 44.0143L78.6193 40.8948Z" fill="url(#paint2_linear_91_12825)"/>
</g>
<g clip-path="url(#clip3_91_12825)">
<path d="M95.7184 40.8948L90.9092 40.5859L89.0941 36.0533L87.2791 40.5859L82.4802 40.8948L86.1621 44.0143L84.952 48.7399L89.0941 46.13L93.2362 48.7399L92.0262 44.0143L95.7184 40.8948Z" fill="url(#paint3_linear_91_12825)"/>
</g>
<g clip-path="url(#clip4_91_12825)">
<path d="M112.818 40.8948L108.009 40.5859L106.194 36.0533L104.378 40.5859L99.5796 40.8948L103.261 44.0143L102.051 48.7399L106.194 46.13L110.336 48.7399L109.126 44.0143L112.818 40.8948Z" fill="url(#paint4_linear_91_12825)"/>
</g>
<defs>
<linearGradient id="paint0_linear_91_12825" x1="37.7911" y1="35.988" x2="37.8167" y2="48.291" gradientUnits="userSpaceOnUse">
<stop stop-color="#FFD400"/>
<stop offset="1" stop-color="#FDBF00"/>
</linearGradient>
<linearGradient id="paint1_linear_91_12825" x1="54.8905" y1="35.988" x2="54.9161" y2="48.291" gradientUnits="userSpaceOnUse">
<stop stop-color="#FFD400"/>
<stop offset="1" stop-color="#FDBF00"/>
</linearGradient>
<linearGradient id="paint2_linear_91_12825" x1="71.9898" y1="35.988" x2="72.0155" y2="48.291" gradientUnits="userSpaceOnUse">
<stop stop-color="#FFD400"/>
<stop offset="1" stop-color="#FDBF00"/>
</linearGradient>
<linearGradient id="paint3_linear_91_12825" x1="89.089" y1="35.988" x2="89.1146" y2="48.291" gradientUnits="userSpaceOnUse">
<stop stop-color="#FFD400"/>
<stop offset="1" stop-color="#FDBF00"/>
</linearGradient>
<linearGradient id="paint4_linear_91_12825" x1="106.188" y1="35.988" x2="106.214" y2="48.291" gradientUnits="userSpaceOnUse">
<stop stop-color="#FFD400"/>
<stop offset="1" stop-color="#FDBF00"/>
</linearGradient>
<clipPath id="clip0_91_12825">
<rect width="13.2382" height="12.6866" fill="white" transform="translate(31.1824 36.0533)"/>
</clipPath>
<clipPath id="clip1_91_12825">
<rect width="13.2382" height="12.6866" fill="white" transform="translate(48.2817 36.0533)"/>
</clipPath>
<clipPath id="clip2_91_12825">
<rect width="13.2382" height="12.6866" fill="white" transform="translate(65.3811 36.0533)"/>
</clipPath>
<clipPath id="clip3_91_12825">
<rect width="13.2382" height="12.6866" fill="white" transform="translate(82.4802 36.0533)"/>
</clipPath>
<clipPath id="clip4_91_12825">
<rect width="13.2382" height="12.6866" fill="white" transform="translate(99.5796 36.0533)"/>
</clipPath>
</defs>
</svg>
