<svg width="534" height="337" viewBox="0 0 534 337" fill="none" xmlns="http://www.w3.org/2000/svg">
<g filter="url(#filter0_d_620_203)">
<rect x="117.16" y="92.5801" width="64" height="64" rx="32" fill="white" shape-rendering="crispEdges"/>
<g clip-path="url(#clip0_620_203)">
<g clip-path="url(#clip1_620_203)">
<g clip-path="url(#clip2_620_203)">
<path d="M139.764 137.043L134.75 128.361L144.136 112.097L149.15 120.778L139.764 137.043Z" fill="#0DA960"/>
<path d="M139.764 137.043L144.778 128.361H163.55L158.536 137.043H139.764Z" fill="url(#paint0_radial_620_203)"/>
<path d="M163.55 128.361H153.522L144.136 112.097H154.164L163.55 128.361Z" fill="url(#paint1_radial_620_203)"/>
<path d="M149.15 128.361H144.778L146.954 124.569L139.764 137.042L149.15 128.361Z" fill="#2D6FDD"/>
<path d="M153.522 128.361H163.55L151.346 124.569L153.522 128.361Z" fill="#E5B93C"/>
<path d="M146.954 124.57L149.15 120.778L144.136 112.097L146.954 124.57Z" fill="#0C9B57"/>
</g>
</g>
</g>
</g>
<g filter="url(#filter1_d_620_203)">
<rect x="260.66" y="92.5801" width="64" height="64" rx="32" fill="white" shape-rendering="crispEdges"/>
<g clip-path="url(#clip3_620_203)">
<g clip-path="url(#clip4_620_203)">
<g clip-path="url(#clip5_620_203)">
<mask id="mask0_620_203" style="mask-type:luminance" maskUnits="userSpaceOnUse" x="278" y="109" width="29" height="31">
<path d="M306.972 109.323H278.25V139.806H306.972V109.323Z" fill="white"/>
</mask>
<g mask="url(#mask0_620_203)">
<path d="M299.855 123.728C300.078 123.702 300.291 123.701 300.486 123.728C300.6 123.468 300.619 123.02 300.517 122.532C300.366 121.807 300.16 121.367 299.737 121.436C299.313 121.504 299.298 122.029 299.45 122.755C299.534 123.163 299.687 123.511 299.855 123.728Z" fill="black"/>
<path d="M296.215 124.302C296.519 124.436 296.706 124.524 296.778 124.447C296.825 124.398 296.81 124.307 296.738 124.189C296.589 123.945 296.28 123.696 295.954 123.558C295.286 123.271 294.489 123.367 293.875 123.808C293.672 123.956 293.479 124.163 293.506 124.287C293.515 124.329 293.546 124.358 293.617 124.368C293.784 124.387 294.369 124.092 295.042 124.051C295.517 124.022 295.912 124.17 296.214 124.304L296.215 124.302Z" fill="black"/>
<path d="M295.606 124.651C295.211 124.713 294.992 124.844 294.853 124.964C294.733 125.069 294.66 125.185 294.66 125.265C294.66 125.304 294.677 125.326 294.69 125.338C294.707 125.354 294.73 125.362 294.755 125.362C294.844 125.362 295.043 125.283 295.043 125.283C295.593 125.086 295.955 125.11 296.315 125.151C296.514 125.173 296.608 125.186 296.651 125.117C296.664 125.097 296.68 125.055 296.64 124.992C296.548 124.841 296.148 124.587 295.605 124.652L295.606 124.651Z" fill="black"/>
<path d="M298.626 125.928C298.895 126.06 299.19 126.008 299.285 125.813C299.381 125.617 299.242 125.352 298.974 125.22C298.706 125.088 298.411 125.141 298.315 125.336C298.219 125.531 298.358 125.796 298.626 125.928Z" fill="black"/>
<path d="M300.351 124.422C300.133 124.418 299.952 124.657 299.947 124.956C299.942 125.254 300.115 125.5 300.333 125.503C300.551 125.507 300.731 125.268 300.736 124.969C300.741 124.671 300.568 124.426 300.351 124.422Z" fill="black"/>
<path d="M285.714 129.81C285.659 129.742 285.571 129.763 285.485 129.783C285.425 129.796 285.357 129.812 285.282 129.811C285.122 129.809 284.986 129.739 284.91 129.622C284.811 129.47 284.817 129.243 284.926 128.982C284.941 128.948 284.959 128.909 284.977 128.866C285.151 128.474 285.445 127.818 285.117 127.192C284.869 126.721 284.466 126.428 283.982 126.367C283.516 126.308 283.037 126.48 282.732 126.817C282.251 127.349 282.175 128.073 282.268 128.328C282.302 128.421 282.355 128.447 282.395 128.452C282.477 128.464 282.598 128.404 282.674 128.2C282.679 128.185 282.686 128.162 282.695 128.134C282.729 128.026 282.792 127.824 282.895 127.663C283.02 127.469 283.214 127.335 283.442 127.286C283.673 127.237 283.911 127.281 284.109 127.411C284.446 127.632 284.577 128.045 284.432 128.44C284.358 128.644 284.237 129.035 284.263 129.356C284.317 130.005 284.716 130.265 285.076 130.294C285.424 130.308 285.668 130.111 285.73 129.968C285.766 129.883 285.736 129.832 285.716 129.81H285.714Z" fill="black"/>
<path d="M305.848 128.623C305.835 128.575 305.749 128.259 305.629 127.878C305.51 127.498 305.388 127.229 305.388 127.229C305.864 126.515 305.873 125.876 305.81 125.515C305.743 125.067 305.556 124.685 305.179 124.291C304.803 123.896 304.034 123.492 302.953 123.188C302.829 123.153 302.421 123.041 302.385 123.03C302.383 123.007 302.355 121.694 302.33 121.129C302.313 120.721 302.277 120.085 302.08 119.458C301.845 118.609 301.434 117.867 300.923 117.392C302.335 115.928 303.216 114.316 303.215 112.932C303.211 110.271 299.944 109.466 295.917 111.134C295.913 111.135 295.069 111.493 295.063 111.496C295.059 111.492 293.521 109.983 293.498 109.963C288.908 105.958 274.554 121.914 279.143 125.789L280.146 126.639C279.886 127.313 279.784 128.085 279.868 128.915C279.975 129.981 280.525 131.004 281.417 131.793C282.263 132.544 283.376 133.018 284.456 133.017C286.242 137.132 290.322 139.657 295.107 139.799C300.239 139.952 304.547 137.542 306.352 133.217C306.47 132.913 306.972 131.546 306.972 130.337C306.972 129.129 306.286 128.621 305.848 128.621V128.623ZM284.85 131.862C284.695 131.888 284.535 131.899 284.375 131.895C282.824 131.854 281.151 130.458 280.984 128.803C280.8 126.974 281.734 125.566 283.389 125.232C283.587 125.192 283.826 125.168 284.084 125.182C285.011 125.233 286.377 125.945 286.689 127.964C286.966 129.754 286.526 131.574 284.849 131.861L284.85 131.862ZM283.119 124.138C282.089 124.338 281.181 124.922 280.626 125.728C280.293 125.452 279.675 124.916 279.567 124.706C278.681 123.023 280.533 119.75 281.829 117.902C285.029 113.335 290.042 109.878 292.363 110.505C292.74 110.612 293.989 112.061 293.989 112.061C293.989 112.061 291.67 113.348 289.518 115.142C286.62 117.374 284.43 120.617 283.118 124.138H283.119ZM299.39 131.177C299.423 131.164 299.447 131.125 299.443 131.086C299.438 131.039 299.396 131.006 299.35 131.011C299.35 131.011 296.922 131.37 294.628 130.53C294.878 129.718 295.542 130.011 296.546 130.092C298.357 130.201 299.978 129.935 301.178 129.592C302.217 129.293 303.581 128.706 304.641 127.87C304.998 128.655 305.125 129.519 305.125 129.519C305.125 129.519 305.402 129.469 305.633 129.612C305.852 129.746 306.011 130.026 305.902 130.748C305.679 132.098 305.105 133.195 304.141 134.202C303.554 134.835 302.841 135.385 302.025 135.784C301.592 136.012 301.131 136.208 300.644 136.368C297.008 137.555 293.286 136.25 292.086 133.446C291.991 133.236 291.91 133.014 291.846 132.784C291.335 130.936 291.769 128.72 293.126 127.323C293.209 127.235 293.295 127.131 293.295 126.999C293.295 126.888 293.225 126.772 293.164 126.69C292.69 126.002 291.045 124.828 291.375 122.557C291.611 120.926 293.038 119.777 294.369 119.846C294.481 119.852 294.594 119.858 294.706 119.866C295.282 119.899 295.785 119.974 296.26 119.994C297.054 120.029 297.768 119.913 298.615 119.207C298.9 118.97 299.129 118.763 299.516 118.698C299.557 118.691 299.657 118.655 299.86 118.665C300.067 118.676 300.263 118.732 300.44 118.85C301.118 119.302 301.214 120.395 301.249 121.194C301.269 121.65 301.324 122.754 301.344 123.071C301.387 123.796 301.578 123.899 301.962 124.026C302.179 124.097 302.38 124.15 302.676 124.234C303.574 124.486 304.106 124.741 304.442 125.07C304.642 125.275 304.736 125.493 304.764 125.701C304.87 126.472 304.165 127.427 302.298 128.293C300.257 129.24 297.781 129.48 296.07 129.29C295.939 129.275 295.472 129.222 295.47 129.222C294.101 129.038 293.321 130.807 294.142 132.019C294.671 132.8 296.113 133.308 297.556 133.308C300.863 133.308 303.406 131.895 304.351 130.676C304.38 130.64 304.382 130.635 304.427 130.568C304.473 130.498 304.436 130.459 304.377 130.498C303.605 131.027 300.173 133.125 296.503 132.494C296.503 132.494 296.057 132.421 295.649 132.262C295.326 132.137 294.649 131.826 294.567 131.13C297.529 132.046 299.394 131.18 299.394 131.18L299.39 131.177ZM294.697 130.624C294.697 130.624 294.697 130.624 294.697 130.625C294.697 130.625 294.697 130.624 294.697 130.622V130.624ZM289.03 117.885C290.168 116.569 291.569 115.427 292.823 114.785C292.867 114.762 292.913 114.81 292.889 114.852C292.79 115.033 292.598 115.418 292.537 115.712C292.527 115.758 292.577 115.792 292.615 115.765C293.396 115.233 294.754 114.663 295.945 114.589C295.996 114.586 296.021 114.652 295.98 114.683C295.799 114.822 295.601 115.014 295.456 115.208C295.431 115.242 295.455 115.289 295.496 115.289C296.332 115.295 297.512 115.587 298.28 116.018C298.332 116.047 298.295 116.147 298.236 116.135C297.074 115.869 295.17 115.666 293.193 116.149C291.428 116.579 290.08 117.244 289.097 117.959C289.048 117.995 288.988 117.929 289.028 117.883L289.03 117.885Z" fill="black"/>
</g>
</g>
</g>
</g>
</g>
<g filter="url(#filter2_d_620_203)">
<rect x="383" y="92.5801" width="64" height="64" rx="32" fill="white"/>
<g clip-path="url(#clip6_620_203)">
<g clip-path="url(#clip7_620_203)">
<g clip-path="url(#clip8_620_203)">
<mask id="mask1_620_203" style="mask-type:luminance" maskUnits="userSpaceOnUse" x="400" y="110" width="30" height="29">
<path d="M429.39 110.17H400.59V138.97H429.39V110.17Z" fill="white"/>
</mask>
<g mask="url(#mask1_620_203)">
<path d="M414.756 138.892C417.527 138.892 420.236 138.07 422.54 136.531C424.844 134.991 426.64 132.803 427.7 130.242C428.76 127.682 429.038 124.865 428.497 122.147C427.957 119.43 426.622 116.933 424.663 114.974C422.703 113.014 420.207 111.68 417.489 111.139C414.771 110.599 411.954 110.876 409.394 111.937C406.834 112.997 404.646 114.793 403.106 117.097C401.566 119.401 400.745 122.11 400.745 124.881C400.755 128.594 402.234 132.151 404.86 134.777C407.485 137.402 411.043 138.882 414.756 138.892Z" fill="#2CA01C"/>
<path d="M404.637 124.881C404.637 126.326 405.211 127.712 406.232 128.734C407.254 129.756 408.64 130.33 410.085 130.33H410.864V128.306H410.085C409.177 128.306 408.306 127.945 407.664 127.303C407.021 126.661 406.66 125.789 406.66 124.881C406.66 123.973 407.021 123.102 407.664 122.459C408.306 121.817 409.177 121.456 410.085 121.456H411.953V132.042C411.963 132.576 412.18 133.085 412.557 133.462C412.935 133.84 413.444 134.056 413.977 134.066V119.433H410.085C408.64 119.433 407.254 120.007 406.232 121.028C405.211 122.05 404.637 123.436 404.637 124.881ZM419.426 119.433H418.647V121.456H419.426C420.334 121.456 421.205 121.817 421.848 122.459C422.49 123.102 422.851 123.973 422.851 124.881C422.851 125.789 422.49 126.661 421.848 127.303C421.205 127.945 420.334 128.306 419.426 128.306H417.558V117.72C417.548 117.186 417.331 116.677 416.954 116.3C416.577 115.923 416.068 115.706 415.534 115.696V130.33H419.426C420.141 130.33 420.85 130.189 421.511 129.915C422.172 129.641 422.773 129.24 423.279 128.734C423.785 128.228 424.186 127.627 424.46 126.966C424.733 126.305 424.874 125.597 424.874 124.881C424.874 124.166 424.733 123.457 424.46 122.796C424.186 122.135 423.785 121.534 423.279 121.028C422.773 120.522 422.172 120.121 421.511 119.847C420.85 119.573 420.141 119.433 419.426 119.433Z" fill="white"/>
</g>
</g>
</g>
</g>
</g>
<g filter="url(#filter3_d_620_203)">
<rect x="96" y="172.58" width="64" height="64" rx="32" fill="white" shape-rendering="crispEdges"/>
<g clip-path="url(#clip9_620_203)">
<g clip-path="url(#clip10_620_203)">
<g clip-path="url(#clip11_620_203)">
<path d="M147.504 201.091H135.77L144.016 192.845C143.381 191.894 142.747 191.26 142.112 190.308C141.2 189.648 140.35 188.905 139.576 188.088L131.331 196.334V184.917C130.296 184.655 129.227 184.548 128.16 184.6C127.092 184.531 126.02 184.639 124.987 184.917V196.652L116.425 188.089C115.44 188.653 114.578 189.408 113.887 190.308C113.253 191.26 112.302 191.894 111.667 192.846L119.912 201.091H108.496L108.179 204.262C108.111 205.329 108.218 206.401 108.496 207.433H120.231L111.669 215.996C112.922 217.883 114.539 219.5 116.426 220.753L124.671 212.507V224.242C125.707 224.504 126.776 224.611 127.842 224.559C128.91 224.628 129.981 224.521 131.014 224.242V212.508L139.259 220.755C140.243 220.19 141.105 219.435 141.796 218.535C142.613 217.76 143.356 216.911 144.016 215.998L135.77 207.751H147.504C147.767 206.715 147.874 205.647 147.822 204.58C147.889 203.408 147.782 202.232 147.504 201.091ZM132.916 204.262C132.884 205.658 132.671 207.044 132.281 208.385C130.971 208.899 129.562 209.116 128.158 209.02C126.762 208.988 125.376 208.775 124.035 208.385C123.521 207.075 123.304 205.667 123.401 204.262C123.432 202.866 123.645 201.48 124.035 200.139C125.346 199.625 126.754 199.409 128.158 199.505C129.554 199.536 130.94 199.749 132.281 200.139C132.647 201.485 132.86 202.868 132.916 204.262Z" fill="#FF4A00"/>
</g>
</g>
</g>
</g>
<g filter="url(#filter4_d_620_203)">
<rect x="218.33" y="172.58" width="64" height="64" rx="32" fill="white" shape-rendering="crispEdges"/>
<g clip-path="url(#clip12_620_203)">
<g clip-path="url(#clip13_620_203)">
<g clip-path="url(#clip14_620_203)">
<mask id="mask2_620_203" style="mask-type:luminance" maskUnits="userSpaceOnUse" x="235" y="193" width="30" height="23">
<path d="M264.667 193.697H235.92V215.263H264.667V193.697Z" fill="white"/>
</mask>
<g mask="url(#mask2_620_203)">
<path d="M237.88 215.263H242.453V204.156L235.92 199.256V213.303C235.92 214.386 236.797 215.263 237.88 215.263Z" fill="#4285F4"/>
<path d="M258.134 215.263H262.707C263.79 215.263 264.667 214.386 264.667 213.303V199.256L258.134 204.156V215.263Z" fill="#34A853"/>
<path d="M258.134 195.663V204.156L264.667 199.256V196.643C264.667 194.22 261.902 192.837 259.963 194.291L258.134 195.663Z" fill="#FBBC04"/>
<path fill-rule="evenodd" clip-rule="evenodd" d="M242.453 204.156V195.662L250.294 201.542L258.134 195.662V204.156L250.294 210.036L242.453 204.156Z" fill="#EA4335"/>
<path d="M235.92 196.643V199.256L242.453 204.156V195.663L240.624 194.29C238.685 192.837 235.92 194.22 235.92 196.643Z" fill="#C5221F"/>
</g>
</g>
</g>
</g>
</g>
<g filter="url(#filter5_d_620_203)">
<rect x="340.66" y="172.58" width="64" height="64" rx="32" fill="white" shape-rendering="crispEdges"/>
<g clip-path="url(#clip15_620_203)">
<g clip-path="url(#clip16_620_203)">
<g clip-path="url(#clip17_620_203)">
<path d="M364.423 191.773L372.005 202.931L380.264 191.773H364.423ZM371.801 213.7L352.66 185.543H392.62L371.801 213.7Z" fill="#05B5E8"/>
<mask id="mask3_620_203" style="mask-type:luminance" maskUnits="userSpaceOnUse" x="358" y="216" width="30" height="8">
<path d="M358.301 216.823H387.019V223.24H358.301V216.823Z" fill="white"/>
</mask>
<g mask="url(#mask3_620_203)">
<path d="M358.798 217.01H386.709V223.24H358.798V217.01Z" fill="#05B5E8"/>
</g>
</g>
</g>
</g>
</g>
<defs>
<filter id="filter0_d_620_203" x="21.1599" y="0.580078" width="256" height="256" filterUnits="userSpaceOnUse" color-interpolation-filters="sRGB">
<feFlood flood-opacity="0" result="BackgroundImageFix"/>
<feColorMatrix in="SourceAlpha" type="matrix" values="0 0 0 0 0 0 0 0 0 0 0 0 0 0 0 0 0 0 127 0" result="hardAlpha"/>
<feOffset dy="4"/>
<feGaussianBlur stdDeviation="48"/>
<feComposite in2="hardAlpha" operator="out"/>
<feColorMatrix type="matrix" values="0 0 0 0 0 0 0 0 0 0 0 0 0 0 0 0 0 0 0.13 0"/>
<feBlend mode="normal" in2="BackgroundImageFix" result="effect1_dropShadow_620_203"/>
<feBlend mode="normal" in="SourceGraphic" in2="effect1_dropShadow_620_203" result="shape"/>
</filter>
<filter id="filter1_d_620_203" x="164.66" y="0.580078" width="256" height="256" filterUnits="userSpaceOnUse" color-interpolation-filters="sRGB">
<feFlood flood-opacity="0" result="BackgroundImageFix"/>
<feColorMatrix in="SourceAlpha" type="matrix" values="0 0 0 0 0 0 0 0 0 0 0 0 0 0 0 0 0 0 127 0" result="hardAlpha"/>
<feOffset dy="4"/>
<feGaussianBlur stdDeviation="48"/>
<feComposite in2="hardAlpha" operator="out"/>
<feColorMatrix type="matrix" values="0 0 0 0 0 0 0 0 0 0 0 0 0 0 0 0 0 0 0.13 0"/>
<feBlend mode="normal" in2="BackgroundImageFix" result="effect1_dropShadow_620_203"/>
<feBlend mode="normal" in="SourceGraphic" in2="effect1_dropShadow_620_203" result="shape"/>
</filter>
<filter id="filter2_d_620_203" x="298" y="7.58008" width="236" height="236" filterUnits="userSpaceOnUse" color-interpolation-filters="sRGB">
<feFlood flood-opacity="0" result="BackgroundImageFix"/>
<feColorMatrix in="SourceAlpha" type="matrix" values="0 0 0 0 0 0 0 0 0 0 0 0 0 0 0 0 0 0 127 0" result="hardAlpha"/>
<feMorphology radius="4" operator="erode" in="SourceAlpha" result="effect1_dropShadow_620_203"/>
<feOffset dx="1" dy="1"/>
<feGaussianBlur stdDeviation="45"/>
<feComposite in2="hardAlpha" operator="out"/>
<feColorMatrix type="matrix" values="0 0 0 0 0.0941176 0 0 0 0 0.172549 0 0 0 0 0.298039 0 0 0 0.15 0"/>
<feBlend mode="normal" in2="BackgroundImageFix" result="effect1_dropShadow_620_203"/>
<feBlend mode="normal" in="SourceGraphic" in2="effect1_dropShadow_620_203" result="shape"/>
</filter>
<filter id="filter3_d_620_203" x="0" y="80.5801" width="256" height="256" filterUnits="userSpaceOnUse" color-interpolation-filters="sRGB">
<feFlood flood-opacity="0" result="BackgroundImageFix"/>
<feColorMatrix in="SourceAlpha" type="matrix" values="0 0 0 0 0 0 0 0 0 0 0 0 0 0 0 0 0 0 127 0" result="hardAlpha"/>
<feOffset dy="4"/>
<feGaussianBlur stdDeviation="48"/>
<feComposite in2="hardAlpha" operator="out"/>
<feColorMatrix type="matrix" values="0 0 0 0 0 0 0 0 0 0 0 0 0 0 0 0 0 0 0.13 0"/>
<feBlend mode="normal" in2="BackgroundImageFix" result="effect1_dropShadow_620_203"/>
<feBlend mode="normal" in="SourceGraphic" in2="effect1_dropShadow_620_203" result="shape"/>
</filter>
<filter id="filter4_d_620_203" x="122.33" y="80.5801" width="256" height="256" filterUnits="userSpaceOnUse" color-interpolation-filters="sRGB">
<feFlood flood-opacity="0" result="BackgroundImageFix"/>
<feColorMatrix in="SourceAlpha" type="matrix" values="0 0 0 0 0 0 0 0 0 0 0 0 0 0 0 0 0 0 127 0" result="hardAlpha"/>
<feOffset dy="4"/>
<feGaussianBlur stdDeviation="48"/>
<feComposite in2="hardAlpha" operator="out"/>
<feColorMatrix type="matrix" values="0 0 0 0 0 0 0 0 0 0 0 0 0 0 0 0 0 0 0.13 0"/>
<feBlend mode="normal" in2="BackgroundImageFix" result="effect1_dropShadow_620_203"/>
<feBlend mode="normal" in="SourceGraphic" in2="effect1_dropShadow_620_203" result="shape"/>
</filter>
<filter id="filter5_d_620_203" x="244.66" y="80.5801" width="256" height="256" filterUnits="userSpaceOnUse" color-interpolation-filters="sRGB">
<feFlood flood-opacity="0" result="BackgroundImageFix"/>
<feColorMatrix in="SourceAlpha" type="matrix" values="0 0 0 0 0 0 0 0 0 0 0 0 0 0 0 0 0 0 127 0" result="hardAlpha"/>
<feOffset dy="4"/>
<feGaussianBlur stdDeviation="48"/>
<feComposite in2="hardAlpha" operator="out"/>
<feColorMatrix type="matrix" values="0 0 0 0 0 0 0 0 0 0 0 0 0 0 0 0 0 0 0.13 0"/>
<feBlend mode="normal" in2="BackgroundImageFix" result="effect1_dropShadow_620_203"/>
<feBlend mode="normal" in="SourceGraphic" in2="effect1_dropShadow_620_203" result="shape"/>
</filter>
<radialGradient id="paint0_radial_620_203" cx="0" cy="0" r="1" gradientUnits="userSpaceOnUse" gradientTransform="translate(180.266 129.688) rotate(30.0005) scale(56.1227 56.1226)">
<stop stop-color="#4387FD"/>
<stop offset="0.65" stop-color="#3078F0"/>
<stop offset="0.91" stop-color="#2B72EA"/>
<stop offset="1" stop-color="#286EE6"/>
</radialGradient>
<radialGradient id="paint1_radial_620_203" cx="0" cy="0" r="1" gradientUnits="userSpaceOnUse" gradientTransform="translate(180.268 129.69) rotate(30.0005) scale(56.1193 56.1193)">
<stop stop-color="#FFD24D"/>
<stop offset="1" stop-color="#F6C338"/>
</radialGradient>
<clipPath id="clip0_620_203">
<rect width="28.8" height="28.8" fill="white" transform="translate(134.75 110.17)"/>
</clipPath>
<clipPath id="clip1_620_203">
<rect width="28.8" height="28.8" fill="white" transform="translate(134.75 110.17)"/>
</clipPath>
<clipPath id="clip2_620_203">
<rect width="28.8" height="28.8" fill="white" transform="translate(134.75 110.17)"/>
</clipPath>
<clipPath id="clip3_620_203">
<rect width="28.8" height="30.48" fill="white" transform="translate(278.25 109.33)"/>
</clipPath>
<clipPath id="clip4_620_203">
<rect width="28.8" height="30.48" fill="white" transform="translate(278.25 109.33)"/>
</clipPath>
<clipPath id="clip5_620_203">
<rect width="28.8" height="30.4941" fill="white" transform="translate(278.25 109.323)"/>
</clipPath>
<clipPath id="clip6_620_203">
<rect width="28.8" height="28.8" fill="white" transform="translate(400.59 110.17)"/>
</clipPath>
<clipPath id="clip7_620_203">
<rect width="28.8" height="28.8" fill="white" transform="translate(400.59 110.17)"/>
</clipPath>
<clipPath id="clip8_620_203">
<rect width="28.8" height="28.8" fill="white" transform="translate(400.59 110.17)"/>
</clipPath>
<clipPath id="clip9_620_203">
<rect width="40" height="40" fill="white" transform="translate(108 184.58)"/>
</clipPath>
<clipPath id="clip10_620_203">
<rect width="40" height="40" fill="white" transform="translate(108 184.58)"/>
</clipPath>
<clipPath id="clip11_620_203">
<rect width="40" height="40" fill="white" transform="translate(108 184.58)"/>
</clipPath>
<clipPath id="clip12_620_203">
<rect width="28.8" height="21.75" fill="white" transform="translate(235.92 193.7)"/>
</clipPath>
<clipPath id="clip13_620_203">
<rect width="28.8" height="21.75" fill="white" transform="translate(235.92 193.7)"/>
</clipPath>
<clipPath id="clip14_620_203">
<rect width="28.8" height="21.7554" fill="white" transform="translate(235.92 193.697)"/>
</clipPath>
<clipPath id="clip15_620_203">
<rect width="40" height="38.06" fill="white" transform="translate(352.66 185.55)"/>
</clipPath>
<clipPath id="clip16_620_203">
<rect width="40" height="38.06" fill="white" transform="translate(352.66 185.55)"/>
</clipPath>
<clipPath id="clip17_620_203">
<rect width="40" height="38.0769" fill="white" transform="translate(352.66 185.541)"/>
</clipPath>
</defs>
</svg>
