<svg width="431" height="225" viewBox="0 0 431 225" fill="none" xmlns="http://www.w3.org/2000/svg">
<g filter="url(#filter0_d_621_275)">
<rect x="98" y="36.5801" width="64" height="64" rx="32" fill="white"/>
<g clip-path="url(#clip0_621_275)">
<g clip-path="url(#clip1_621_275)">
<g clip-path="url(#clip2_621_275)">
<path d="M120.604 81.0429L115.59 72.3614L124.976 56.0967L129.99 64.7781L120.604 81.0429Z" fill="#0DA960"/>
<path d="M120.604 81.0428L125.618 72.3613H144.39L139.376 81.0428H120.604Z" fill="url(#paint0_radial_621_275)"/>
<path d="M144.39 72.3614H134.362L124.976 56.0967H135.004L144.39 72.3614Z" fill="url(#paint1_radial_621_275)"/>
<path d="M129.99 72.361H125.618L127.794 68.5693L120.604 81.0424L129.99 72.361Z" fill="#2D6FDD"/>
<path d="M134.362 72.361H144.39L132.186 68.5693L134.362 72.361Z" fill="#E5B93C"/>
<path d="M127.794 68.5698L129.99 64.7781L124.976 56.0967L127.794 68.5698Z" fill="#0C9B57"/>
</g>
</g>
</g>
<rect x="204.66" y="36.5801" width="64" height="64" rx="32" fill="white"/>
<g clip-path="url(#clip3_621_275)">
<g clip-path="url(#clip4_621_275)">
<g clip-path="url(#clip5_621_275)">
<mask id="mask0_621_275" style="mask-type:luminance" maskUnits="userSpaceOnUse" x="222" y="53" width="29" height="31">
<path d="M250.972 53.3232H222.25V83.8061H250.972V53.3232Z" fill="white"/>
</mask>
<g mask="url(#mask0_621_275)">
<path d="M243.855 67.7279C244.078 67.7018 244.291 67.7005 244.486 67.7279C244.6 67.4678 244.619 67.0198 244.517 66.532C244.366 65.8065 244.16 65.3673 243.737 65.4357C243.313 65.5041 243.298 66.0293 243.45 66.7548C243.534 67.1629 243.687 67.5114 243.855 67.7279Z" fill="black"/>
<path d="M240.215 68.3024C240.519 68.4356 240.706 68.5239 240.778 68.4467C240.825 68.3982 240.81 68.3074 240.738 68.1891C240.589 67.9453 240.28 67.6964 239.954 67.5583C239.286 67.2708 238.489 67.3666 237.875 67.8084C237.672 67.9565 237.479 68.163 237.506 68.2875C237.515 68.3285 237.546 68.3584 237.617 68.3684C237.784 68.387 238.369 68.0921 239.042 68.051C239.517 68.0224 239.912 68.1705 240.214 68.3036L240.215 68.3024Z" fill="black"/>
<path d="M239.606 68.6507C239.211 68.7129 238.992 68.8436 238.853 68.9643C238.733 69.0688 238.66 69.1846 238.66 69.2655C238.66 69.304 238.677 69.3264 238.69 69.3376C238.707 69.3538 238.73 69.3625 238.755 69.3625C238.844 69.3625 239.043 69.2829 239.043 69.2829C239.593 69.0862 239.955 69.1099 240.315 69.151C240.514 69.1733 240.608 69.1858 240.651 69.1174C240.664 69.0975 240.68 69.0551 240.64 68.9917C240.548 68.8411 240.148 68.5872 239.605 68.652L239.606 68.6507Z" fill="black"/>
<path d="M242.626 69.9284C242.895 70.0603 243.19 70.008 243.285 69.8127C243.381 69.6173 243.242 69.3522 242.974 69.2203C242.706 69.0884 242.411 69.1407 242.315 69.3361C242.219 69.5314 242.358 69.7965 242.626 69.9284Z" fill="black"/>
<path d="M244.351 68.4219C244.133 68.4182 243.952 68.6571 243.947 68.9558C243.942 69.2544 244.115 69.4996 244.333 69.5033C244.551 69.507 244.731 69.2681 244.736 68.9695C244.741 68.6708 244.568 68.4256 244.351 68.4219Z" fill="black"/>
<path d="M229.714 73.81C229.659 73.7416 229.571 73.7627 229.485 73.7826C229.425 73.7963 229.357 73.8125 229.282 73.8113C229.122 73.8088 228.986 73.7391 228.91 73.6221C228.811 73.4703 228.817 73.2426 228.926 72.9825C228.941 72.9476 228.959 72.9091 228.977 72.8655C229.151 72.4735 229.445 71.8177 229.117 71.1918C228.869 70.7214 228.466 70.4277 227.982 70.3667C227.516 70.3083 227.037 70.48 226.732 70.8172C226.251 71.3486 226.175 72.0728 226.268 72.3279C226.302 72.4213 226.355 72.4474 226.395 72.4524C226.477 72.4636 226.598 72.4038 226.674 72.1998C226.679 72.1848 226.686 72.1624 226.695 72.1338C226.729 72.0255 226.792 71.8239 226.895 71.6634C227.02 71.4693 227.214 71.3349 227.442 71.2864C227.673 71.2366 227.911 71.2814 228.109 71.4108C228.446 71.6323 228.577 72.0454 228.432 72.4399C228.358 72.644 228.237 73.0348 228.263 73.3558C228.317 74.0054 228.716 74.2654 229.076 74.2941C229.424 74.3078 229.668 74.1111 229.73 73.968C229.766 73.8834 229.736 73.8324 229.716 73.81H229.714Z" fill="black"/>
<path d="M249.848 72.6226C249.835 72.5753 249.749 72.2592 249.629 71.8784C249.51 71.4977 249.388 71.2289 249.388 71.2289C249.864 70.5146 249.873 69.8762 249.81 69.5153C249.743 69.0674 249.556 68.6853 249.179 68.2908C248.803 67.8964 248.034 67.4919 246.953 67.1883C246.829 67.1535 246.421 67.0415 246.385 67.0303C246.383 67.0066 246.355 65.6938 246.33 65.1288C246.313 64.7206 246.277 64.0848 246.08 63.4576C245.845 62.6089 245.434 61.8672 244.923 61.3919C246.335 59.9285 247.216 58.3157 247.215 56.9319C247.211 54.2714 243.944 53.4663 239.917 55.1338C239.913 55.135 239.069 55.4934 239.063 55.4959C239.059 55.4922 237.521 53.9827 237.498 53.9628C232.908 49.9583 218.554 65.914 223.143 69.7891L224.146 70.639C223.886 71.3135 223.784 72.085 223.868 72.915C223.975 73.9815 224.525 75.0044 225.417 75.7933C226.263 76.5437 227.376 77.0178 228.456 77.0166C230.242 81.1318 234.322 83.6566 239.107 83.7986C244.239 83.9517 248.547 81.5424 250.352 77.2169C250.47 76.9133 250.972 75.5457 250.972 74.3374C250.972 73.1291 250.286 72.6214 249.848 72.6214V72.6226ZM228.85 75.8618C228.695 75.8879 228.535 75.8991 228.375 75.8954C226.824 75.8543 225.151 74.4581 224.984 72.803C224.8 70.9738 225.734 69.5664 227.389 69.2316C227.587 69.1918 227.826 69.1681 228.084 69.1818C229.011 69.2328 230.377 69.9447 230.689 71.9643C230.966 73.7538 230.526 75.5743 228.849 75.8605L228.85 75.8618ZM227.119 68.1378C226.089 68.3381 225.181 68.9217 224.626 69.7281C224.293 69.4519 223.675 68.9155 223.567 68.7065C222.681 67.0228 224.533 63.75 225.829 61.9021C229.029 57.3351 234.042 53.8782 236.363 54.5054C236.74 54.6124 237.989 56.0609 237.989 56.0609C237.989 56.0609 235.67 57.3476 233.518 59.142C230.62 61.3745 228.43 64.6174 227.118 68.1378H227.119ZM243.39 75.1774C243.423 75.1637 243.447 75.1251 243.443 75.0865C243.438 75.0392 243.396 75.0056 243.35 75.0106C243.35 75.0106 240.922 75.3702 238.628 74.5303C238.878 73.7177 239.542 74.0114 240.546 74.0922C242.357 74.2005 243.978 73.9354 245.178 73.592C246.217 73.2933 247.581 72.706 248.641 71.8697C248.998 72.655 249.125 73.5186 249.125 73.5186C249.125 73.5186 249.402 73.4688 249.633 73.6119C249.852 73.7463 250.011 74.0263 249.902 74.748C249.679 76.0982 249.105 77.1945 248.141 78.2025C247.554 78.8346 246.841 79.3847 246.025 79.7841C245.592 80.0118 245.131 80.2085 244.644 80.3677C241.008 81.5549 237.286 80.2495 236.086 77.4459C235.991 77.2356 235.91 77.0141 235.846 76.7839C235.335 74.9359 235.769 72.7196 237.126 71.3234C237.209 71.2351 237.295 71.1306 237.295 70.9986C237.295 70.8879 237.225 70.7722 237.164 70.69C236.69 70.0019 235.045 68.8284 235.375 66.5574C235.611 64.926 237.038 63.7774 238.369 63.8458C238.481 63.8521 238.594 63.8583 238.706 63.8657C239.282 63.8993 239.785 63.974 240.26 63.9939C241.054 64.0288 241.768 63.913 242.615 63.2075C242.9 62.9698 243.129 62.7632 243.516 62.6985C243.557 62.691 243.657 62.6549 243.86 62.6649C244.067 62.6761 244.263 62.7321 244.44 62.8503C245.118 63.302 245.214 64.3946 245.249 65.1935C245.269 65.6502 245.324 66.754 245.344 67.0713C245.387 67.7956 245.578 67.8988 245.962 68.0258C246.179 68.0967 246.38 68.1502 246.676 68.2336C247.574 68.4862 248.106 68.7413 248.442 69.0698C248.642 69.2752 248.736 69.4929 248.764 69.7007C248.87 70.4723 248.165 71.4267 246.298 72.2928C244.257 73.2398 241.781 73.48 240.07 73.2896C239.939 73.2747 239.472 73.2224 239.47 73.2224C238.101 73.0382 237.321 74.8065 238.142 76.0186C238.671 76.8 240.113 77.3078 241.556 77.3078C244.863 77.3078 247.406 75.8954 248.351 74.6758C248.38 74.6398 248.382 74.6348 248.427 74.5676C248.473 74.4979 248.436 74.4593 248.377 74.4979C247.605 75.0268 244.173 77.1248 240.503 76.4939C240.503 76.4939 240.057 76.4205 239.649 76.2625C239.326 76.1368 238.649 75.8257 238.567 75.1301C241.529 76.0459 243.394 75.1798 243.394 75.1798L243.39 75.1774ZM238.697 74.6236C238.697 74.6236 238.697 74.6236 238.697 74.6248C238.697 74.6248 238.697 74.6236 238.697 74.6223V74.6236ZM233.03 61.8847C234.168 60.5693 235.569 59.427 236.823 58.7849C236.867 58.7625 236.913 58.8098 236.889 58.8521C236.79 59.0325 236.598 59.4183 236.537 59.7119C236.527 59.758 236.577 59.7916 236.615 59.7655C237.396 59.2329 238.754 58.6629 239.945 58.5895C239.996 58.5858 240.021 58.6517 239.98 58.6828C239.799 58.8222 239.601 59.0138 239.456 59.208C239.431 59.2416 239.455 59.2889 239.496 59.2889C240.332 59.2951 241.512 59.5875 242.28 60.0181C242.332 60.0467 242.295 60.1475 242.236 60.135C241.074 59.8687 239.17 59.6659 237.193 60.1487C235.428 60.5793 234.08 61.2438 233.097 61.9593C233.048 61.9954 232.988 61.9295 233.028 61.8834L233.03 61.8847Z" fill="black"/>
</g>
</g>
</g>
</g>
<circle cx="359" cy="69" r="32" fill="white"/>
<g clip-path="url(#clip6_621_275)">
<g clip-path="url(#clip7_621_275)">
<g clip-path="url(#clip8_621_275)">
<mask id="mask1_621_275" style="mask-type:luminance" maskUnits="userSpaceOnUse" x="345" y="55" width="29" height="29">
<path d="M373.8 55H345V83.8H373.8V55Z" fill="white"/>
</mask>
<g mask="url(#mask1_621_275)">
<path d="M359.166 83.7219C361.937 83.7219 364.646 82.9002 366.95 81.3606C369.254 79.821 371.05 77.6327 372.11 75.0726C373.17 72.5124 373.448 69.6954 372.907 66.9776C372.367 64.2598 371.032 61.7633 369.073 59.8039C367.113 57.8444 364.617 56.5101 361.899 55.9694C359.181 55.4288 356.364 55.7062 353.804 56.7666C351.244 57.8271 349.056 59.6229 347.516 61.927C345.977 64.2311 345.155 66.94 345.155 69.7111C345.165 73.4238 346.644 76.9815 349.27 79.6068C351.895 82.2322 355.453 83.7116 359.166 83.7219Z" fill="#2CA01C"/>
<path d="M349.047 69.7112C349.047 71.1563 349.621 72.5422 350.643 73.564C351.664 74.5858 353.05 75.1599 354.495 75.1599H355.274V73.1361H354.495C353.587 73.1361 352.716 72.7752 352.074 72.133C351.431 71.4907 351.07 70.6195 351.07 69.7112C351.07 68.8029 351.431 67.9318 352.074 67.2895C352.716 66.6472 353.587 66.2864 354.495 66.2864H356.363V76.8723C356.373 77.406 356.59 77.9149 356.967 78.2923C357.345 78.6697 357.854 78.8861 358.387 78.8961V64.2626H354.495C353.05 64.2626 351.664 64.8366 350.643 65.8585C349.621 66.8803 349.047 68.2662 349.047 69.7112ZM363.836 64.2626H363.057V66.2864H363.836C364.744 66.2864 365.615 66.6472 366.258 67.2895C366.9 67.9318 367.261 68.8029 367.261 69.7112C367.261 70.6195 366.9 71.4907 366.258 72.133C365.615 72.7752 364.744 73.1361 363.836 73.1361H361.968V62.5502C361.958 62.0165 361.741 61.5076 361.364 61.1302C360.987 60.7528 360.478 60.5363 359.944 60.5264V75.1599H363.836C364.551 75.1599 365.26 75.0189 365.921 74.7452C366.582 74.4713 367.183 74.07 367.689 73.564C368.195 73.058 368.596 72.4574 368.87 71.7964C369.143 71.1353 369.284 70.4268 369.284 69.7112C369.284 68.9957 369.143 68.2872 368.87 67.6261C368.596 66.965 368.195 66.3644 367.689 65.8585C367.183 65.3525 366.582 64.9511 365.921 64.6773C365.26 64.4035 364.551 64.2626 363.836 64.2626Z" fill="white"/>
</g>
</g>
</g>
</g>
<rect x="40" y="116.58" width="64" height="64" rx="32" fill="white"/>
<g clip-path="url(#clip9_621_275)">
<g clip-path="url(#clip10_621_275)">
<g clip-path="url(#clip11_621_275)">
<path d="M91.5044 145.091H79.77L88.0156 136.845C87.3812 135.894 86.7469 135.26 86.1125 134.308C85.1998 133.648 84.3505 132.905 83.5756 132.088L75.3312 140.334V128.917C74.2957 128.655 73.2269 128.548 72.16 128.6C71.0923 128.531 70.0205 128.639 68.9875 128.917V140.652L60.425 132.089C59.4404 132.653 58.5779 133.408 57.8875 134.308C57.2531 135.26 56.3019 135.894 55.6675 136.846L63.9125 145.091H52.4962L52.1794 148.262C52.1107 149.329 52.2177 150.401 52.4962 151.433H64.2312L55.6687 159.996C56.9216 161.883 58.5389 163.5 60.4256 164.753L68.6712 156.507V168.242C69.7068 168.504 70.7755 168.611 71.8425 168.559C72.9098 168.628 73.9811 168.521 75.0137 168.242V156.508L83.2587 164.755C84.2431 164.19 85.1054 163.435 85.7956 162.535C86.6127 161.76 87.3559 160.911 88.0156 159.998L79.77 151.751H91.5044C91.7667 150.715 91.8737 149.647 91.8219 148.58C91.889 147.408 91.7816 146.232 91.5044 145.091ZM76.9156 148.262C76.8841 149.658 76.6708 151.044 76.2812 152.385C74.9707 152.899 73.5625 153.116 72.1581 153.02C70.762 152.988 69.376 152.775 68.035 152.385C67.5211 151.075 67.3044 149.667 67.4006 148.262C67.4321 146.866 67.6454 145.48 68.035 144.139C69.3455 143.625 70.7537 143.409 72.1581 143.505C73.5542 143.536 74.9402 143.749 76.2812 144.139C76.647 145.485 76.8598 146.868 76.9156 148.262Z" fill="#FF4A00"/>
</g>
</g>
</g>
<rect x="162.33" y="116.58" width="64" height="64" rx="32" fill="white"/>
<g clip-path="url(#clip12_621_275)">
<g clip-path="url(#clip13_621_275)">
<g clip-path="url(#clip14_621_275)">
<mask id="mask2_621_275" style="mask-type:luminance" maskUnits="userSpaceOnUse" x="179" y="137" width="30" height="23">
<path d="M208.667 137.697H179.92V159.263H208.667V137.697Z" fill="white"/>
</mask>
<g mask="url(#mask2_621_275)">
<path d="M181.88 159.263H186.453V148.156L179.92 143.256V157.303C179.92 158.386 180.797 159.263 181.88 159.263Z" fill="#4285F4"/>
<path d="M202.134 159.263H206.707C207.79 159.263 208.667 158.386 208.667 157.303V143.256L202.134 148.156V159.263Z" fill="#34A853"/>
<path d="M202.134 139.663V148.156L208.667 143.256V140.643C208.667 138.22 205.902 136.837 203.963 138.291L202.134 139.663Z" fill="#FBBC04"/>
<path fill-rule="evenodd" clip-rule="evenodd" d="M186.453 148.156V139.662L194.294 145.542L202.134 139.662V148.156L194.294 154.036L186.453 148.156Z" fill="#EA4335"/>
<path d="M179.92 140.643V143.256L186.453 148.156V139.663L184.624 138.29C182.685 136.837 179.92 138.22 179.92 140.643Z" fill="#C5221F"/>
</g>
</g>
</g>
</g>
<rect x="284.66" y="116.58" width="64" height="64" rx="32" fill="white"/>
<g clip-path="url(#clip15_621_275)">
<g clip-path="url(#clip16_621_275)">
<g clip-path="url(#clip17_621_275)">
<path d="M308.423 135.773L316.005 146.931L324.264 135.773H308.423ZM315.801 157.7L296.66 129.543H336.62L315.801 157.7Z" fill="#05B5E8"/>
<mask id="mask3_621_275" style="mask-type:luminance" maskUnits="userSpaceOnUse" x="302" y="160" width="30" height="8">
<path d="M302.301 160.823H331.019V167.24H302.301V160.823Z" fill="white"/>
</mask>
<g mask="url(#mask3_621_275)">
<path d="M302.798 161.01H330.709V167.24H302.798V161.01Z" fill="#05B5E8"/>
</g>
</g>
</g>
</g>
</g>
<defs>
<filter id="filter0_d_621_275" x="0" y="0.580078" width="431" height="224" filterUnits="userSpaceOnUse" color-interpolation-filters="sRGB">
<feFlood flood-opacity="0" result="BackgroundImageFix"/>
<feColorMatrix in="SourceAlpha" type="matrix" values="0 0 0 0 0 0 0 0 0 0 0 0 0 0 0 0 0 0 127 0" result="hardAlpha"/>
<feOffset dy="4"/>
<feGaussianBlur stdDeviation="20"/>
<feComposite in2="hardAlpha" operator="out"/>
<feColorMatrix type="matrix" values="0 0 0 0 0 0 0 0 0 0 0 0 0 0 0 0 0 0 0.1 0"/>
<feBlend mode="normal" in2="BackgroundImageFix" result="effect1_dropShadow_621_275"/>
<feBlend mode="normal" in="SourceGraphic" in2="effect1_dropShadow_621_275" result="shape"/>
</filter>
<radialGradient id="paint0_radial_621_275" cx="0" cy="0" r="1" gradientUnits="userSpaceOnUse" gradientTransform="translate(161.106 73.6879) rotate(30.0005) scale(56.1227 56.1226)">
<stop stop-color="#4387FD"/>
<stop offset="0.65" stop-color="#3078F0"/>
<stop offset="0.91" stop-color="#2B72EA"/>
<stop offset="1" stop-color="#286EE6"/>
</radialGradient>
<radialGradient id="paint1_radial_621_275" cx="0" cy="0" r="1" gradientUnits="userSpaceOnUse" gradientTransform="translate(161.107 73.6896) rotate(30.0005) scale(56.1193 56.1193)">
<stop stop-color="#FFD24D"/>
<stop offset="1" stop-color="#F6C338"/>
</radialGradient>
<clipPath id="clip0_621_275">
<rect width="28.8" height="28.8" fill="white" transform="translate(115.59 54.1699)"/>
</clipPath>
<clipPath id="clip1_621_275">
<rect width="28.8" height="28.8" fill="white" transform="translate(115.59 54.1699)"/>
</clipPath>
<clipPath id="clip2_621_275">
<rect width="28.8" height="28.8" fill="white" transform="translate(115.59 54.1699)"/>
</clipPath>
<clipPath id="clip3_621_275">
<rect width="28.8" height="30.48" fill="white" transform="translate(222.25 53.3301)"/>
</clipPath>
<clipPath id="clip4_621_275">
<rect width="28.8" height="30.48" fill="white" transform="translate(222.25 53.3301)"/>
</clipPath>
<clipPath id="clip5_621_275">
<rect width="28.8" height="30.4941" fill="white" transform="translate(222.25 53.3232)"/>
</clipPath>
<clipPath id="clip6_621_275">
<rect width="28.8" height="28.8" fill="white" transform="translate(345 55)"/>
</clipPath>
<clipPath id="clip7_621_275">
<rect width="28.8" height="28.8" fill="white" transform="translate(345 55)"/>
</clipPath>
<clipPath id="clip8_621_275">
<rect width="28.8" height="28.8" fill="white" transform="translate(345 55)"/>
</clipPath>
<clipPath id="clip9_621_275">
<rect width="40" height="40" fill="white" transform="translate(52 128.58)"/>
</clipPath>
<clipPath id="clip10_621_275">
<rect width="40" height="40" fill="white" transform="translate(52 128.58)"/>
</clipPath>
<clipPath id="clip11_621_275">
<rect width="40" height="40" fill="white" transform="translate(52 128.58)"/>
</clipPath>
<clipPath id="clip12_621_275">
<rect width="28.8" height="21.75" fill="white" transform="translate(179.92 137.7)"/>
</clipPath>
<clipPath id="clip13_621_275">
<rect width="28.8" height="21.75" fill="white" transform="translate(179.92 137.7)"/>
</clipPath>
<clipPath id="clip14_621_275">
<rect width="28.8" height="21.7554" fill="white" transform="translate(179.92 137.697)"/>
</clipPath>
<clipPath id="clip15_621_275">
<rect width="40" height="38.06" fill="white" transform="translate(296.66 129.55)"/>
</clipPath>
<clipPath id="clip16_621_275">
<rect width="40" height="38.06" fill="white" transform="translate(296.66 129.55)"/>
</clipPath>
<clipPath id="clip17_621_275">
<rect width="40" height="38.0769" fill="white" transform="translate(296.66 129.541)"/>
</clipPath>
</defs>
</svg>
