<svg xmlns="http://www.w3.org/2000/svg" viewBox="0 0 72 72" fill="#8f8f8f"><path fill="#fff" d="M36 6.5c-4-10-19.3-5.1-16.5 5.3-2.6-1.8-7-2.5-10.9.8-5 5-2.3 11.7.4 13.3-11-1-13 17.6 0 17.6h54.5c12.2 0 10.4-19.2-.6-17.4 2.5-1.4 6-8.1.8-13.2-4-3.9-9.3-2.5-11.1-.8 1-3.2-.6-10-7.2-11-6.8-.9-9.7 5.4-9.4 5.4z"/><path d="M10.7 25.5l20.7 14.2-10-23c-5-12.9-22.1 1.2-10.7 8.8zm10.4-12.9L31.5 37l3.6-25.7C36.9-2 16.8.9 21.1 12.6zm15.7-2.3c.8 0 3-.2 3.2.5-3.6 2.9-3.5-2.2.7 26.2L51 12.5c2.1-5.5-2.3-10-6.2-10.2-8.7-.4-7.9 8.1-8 8zm13.7 6.6l-9.7 22.7 20.7-14.3c10.9-7.7-5.8-21.1-11-8.4zM39.7 42.2h23.9c9.3 0 9.4-14.9-.3-14.9-3 0-2.6.2-23.6 14.9zm-30.8 0h23.6L13.1 28.6c-4.5-2.9-9.5-1.2-11.4 3.6-1.5 5.5 2.3 10 7.2 10zM35 60.7c3.3 0 7.1-.6 7.1 3 0 3.8-4.2 3.1-7.1 3.1v-6.1zm0-9.7c2.7 0 6.3-.5 6.3 2.7 0 3.5-3.6 3-6.3 3V51zm-5-4v23.9h11.6c6.3 0 8.7-9.5 2-12.7 4.7-2.7 3.2-11.2-3.4-11.2H30zM12.3 70.9V57.1l15 14.7V47h-5v13.4L7.2 46v24.8h5.1zm36.2-12.2c.2 9.4 8.5 15.7 17.7 12.2 0-7.8 1-3.6-4.5-3.6-7.8 0-10.6-9.5-5.5-14.3 2.6-2.5 6.7-3.1 10-.9v-4.7c-8.6-3.6-17.6 3-17.7 11.3h0z"/></svg>