<svg width="30" height="33" viewBox="0 0 30 33" fill="none" xmlns="http://www.w3.org/2000/svg">
<g clip-path="url(#clip0_1_2736)">
<path d="M2.18067 31.8664C1.85164 31.8664 1.53608 31.7358 1.30334 31.5032C1.07059 31.2706 0.93971 30.9552 0.939453 30.6262C0.939453 24.3997 6.00806 19.334 12.2374 19.334H14.1002C15.3753 19.334 16.6272 19.5454 17.8209 19.9614C17.9749 20.015 18.1168 20.0984 18.2385 20.2069C18.3603 20.3153 18.4594 20.4467 18.5304 20.5934C18.6014 20.7402 18.6427 20.8995 18.6521 21.0623C18.6614 21.2251 18.6387 21.3881 18.585 21.542C18.5313 21.696 18.4478 21.8379 18.3393 21.9597C18.2307 22.0814 18.0993 22.1805 17.9524 22.2514C17.8055 22.3222 17.6461 22.3635 17.4833 22.3727C17.3205 22.3819 17.1574 22.359 17.0035 22.3052C16.07 21.9805 15.0885 21.8153 14.1002 21.8165H12.2374C9.90109 21.819 7.66115 22.748 6.00877 24.3996C4.35639 26.0513 3.42644 28.2908 3.42285 30.6271C3.42285 30.7901 3.39074 30.9515 3.32837 31.1021C3.26599 31.2527 3.17456 31.3895 3.0593 31.5048C2.94405 31.6201 2.80722 31.7115 2.65663 31.7739C2.50604 31.8362 2.34463 31.8683 2.18164 31.8683L2.18067 31.8664ZM21.4253 8.47634C21.4253 3.85767 17.6658 0.100098 13.0442 0.100098C8.42261 0.100098 4.66406 3.85767 4.66406 8.47634C4.66406 13.095 8.42357 16.8526 13.0442 16.8526C17.6648 16.8526 21.4253 13.095 21.4253 8.47634ZM18.9419 8.47634C18.9388 10.0392 18.3163 11.5371 17.2108 12.6419C16.1054 13.7466 14.607 14.3681 13.0442 14.3702C11.4813 14.3681 9.98299 13.7466 8.87751 12.6419C7.77204 11.5371 7.14956 10.0392 7.14648 8.47634C7.14956 6.91348 7.77204 5.41556 8.87751 4.31081C9.98299 3.20606 11.4813 2.58457 13.0442 2.58252C14.607 2.58457 16.1054 3.20606 17.2108 4.31081C18.3163 5.41556 18.9388 6.91348 18.9419 8.47634ZM27.8185 24.422H24.0939V20.6994C24.0939 20.3701 23.9631 20.0542 23.7302 19.8214C23.4973 19.5885 23.1815 19.4577 22.8522 19.4577C22.5229 19.4577 22.207 19.5885 21.9742 19.8214C21.7413 20.0542 21.6105 20.3701 21.6105 20.6994V24.422H17.8859C17.5567 24.422 17.241 24.5528 17.0082 24.7856C16.7754 25.0184 16.6447 25.3341 16.6447 25.6632C16.6447 25.9924 16.7754 26.3081 17.0082 26.5409C17.241 26.7737 17.5567 26.9045 17.8859 26.9045H21.6105V30.6271C21.6105 30.9564 21.7413 31.2723 21.9742 31.5051C22.207 31.738 22.5229 31.8688 22.8522 31.8688C23.1815 31.8688 23.4973 31.738 23.7302 31.5051C23.9631 31.2723 24.0939 30.9564 24.0939 30.6271V26.9045H27.8185C28.1477 26.9045 28.4634 26.7737 28.6962 26.5409C28.9289 26.3081 29.0597 25.9924 29.0597 25.6632C29.0597 25.3341 28.9289 25.0184 28.6962 24.7856C28.4634 24.5528 28.1477 24.422 27.8185 24.422Z" fill="#162050"/>
<path d="M24.3741 20.9301C24.3741 20.0673 23.6747 19.3679 22.8119 19.3679C21.9492 19.3679 21.2498 20.0673 21.2498 20.9301V30.3042C21.2498 31.1669 21.9492 31.8663 22.8119 31.8663C23.6747 31.8663 24.3741 31.1669 24.3741 30.3042V20.9301Z" fill="#1665D8"/>
<path d="M27.4986 27.1798C28.3614 27.1798 29.0608 26.4804 29.0608 25.6176C29.0608 24.7548 28.3614 24.0554 27.4986 24.0554H18.1245C17.2618 24.0554 16.5624 24.7548 16.5624 25.6176C16.5624 26.4804 17.2618 27.1798 18.1245 27.1798H27.4986Z" fill="#1665D8"/>
</g>
<defs>
<clipPath id="clip0_1_2736">
<rect width="29.0909" height="32" fill="white" transform="translate(0.45459 0.100098)"/>
</clipPath>
</defs>
</svg>
