<svg width="116" height="64" viewBox="0 0 116 64" fill="none" xmlns="http://www.w3.org/2000/svg">
<path d="M38.0106 51.6647C38.0106 57.2754 33.8309 61.1504 26.1305 62.0926C22.8151 62.5035 19.4147 62.3051 17.1194 61.6038L16.1985 57.9129L17.1194 53.4074C19.861 54.5834 23.141 55.0013 25.6771 54.6896C28.2557 54.3708 29.6513 53.7545 29.6513 52.6848C29.6513 51.4593 27.7244 51.1192 24.572 50.2762C20.5552 49.2136 17.5374 47.9384 16.6944 44.1555C16.5385 43.4613 15.8584 41.0668 15.7168 40.2025C14.7462 34.3156 21.0015 31.9991 28.0078 31.1419C30.7493 30.8019 33.0871 27.3519 35.1132 27.862C35.3965 28.9246 35.7437 30.391 36.0341 31.5528V39.4162C34.2347 38.4528 31.4861 38.0915 28.7445 38.4244C26.3288 38.722 24.8553 39.6004 24.8553 40.7834C24.8553 41.8461 26.6547 42.3632 29.6442 43.2275C33.5617 44.368 35.8712 42.3136 36.8488 45.799C37.0542 46.5429 37.9964 50.7013 37.9964 51.6647H38.0106Z" fill="#B51561"/>
<path d="M57.3856 53.7546L48.4171 54.8597L46.6177 58.9685L37.7271 60.0595L36.8062 56.3686L52.7172 28.3154L53.128 28.2658L67.1972 52.6353L68.1181 56.3261L59.2275 57.4171L57.3856 53.7546Z" fill="#B51561"/>
<path d="M69.5562 56.1489L68.6353 52.4581L69.5562 26.6576L77.1929 21.9183L78.1138 25.6091V47.8888L87.2666 42.9653L88.1875 46.6561V53.8678L69.5491 56.156L69.5562 56.1489Z" fill="#B51561"/>
<path d="M90.6458 24.072L109.468 17.9584L110.389 21.6492V28.8609L99.2035 30.2352V34.1669L107.867 29.3001L108.788 32.9909V39.7492L99.2035 40.9252V45.3103L110.078 40.1743L110.999 43.8651V51.0768L90.6387 53.5775L89.7178 49.8867L90.6387 24.0862L90.6458 24.072Z" fill="#B51561"/>
<path d="M37.0895 47.981C37.0895 53.5916 32.9099 57.4666 25.2094 58.4088C21.894 58.8197 18.4936 58.6214 16.1984 57.92V49.7307C18.9399 50.9067 22.2199 51.3247 24.756 51.013C27.3347 50.6942 28.7302 50.0779 28.7302 49.0082C28.7302 47.7826 26.8034 47.4426 23.6509 46.5995C18.8974 45.3386 15.5396 43.7871 15.5396 38.134C15.5396 32.4808 20.0876 28.3224 27.0867 27.4582C30.0337 27.0969 33.0657 27.2527 35.1131 27.862V35.7254C33.3137 34.7619 30.565 34.4006 27.8235 34.7336C25.4078 35.0311 23.9343 35.9096 23.9343 37.0926C23.9343 38.1552 25.7336 38.6724 28.7232 39.5367C33.4766 40.9181 37.0825 42.4837 37.0825 47.9739L37.0895 47.981Z" fill="#FF4998"/>
<path d="M56.4647 50.0636L47.4961 51.1687L45.6968 55.2775L36.8062 56.3685L51.7962 24.6315L52.2071 24.5819L67.1972 52.6422L58.3066 53.7332L56.4647 50.0707V50.0636ZM49.8693 45.3031L54.1269 44.7788C53.3902 43.1495 52.285 40.585 52.0371 39.5436H51.9521C51.7041 40.6488 50.599 43.4895 49.8622 45.296L49.8693 45.3031Z" fill="#FF4998"/>
<path d="M68.6282 52.4581V22.9667L77.1858 21.9183V44.1979L87.2595 42.9582V50.1699L68.6211 52.4581H68.6282Z" fill="#FF4998"/>
<path d="M89.7249 20.3812L109.468 17.9584V25.17L98.2825 26.5444V30.4761L107.867 29.3001V36.0584L98.2825 37.2344V41.6194L110.078 40.1672V47.3789L89.7178 49.8796V20.3812H89.7249Z" fill="#FF4998"/>
<path d="M47.978 5.57523C47.9213 5.724 47.8363 5.85151 47.723 5.95069C47.6096 6.04987 47.4963 6.11362 47.3758 6.12779C47.1987 6.15613 47.0712 6.12779 46.9862 6.02153C46.9012 5.92235 46.8729 5.79484 46.9012 5.63899C46.9295 5.48313 46.9721 5.32728 47.0287 5.17143C47.0854 5.01558 47.1279 4.86681 47.1492 4.71805C47.2838 3.96004 47.1846 3.32247 46.8587 2.79824C46.5258 2.27401 46.0015 1.8773 45.2648 1.6081C44.5351 1.3389 43.6142 1.19014 42.502 1.17597C41.3897 1.15472 40.1288 1.26806 38.719 1.51601C37.6351 1.7002 36.5371 1.96231 35.4107 2.30235C34.2843 2.64239 33.1934 3.0391 32.1378 3.49957C31.0752 3.96004 30.0693 4.47718 29.12 5.05808C28.1636 5.63899 27.3135 6.26948 26.5626 6.94247C25.8117 7.61546 25.1883 8.33096 24.6995 9.08897C24.2036 9.83989 23.8848 10.6262 23.736 11.448C23.6227 12.0785 23.651 12.6169 23.821 13.049C23.9911 13.4882 24.2673 13.8424 24.657 14.1258C25.0395 14.4092 25.5142 14.6217 26.0809 14.7705C26.6405 14.9192 27.2639 15.0184 27.944 15.068C28.6241 15.1176 29.3396 15.1247 30.0905 15.1034C30.8414 15.0822 31.5994 15.0397 32.3645 14.9759L34.5819 14.7917C35.687 14.6996 36.6646 14.6359 37.536 14.6004C38.4002 14.565 39.1582 14.5721 39.7958 14.6288C40.8655 14.735 41.6164 15.0255 42.0486 15.486C42.4807 15.9535 42.6153 16.6548 42.4524 17.5829C42.2894 18.4826 41.914 19.3185 41.3189 20.0836C40.7309 20.8487 39.9871 21.5358 39.0945 22.138C38.2019 22.7401 37.1959 23.2573 36.0695 23.6823C34.9432 24.1074 33.7672 24.4262 32.5275 24.6387C31.1815 24.8725 30.0197 24.9787 29.035 24.9646C28.0503 24.9504 27.2356 24.8866 26.5909 24.7662C25.9463 24.6529 25.4646 24.5253 25.1387 24.3907C24.8128 24.2561 24.6357 24.1782 24.6145 24.164C24.4586 24.0932 24.4019 23.9374 24.4374 23.7107C24.4657 23.5336 24.5507 23.3848 24.6924 23.2502C24.827 23.1227 24.9687 23.0447 25.1033 23.0235C25.2095 23.0022 25.3016 23.0235 25.3796 23.066C25.3866 23.066 25.5425 23.1227 25.8329 23.2502C26.1234 23.3777 26.5768 23.4911 27.186 23.5973C27.7952 23.7036 28.5603 23.7602 29.4813 23.7744C30.4022 23.7886 31.5003 23.6823 32.7683 23.4627C34.0222 23.2431 35.1557 22.9456 36.1616 22.563C37.1676 22.1805 38.0319 21.7342 38.7615 21.2312C39.4912 20.7282 40.065 20.1898 40.4971 19.6089C40.9293 19.028 41.1985 18.433 41.3047 17.8237C41.3685 17.4624 41.3685 17.1578 41.2906 16.917C41.2197 16.6761 41.0922 16.4777 40.908 16.3219C40.7309 16.166 40.5042 16.0456 40.2279 15.9677C39.9517 15.8827 39.6541 15.826 39.3141 15.7906C38.9599 15.7481 38.5844 15.7339 38.1665 15.7339C37.7556 15.7339 37.3305 15.7481 36.8913 15.7764C36.4521 15.8047 36.0129 15.8331 35.5666 15.8685C35.1203 15.9039 34.681 15.9393 34.2489 15.9748L32.0316 16.159C30.2889 16.3077 28.7799 16.3361 27.519 16.2369C26.258 16.1377 25.2308 15.911 24.4515 15.5497C23.6652 15.1884 23.1197 14.6854 22.808 14.0479C22.4963 13.4103 22.4325 12.6098 22.6026 11.6605C22.7797 10.69 23.148 9.75488 23.7077 8.87644C24.2673 7.99092 24.9687 7.16208 25.7975 6.38282C26.6334 5.60356 27.5686 4.89515 28.617 4.25049C29.6655 3.60583 30.7635 3.02493 31.9111 2.51487C33.0588 2.00482 34.2347 1.57268 35.432 1.20431C36.6292 0.843014 37.791 0.559648 38.9245 0.368376C40.3484 0.120431 41.5598 0 42.5728 0C43.5858 0 44.443 0.0779257 45.1373 0.233777C45.8315 0.389628 46.3841 0.609237 46.7949 0.885519C47.2058 1.16889 47.5246 1.45934 47.7584 1.75687C48.2968 2.49362 48.4668 3.41456 48.2684 4.51261C48.2047 4.8739 48.1055 5.2281 47.978 5.56814V5.57523Z" fill="white"/>
<path d="M51.9308 16.4991C51.7608 17.4555 51.4491 18.2914 51.0098 19.0211C50.5635 19.7507 50.0818 20.3316 49.5505 20.7638H49.6072C50.181 20.6575 50.7336 20.4237 51.2507 20.0695C51.7678 19.7153 52.2637 19.2903 52.7171 18.7944C53.1776 18.2985 53.6026 17.7601 53.9994 17.1792C54.3961 16.5983 54.7574 16.0386 55.0832 15.5003C55.1541 15.3798 55.2391 15.2806 55.3453 15.2027C55.4516 15.1248 55.5579 15.0752 55.6641 15.054C55.8271 15.0256 55.9475 15.0681 56.0254 15.1744C56.1033 15.2806 56.1246 15.4082 56.0963 15.5498C56.0821 15.6349 56.0538 15.7128 56.0113 15.7907C55.65 16.4354 55.2391 17.0871 54.7786 17.7601C54.3181 18.426 53.8081 19.0423 53.2555 19.6091C52.703 20.1758 52.1008 20.6646 51.4632 21.0684C50.8257 21.4722 50.1456 21.7414 49.4372 21.8618C48.92 21.9539 48.4312 21.9539 47.9778 21.8618C47.5244 21.7768 47.1419 21.5855 46.8373 21.2809C46.7239 21.1888 46.6248 21.0897 46.5539 20.9763C46.476 20.863 46.4264 20.7567 46.3839 20.6504C46.3697 20.6363 46.3626 20.615 46.3626 20.5938C46.3201 20.5087 46.3131 20.4167 46.3272 20.3104C46.3485 20.1758 46.4193 20.0412 46.5256 19.9137C46.5397 19.8924 46.5539 19.8783 46.561 19.8712C46.5681 19.8712 46.5822 19.857 46.5964 19.8428C46.7098 19.7295 46.8302 19.6657 46.9435 19.6303H46.986C47.0356 19.6161 47.064 19.6161 47.0852 19.6232C47.0923 19.6232 47.0994 19.6232 47.1065 19.6232C47.1065 19.6232 47.1206 19.6232 47.1277 19.6232C47.1561 19.6232 47.1915 19.6232 47.2269 19.6374C47.234 19.6445 47.2411 19.6516 47.2552 19.6516C47.3332 19.7012 47.3898 19.7649 47.4323 19.8428C47.4749 19.9562 47.5386 20.0554 47.6024 20.1475C47.6661 20.2183 47.7441 20.275 47.8361 20.3246C47.9282 20.3742 48.0487 20.3883 48.1833 20.36C48.4241 20.3175 48.6862 20.197 48.9554 19.9987C49.2246 19.8003 49.4867 19.5382 49.7347 19.2194C49.9826 18.8936 50.2023 18.5181 50.4006 18.0789C50.599 17.6468 50.7406 17.1721 50.8327 16.6621C50.8965 16.2866 50.9178 15.9749 50.8965 15.7269C50.8682 15.479 50.8186 15.2806 50.7336 15.1319C50.6486 14.9831 50.5565 14.8839 50.4431 14.8273C50.3298 14.7706 50.2164 14.7564 50.096 14.7706C49.8339 14.8131 49.5434 15.0044 49.2176 15.3444C48.8988 15.6774 48.5658 16.0953 48.2258 16.5841C47.8786 17.0729 47.5315 17.6113 47.1773 18.1922C46.8231 18.7731 46.4689 19.3469 46.1147 19.8995C45.7959 21.5785 45.4771 23.1866 45.1725 24.7167C44.8608 26.2469 44.5491 27.6708 44.2303 28.9885C43.9115 30.3061 43.5857 31.5104 43.2456 32.5872C42.9127 33.6711 42.5443 34.6062 42.1617 35.3996C41.7721 36.1931 41.3541 36.8236 40.9149 37.2911C40.4686 37.7587 39.9798 38.042 39.4485 38.1341C39.2856 38.1625 39.1014 38.1625 38.8959 38.127C38.6976 38.0916 38.5205 37.9783 38.3788 37.787C38.2371 37.5957 38.1379 37.3053 38.0813 36.9156C38.0317 36.526 38.0671 35.9805 38.1875 35.2863C38.3434 34.4079 38.6338 33.3665 39.0447 32.1763C39.4556 30.9791 39.9657 29.704 40.5749 28.3367C41.1841 26.9695 41.8713 25.5598 42.6293 24.1075C43.3944 22.6482 44.202 21.2242 45.0592 19.8216C45.1229 19.4603 45.1938 19.099 45.2575 18.7448C45.3284 18.3906 45.3921 18.0505 45.4488 17.7176C45.2929 17.8947 45.13 18.001 44.9529 18.0293C44.79 18.0576 44.6695 18.0151 44.5916 17.9089C44.5137 17.8026 44.4924 17.6751 44.5208 17.5334C44.5349 17.4626 44.5633 17.3776 44.6058 17.2925C44.9387 16.6833 45.2221 16.1095 45.4417 15.5782C45.6613 15.0469 45.8384 14.5793 45.973 14.1755C46.1076 13.7788 46.1997 13.46 46.2493 13.2333C46.2989 13.0066 46.3272 12.8862 46.3272 12.872C46.3556 12.7162 46.4335 12.5745 46.561 12.4399C46.6885 12.3053 46.8302 12.2274 46.986 12.199C47.1348 12.1707 47.2482 12.2061 47.3403 12.2982C47.4253 12.3903 47.4536 12.5178 47.4253 12.6808L46.5681 17.4484C46.8656 17.0092 47.1631 16.57 47.4536 16.1378C47.7511 15.7057 48.0487 15.3161 48.3533 14.9619C48.6579 14.6077 48.9696 14.3101 49.2955 14.0693C49.6143 13.8284 49.9543 13.6796 50.3085 13.6159C50.6415 13.5592 50.9248 13.5875 51.1728 13.708C51.4136 13.8284 51.6049 14.0126 51.7537 14.2676C51.8954 14.5226 51.9804 14.8414 52.0158 15.224C52.0441 15.6065 52.0158 16.0245 51.9379 16.4779L51.9308 16.4991ZM44.542 22.6057C43.8619 23.8241 43.2244 25.0497 42.6293 26.2611C42.0342 27.4796 41.51 28.6414 41.0495 29.7536C40.5891 30.8658 40.1994 31.9001 39.8877 32.8564C39.576 33.8128 39.3564 34.6416 39.2289 35.3501C39.2006 35.5272 39.1722 35.7184 39.1581 35.9168C39.1368 36.1222 39.1439 36.3064 39.1722 36.4693C39.2006 36.6323 39.2572 36.7669 39.3422 36.8661C39.4273 36.9652 39.5619 37.0007 39.7319 36.9723C40.0507 36.9156 40.3694 36.6535 40.6811 36.186C40.9929 35.7184 41.2975 35.1021 41.5879 34.3441C41.8784 33.5861 42.1617 32.7218 42.4451 31.7584C42.7214 30.7949 42.9835 29.789 43.2385 28.7405C43.4865 27.6921 43.7203 26.6436 43.9399 25.5881C44.1595 24.5325 44.3649 23.5337 44.5491 22.5986L44.542 22.6057Z" fill="white"/>
<path d="M56.904 13.6582C56.8119 13.9416 56.7198 14.2178 56.6135 14.4658C56.5073 14.7208 56.4152 14.9404 56.3302 15.1317C56.2452 15.323 56.1743 15.4788 56.1106 15.5992C56.0539 15.7197 56.0185 15.7834 56.0043 15.7976C55.8626 16.0526 55.6713 16.2014 55.4305 16.2439C55.2959 16.2652 55.1755 16.2368 55.0763 16.1447C54.9771 16.0526 54.9417 15.9322 54.9771 15.7622C54.9913 15.6984 55.0054 15.6488 55.0338 15.6205C55.0621 15.5851 55.0975 15.5213 55.1542 15.4221C55.2109 15.323 55.2888 15.16 55.3809 14.9333C55.4801 14.7066 55.6147 14.3595 55.7847 13.8849C55.6218 13.9132 55.4517 13.9416 55.2746 13.9557C55.0975 13.977 54.9417 13.9699 54.8071 13.9345C54.6654 13.8991 54.5591 13.8211 54.4883 13.7007C54.4174 13.5803 54.4033 13.4032 54.4458 13.1694C54.4741 12.9923 54.5662 12.7443 54.715 12.4326C54.8637 12.1138 55.0409 11.8021 55.2463 11.4834C55.4517 11.1646 55.6713 10.8883 55.9051 10.6403C56.1389 10.3924 56.3514 10.2578 56.5498 10.2224C56.7765 10.187 56.9394 10.2436 57.0528 10.3924C57.159 10.5412 57.2369 10.7395 57.2653 10.9804C57.3007 11.2212 57.3078 11.4763 57.2865 11.7526C57.2724 12.0288 57.244 12.2697 57.2086 12.4751C57.3715 12.4468 57.5416 12.4185 57.6974 12.383C57.8603 12.3476 58.0162 12.3193 58.1579 12.298C58.7104 12.1989 59.1142 12.2626 59.3622 12.4681C59.6101 12.6735 59.681 13.0773 59.5747 13.6653C59.5322 13.9061 59.4755 14.1541 59.3976 14.4162C59.3197 14.6783 59.2418 14.9546 59.1497 15.2309C59.0576 15.5142 58.9796 15.7905 58.9017 16.0668C58.8238 16.3431 58.76 16.6052 58.7175 16.8673C58.6538 17.2428 58.6467 17.5403 58.6963 17.767C58.7529 17.9937 58.838 18.1637 58.9584 18.2841C59.0788 18.4046 59.2134 18.4754 59.3693 18.5038C59.5251 18.5321 59.6739 18.5321 59.8085 18.5108C60.2265 18.44 60.6444 18.2275 61.0695 17.8733C61.4945 17.5191 61.8983 17.1082 62.2809 16.6477C62.6634 16.1872 63.0247 15.7055 63.3576 15.2025C63.6906 14.7066 63.9669 14.2674 64.1936 13.8991C64.2573 13.7999 64.3423 13.7149 64.4344 13.644C64.5336 13.5732 64.6257 13.5378 64.7249 13.5165C64.902 13.4882 65.0295 13.5165 65.1003 13.6228C65.1783 13.7219 65.1995 13.8495 65.1783 13.9911C65.157 14.0974 65.1216 14.1895 65.072 14.2816C64.7674 14.7421 64.4274 15.2663 64.0306 15.8543C63.6339 16.4423 63.2089 16.9948 62.7484 17.5261C62.2809 18.0574 61.785 18.525 61.2537 18.9288C60.7223 19.3326 60.1769 19.5805 59.6101 19.6797C59.263 19.7435 58.9442 19.7293 58.6538 19.6443C58.3633 19.5593 58.1295 19.4034 57.9524 19.1767C57.7683 18.9501 57.6478 18.6596 57.5841 18.2912C57.5203 17.9229 57.5274 17.4978 57.6124 17.0161C57.7045 16.4989 57.8462 15.9747 58.0374 15.4434C58.2287 14.9121 58.3633 14.4162 58.4483 13.9486C58.4838 13.7503 58.4696 13.6086 58.4058 13.5307C58.3421 13.4457 58.165 13.4315 57.8816 13.4811C57.747 13.5023 57.5982 13.5307 57.4353 13.559C57.2724 13.5873 57.1023 13.6228 56.9111 13.6653L56.904 13.6582ZM56.1318 12.6735C56.146 12.6027 56.1601 12.5035 56.1743 12.3901C56.1885 12.2697 56.2027 12.1563 56.2097 12.043C56.2097 11.9297 56.2097 11.8376 56.2097 11.7596C56.2027 11.6817 56.1814 11.6463 56.1531 11.6463C56.1247 11.6463 56.0822 11.6959 56.0255 11.7809C55.9689 11.8659 55.9051 11.9651 55.8343 12.0855C55.7634 12.2059 55.6997 12.3264 55.643 12.461C55.5792 12.5885 55.5367 12.7018 55.5013 12.7868L56.146 12.6735H56.1318Z" fill="white"/>
<path d="M67.8774 6.13487C67.8065 6.53159 67.6153 6.88579 67.3106 7.20458C67.006 7.52337 66.666 7.71464 66.2976 7.7784C65.9292 7.84215 65.6388 7.75714 65.4263 7.53045C65.2137 7.30376 65.15 6.99206 65.2208 6.59534C65.2562 6.39699 65.32 6.2128 65.4192 6.02861C65.5184 5.84442 65.6388 5.68149 65.7876 5.53272C65.9292 5.38395 66.0922 5.25644 66.2622 5.15726C66.4393 5.05808 66.6164 4.99433 66.8006 4.9589C66.9848 4.93057 67.1548 4.93057 67.2965 4.98016C67.4452 5.02266 67.5657 5.10059 67.6649 5.20685C67.764 5.31311 67.8349 5.44771 67.8703 5.61065C67.9057 5.77358 67.9057 5.95069 67.8703 6.14196L67.8774 6.13487ZM63.8748 15.6418C64.144 14.1471 64.4982 12.6452 64.9375 11.1363C64.98 10.9875 65.065 10.8529 65.1925 10.7254C65.3129 10.5979 65.4546 10.52 65.6246 10.4916C65.7734 10.4633 65.8796 10.5058 65.9576 10.605C66.0355 10.7042 66.0568 10.8388 66.0284 10.9946C66.0142 11.0584 65.9717 11.2425 65.8938 11.5613C65.8159 11.873 65.7167 12.2485 65.6034 12.6877C65.49 13.1269 65.3838 13.5874 65.2704 14.0691C65.1571 14.5579 65.065 14.9971 64.9941 15.4009C64.895 15.9535 64.8666 16.3856 64.9091 16.7044C64.9516 17.0232 65.0366 17.2641 65.1641 17.4199C65.2917 17.5758 65.4404 17.675 65.6104 17.7033C65.7805 17.7316 65.9434 17.7387 66.1134 17.7033C66.3826 17.6537 66.6872 17.5049 67.0202 17.2428C67.3461 16.9878 67.7003 16.6407 68.0757 16.2156C68.4512 15.7906 68.8408 15.2876 69.2446 14.7138C69.6484 14.14 70.0593 13.5024 70.4773 12.8081C70.541 12.6948 70.626 12.6027 70.7252 12.5319C70.8244 12.461 70.9236 12.4114 71.0298 12.3973C71.1857 12.3689 71.3061 12.4114 71.384 12.5177C71.462 12.624 71.4903 12.7515 71.462 12.8932C71.4407 12.9994 71.4053 13.0844 71.3557 13.1694C71.1928 13.4316 70.9944 13.7433 70.7606 14.1187C70.5269 14.4942 70.2577 14.8767 69.9743 15.2805C69.6838 15.6843 69.3721 16.081 69.0392 16.4848C68.7062 16.8886 68.3662 17.257 68.012 17.597C67.6578 17.9371 67.3036 18.2204 66.9352 18.4542C66.5739 18.688 66.2197 18.8368 65.8796 18.8934C65.4404 18.9714 65.0721 18.9359 64.7745 18.7943C64.477 18.6526 64.2432 18.44 64.0803 18.1496C63.9103 17.8591 63.8111 17.4979 63.7827 17.0657C63.7544 16.6336 63.7827 16.1589 63.8748 15.6418ZM67.0627 6.27656C67.091 6.13487 67.0627 6.01444 66.9777 5.92235C66.8927 5.83026 66.7864 5.79483 66.6518 5.82317C66.5172 5.84442 66.3897 5.92235 66.2693 6.04986C66.1488 6.17738 66.078 6.31198 66.0568 6.45366C66.0284 6.59534 66.0568 6.71577 66.1347 6.80078C66.2126 6.88579 66.3189 6.92121 66.4605 6.89288C66.5951 6.87163 66.7227 6.7937 66.8502 6.67327C66.9706 6.55284 67.0414 6.41824 67.0698 6.27656H67.0627Z" fill="white"/>
<path d="M73.0841 15.6984C73.3037 15.3301 73.5517 14.9263 73.8279 14.48C74.1042 14.0337 74.4018 13.5803 74.7064 13.1198C75.0181 12.6593 75.3369 12.1989 75.6698 11.7384C76.0028 11.2779 76.3428 10.8387 76.697 10.4207C77.0442 10.0099 77.3771 9.69816 77.6959 9.48563C78.0147 9.27311 78.2981 9.14559 78.5531 9.10309C79.0561 9.01808 79.3961 9.14559 79.5732 9.4998C79.7432 9.85401 79.7786 10.3145 79.6795 10.8954C79.6582 11.03 79.6157 11.1929 79.5661 11.3913C79.5165 11.5825 79.4669 11.7951 79.4103 12.0147C79.3536 12.2343 79.304 12.461 79.2473 12.6806C79.1906 12.9073 79.1481 13.1198 79.1127 13.3111C79.0702 13.559 79.0348 13.7999 79.0206 14.0195C79.0065 14.2462 79.0206 14.4375 79.049 14.5933C79.0844 14.7562 79.1623 14.8696 79.2686 14.9475C79.3748 15.0254 79.5307 15.0467 79.7361 15.0113C80.1045 14.9475 80.4941 14.735 80.8979 14.3666C81.3017 13.9982 81.6914 13.5803 82.0668 13.1127C82.4423 12.6381 82.7752 12.1705 83.0728 11.6959C83.3703 11.2212 83.597 10.8458 83.7528 10.5553C83.8237 10.4349 83.9087 10.3357 84.015 10.2578C84.1212 10.1799 84.2204 10.1303 84.3337 10.1161C84.4967 10.0878 84.6242 10.1303 84.7021 10.2436C84.78 10.357 84.8084 10.4845 84.78 10.6262C84.7659 10.697 84.7375 10.7749 84.695 10.8529C84.6384 10.945 84.5321 11.1292 84.3692 11.4054C84.2062 11.6817 84.0008 12.0076 83.7458 12.376C83.4978 12.7443 83.2074 13.1411 82.8886 13.559C82.5698 13.9841 82.2227 14.3737 81.8614 14.735C81.5001 15.0963 81.1175 15.4151 80.7279 15.6843C80.3312 15.9535 79.9416 16.1235 79.5519 16.1872C79.1127 16.2652 78.7727 16.2368 78.5318 16.1022C78.291 15.9676 78.1209 15.7693 78.0147 15.5001C77.9084 15.2309 77.8659 14.9263 77.873 14.5721C77.8872 14.2249 77.9226 13.8707 77.9863 13.5023C78.0147 13.3465 78.0572 13.1694 78.1068 12.971C78.1564 12.7727 78.213 12.5602 78.2768 12.3405C78.3406 12.1209 78.3972 11.9013 78.4539 11.6746C78.5106 11.455 78.5531 11.2496 78.5885 11.0512C78.6452 10.7183 78.6381 10.5058 78.5672 10.3995C78.4893 10.3003 78.4114 10.2507 78.3335 10.2649C78.1776 10.2932 77.9793 10.4207 77.7455 10.6474C77.5117 10.8741 77.2567 11.1575 76.9804 11.5117C76.7041 11.8588 76.4207 12.2485 76.1161 12.6735C75.8186 13.0985 75.5352 13.5236 75.266 13.9416C74.9968 14.3595 74.7489 14.7562 74.5151 15.1317C74.2813 15.5072 74.0971 15.8189 73.9555 16.0668C73.6792 16.5344 73.4312 16.8602 73.2116 17.0444C72.992 17.2286 72.7795 17.3349 72.5741 17.3703C72.2907 17.4199 72.0782 17.3703 71.9436 17.2144C71.809 17.0657 71.7665 16.8248 71.8302 16.4919C71.8444 16.421 71.8798 16.2723 71.9365 16.0597C71.9932 15.8472 72.064 15.5851 72.149 15.2876C72.234 14.99 72.319 14.6641 72.4111 14.317C72.5032 13.9699 72.5953 13.6228 72.6803 13.2827C72.7724 12.9427 72.8503 12.6239 72.9212 12.3335C72.992 12.043 73.0487 11.7951 73.0841 11.5967C73.1337 11.3346 73.1691 11.0937 73.1904 10.8529C73.2116 10.612 73.2045 10.4774 73.155 10.4349C73.0629 10.4845 72.8716 10.7041 72.5811 11.1008C72.2907 11.4975 71.894 12.1776 71.3768 13.134C71.306 13.2544 71.221 13.3607 71.1076 13.4386C71.0014 13.5165 70.888 13.5661 70.7818 13.5874C70.6188 13.6157 70.4984 13.5803 70.4205 13.474C70.3425 13.3748 70.3213 13.2402 70.3496 13.0844C70.3638 13.0135 70.3921 12.9285 70.4346 12.8435C71.0722 11.6605 71.6319 10.7749 72.1136 10.187C72.5953 9.59898 73.0204 9.27311 73.4029 9.20227C73.6296 9.16685 73.8067 9.1881 73.9413 9.28019C74.0759 9.37229 74.168 9.50689 74.2317 9.69107C74.2884 9.87526 74.3168 10.0807 74.3168 10.3074C74.3168 10.5412 74.2955 10.7749 74.253 11.0229C74.2176 11.2071 74.1538 11.5046 74.0617 11.9013C73.9696 12.298 73.8563 12.7302 73.7359 13.1836C73.6154 13.644 73.495 14.0974 73.3816 14.5437C73.2683 14.9971 73.1691 15.3726 73.0841 15.6772V15.6984Z" fill="white"/>
<path d="M87.9185 15.9677C90.2067 13.1128 91.8573 10.7892 92.8703 8.98274C92.9412 8.86231 93.0191 8.76313 93.1112 8.69229C93.2033 8.62145 93.3025 8.57894 93.4087 8.55769C93.5717 8.52935 93.6992 8.56477 93.7842 8.66395C93.8692 8.76313 93.8975 8.89065 93.8692 9.0465C93.855 9.11734 93.8267 9.19526 93.7842 9.27319C93.1679 10.3854 92.3532 11.6393 91.3331 13.0561C90.313 14.4659 89.0591 16.0811 87.5572 17.8946C87.4368 18.5463 87.3234 19.1981 87.2172 19.8498C87.1109 20.5016 86.9834 21.2171 86.8488 21.9892C86.7071 22.7685 86.5513 23.5407 86.3812 24.3058C86.2112 25.0709 86.02 25.8076 85.8074 26.516C85.5949 27.2173 85.3611 27.8762 85.1061 28.4854C84.8511 29.0946 84.5606 29.6401 84.2489 30.1077C83.9301 30.5752 83.583 30.9649 83.2076 31.2695C82.825 31.5741 82.407 31.7583 81.9537 31.8433C81.3019 31.9566 80.8485 31.7795 80.5935 31.312C80.3385 30.8444 80.296 30.1219 80.4731 29.1513C80.5652 28.6342 80.7139 28.0674 80.9123 27.444C81.1106 26.8206 81.3586 26.176 81.649 25.503C81.9395 24.83 82.2724 24.1428 82.6337 23.4415C83.0021 22.7402 83.3917 22.053 83.8026 21.38C84.2135 20.707 84.6527 20.0553 85.1132 19.4248C85.5737 18.7943 86.0412 18.2134 86.5229 17.675C86.6646 16.9453 86.7992 16.2298 86.9338 15.5143C87.0684 14.7988 87.1959 14.14 87.3234 13.5378C86.9622 13.9842 86.5584 14.3525 86.1121 14.6501C85.6658 14.9476 85.2407 15.1318 84.844 15.2026C84.5039 15.2593 84.2064 15.2451 83.9514 15.153C83.6964 15.0609 83.498 14.9051 83.3492 14.6855C83.2005 14.4659 83.1013 14.1967 83.0588 13.8708C83.0163 13.5449 83.0234 13.1836 83.1013 12.7798C83.2501 11.9723 83.5051 11.2355 83.8735 10.5767C84.2418 9.91785 84.6669 9.34403 85.1415 8.86231C85.6162 8.38059 86.112 7.99096 86.6292 7.70051C87.1463 7.41006 87.6351 7.22587 88.0814 7.14794C88.3861 7.09835 88.6553 7.09127 88.889 7.12669C89.1299 7.16211 89.3283 7.21879 89.4912 7.29671C89.6541 7.36755 89.7746 7.44548 89.8525 7.5234C89.9304 7.60133 89.98 7.64383 89.9871 7.65092C90.0721 7.75718 90.1004 7.8847 90.0721 8.04055C90.0438 8.1964 89.9658 8.34517 89.8383 8.47976C89.7108 8.61436 89.5691 8.69937 89.4274 8.72063C89.2928 8.74188 89.1724 8.71354 89.0661 8.62145C89.0307 8.60019 88.9882 8.56477 88.9386 8.51519C88.882 8.47268 88.8111 8.42309 88.719 8.38059C88.6269 8.33808 88.5136 8.30266 88.379 8.28849C88.2444 8.27432 88.0814 8.28141 87.8831 8.31683C87.5926 8.36642 87.2597 8.49393 86.8842 8.69229C86.5088 8.89065 86.1404 9.16693 85.7862 9.52113C85.432 9.87534 85.1061 10.3004 84.8157 10.8105C84.5252 11.3205 84.3198 11.9014 84.1993 12.5673C84.1072 13.0632 84.1427 13.4458 84.2914 13.715C84.4402 13.9842 84.7306 14.0833 85.1557 14.0125C85.3611 13.9771 85.5878 13.8779 85.8429 13.715C86.0979 13.552 86.3529 13.3182 86.6079 13.0278C86.863 12.7373 87.118 12.376 87.3447 11.951C87.5785 11.533 87.7768 11.0442 87.9398 10.4917C87.9823 10.3429 88.0673 10.2083 88.1948 10.095C88.3223 9.9816 88.4569 9.90368 88.5986 9.88243C88.7615 9.85409 88.882 9.89659 88.9528 10.0029C89.0236 10.1091 89.0449 10.2437 89.0166 10.3996C89.0166 10.4067 88.9811 10.5696 88.9174 10.8742C88.8536 11.1788 88.7686 11.5897 88.6694 12.0998C88.5703 12.6098 88.4498 13.1978 88.3152 13.8708C88.1806 14.5438 88.0389 15.2522 87.8973 15.996L87.9185 15.9677ZM86.1971 19.5594C85.6162 20.3103 85.0707 21.1179 84.5606 21.9751C84.0506 22.8323 83.5901 23.6824 83.1792 24.5395C82.7683 25.3896 82.4283 26.2114 82.152 26.9977C81.8757 27.7841 81.6774 28.4783 81.5711 29.0805C81.5003 29.463 81.479 29.7606 81.5003 29.9802C81.5215 30.1998 81.5711 30.3627 81.642 30.469C81.7128 30.5752 81.7978 30.639 81.9041 30.6673C82.0103 30.6886 82.1095 30.6886 82.2087 30.6744C82.5133 30.6248 82.7967 30.4477 83.0659 30.1502C83.3351 29.8527 83.5901 29.4772 83.8239 29.0167C84.0576 28.5563 84.2702 28.0462 84.4685 27.4653C84.6669 26.8915 84.844 26.2964 84.9998 25.6943C85.1557 25.0921 85.2974 24.4899 85.4249 23.8949C85.5524 23.2998 85.6587 22.7543 85.7508 22.2584C85.8287 21.8121 85.9137 21.3658 85.9916 20.9195C86.0695 20.4732 86.1475 20.0198 86.2112 19.5594H86.1971Z" fill="white"/>
<path d="M95.5976 13.6322C95.5976 13.6322 102.763 12.0174 105.314 3.09241C105.314 3.09241 97.9436 4.50773 95.5976 13.6322Z" fill="#01CC74"/>
<path d="M95.5976 13.6322C95.5976 13.6322 102.763 12.0174 105.314 3.09241C105.314 3.09241 97.9436 4.50773 95.5976 13.6322Z" fill="black" fill-opacity="0.2"/>
<path d="M97.3075 14.7933C97.3075 14.7933 107.371 18.3024 115.33 8.53901C115.33 8.53901 109.175 6.93379 97.3075 14.7933Z" fill="#01CC74"/>
<path d="M13.2112 63.7399C13.2112 63.7399 10.5353 56.8995 1.32788 55.7223C1.32788 55.7223 3.83739 62.7953 13.2112 63.7399Z" fill="#01CC74"/>
<path d="M13.2112 63.7399C13.2112 63.7399 10.5353 56.8995 1.32788 55.7223C1.32788 55.7223 3.83739 62.7953 13.2112 63.7399Z" fill="black" fill-opacity="0.2"/>
<path d="M14.1014 61.8745C14.1014 61.8745 16.0542 51.3968 5.20337 45C5.20337 45 4.54372 51.3266 14.1014 61.8745Z" fill="#01CC74"/>
</svg>
