<svg width="144" height="49" viewBox="0 0 144 49" fill="none" xmlns="http://www.w3.org/2000/svg">
<path fill-rule="evenodd" clip-rule="evenodd" d="M128.18 2.01822C128.18 1.31606 128.773 0.739929 129.495 0.739929H139.186C139.908 0.739929 140.5 1.31606 140.5 2.01822V6.64527C140.5 7.34743 139.908 7.92356 139.186 7.92356H138.177C137.455 7.92356 136.353 8.20262 135.715 8.5447L132.197 10.4441C131.568 10.7862 131.3 10.5431 131.596 9.90401L132.003 9.03981C132.299 8.40066 131.957 7.87855 131.235 7.87855H129.485C128.764 7.87855 128.171 7.30242 128.171 6.60026V2.01822" fill="#FD810B"/>
<path fill-rule="evenodd" clip-rule="evenodd" d="M128.189 14.054C128.263 14.054 128.328 14.0449 128.383 14.0179C128.429 13.9909 128.457 13.9459 128.457 13.8559C128.457 13.8109 128.448 13.7749 128.429 13.7569C128.411 13.7299 128.383 13.7119 128.355 13.7029C128.328 13.6939 128.291 13.6849 128.254 13.6759C128.217 13.6759 128.18 13.6669 128.152 13.6669H127.92V14.054H128.189ZM128.189 13.3968C128.392 13.3968 128.55 13.4418 128.652 13.5228C128.753 13.6038 128.809 13.7299 128.809 13.8829C128.809 14.0179 128.772 14.117 128.698 14.189C128.624 14.261 128.531 14.306 128.42 14.315L128.818 14.9542H128.429L128.05 14.324H127.92V14.9542H127.569V13.3968H128.189ZM127.189 14.5761C127.245 14.7021 127.31 14.8101 127.402 14.9091C127.495 14.9992 127.606 15.0802 127.726 15.1342C127.856 15.1882 127.994 15.2152 128.143 15.2152C128.291 15.2152 128.429 15.1882 128.559 15.1342C128.689 15.0802 128.8 15.0082 128.883 14.9091C128.976 14.8191 129.05 14.7021 129.096 14.5761C129.151 14.45 129.17 14.315 129.17 14.18C129.17 14.0359 129.142 13.9099 129.096 13.7839C129.04 13.6579 128.976 13.5498 128.883 13.4508C128.79 13.3608 128.679 13.2798 128.55 13.2258C128.42 13.1718 128.281 13.1447 128.133 13.1447C127.985 13.1447 127.846 13.1718 127.717 13.2258C127.587 13.2798 127.476 13.3518 127.384 13.4508C127.291 13.5408 127.217 13.6579 127.171 13.7839C127.115 13.9099 127.097 14.045 127.097 14.18C127.106 14.324 127.134 14.45 127.189 14.5761ZM126.773 13.6129C126.847 13.4328 126.958 13.2798 127.087 13.1537C127.217 13.0187 127.374 12.9197 127.559 12.8477C127.735 12.7757 127.93 12.7307 128.143 12.7307C128.355 12.7307 128.541 12.7667 128.726 12.8387C128.902 12.9107 129.068 13.0187 129.198 13.1447C129.337 13.2798 129.438 13.4328 129.512 13.6038C129.586 13.7749 129.633 13.9639 129.633 14.171C129.633 14.378 129.596 14.5581 129.522 14.7381C129.448 14.9181 129.337 15.0622 129.207 15.1972C129.068 15.3232 128.911 15.4313 128.735 15.5033C128.559 15.5753 128.365 15.6113 128.152 15.6113C127.939 15.6113 127.754 15.5753 127.569 15.5033C127.384 15.4313 127.226 15.3322 127.097 15.1972C126.958 15.0712 126.856 14.9181 126.773 14.7381C126.699 14.5671 126.652 14.378 126.652 14.171C126.662 13.9819 126.699 13.7929 126.773 13.6129Z" fill="white"/>
<path fill-rule="evenodd" clip-rule="evenodd" d="M123.283 9.84999H121.145C120.988 9.84999 120.932 9.75097 120.932 9.64294L120.951 9.37288C120.988 8.82376 121.525 8.41867 122.228 8.41867C122.932 8.41867 123.459 8.81476 123.506 9.35488L123.524 9.62494C123.524 9.75097 123.478 9.84999 123.283 9.84999ZM122.145 6.24017C119.831 6.24017 118.183 7.86054 118.183 9.71496V12.1725C118.183 14.234 119.757 15.6653 122.145 15.6653C123.441 15.6653 124.376 15.2242 125.042 14.5941C125.357 14.288 125.607 13.9279 125.829 13.5678C125.949 13.3788 125.884 13.1627 125.773 13.1087L123.829 12.1545C123.709 12.1005 123.589 12.1365 123.533 12.3075C123.265 12.9737 122.811 13.2798 122.145 13.2798C121.423 13.2798 120.905 12.8027 120.905 12.1905V11.7674C120.905 11.6324 120.96 11.5604 121.136 11.5604H125.866C125.986 11.5604 126.06 11.5064 126.06 11.3713V9.71496C126.069 7.87854 124.44 6.24017 122.145 6.24017Z" fill="white"/>
<path fill-rule="evenodd" clip-rule="evenodd" d="M113.676 8.58968C114.287 8.58968 114.731 8.96777 115.064 9.73294C115.12 9.86797 115.222 9.90398 115.361 9.84996L117.286 9.01278C117.406 8.95876 117.443 8.84174 117.388 8.6887C117.212 8.29261 117.017 7.92353 116.758 7.61746C116.11 6.78027 115.148 6.30316 113.657 6.30316C111.223 6.30316 109.751 7.73449 109.751 9.79595V12.1185C109.751 14.1799 111.223 15.5933 113.657 15.5933C115.027 15.5933 115.934 15.1972 116.582 14.486C116.916 14.1259 117.175 13.6848 117.388 13.1897C117.443 13.0367 117.406 12.9377 117.286 12.8837L115.361 12.0285C115.222 11.9744 115.129 12.0105 115.064 12.1455C114.731 12.9107 114.278 13.3067 113.676 13.3067C112.954 13.3067 112.482 12.8116 112.482 12.1995V9.69693C112.473 9.08479 112.945 8.58968 113.676 8.58968Z" fill="white"/>
<path fill-rule="evenodd" clip-rule="evenodd" d="M108.021 6.51025H105.688C105.549 6.51025 105.494 6.56427 105.494 6.6993V15.1882C105.494 15.3232 105.549 15.3773 105.688 15.3773H108.021C108.132 15.3773 108.196 15.3232 108.196 15.1882V6.6993C108.196 6.56427 108.113 6.51025 108.021 6.51025Z" fill="white"/>
<path fill-rule="evenodd" clip-rule="evenodd" d="M106.836 2.76538C106.077 2.76538 105.457 3.36852 105.457 4.10668C105.457 4.84485 106.077 5.44799 106.836 5.44799C107.595 5.44799 108.215 4.84485 108.215 4.10668C108.215 3.36852 107.604 2.76538 106.836 2.76538Z" fill="white"/>
<path fill-rule="evenodd" clip-rule="evenodd" d="M104.262 6.51025H101.772C101.67 6.51025 101.596 6.56427 101.559 6.66329L100.087 10.7682C100.013 10.9753 99.8931 11.4704 99.8561 11.7224H99.8005C99.7635 11.4704 99.6617 11.0203 99.5691 10.7682L98.0419 6.64528C98.0049 6.54626 97.9493 6.51025 97.8475 6.51025H95.3577C95.1818 6.51025 95.1263 6.62728 95.1818 6.78032L98.6898 15.2512C98.7268 15.3413 98.8009 15.3863 98.8842 15.3863H100.708C100.809 15.3863 100.883 15.3503 100.921 15.2512L104.447 6.78032C104.503 6.62728 104.447 6.51025 104.262 6.51025Z" fill="white"/>
<path fill-rule="evenodd" clip-rule="evenodd" d="M91.4061 12.0825C91.4061 12.7126 90.8785 13.1897 90.1936 13.1897C89.5086 13.1897 88.9995 12.7126 88.9995 12.0825V9.79595C88.9995 9.18382 89.4901 8.72471 90.1936 8.72471C90.897 8.72471 91.4061 9.18382 91.4061 9.79595V12.0825ZM93.9145 3.3595H91.6005C91.5079 3.3595 91.4061 3.41351 91.4061 3.54854V6.20414C91.4061 6.49221 91.4616 7.04133 91.4616 7.04133C91.0729 6.69925 90.425 6.51021 89.9529 6.51021C87.8148 6.51021 86.269 7.90553 86.269 9.985V11.9114C86.269 14.1259 87.6019 15.3862 89.9992 15.3862C90.5453 15.3862 91.1932 15.2152 91.6097 14.8731C91.7301 14.7741 91.8689 14.8101 91.8689 14.9631V15.2512C91.8689 15.3232 91.9244 15.3862 92.0262 15.3862H93.9237C94.044 15.3862 94.1181 15.3322 94.1181 15.1972V3.54854C94.1088 3.42251 94.0348 3.3595 93.9145 3.3595Z" fill="white"/>
<path fill-rule="evenodd" clip-rule="evenodd" d="M81.1689 11.2813H79.9749C79.7805 11.2813 79.6972 11.1643 79.7435 11.0562L80.1508 9.50789C80.3452 8.80573 80.5025 7.95954 80.5395 7.46443H80.6228C80.6599 7.95954 80.7802 8.79673 80.9746 9.50789L81.3911 11.0562C81.4281 11.1643 81.3448 11.2813 81.1689 11.2813ZM81.641 3.49453C81.604 3.39551 81.5392 3.3595 81.4466 3.3595H79.6972C79.5769 3.3595 79.5399 3.39551 79.5029 3.49453L75.6431 15.1342C75.5876 15.2872 75.6616 15.3862 75.8375 15.3862H78.3088C78.4107 15.3862 78.4477 15.3502 78.4847 15.2512L79.0493 13.5138C79.0863 13.4148 79.1234 13.3968 79.2622 13.3968H81.8539C81.9927 13.3968 82.0297 13.4148 82.0668 13.5138L82.6129 15.2512C82.6499 15.3412 82.6962 15.3862 82.8072 15.3862H85.2971C85.4915 15.3862 85.5563 15.2872 85.4915 15.1342L81.641 3.49453Z" fill="white"/>
<path fill-rule="evenodd" clip-rule="evenodd" d="M68.6 9.84999H66.4619C66.3046 9.84999 66.249 9.75097 66.249 9.64294L66.2675 9.37288C66.3046 8.82376 66.8414 8.41867 67.5448 8.41867C68.2483 8.41867 68.7851 8.81476 68.8222 9.35488L68.8407 9.62494C68.8314 9.75097 68.7944 9.84999 68.6 9.84999ZM67.4615 6.24017C65.1476 6.24017 63.5 7.86054 63.5 9.71496V12.1725C63.5 14.234 65.0643 15.6653 67.4615 15.6653C68.7574 15.6653 69.7015 15.2242 70.3679 14.5941C70.6826 14.288 70.9418 13.9279 71.1547 13.5678C71.275 13.3788 71.2102 13.1627 71.0991 13.1087L69.1554 12.1545C69.0351 12.1005 68.924 12.1365 68.8592 12.3075C68.5815 12.9737 68.1372 13.2798 67.4708 13.2798C66.7488 13.2798 66.2305 12.8027 66.2305 12.1905V11.7674C66.2305 11.6324 66.286 11.5604 66.4712 11.5604H71.2009C71.3213 11.5604 71.3953 11.5064 71.3953 11.3713V9.71496C71.3861 7.87854 69.757 6.24017 67.4615 6.24017Z" fill="white"/>
<path fill-rule="evenodd" clip-rule="evenodd" d="M62.3232 6.54626C62.1843 6.52826 62.027 6.51025 61.8141 6.51025C61.0736 6.51025 60.3609 6.85233 60.0462 7.23042C59.9444 7.32044 59.787 7.31144 59.787 7.1404V6.6993C59.787 6.56427 59.7315 6.51025 59.5927 6.51025H57.7322C57.6119 6.51025 57.5378 6.56427 57.5378 6.6993V15.1882C57.5378 15.3232 57.6119 15.3773 57.7322 15.3773H60.0462C60.1665 15.3773 60.2406 15.3232 60.2406 15.1882V10.1291C60.2406 9.46292 60.7311 8.98581 61.4161 8.98581C61.7123 8.98581 61.9622 9.02182 62.2028 9.08484C62.3787 9.12085 62.499 9.06683 62.499 8.89579V6.7353C62.499 6.64528 62.4342 6.56427 62.3232 6.54626Z" fill="white"/>
<path fill-rule="evenodd" clip-rule="evenodd" d="M51.9199 13.3157H51.1979C50.7814 13.3157 50.55 13.0637 50.55 12.5326C50.55 12.1545 50.8277 11.8844 51.2164 11.8844H52.8825C53.0028 11.8844 53.0398 12.0915 53.0398 12.1545C52.9936 12.8566 52.4475 13.3157 51.9199 13.3157ZM51.8643 6.30316C50.6518 6.30316 49.7447 6.68125 49.0783 7.27538C48.7081 7.59946 48.4119 7.97754 48.1805 8.40064C48.0602 8.58968 48.1249 8.80573 48.236 8.85974L50.1798 9.81396C50.3001 9.86797 50.4112 9.83196 50.476 9.66092C50.7536 8.99477 51.1979 8.6887 51.8643 8.6887C52.5863 8.6887 53.0398 9.16581 53.0398 9.77795V9.87697C53.0398 10.012 52.9843 10.084 52.8455 10.084H51.1146C49.393 10.084 47.9954 11.0022 47.9954 12.6046V12.7936C47.9954 14.414 49.2542 15.3862 50.9388 15.3862H51.6237C52.1513 15.3862 52.7437 15.2152 53.1509 14.8911C53.225 14.8371 53.3268 14.8551 53.3453 14.9091L53.4008 15.2332C53.4193 15.3322 53.5026 15.3862 53.6137 15.3862H55.539C55.6593 15.3862 55.7333 15.3322 55.7333 15.1972V9.79595C55.7426 7.73449 54.2524 6.30316 51.8643 6.30316Z" fill="white"/>
<path fill-rule="evenodd" clip-rule="evenodd" d="M47.2083 6.51025H44.8387C44.7184 6.51025 44.6444 6.56427 44.6259 6.66329L43.7465 10.2461C43.6447 10.6512 43.5707 11.2183 43.5522 11.6234H43.4874C43.4689 11.2183 43.3856 10.7052 43.2745 10.2461L42.3859 6.66329C42.3674 6.56427 42.2841 6.51025 42.173 6.51025H40.2293C40.1089 6.51025 40.0534 6.56427 40.0349 6.66329L39.1741 10.2281C39.0723 10.6242 38.9982 11.1463 38.9612 11.5244H38.9057C38.8872 11.1463 38.8131 10.6242 38.7113 10.2281L37.795 6.66329C37.7765 6.56427 37.7209 6.51025 37.6006 6.51025H35.1663C34.9904 6.51025 34.9256 6.60928 34.9904 6.76231L37.7579 15.2512C37.795 15.3413 37.8598 15.3863 37.9523 15.3863H39.6832C39.8035 15.3863 39.859 15.3503 39.8776 15.2512L40.9605 11.2993C41.0808 10.8582 41.1734 10.1201 41.1734 10.1201H41.2289C41.2289 10.1201 41.3307 10.8672 41.4418 11.2993L42.497 15.2242C42.5155 15.3232 42.571 15.3773 42.6914 15.3773H44.3945C44.4963 15.3773 44.5518 15.3413 44.5888 15.2422L47.3934 6.75331C47.4489 6.62728 47.3841 6.51025 47.2083 6.51025Z" fill="white"/>
<path fill-rule="evenodd" clip-rule="evenodd" d="M33.9818 6.51026H32.6675C32.4916 6.51026 32.4361 6.45625 32.4361 6.32122V5.11495C32.4361 4.97992 32.3991 4.94391 32.2602 4.94391H31.0199C30.9459 4.94391 30.8441 4.97992 30.7885 5.04293L28.3357 7.42847V8.72476C28.3357 8.8598 28.3912 8.8958 28.5301 8.8958H29.5112C29.6871 8.8958 29.7426 8.97682 29.7426 9.10285V12.0825C29.7426 14.369 31.2143 15.5573 33.0747 15.5573H33.8985C34.0744 15.5573 34.1577 15.4853 34.1577 15.3503V13.3878C34.1577 13.2708 34.1021 13.1988 33.9633 13.1988H33.6301C32.8248 13.1988 32.4361 12.7217 32.4361 11.9025V9.10285C32.4361 8.96782 32.4916 8.8958 32.6675 8.8958H33.9818C34.1207 8.8958 34.1577 8.8598 34.1577 8.72476V6.69931C34.1577 6.56428 34.1207 6.51026 33.9818 6.51026Z" fill="white"/>
<path fill-rule="evenodd" clip-rule="evenodd" d="M28.1225 3.26949C27.7893 3.19747 27.2432 3.13446 26.7341 3.13446C23.8278 3.13446 22.7356 5.0969 22.7356 6.64526V7.12236C22.7356 7.25739 22.68 7.31141 22.5227 7.31141H22.0691C21.9488 7.31141 21.8748 7.36542 21.8748 7.50045V9.5079C21.8748 9.64293 21.9488 9.69695 22.0691 9.69695H22.5227C22.6985 9.69695 22.7356 9.75096 22.7356 9.88599V15.1882C22.7356 15.3232 22.7911 15.3772 22.9299 15.3772H25.2439C25.3828 15.3772 25.4383 15.3232 25.4383 15.1882V9.88599C25.4383 9.75096 25.4938 9.69695 25.6512 9.69695H26.9192C27.0581 9.69695 27.1136 9.64293 27.1136 9.5079V7.50045C27.1136 7.36542 27.0581 7.31141 26.9192 7.31141H25.6419C25.4846 7.31141 25.429 7.25739 25.429 7.12236V6.60925C25.429 5.9431 25.9196 5.52 26.6601 5.52C26.9192 5.52 27.1877 5.55601 27.4006 5.61902C27.5394 5.65503 27.6134 5.61902 27.6597 5.502L28.2706 3.53955C28.3169 3.40452 28.2799 3.3055 28.1225 3.26949Z" fill="white"/>
<path fill-rule="evenodd" clip-rule="evenodd" d="M17.9788 12.1905C17.9788 12.8026 17.4697 13.2977 16.7848 13.2977C16.0628 13.2977 15.5445 12.8026 15.5445 12.1905V9.69693C15.5445 9.1028 16.0536 8.58968 16.7848 8.58968C17.4697 8.58968 17.9788 9.08479 17.9788 9.69693V12.1905ZM16.7848 6.30316C14.3875 6.30316 12.8232 7.73449 12.8232 9.79595V12.1185C12.8232 14.1799 14.3875 15.5933 16.7848 15.5933C19.1821 15.5933 20.7093 14.198 20.7093 12.1185V9.79595C20.7093 7.70748 19.1358 6.30316 16.7848 6.30316Z" fill="white"/>
<path fill-rule="evenodd" clip-rule="evenodd" d="M8.61137 8.20261C7.52843 7.80652 6.37143 7.51845 6.37143 6.66326C6.37143 5.9791 6.89902 5.52 7.58396 5.52H7.88015C8.54658 5.52 9.00012 5.82607 9.2778 6.49222C9.33333 6.66326 9.45366 6.69927 9.57399 6.64526L11.5177 5.69104C11.6381 5.63703 11.6936 5.42098 11.5733 5.23194C11.4159 4.94387 11.2215 4.66481 10.9809 4.41275C10.296 3.66558 9.31482 3.13446 7.88015 3.13446H7.58396C5.13114 3.13446 3.62242 4.54778 3.62242 6.69927C3.62242 8.85075 5.0756 9.71495 6.88051 10.4171C8.05601 10.8762 9.07417 11.1193 9.07417 12.0735C9.07417 12.8567 8.44476 13.1987 7.74131 13.1987H7.25075C6.58432 13.1987 6.13078 12.8927 5.86236 12.2265C5.80682 12.0555 5.68649 12.0195 5.56616 12.0735L3.62242 13.0277C3.50209 13.0817 3.44655 13.2978 3.56688 13.4868C3.74274 13.7929 3.95563 14.0989 4.2148 14.369C4.88123 15.0892 5.86236 15.5843 7.25075 15.5843H7.88015C10.37 15.5843 11.8232 14.189 11.8232 12.0375C11.8232 9.81397 10.4718 8.91377 8.61137 8.20261Z" fill="white"/>
<g clip-path="url(#clip0_91_12760)">
<path d="M43.7145 41.1409L38.9053 40.832L37.0902 36.2994L35.2752 40.832L30.4763 41.1409L34.1582 44.2604L32.9481 48.986L37.0902 46.3761L41.2323 48.986L40.0223 44.2604L43.7145 41.1409Z" fill="url(#paint0_linear_91_12760)"/>
</g>
<g clip-path="url(#clip1_91_12760)">
<path d="M60.8136 41.1409L56.0044 40.832L54.1893 36.2994L52.3743 40.832L47.5754 41.1409L51.2573 44.2604L50.0473 48.986L54.1893 46.3761L58.3314 48.986L57.1214 44.2604L60.8136 41.1409Z" fill="url(#paint1_linear_91_12760)"/>
</g>
<g clip-path="url(#clip2_91_12760)">
<path d="M77.913 41.1409L73.1038 40.832L71.2887 36.2994L69.4736 40.832L64.6748 41.1409L68.3567 44.2604L67.1466 48.986L71.2887 46.3761L75.4308 48.986L74.2208 44.2604L77.913 41.1409Z" fill="url(#paint2_linear_91_12760)"/>
</g>
<g clip-path="url(#clip3_91_12760)">
<path d="M95.0123 41.1409L90.2032 40.832L88.3881 36.2994L86.573 40.832L81.7742 41.1409L85.456 44.2604L84.246 48.986L88.3881 46.3761L92.5302 48.986L91.3201 44.2604L95.0123 41.1409Z" fill="url(#paint3_linear_91_12760)"/>
</g>
<g clip-path="url(#clip4_91_12760)">
<path d="M112.111 41.1409L107.302 40.832L105.487 36.2994L103.672 40.832L98.8733 41.1409L102.555 44.2604L101.345 48.986L105.487 46.3761L109.629 48.986L108.419 44.2604L112.111 41.1409Z" fill="url(#paint4_linear_91_12760)"/>
</g>
<defs>
<linearGradient id="paint0_linear_91_12760" x1="37.0851" y1="36.2341" x2="37.1107" y2="48.5371" gradientUnits="userSpaceOnUse">
<stop stop-color="#FFD400"/>
<stop offset="1" stop-color="#FDBF00"/>
</linearGradient>
<linearGradient id="paint1_linear_91_12760" x1="54.1842" y1="36.2341" x2="54.2098" y2="48.5371" gradientUnits="userSpaceOnUse">
<stop stop-color="#FFD400"/>
<stop offset="1" stop-color="#FDBF00"/>
</linearGradient>
<linearGradient id="paint2_linear_91_12760" x1="71.2835" y1="36.2341" x2="71.3092" y2="48.5371" gradientUnits="userSpaceOnUse">
<stop stop-color="#FFD400"/>
<stop offset="1" stop-color="#FDBF00"/>
</linearGradient>
<linearGradient id="paint3_linear_91_12760" x1="88.3829" y1="36.2341" x2="88.4085" y2="48.5371" gradientUnits="userSpaceOnUse">
<stop stop-color="#FFD400"/>
<stop offset="1" stop-color="#FDBF00"/>
</linearGradient>
<linearGradient id="paint4_linear_91_12760" x1="105.482" y1="36.2341" x2="105.508" y2="48.5371" gradientUnits="userSpaceOnUse">
<stop stop-color="#FFD400"/>
<stop offset="1" stop-color="#FDBF00"/>
</linearGradient>
<clipPath id="clip0_91_12760">
<rect width="13.2382" height="12.6866" fill="white" transform="translate(31.1824 36.0533)"/>
</clipPath>
<clipPath id="clip1_91_12760">
<rect width="13.2382" height="12.6866" fill="white" transform="translate(48.2815 36.0533)"/>
</clipPath>
<clipPath id="clip2_91_12760">
<rect width="13.2382" height="12.6866" fill="white" transform="translate(65.3809 36.0533)"/>
</clipPath>
<clipPath id="clip3_91_12760">
<rect width="13.2382" height="12.6866" fill="white" transform="translate(82.4802 36.0533)"/>
</clipPath>
<clipPath id="clip4_91_12760">
<rect width="13.2382" height="12.6866" fill="white" transform="translate(99.5793 36.0533)"/>
</clipPath>
</defs>
</svg>
