<svg xmlns="http://www.w3.org/2000/svg" viewBox="0 0 224 36" fill="#8f8f8f"><path d="M223.403 34.901v-5.166h-9.228V6.822h-6.034V34.9h15.262 0zm-24.884-10.017h-4.101l2.169-10.253 1.932 10.253zm8.045 10.017l-6.546-28.078h-6.744l-6.586 28.078h5.64l1.183-5.561h5.836l1.183 5.561h6.034zm-20.585 0v-5.284h-9.623v-7.02h6.625v-4.574h-6.625V11.87h9.623V6.822h-15.656V34.9h15.656zm-26.186-10.529c0 2.761-1.301 4.377-4.14 4.377h-3.55V6.507h3.55c2.839 0 4.14 1.617 4.14 4.377v13.487h0zm7.414.552V10.687c0-5.758-3.825-10.372-11.002-10.372h-11.516V34.9h11.516c7.177 0 11.002-4.141 11.002-9.977zm-25.397 9.977v-5.166h-9.228V6.822h-6.034V34.9h15.262zm-24.845-10.017h-4.14l2.169-10.253 1.971 10.253zm8.006 10.017l-6.547-28.078h-6.743l-6.586 28.078h5.639l1.184-5.561h5.836l1.183 5.561h6.034zm-20.586 0v-5.284h-9.622v-7.02h6.625v-4.574h-6.625V11.87h9.622V6.822H88.729V34.9h15.656 0zM77.727 12.58c0 2.09-1.025 3.076-2.958 3.076h-3.904V6.152h4.22c1.932 0 2.642 1.104 2.642 2.8v3.628h0zm8.794 22.518v-2.169c-.946-.828-1.459-1.932-1.459-3.549v-5.64c0-2.406-1.499-4.969-4.614-5.718 3.115-.828 4.456-2.958 4.456-5.758V8.518c0-4.969-3.392-8.203-8.991-8.203H63.451V34.9h7.414V20.783h3.983c2.129 0 3.076 1.577 3.076 3.392v5.679c0 3.234 1.144 5.284 4.141 5.284h4.456v-.039h0zM35.02 6.822v11.634H28V6.822h-6.034V34.9H28V23.661h7.02V34.94h6.034V6.822H35.02zm10.096 0V34.9h15.616v-5.284H51.11v-7.02h6.625v-4.574H51.11V11.87h9.622V6.822H45.115zM.119.315v6.349h7.493V34.9h7.414V6.665h7.414V.315H.119z"/></svg>