<svg width="353" height="308" viewBox="0 0 353 308" fill="none" xmlns="http://www.w3.org/2000/svg">
<path d="M289.954 287.486L289.954 300.73" stroke="#01CC74" stroke-width="2" stroke-linecap="square" stroke-linejoin="round"/>
<path d="M289.952 252.536C285.504 252.54 281.237 254.287 278.061 257.399C274.885 260.513 273.056 264.746 272.962 269.192C272.869 273.639 274.521 277.944 277.563 281.187C280.606 284.43 284.797 286.353 289.241 286.544L289.241 279.442L282.741 271.155C282.678 271.083 282.633 270.997 282.604 270.906C282.576 270.815 282.566 270.719 282.574 270.623C282.584 270.528 282.613 270.435 282.66 270.352C282.705 270.268 282.768 270.194 282.843 270.135C282.918 270.076 283.005 270.033 283.098 270.007C283.19 269.983 283.287 269.977 283.381 269.99C283.476 270.003 283.567 270.036 283.65 270.086C283.731 270.135 283.803 270.199 283.859 270.278L289.241 277.138L289.241 263.251C289.241 263.062 289.316 262.881 289.449 262.747C289.582 262.615 289.763 262.54 289.952 262.54C290.141 262.54 290.322 262.615 290.456 262.747C290.588 262.881 290.663 263.062 290.663 263.251L290.663 273.233L294.628 269.251C294.693 269.184 294.771 269.131 294.858 269.096C294.945 269.06 295.037 269.042 295.13 269.042C295.224 269.042 295.316 269.059 295.403 269.094C295.489 269.13 295.568 269.182 295.633 269.248C295.7 269.315 295.753 269.393 295.788 269.48C295.825 269.565 295.844 269.657 295.844 269.751C295.844 269.845 295.825 269.938 295.79 270.023C295.754 270.11 295.701 270.188 295.636 270.255L290.658 275.252L290.658 286.545C295.101 286.355 299.293 284.432 302.335 281.189C305.378 277.946 307.029 273.64 306.937 269.194C306.843 264.747 305.014 260.514 301.838 257.401C298.661 254.289 294.393 252.542 289.946 252.538L289.952 252.536Z" fill="#01CC74"/>
<path d="M100.728 143.361L100.728 152.432" stroke="#7E899A" stroke-linecap="round" stroke-linejoin="round"/>
<path d="M256.775 51.9845L256.775 61.0551" stroke="white" stroke-linecap="round" stroke-linejoin="round"/>
<path d="M261.31 56.5193L252.238 56.5193" stroke="white" stroke-linecap="round" stroke-linejoin="round"/>
<path d="M266.65 227.907L266.65 74.874L237.25 74.874L237.25 300.728L266.65 300.728L266.65 249.963" stroke="#2F3E83" stroke-linecap="round" stroke-linejoin="round"/>
<path d="M244.252 48.6541L214.263 48.6541L214.263 69.0739L244.252 69.0739L244.252 48.6541Z" stroke="#2F3E83" stroke-linecap="round" stroke-linejoin="round"/>
<path d="M129.555 249.963L129.555 300.73L237.254 300.73L237.254 74.8744L214.266 74.8744L214.266 48.6541L152.542 48.6541L152.542 74.8744L129.555 74.8744L129.555 227.908" stroke="#2F3E83" stroke-linecap="round" stroke-linejoin="round"/>
<path d="M352.404 301L40.8091 301L40.8091 307.232L352.404 307.232L352.404 301Z" fill="#2F3E83" stroke="#2F3E83" stroke-linecap="round" stroke-linejoin="round"/>
<path d="M148.278 86.0226L143.867 86.0226L143.867 104.401L148.278 104.401L148.278 86.0226Z" stroke="#2F3E83" stroke-linecap="round" stroke-linejoin="round"/>
<path d="M161.741 86.5226L161.741 103.901L148.773 103.901L148.773 86.5226L161.741 86.5226Z" stroke="#2F3E83"/>
<path d="M178.624 86.0226L174.213 86.0226L174.213 104.401L178.624 104.401L178.624 86.0226Z" stroke="#2F3E83" stroke-linecap="round" stroke-linejoin="round"/>
<path d="M192.095 86.5226L192.095 103.901L179.127 103.901L179.127 86.5226L192.095 86.5226Z" stroke="#2F3E83"/>
<path d="M208.978 86.0226L204.567 86.0226L204.567 104.401L208.978 104.401L208.978 86.0226Z" stroke="#2F3E83" stroke-linecap="round" stroke-linejoin="round"/>
<path d="M222.44 86.5226L222.44 103.901L209.473 103.901L209.473 86.5226L222.44 86.5226Z" stroke="#2F3E83"/>
<path d="M148.278 116.901L143.867 116.901L143.867 135.279L148.278 135.279L148.278 116.901Z" stroke="#2F3E83" stroke-linecap="round" stroke-linejoin="round"/>
<path d="M161.741 117.401L161.741 134.779L148.773 134.779L148.773 117.401L161.741 117.401Z" stroke="#2F3E83"/>
<path d="M178.624 116.901L174.213 116.901L174.213 135.279L178.624 135.279L178.624 116.901Z" stroke="#2F3E83" stroke-linecap="round" stroke-linejoin="round"/>
<path d="M192.095 117.401L192.095 134.779L179.127 134.779L179.127 117.401L192.095 117.401Z" stroke="#2F3E83"/>
<path d="M208.978 116.901L204.567 116.901L204.567 135.279L208.978 135.279L208.978 116.901Z" stroke="#2F3E83" stroke-linecap="round" stroke-linejoin="round"/>
<path d="M222.44 117.401L222.44 134.779L209.473 134.779L209.473 117.401L222.44 117.401Z" stroke="#2F3E83"/>
<path d="M148.278 147.777L143.867 147.777L143.867 166.155L148.278 166.155L148.278 147.777Z" stroke="#2F3E83" stroke-linecap="round" stroke-linejoin="round"/>
<path d="M161.741 148.277L161.741 165.656L148.773 165.656L148.773 148.277L161.741 148.277Z" stroke="#2F3E83"/>
<path d="M178.624 147.777L174.213 147.777L174.213 166.155L178.624 166.155L178.624 147.777Z" stroke="#2F3E83" stroke-linecap="round" stroke-linejoin="round"/>
<path d="M192.095 148.277L192.095 165.656L179.127 165.656L179.127 148.277L192.095 148.277Z" stroke="#2F3E83"/>
<path d="M208.978 147.777L204.567 147.777L204.567 166.155L208.978 166.155L208.978 147.777Z" stroke="#2F3E83" stroke-linecap="round" stroke-linejoin="round"/>
<path d="M222.44 148.277L222.44 165.656L209.473 165.656L209.473 148.277L222.44 148.277Z" stroke="#2F3E83"/>
<path d="M148.278 178.653L143.867 178.653L143.867 197.032L148.278 197.032L148.278 178.653Z" stroke="#2F3E83" stroke-linecap="round" stroke-linejoin="round"/>
<path d="M161.741 179.153L161.741 196.532L148.773 196.532L148.773 179.153L161.741 179.153Z" stroke="#2F3E83"/>
<path d="M178.624 178.653L174.213 178.653L174.213 197.032L178.624 197.032L178.624 178.653Z" stroke="#2F3E83" stroke-linecap="round" stroke-linejoin="round"/>
<path d="M192.095 179.153L192.095 196.532L179.127 196.532L179.127 179.153L192.095 179.153Z" stroke="#2F3E83"/>
<path d="M208.978 178.653L204.567 178.653L204.567 197.032L208.978 197.032L208.978 178.653Z" stroke="#2F3E83" stroke-linecap="round" stroke-linejoin="round"/>
<path d="M222.44 179.153L222.44 196.532L209.473 196.532L209.473 179.153L222.44 179.153Z" stroke="#2F3E83"/>
<path d="M148.278 209.529L143.867 209.529L143.867 227.908L148.278 227.908L148.278 209.529Z" stroke="#2F3E83" stroke-linecap="round" stroke-linejoin="round"/>
<path d="M161.741 210.029L161.741 227.408L148.773 227.408L148.773 210.029L161.741 210.029Z" stroke="#2F3E83"/>
<path d="M178.624 209.529L174.213 209.529L174.213 227.908L178.624 227.908L178.624 209.529Z" stroke="#2F3E83" stroke-linecap="round" stroke-linejoin="round"/>
<path d="M192.095 210.029L192.095 227.408L179.127 227.408L179.127 210.029L192.095 210.029Z" stroke="#2F3E83"/>
<path d="M208.978 209.529L204.567 209.529L204.567 227.908L208.978 227.908L208.978 209.529Z" stroke="#2F3E83" stroke-linecap="round" stroke-linejoin="round"/>
<path d="M222.44 210.029L222.44 227.408L209.473 227.408L209.473 210.029L222.44 210.029Z" stroke="#2F3E83"/>
<path d="M148.278 258.84L143.867 258.84L143.867 281.941L148.278 281.941L148.278 258.84Z" stroke="#2F3E83" stroke-linecap="round" stroke-linejoin="round"/>
<path d="M161.741 259.34L161.741 281.441L148.773 281.441L148.773 259.34L161.741 259.34Z" stroke="#2F3E83"/>
<path d="M174.367 258.84L169.271 258.84L169.271 300.728L174.367 300.728L174.367 258.84Z" stroke="#2F3E83" stroke-linecap="round" stroke-linejoin="round"/>
<path d="M197.039 259.34L197.039 300.228L174.873 300.228L174.873 259.34L197.039 259.34Z" stroke="#2F3E83"/>
<path d="M208.978 258.84L204.567 258.84L204.567 281.941L208.978 281.941L208.978 258.84Z" stroke="#2F3E83" stroke-linecap="round" stroke-linejoin="round"/>
<path d="M222.44 259.34L222.44 281.441L209.473 281.441L209.473 259.34L222.44 259.34Z" stroke="#2F3E83"/>
<path d="M260.35 210.029L260.35 227.408L256.939 227.408L256.939 210.029L260.35 210.029Z" stroke="#2F3E83"/>
<path d="M256.435 209.529L242.467 209.529L242.467 227.908L256.435 227.908L256.435 209.529Z" fill="#2F3E83" stroke="#2F3E83" stroke-linecap="round" stroke-linejoin="round"/>
<path d="M260.35 259L260.35 281.443L256.939 281.443L256.939 259L260.35 259Z" stroke="#2F3E83"/>
<path d="M256.435 258.5L242.467 258.5L242.467 281.944L256.435 281.944L256.435 258.5Z" fill="#2F3E83" stroke="#2F3E83" stroke-linecap="round" stroke-linejoin="round"/>
<path d="M260.35 179.153L260.35 196.532L256.939 196.532L256.939 179.153L260.35 179.153Z" stroke="#2F3E83"/>
<path d="M256.435 178.653L242.467 178.653L242.467 197.032L256.435 197.032L256.435 178.653Z" fill="#2F3E83" stroke="#2F3E83" stroke-linecap="round" stroke-linejoin="round"/>
<path d="M260.35 148.277L260.35 165.656L256.939 165.656L256.939 148.277L260.35 148.277Z" stroke="#2F3E83"/>
<path d="M256.435 147.777L242.467 147.777L242.467 166.155L256.435 166.155L256.435 147.777Z" fill="#2F3E83" stroke="#2F3E83" stroke-linecap="round" stroke-linejoin="round"/>
<path d="M260.35 117.401L260.35 134.779L256.939 134.779L256.939 117.401L260.35 117.401Z" stroke="#2F3E83"/>
<path d="M256.435 116.901L242.467 116.901L242.467 135.279L256.435 135.279L256.435 116.901Z" fill="#2F3E83" stroke="#2F3E83" stroke-linecap="round" stroke-linejoin="round"/>
<path d="M260.35 86.5226L260.35 103.901L256.939 103.901L256.939 86.5226L260.35 86.5226Z" stroke="#2F3E83"/>
<path d="M256.435 86.0226L242.467 86.0226L242.467 104.401L256.435 104.401L256.435 86.0226Z" fill="#2F3E83" stroke="#2F3E83" stroke-linecap="round" stroke-linejoin="round"/>
<path d="M238.151 53.0739L238.151 62.9781L234.74 62.9781L234.74 53.0739L238.151 53.0739Z" stroke="#2F3E83"/>
<path d="M234.235 52.5739L220.268 52.5739L220.268 63.4779L234.235 63.4779L234.235 52.5739Z" fill="#2F3E83" stroke="#2F3E83" stroke-linecap="round" stroke-linejoin="round"/>
<path d="M165.942 52.5739L160.429 52.5739L160.429 63.4779L165.942 63.4779L165.942 52.5739Z" stroke="#2F3E83" stroke-linecap="round" stroke-linejoin="round"/>
<path d="M205.872 53.0739L205.872 62.9781L166.442 62.9781L166.442 53.0739L205.872 53.0739Z" stroke="#2F3E83"/>
<path d="M162.241 86.0226L148.273 86.0226L148.273 104.401L162.241 104.401L162.241 86.0226Z" fill="#2F3E83" stroke="#2F3E83" stroke-linecap="round" stroke-linejoin="round"/>
<path d="M192.595 86.0226L178.627 86.0226L178.627 104.401L192.595 104.401L192.595 86.0226Z" fill="#2F3E83" stroke="#2F3E83" stroke-linecap="round" stroke-linejoin="round"/>
<path d="M222.941 86.0226L208.973 86.0226L208.973 104.401L222.941 104.401L222.941 86.0226Z" fill="#2F3E83" stroke="#2F3E83" stroke-linecap="round" stroke-linejoin="round"/>
<path d="M162.241 116.901L148.273 116.901L148.273 135.279L162.241 135.279L162.241 116.901Z" fill="#2F3E83" stroke="#2F3E83" stroke-linecap="round" stroke-linejoin="round"/>
<path d="M192.595 116.901L178.627 116.901L178.627 135.279L192.595 135.279L192.595 116.901Z" fill="#2F3E83" stroke="#2F3E83" stroke-linecap="round" stroke-linejoin="round"/>
<path d="M222.941 116.901L208.973 116.901L208.973 135.279L222.941 135.279L222.941 116.901Z" fill="#2F3E83" stroke="#2F3E83" stroke-linecap="round" stroke-linejoin="round"/>
<path d="M162.241 147.777L148.273 147.777L148.273 166.155L162.241 166.155L162.241 147.777Z" fill="#2F3E83" stroke="#2F3E83" stroke-linecap="round" stroke-linejoin="round"/>
<path d="M192.595 147.777L178.627 147.777L178.627 166.155L192.595 166.155L192.595 147.777Z" fill="#2F3E83" stroke="#2F3E83" stroke-linecap="round" stroke-linejoin="round"/>
<path d="M222.941 147.777L208.973 147.777L208.973 166.155L222.941 166.155L222.941 147.777Z" fill="#2F3E83" stroke="#2F3E83" stroke-linecap="round" stroke-linejoin="round"/>
<path d="M162.241 178.653L148.273 178.653L148.273 197.032L162.241 197.032L162.241 178.653Z" fill="#2F3E83" stroke="#2F3E83" stroke-linecap="round" stroke-linejoin="round"/>
<path d="M192.595 178.653L178.627 178.653L178.627 197.032L192.595 197.032L192.595 178.653Z" fill="#2F3E83" stroke="#2F3E83" stroke-linecap="round" stroke-linejoin="round"/>
<path d="M222.673 178.87L208.705 178.87L208.705 197.249L222.673 197.249L222.673 178.87Z" fill="#2F3E83" stroke="#2F3E83" stroke-linecap="round" stroke-linejoin="round"/>
<path d="M162.241 209.529L148.273 209.529L148.273 227.908L162.241 227.908L162.241 209.529Z" fill="#2F3E83" stroke="#2F3E83" stroke-linecap="round" stroke-linejoin="round"/>
<path d="M192.595 209.529L178.627 209.529L178.627 227.908L192.595 227.908L192.595 209.529Z" fill="#2F3E83" stroke="#2F3E83" stroke-linecap="round" stroke-linejoin="round"/>
<path d="M222.941 209.529L208.973 209.529L208.973 227.908L222.941 227.908L222.941 209.529Z" fill="#2F3E83" stroke="#2F3E83" stroke-linecap="round" stroke-linejoin="round"/>
<path d="M162.241 258.84L148.273 258.84L148.273 281.941L162.241 281.941L162.241 258.84Z" fill="#2F3E83" stroke="#2F3E83" stroke-linecap="round" stroke-linejoin="round"/>
<path d="M197.539 258.84L174.373 258.84L174.373 300.728L197.539 300.728L197.539 258.84Z" stroke="#2F3E83" stroke-linecap="round" stroke-linejoin="round"/>
<path d="M222.941 258.84L208.973 258.84L208.973 281.941L222.941 281.941L222.941 258.84Z" fill="#2F3E83" stroke="#2F3E83" stroke-linecap="round" stroke-linejoin="round"/>
<path d="M260.85 209.529L256.439 209.529L256.439 227.908L260.85 227.908L260.85 209.529Z" stroke="#2F3E83" stroke-linecap="round" stroke-linejoin="round"/>
<path d="M260.85 258.5L256.439 258.5L256.439 281.944L260.85 281.944L260.85 258.5Z" stroke="#2F3E83" stroke-linecap="round" stroke-linejoin="round"/>
<path d="M260.85 178.653L256.439 178.653L256.439 197.032L260.85 197.032L260.85 178.653Z" stroke="#2F3E83" stroke-linecap="round" stroke-linejoin="round"/>
<path d="M260.85 147.777L256.439 147.777L256.439 166.155L260.85 166.155L260.85 147.777Z" stroke="#2F3E83" stroke-linecap="round" stroke-linejoin="round"/>
<path d="M260.85 116.901L256.439 116.901L256.439 135.279L260.85 135.279L260.85 116.901Z" stroke="#2F3E83" stroke-linecap="round" stroke-linejoin="round"/>
<path d="M260.85 86.0226L256.439 86.0226L256.439 104.401L260.85 104.401L260.85 86.0226Z" stroke="#2F3E83" stroke-linecap="round" stroke-linejoin="round"/>
<path d="M238.651 52.5739L234.24 52.5739L234.24 63.4779L238.651 63.4779L238.651 52.5739Z" stroke="#2F3E83" stroke-linecap="round" stroke-linejoin="round"/>
<path d="M206.372 52.5739L165.942 52.5739L165.942 63.4779L206.372 63.4779L206.372 52.5739Z" fill="#2F3E83" stroke="#2F3E83" stroke-linecap="round" stroke-linejoin="round"/>
<path d="M266.649 69.0748L214.263 69.0748L214.263 74.8739L266.649 74.8739L266.649 69.0748Z" fill="#2F3E83"/>
<path d="M214.263 42.8547L152.535 42.8547L152.535 48.6538L214.263 48.6538L214.263 42.8547Z" stroke="#2F3E83" stroke-linecap="round" stroke-linejoin="round"/>
<path d="M244.252 42.8547L214.263 42.8547L214.263 48.6538L244.252 48.6538L244.252 42.8547Z" stroke="#2F3E83" stroke-linecap="round" stroke-linejoin="round"/>
<path d="M133.606 289.743L140.793 289.743" stroke="#2F3E83" stroke-linecap="round" stroke-linejoin="round"/>
<path d="M145.676 289.743L152.865 289.743" stroke="#2F3E83" stroke-linecap="round" stroke-linejoin="round"/>
<path d="M139.142 295.237L146.33 295.237" stroke="#2F3E83" stroke-linecap="round" stroke-linejoin="round"/>
<path d="M152.868 295.237L160.057 295.237" stroke="#2F3E83" stroke-linecap="round" stroke-linejoin="round"/>
<path d="M202.736 289.743L209.923 289.743" stroke="#2F3E83" stroke-linecap="round" stroke-linejoin="round"/>
<path d="M214.805 289.743L221.993 289.743" stroke="#2F3E83" stroke-linecap="round" stroke-linejoin="round"/>
<path d="M208.271 295.237L215.46 295.237" stroke="#2F3E83" stroke-linecap="round" stroke-linejoin="round"/>
<path d="M221.997 295.237L229.186 295.237" stroke="#2F3E83" stroke-linecap="round" stroke-linejoin="round"/>
<path d="M262.021 295.237L254.833 295.237" stroke="#2F3E83" stroke-linecap="round" stroke-linejoin="round"/>
<path d="M249.952 295.237L242.764 295.237" stroke="#2F3E83" stroke-linecap="round" stroke-linejoin="round"/>
<path d="M256.486 289.743L249.297 289.743" stroke="#2F3E83" stroke-linecap="round" stroke-linejoin="round"/>
<path d="M242.758 289.743L237.25 289.743" stroke="#2F3E83" stroke-linecap="round" stroke-linejoin="round"/>
<path d="M237.254 227.908L125.604 227.908L125.604 249.962L237.254 249.962L237.254 227.908Z" stroke="#2F3E83" stroke-linecap="round" stroke-linejoin="round"/>
<path d="M268.464 227.908L237.25 227.908L237.25 249.962L268.464 249.962L268.464 227.908Z" stroke="#2F3E83" stroke-linecap="round" stroke-linejoin="round"/>
<path d="M133.606 227.908L133.606 249.963" stroke="#2F3E83" stroke-linecap="round" stroke-linejoin="round"/>
<path d="M185.03 258.84L185.03 300.199" stroke="#2F3E83" stroke-linecap="round" stroke-linejoin="round"/>
<path d="M188.337 276.674L188.337 287.763L189.684 287.763" stroke="#2F3E83" stroke-linecap="round" stroke-linejoin="round"/>
<path d="M180.096 276.674L180.096 287.763L181.443 287.763" stroke="#2F3E83" stroke-linecap="round" stroke-linejoin="round"/>
<path d="M141.385 25.9275V36.6504" stroke="white" stroke-linecap="round" stroke-linejoin="round"/>
<path d="M136.024 31.289H146.749" stroke="white" stroke-linecap="round" stroke-linejoin="round"/>
<path d="M49.9858 131.87V142.594" stroke="white" stroke-linecap="round" stroke-linejoin="round"/>
<path d="M44.623 137.233H55.3477" stroke="white" stroke-linecap="round" stroke-linejoin="round"/>
<path d="M5.15479 72.0723V80.3815" stroke="white" stroke-linecap="round" stroke-linejoin="round"/>
<path d="M0.999895 76.2268H9.30908" stroke="white" stroke-linecap="round" stroke-linejoin="round"/>
<path d="M201.459 1V9.30919" stroke="white" stroke-linecap="round" stroke-linejoin="round"/>
<path d="M197.304 5.15454H205.613" stroke="white" stroke-linecap="round" stroke-linejoin="round"/>
<path d="M35.8603 47.8031C35.6848 46.8986 37.4044 41.692 38.0472 38.1588C38.9309 33.2904 37.9834 30.1288 36.023 31.7096C35.1408 32.4211 30.8132 41.7766 30.6744 41.4001L28.2817 34.8935C28.2817 34.8935 24.7485 23.6015 22.8168 23.0592C18.73 21.9122 23.8775 37.8222 23.8775 37.8222C22.7609 35.3769 21.1068 33.1229 19.9072 30.719C19.0506 29.0027 18.1781 27.2895 17.2114 25.6321C16.7759 24.8856 16.1299 23.3559 15.2079 23.1134C14.6081 22.9539 13.9637 23.0209 13.7053 23.6701C13.4711 25.0989 13.7003 26.565 14.3593 27.8542C15.9112 31.9537 17.6681 35.9727 19.6233 39.8959C18.3823 37.8908 12.6413 28.7299 10.5597 27.6133C9.72061 27.1651 9.12403 27.5846 8.88954 28.5975C8.27063 31.2024 14.9144 40.6424 15.1983 41.1274C15.377 41.432 16.0836 42.2663 16.0629 42.5997C16.0629 42.5997 6.44738 35.1025 4.9607 35.6417C0.776635 37.1762 11.5327 44.5362 12.887 47.1985C15.3674 52.0733 20.842 62.7496 22.1962 64.895L39.0745 53.7785C37.8824 51.8539 36.8091 49.8584 35.8603 47.8031Z" fill="white" stroke="#2F3E83" stroke-linecap="round" stroke-linejoin="round"/>
<path d="M29.0149 43.6451C29.0149 43.6451 24.1306 46.4653 25.713 53.7806" stroke="#2F3E83" stroke-linecap="round" stroke-linejoin="round"/>
<path d="M90.4705 70.0263C91.8273 68.2128 93.3745 66.5497 95.0852 65.0654C86.3024 70.1858 61.7164 84.2231 57.7652 82.7875C53.2143 81.1365 39.0701 53.7861 39.0701 53.7861L22.1919 64.8963C22.1919 64.8963 41.8361 109.466 51.1916 109.224C58.6298 109.031 72.4071 104.322 82.0912 100.736C84.4696 87.3544 87.3887 74.6857 90.4705 70.0263Z" fill="#DBEAFF"/>
<path d="M90.4705 70.0263C91.8273 68.2128 93.3745 66.5497 95.0852 65.0654C86.3024 70.1858 61.7164 84.2231 57.7652 82.7875C53.2143 81.1365 39.0701 53.7861 39.0701 53.7861L22.1919 64.8963C22.1919 64.8963 41.8361 109.466 51.1916 109.224C58.6298 109.031 72.4071 104.322 82.0912 100.736C84.4695 87.3544 87.3887 74.6857 90.4705 70.0263Z" stroke="#2F3E83" stroke-linecap="round" stroke-linejoin="round"/>
<path d="M90.4771 70.0262C82.9082 81.4825 76.3154 141.216 76.3154 141.216L81.0259 142.859C81.6783 141.8 82.0468 141.216 82.0468 141.216C84.3231 107.978 87.357 89.2381 90.8967 77.8887C93.5589 69.3578 97.408 64.6809 101.503 61.4395L102.533 58.7278C98.6475 61.8559 92.4519 67.0273 90.4771 70.0262Z" fill="#ECEEF5"/>
<path d="M90.4771 70.0262C82.9082 81.4825 76.3154 141.216 76.3154 141.216L81.0259 142.859C81.6783 141.8 82.0468 141.216 82.0468 141.216C84.3231 107.978 87.357 89.2381 90.8967 77.8887C93.5589 69.3578 97.408 64.6809 101.503 61.4395L102.533 58.7278C98.6475 61.8559 92.4519 67.0273 90.4771 70.0262Z" fill="#DBEAFF" stroke="#2F3E83" stroke-linecap="round" stroke-linejoin="round"/>
<path d="M70.2203 283.913C62.4391 288.622 53.4633 294.65 52.9656 297.663C52.1824 302.404 91.6846 299.703 100.82 298.017C101.372 297.915 101.879 297.644 102.269 297.24C102.66 296.835 102.914 296.32 102.997 295.765C103.544 292.132 104.296 279.461 105.918 269.851L80.9747 270.665C79.3429 277.012 75.9309 280.456 70.2203 283.913Z" fill="#2F3E83"/>
<path d="M70.2203 283.913C62.4391 288.622 53.4633 294.65 52.9656 297.663C52.1824 302.404 91.6845 299.703 100.82 298.017C101.372 297.915 101.879 297.644 102.269 297.24C102.66 296.835 102.914 296.32 102.997 295.765C103.544 292.132 104.296 279.461 105.918 269.851L80.9747 270.665C79.3429 277.012 75.9309 280.456 70.2203 283.913Z" stroke="#2F3E83" stroke-linecap="round" stroke-linejoin="round"/>
<path d="M105.909 249.35L105.909 185.792" stroke="#2F3E83" stroke-linecap="round" stroke-linejoin="round"/>
<path d="M79.6099 253.474L80.9657 270.664" stroke="#2F3E83" stroke-linecap="round" stroke-linejoin="round"/>
<path d="M98.7197 68.7838L105.49 50.9277L116.935 43.3875L116.813 58.7008C111.218 62.7889 105.141 66.1751 98.7197 68.7838Z" fill="white" stroke="#2F3E83" stroke-linecap="round" stroke-linejoin="round"/>
<path d="M105.486 50.9297C105.486 50.9297 109.633 51.8342 112.014 49.601C112.014 49.601 109.059 55.3052 103.54 56.0613L105.486 50.9297Z" fill="#2F3E83"/>
<path d="M105.486 50.9297C105.486 50.9297 109.633 51.8342 112.014 49.601C112.014 49.601 109.059 55.3052 103.54 56.0613L105.486 50.9297Z" stroke="#2F3E83" stroke-linecap="round" stroke-linejoin="round"/>
<path d="M82.0478 141.217C82.0478 141.217 63.5141 175.631 55.5591 191.028" stroke="#2F3E83" stroke-linecap="round" stroke-linejoin="round"/>
<path d="M55.9528 190.969C54.3881 194.799 53.3821 198.834 52.9651 202.951C52.4307 214.77 71.4943 242.503 82.7943 257.845C83.7168 259.097 84.5215 260.432 85.1982 261.833L104.608 247.143C94.9429 230.766 83.3686 210.184 84.9478 208.081C92.4992 198.032 98.5863 189.578 103.49 182.487" stroke="#2F3E83" stroke-linecap="round" stroke-linejoin="round"/>
<path d="M86.3766 280.905C83.4623 289.519 80.4825 299.914 82.0442 302.538C84.5007 306.668 109.827 276.263 115.719 269.091C116.077 268.657 116.289 268.125 116.327 267.565C116.367 267.003 116.228 266.446 115.935 265.968C114.011 262.837 109.554 255.547 104.609 247.153L85.1962 261.838C88.0741 267.793 88.4981 274.641 86.3766 280.905Z" fill="#2F3E83"/>
<path d="M86.3766 280.905C83.4623 289.519 80.4825 299.914 82.0442 302.538C84.5007 306.668 109.827 276.263 115.719 269.091C116.077 268.657 116.289 268.125 116.327 267.565C116.367 267.003 116.228 266.446 115.935 265.968C114.011 262.837 109.554 255.547 104.609 247.153L85.1962 261.838C88.0741 267.793 88.4981 274.641 86.3766 280.905Z" stroke="#2F3E83" stroke-linecap="round" stroke-linejoin="round"/>
<path d="M97.378 151.288C113.058 122.895 69.9048 200.604 69.9048 205.343C69.9048 209.352 96.0396 253.633 96.0396 253.633" stroke="#2F3E83" stroke-linecap="round" stroke-linejoin="round"/>
<path d="M98.9737 81.6528C101.32 71.5076 109.459 64.1221 113.887 60.7563C109.119 63.9462 104.035 66.6384 98.7169 68.7911L101.5 61.4534C97.4057 64.6948 93.5566 69.3717 90.8943 77.9026C87.3547 89.2504 84.3207 107.99 82.0444 141.23L89.7187 142.881C91.7302 127.548 96.4438 92.5954 98.9737 81.6528Z" fill="#FA4B98" stroke="#2F3E83" stroke-linecap="round" stroke-linejoin="round"/>
<path d="M126.042 68.6309C120.226 60.9184 116.809 58.7075 116.809 58.7075C116.809 58.7075 102.249 67.492 98.9721 81.6537C95.6957 95.8154 88.7632 150.181 88.7632 150.181C92.2342 150.961 95.7852 151.327 99.3422 151.271C98.9839 153.607 98.7708 155.964 98.7041 158.328L119.709 159.744C119.709 159.744 129.905 116.637 129.862 110.649C129.819 104.66 131.858 76.3434 126.042 68.6309Z" fill="#DBEAFF"/>
<path d="M126.042 68.6309C120.226 60.9184 116.809 58.7075 116.809 58.7075C116.809 58.7075 102.249 67.492 98.9721 81.6537C95.6957 95.8154 88.7632 150.181 88.7632 150.181C92.2342 150.961 95.7852 151.327 99.3422 151.271C98.9839 153.607 98.7708 155.964 98.7041 158.328L119.709 159.744C119.709 159.744 129.905 116.637 129.862 110.649C129.819 104.66 131.858 76.3434 126.042 68.6309Z" stroke="#2F3E83" stroke-linecap="round" stroke-linejoin="round"/>
<path d="M107.783 75.4517C107.783 75.4517 105.196 90.4971 107.783 100.36C109.973 108.726 101.941 134.451 99.3525 151.271" stroke="#2F3E83" stroke-linecap="round" stroke-linejoin="round"/>
<path d="M120.717 175.281L119.47 173.274C119.47 173.274 120.572 163.052 117.745 159.609L100.813 158.466L100.813 175.029C100.812 177.326 101.5 179.57 102.788 181.472C105.082 184.86 109.049 190.226 112.896 193.083C113.593 193.614 114.469 193.855 115.34 193.757C116.28 193.569 111.855 186.533 109.522 182.934C111.882 186.487 116.592 193.357 117.745 193.421C119.302 193.504 119.302 192.746 119.639 191.826C119.827 191.306 117.699 187.656 115.785 184.536C117.749 187.567 120.092 190.982 120.717 190.982C121.834 190.982 121.993 190.14 121.993 188.538C121.232 186.088 120.186 183.737 118.875 181.531C120.438 184.257 122.434 187.385 123.426 187.525C125.203 187.772 124.327 181.504 120.717 175.281Z" fill="white" stroke="#2F3E83" stroke-linecap="round" stroke-linejoin="round"/>
<path d="M108.165 180.862L109.525 182.936" stroke="#2F3E83" stroke-linecap="round" stroke-linejoin="round"/>
<path d="M112.896 179.935L115.784 184.531" stroke="#2F3E83" stroke-linecap="round" stroke-linejoin="round"/>
<path d="M116.693 177.489L118.885 181.524" stroke="#2F3E83" stroke-linecap="round" stroke-linejoin="round"/>
<path d="M118.608 26.9655C118.608 26.9655 117.19 21.7788 113.139 22.4732C113.139 22.4732 113.292 16.711 110.596 17.4436C107.901 18.1762 107.915 22.1731 107.915 22.1731C107.915 22.1731 105.407 21.8869 106.149 18.6857C106.891 15.4845 105.653 14.2931 103.121 16.3768C100.714 18.3597 97.0956 27.4755 104.774 30.0051C106.856 26.3046 112.605 26.3312 115.222 29.1453C117.259 31.337 117.021 35.8341 116.605 37.2631L116.819 37.7198C116.45 39.0246 116.823 37.4356 118.153 36.5916C118.805 35.1595 121.497 29.2183 121.988 27.7108C122.497 26.1422 118.608 26.9655 118.608 26.9655Z" fill="#2F3E83" stroke="#2F3E83" stroke-linecap="round" stroke-linejoin="round"/>
<path d="M116.602 37.2644C111.064 46.7413 104.502 46.2508 102.096 42.4746C102.157 39.8565 102.528 37.2545 103.202 34.7237C103.525 32.7676 104.234 30.8951 105.286 29.2149C106.596 27.8923 108.376 27.1424 110.238 27.1297C112.099 27.1168 113.89 27.8421 115.218 29.1465C117.255 31.3347 117.025 35.8351 116.602 37.2644Z" fill="white" stroke="#2F3E83" stroke-linecap="round" stroke-linejoin="round"/>
<path d="M116.692 38.2325C116.304 39.6853 116.478 41.2309 117.179 42.561C118.922 41.5685 120.283 40.0213 121.043 38.1663C121.878 35.8155 118.371 35.0764 116.692 38.2325Z" fill="white" stroke="#2F3E83" stroke-linecap="round" stroke-linejoin="round"/>
<path d="M116.812 37.7198L116.599 37.2632C111.061 46.7401 104.499 46.2496 102.093 42.4734C102.087 45.6898 102.833 49.2732 105.8 50.5131C106.906 50.8827 108.089 50.9629 109.235 50.7457C110.381 50.5284 111.452 50.0213 112.346 49.2724C114.433 47.4198 116.083 45.128 117.179 42.5617C116.448 41.0528 116.316 39.3219 116.812 37.7198Z" fill="#2F3E83" stroke="#2F3E83" stroke-linecap="round" stroke-linejoin="round"/>
<path d="M102.776 39.1198C104.222 39.0901 105.366 37.6937 105.331 36.001C105.296 34.3081 104.096 32.9602 102.65 32.9899C101.203 33.0196 100.059 34.4158 100.094 36.1086C100.129 37.8013 101.329 39.1495 102.776 39.1198Z" fill="white" stroke="#2F3E83" stroke-linecap="round" stroke-linejoin="round"/>
<path d="M111.369 39.5763C112.816 39.5466 113.959 38.1502 113.924 36.4576C113.89 34.7647 112.69 33.4167 111.243 33.4464C109.796 33.4762 108.653 34.8723 108.688 36.5652C108.722 38.2579 109.922 39.6061 111.369 39.5763Z" fill="white" stroke="#2F3E83" stroke-linecap="round" stroke-linejoin="round"/>
<path d="M105.342 36.6337C105.814 36.2559 106.398 36.0445 107.002 36.032C107.606 36.0196 108.197 36.2069 108.685 36.5649" stroke="#2F3E83" stroke-linecap="round" stroke-linejoin="round"/>
<path d="M113.931 37.0015L121.608 34.8549" stroke="#2F3E83" stroke-linecap="round" stroke-linejoin="round"/>
<path d="M36.7785 13.1213C45.7911 21.3843 51.8561 30.5597 53.8369 38.448" stroke="white" stroke-linecap="round" stroke-linejoin="round"/>
<path d="M49.3876 20.1299C51.7989 23.084 53.9043 26.2749 55.6709 29.6541" stroke="white" stroke-linecap="round" stroke-linejoin="round"/>
</svg>
