<svg width="136" height="155" viewBox="0 0 136 155" fill="none" xmlns="http://www.w3.org/2000/svg">
<path d="M48.6516 148.057L48.6516 154.856" stroke="#01CC74" stroke-width="1.69624" stroke-linecap="square" stroke-linejoin="round"/>
<path d="M48.6504 130.117C46.3904 130.119 44.2223 131.016 42.6084 132.614C40.9946 134.212 40.0652 136.385 40.0175 138.667C39.9705 140.949 40.8096 143.16 42.3555 144.824C43.9014 146.489 46.0312 147.476 48.289 147.574L48.289 143.928L44.9862 139.675C44.9544 139.637 44.9313 139.594 44.9168 139.547C44.9024 139.5 44.8973 139.45 44.9016 139.402C44.9067 139.353 44.9212 139.305 44.945 139.262C44.9681 139.219 44.9999 139.181 45.0382 139.151C45.0765 139.12 45.1206 139.099 45.1676 139.085C45.2146 139.073 45.2637 139.07 45.3114 139.077C45.3598 139.083 45.4061 139.1 45.448 139.126C45.4892 139.151 45.5261 139.184 45.5543 139.224L48.289 142.746L48.289 135.617C48.289 135.52 48.3273 135.427 48.3945 135.359C48.4625 135.291 48.5543 135.252 48.6504 135.252C48.7465 135.252 48.8383 135.291 48.9062 135.359C48.9734 135.427 49.0117 135.52 49.0117 135.617L49.0117 140.741L51.026 138.697C51.0592 138.663 51.099 138.636 51.1431 138.617C51.1871 138.599 51.2341 138.59 51.2811 138.59C51.3288 138.59 51.3758 138.598 51.4199 138.617C51.4639 138.635 51.5037 138.662 51.5369 138.696C51.5709 138.73 51.5976 138.77 51.6157 138.815C51.6345 138.858 51.6439 138.906 51.6439 138.954C51.6439 139.002 51.6345 139.05 51.6164 139.093C51.5984 139.138 51.5716 139.178 51.5384 139.212L49.0089 141.777L49.0089 147.575C51.2666 147.477 53.3965 146.49 54.9424 144.825C56.4883 143.16 57.3274 140.95 57.2804 138.668C57.2327 136.385 56.3033 134.212 54.6894 132.614C53.0756 131.017 50.9067 130.12 48.6475 130.118L48.6504 130.117Z" fill="#01CC74"/>
<path d="M131.026 27.171L131.026 31.8271" stroke="white" stroke-width="0.848122" stroke-linecap="round" stroke-linejoin="round"/>
<path d="M133.33 29.4989L128.721 29.4989" stroke="white" stroke-width="0.848122" stroke-linecap="round" stroke-linejoin="round"/>
<path d="M136.045 117.475L136.045 38.9207L121.106 38.9207L121.106 154.855L136.045 154.855L136.045 128.796" stroke="#2F3E83" stroke-width="0.848122" stroke-linecap="round" stroke-linejoin="round"/>
<path d="M124.664 25.4615L109.426 25.4615L109.426 35.9433L124.664 35.9433L124.664 25.4615Z" stroke="#2F3E83" stroke-width="0.848122" stroke-linecap="round" stroke-linejoin="round"/>
<path d="M66.3857 128.796L66.3857 154.856L121.108 154.856L121.108 38.9208L109.428 38.9208L109.428 25.4615L78.0656 25.4615L78.0656 38.9208L66.3857 38.9208L66.3857 117.475" stroke="#2F3E83" stroke-width="0.848122" stroke-linecap="round" stroke-linejoin="round"/>
<path d="M75.8991 44.6433L73.658 44.6433L73.658 54.0774L75.8991 54.0774L75.8991 44.6433Z" stroke="#2F3E83" stroke-width="0.848122" stroke-linecap="round" stroke-linejoin="round"/>
<path d="M82.5701 45.0671L82.5701 53.6531L76.321 53.6531L76.321 45.0671L82.5701 45.0671Z" stroke="#2F3E83" stroke-width="0.848122"/>
<path d="M91.3185 44.6433L89.0774 44.6433L89.0774 54.0774L91.3185 54.0774L91.3185 44.6433Z" stroke="#2F3E83" stroke-width="0.848122" stroke-linecap="round" stroke-linejoin="round"/>
<path d="M97.9924 45.0671L97.9924 53.6531L91.7434 53.6531L91.7434 45.0671L97.9924 45.0671Z" stroke="#2F3E83" stroke-width="0.848122"/>
<path d="M106.741 44.6433L104.5 44.6433L104.5 54.0774L106.741 54.0774L106.741 44.6433Z" stroke="#2F3E83" stroke-width="0.848122" stroke-linecap="round" stroke-linejoin="round"/>
<path d="M113.411 45.0671L113.411 53.6531L107.162 53.6531L107.162 45.0671L113.411 45.0671Z" stroke="#2F3E83" stroke-width="0.848122"/>
<path d="M75.8991 60.4934L73.658 60.4934L73.658 69.9275L75.8991 69.9275L75.8991 60.4934Z" stroke="#2F3E83" stroke-width="0.848122" stroke-linecap="round" stroke-linejoin="round"/>
<path d="M82.5701 60.9172L82.5701 69.5032L76.321 69.5032L76.321 60.9172L82.5701 60.9172Z" stroke="#2F3E83" stroke-width="0.848122"/>
<path d="M91.3185 60.4934L89.0774 60.4934L89.0774 69.9275L91.3185 69.9275L91.3185 60.4934Z" stroke="#2F3E83" stroke-width="0.848122" stroke-linecap="round" stroke-linejoin="round"/>
<path d="M97.9924 60.9172L97.9924 69.5032L91.7434 69.5032L91.7434 60.9172L97.9924 60.9172Z" stroke="#2F3E83" stroke-width="0.848122"/>
<path d="M106.741 60.4934L104.5 60.4934L104.5 69.9275L106.741 69.9275L106.741 60.4934Z" stroke="#2F3E83" stroke-width="0.848122" stroke-linecap="round" stroke-linejoin="round"/>
<path d="M113.411 60.9172L113.411 69.5032L107.162 69.5032L107.162 60.9172L113.411 60.9172Z" stroke="#2F3E83" stroke-width="0.848122"/>
<path d="M75.8991 76.3425L73.658 76.3425L73.658 85.7766L75.8991 85.7766L75.8991 76.3425Z" stroke="#2F3E83" stroke-width="0.848122" stroke-linecap="round" stroke-linejoin="round"/>
<path d="M82.5701 76.7664L82.5701 85.3523L76.321 85.3523L76.321 76.7664L82.5701 76.7664Z" stroke="#2F3E83" stroke-width="0.848122"/>
<path d="M91.3185 76.3425L89.0774 76.3425L89.0774 85.7766L91.3185 85.7766L91.3185 76.3425Z" stroke="#2F3E83" stroke-width="0.848122" stroke-linecap="round" stroke-linejoin="round"/>
<path d="M97.9924 76.7664L97.9924 85.3523L91.7434 85.3523L91.7434 76.7664L97.9924 76.7664Z" stroke="#2F3E83" stroke-width="0.848122"/>
<path d="M106.741 76.3425L104.5 76.3425L104.5 85.7766L106.741 85.7766L106.741 76.3425Z" stroke="#2F3E83" stroke-width="0.848122" stroke-linecap="round" stroke-linejoin="round"/>
<path d="M113.411 76.7664L113.411 85.3523L107.162 85.3523L107.162 76.7664L113.411 76.7664Z" stroke="#2F3E83" stroke-width="0.848122"/>
<path d="M75.8991 92.1918L73.658 92.1918L73.658 101.626L75.8991 101.626L75.8991 92.1918Z" stroke="#2F3E83" stroke-width="0.848122" stroke-linecap="round" stroke-linejoin="round"/>
<path d="M82.5701 92.6156L82.5701 101.202L76.321 101.202L76.321 92.6156L82.5701 92.6156Z" stroke="#2F3E83" stroke-width="0.848122"/>
<path d="M91.3185 92.1918L89.0774 92.1918L89.0774 101.626L91.3185 101.626L91.3185 92.1918Z" stroke="#2F3E83" stroke-width="0.848122" stroke-linecap="round" stroke-linejoin="round"/>
<path d="M97.9924 92.6156L97.9924 101.202L91.7434 101.202L91.7434 92.6156L97.9924 92.6156Z" stroke="#2F3E83" stroke-width="0.848122"/>
<path d="M106.741 92.1918L104.5 92.1918L104.5 101.626L106.741 101.626L106.741 92.1918Z" stroke="#2F3E83" stroke-width="0.848122" stroke-linecap="round" stroke-linejoin="round"/>
<path d="M113.411 92.6156L113.411 101.202L107.162 101.202L107.162 92.6156L113.411 92.6156Z" stroke="#2F3E83" stroke-width="0.848122"/>
<path d="M75.8991 108.041L73.658 108.041L73.658 117.475L75.8991 117.475L75.8991 108.041Z" stroke="#2F3E83" stroke-width="0.848122" stroke-linecap="round" stroke-linejoin="round"/>
<path d="M82.5701 108.465L82.5701 117.051L76.321 117.051L76.321 108.465L82.5701 108.465Z" stroke="#2F3E83" stroke-width="0.848122"/>
<path d="M91.3185 108.041L89.0774 108.041L89.0774 117.475L91.3185 117.475L91.3185 108.041Z" stroke="#2F3E83" stroke-width="0.848122" stroke-linecap="round" stroke-linejoin="round"/>
<path d="M97.9924 108.465L97.9924 117.051L91.7434 117.051L91.7434 108.465L97.9924 108.465Z" stroke="#2F3E83" stroke-width="0.848122"/>
<path d="M106.741 108.041L104.5 108.041L104.5 117.475L106.741 117.475L106.741 108.041Z" stroke="#2F3E83" stroke-width="0.848122" stroke-linecap="round" stroke-linejoin="round"/>
<path d="M113.411 108.465L113.411 117.051L107.162 117.051L107.162 108.465L113.411 108.465Z" stroke="#2F3E83" stroke-width="0.848122"/>
<path d="M75.8991 133.353L73.658 133.353L73.658 145.211L75.8991 145.211L75.8991 133.353Z" stroke="#2F3E83" stroke-width="0.848122" stroke-linecap="round" stroke-linejoin="round"/>
<path d="M82.5701 133.777L82.5701 144.786L76.321 144.786L76.321 133.777L82.5701 133.777Z" stroke="#2F3E83" stroke-width="0.848122"/>
<path d="M89.1554 133.353L86.5659 133.353L86.5659 154.855L89.1554 154.855L89.1554 133.353Z" stroke="#2F3E83" stroke-width="0.848122" stroke-linecap="round" stroke-linejoin="round"/>
<path d="M100.505 133.777L100.505 154.43L89.5818 154.43L89.5818 133.777L100.505 133.777Z" stroke="#2F3E83" stroke-width="0.848122"/>
<path d="M106.741 133.353L104.5 133.353L104.5 145.211L106.741 145.211L106.741 133.353Z" stroke="#2F3E83" stroke-width="0.848122" stroke-linecap="round" stroke-linejoin="round"/>
<path d="M113.411 133.777L113.411 144.786L107.162 144.786L107.162 133.777L113.411 133.777Z" stroke="#2F3E83" stroke-width="0.848122"/>
<path d="M132.674 108.465L132.674 117.051L131.28 117.051L131.28 108.465L132.674 108.465Z" stroke="#2F3E83" stroke-width="0.848122"/>
<path d="M130.854 108.041L123.757 108.041L123.757 117.475L130.854 117.475L130.854 108.041Z" fill="#2F3E83" stroke="#2F3E83" stroke-width="0.848122" stroke-linecap="round" stroke-linejoin="round"/>
<path d="M132.674 133.602L132.674 144.789L131.28 144.789L131.28 133.602L132.674 133.602Z" stroke="#2F3E83" stroke-width="0.848122"/>
<path d="M130.854 133.178L123.757 133.178L123.757 145.213L130.854 145.213L130.854 133.178Z" fill="#2F3E83" stroke="#2F3E83" stroke-width="0.848122" stroke-linecap="round" stroke-linejoin="round"/>
<path d="M132.674 92.6156L132.674 101.202L131.28 101.202L131.28 92.6156L132.674 92.6156Z" stroke="#2F3E83" stroke-width="0.848122"/>
<path d="M130.854 92.1918L123.757 92.1918L123.757 101.626L130.854 101.626L130.854 92.1918Z" fill="#2F3E83" stroke="#2F3E83" stroke-width="0.848122" stroke-linecap="round" stroke-linejoin="round"/>
<path d="M132.674 76.7664L132.674 85.3523L131.28 85.3523L131.28 76.7664L132.674 76.7664Z" stroke="#2F3E83" stroke-width="0.848122"/>
<path d="M130.854 76.3425L123.757 76.3425L123.757 85.7766L130.854 85.7766L130.854 76.3425Z" fill="#2F3E83" stroke="#2F3E83" stroke-width="0.848122" stroke-linecap="round" stroke-linejoin="round"/>
<path d="M132.674 60.9172L132.674 69.5032L131.28 69.5032L131.28 60.9172L132.674 60.9172Z" stroke="#2F3E83" stroke-width="0.848122"/>
<path d="M130.854 60.4934L123.757 60.4934L123.757 69.9275L130.854 69.9275L130.854 60.4934Z" fill="#2F3E83" stroke="#2F3E83" stroke-width="0.848122" stroke-linecap="round" stroke-linejoin="round"/>
<path d="M132.674 45.0671L132.674 53.6531L131.28 53.6531L131.28 45.0671L132.674 45.0671Z" stroke="#2F3E83" stroke-width="0.848122"/>
<path d="M130.854 44.6433L123.757 44.6433L123.757 54.0774L130.854 54.0774L130.854 44.6433Z" fill="#2F3E83" stroke="#2F3E83" stroke-width="0.848122" stroke-linecap="round" stroke-linejoin="round"/>
<path d="M121.394 27.8975L121.394 32.6465L120 32.6465L120 27.8975L121.394 27.8975Z" stroke="#2F3E83" stroke-width="0.848122"/>
<path d="M119.575 27.4736L112.478 27.4736L112.478 33.0708L119.575 33.0708L119.575 27.4736Z" fill="#2F3E83" stroke="#2F3E83" stroke-width="0.848122" stroke-linecap="round" stroke-linejoin="round"/>
<path d="M84.8748 27.4736L82.0735 27.4736L82.0735 33.0708L84.8748 33.0708L84.8748 27.4736Z" stroke="#2F3E83" stroke-width="0.848122" stroke-linecap="round" stroke-linejoin="round"/>
<path d="M104.993 27.8975L104.993 32.6465L85.2983 32.6465L85.2983 27.8975L104.993 27.8975Z" stroke="#2F3E83" stroke-width="0.848122"/>
<path d="M82.9943 44.6433L75.8972 44.6433L75.8972 54.0774L82.9943 54.0774L82.9943 44.6433Z" fill="#2F3E83" stroke="#2F3E83" stroke-width="0.848122" stroke-linecap="round" stroke-linejoin="round"/>
<path d="M98.4167 44.6433L91.3196 44.6433L91.3196 54.0774L98.4167 54.0774L98.4167 44.6433Z" fill="#2F3E83" stroke="#2F3E83" stroke-width="0.848122" stroke-linecap="round" stroke-linejoin="round"/>
<path d="M113.836 44.6433L106.739 44.6433L106.739 54.0774L113.836 54.0774L113.836 44.6433Z" fill="#2F3E83" stroke="#2F3E83" stroke-width="0.848122" stroke-linecap="round" stroke-linejoin="round"/>
<path d="M82.9943 60.4934L75.8972 60.4934L75.8972 69.9275L82.9943 69.9275L82.9943 60.4934Z" fill="#2F3E83" stroke="#2F3E83" stroke-width="0.848122" stroke-linecap="round" stroke-linejoin="round"/>
<path d="M98.4167 60.4934L91.3196 60.4934L91.3196 69.9275L98.4167 69.9275L98.4167 60.4934Z" fill="#2F3E83" stroke="#2F3E83" stroke-width="0.848122" stroke-linecap="round" stroke-linejoin="round"/>
<path d="M113.836 60.4934L106.739 60.4934L106.739 69.9275L113.836 69.9275L113.836 60.4934Z" fill="#2F3E83" stroke="#2F3E83" stroke-width="0.848122" stroke-linecap="round" stroke-linejoin="round"/>
<path d="M82.9943 76.3425L75.8972 76.3425L75.8972 85.7766L82.9943 85.7766L82.9943 76.3425Z" fill="#2F3E83" stroke="#2F3E83" stroke-width="0.848122" stroke-linecap="round" stroke-linejoin="round"/>
<path d="M98.4167 76.3425L91.3196 76.3425L91.3196 85.7766L98.4167 85.7766L98.4167 76.3425Z" fill="#2F3E83" stroke="#2F3E83" stroke-width="0.848122" stroke-linecap="round" stroke-linejoin="round"/>
<path d="M113.836 76.3425L106.739 76.3425L106.739 85.7766L113.836 85.7766L113.836 76.3425Z" fill="#2F3E83" stroke="#2F3E83" stroke-width="0.848122" stroke-linecap="round" stroke-linejoin="round"/>
<path d="M82.9943 92.1918L75.8972 92.1918L75.8972 101.626L82.9943 101.626L82.9943 92.1918Z" fill="#2F3E83" stroke="#2F3E83" stroke-width="0.848122" stroke-linecap="round" stroke-linejoin="round"/>
<path d="M98.4167 92.1918L91.3196 92.1918L91.3196 101.626L98.4167 101.626L98.4167 92.1918Z" fill="#2F3E83" stroke="#2F3E83" stroke-width="0.848122" stroke-linecap="round" stroke-linejoin="round"/>
<path d="M113.699 92.3032L106.602 92.3032L106.602 101.737L113.699 101.737L113.699 92.3032Z" fill="#2F3E83" stroke="#2F3E83" stroke-width="0.848122" stroke-linecap="round" stroke-linejoin="round"/>
<path d="M82.9943 108.041L75.8972 108.041L75.8972 117.475L82.9943 117.475L82.9943 108.041Z" fill="#2F3E83" stroke="#2F3E83" stroke-width="0.848122" stroke-linecap="round" stroke-linejoin="round"/>
<path d="M98.4167 108.041L91.3196 108.041L91.3196 117.475L98.4167 117.475L98.4167 108.041Z" fill="#2F3E83" stroke="#2F3E83" stroke-width="0.848122" stroke-linecap="round" stroke-linejoin="round"/>
<path d="M113.836 108.041L106.739 108.041L106.739 117.475L113.836 117.475L113.836 108.041Z" fill="#2F3E83" stroke="#2F3E83" stroke-width="0.848122" stroke-linecap="round" stroke-linejoin="round"/>
<path d="M82.9943 133.353L75.8972 133.353L75.8972 145.211L82.9943 145.211L82.9943 133.353Z" fill="#2F3E83" stroke="#2F3E83" stroke-width="0.848122" stroke-linecap="round" stroke-linejoin="round"/>
<path d="M100.929 133.353L89.158 133.353L89.158 154.855L100.929 154.855L100.929 133.353Z" stroke="#2F3E83" stroke-width="0.848122" stroke-linecap="round" stroke-linejoin="round"/>
<path d="M113.836 133.353L106.739 133.353L106.739 145.211L113.836 145.211L113.836 133.353Z" fill="#2F3E83" stroke="#2F3E83" stroke-width="0.848122" stroke-linecap="round" stroke-linejoin="round"/>
<path d="M133.098 108.041L130.856 108.041L130.856 117.475L133.098 117.475L133.098 108.041Z" stroke="#2F3E83" stroke-width="0.848122" stroke-linecap="round" stroke-linejoin="round"/>
<path d="M133.098 133.178L130.856 133.178L130.856 145.213L133.098 145.213L133.098 133.178Z" stroke="#2F3E83" stroke-width="0.848122" stroke-linecap="round" stroke-linejoin="round"/>
<path d="M133.098 92.1918L130.856 92.1918L130.856 101.626L133.098 101.626L133.098 92.1918Z" stroke="#2F3E83" stroke-width="0.848122" stroke-linecap="round" stroke-linejoin="round"/>
<path d="M133.098 76.3425L130.856 76.3425L130.856 85.7766L133.098 85.7766L133.098 76.3425Z" stroke="#2F3E83" stroke-width="0.848122" stroke-linecap="round" stroke-linejoin="round"/>
<path d="M133.098 60.4934L130.856 60.4934L130.856 69.9275L133.098 69.9275L133.098 60.4934Z" stroke="#2F3E83" stroke-width="0.848122" stroke-linecap="round" stroke-linejoin="round"/>
<path d="M133.098 44.6433L130.856 44.6433L130.856 54.0774L133.098 54.0774L133.098 44.6433Z" stroke="#2F3E83" stroke-width="0.848122" stroke-linecap="round" stroke-linejoin="round"/>
<path d="M121.818 27.4736L119.577 27.4736L119.577 33.0708L121.818 33.0708L121.818 27.4736Z" stroke="#2F3E83" stroke-width="0.848122" stroke-linecap="round" stroke-linejoin="round"/>
<path d="M105.417 27.4736L84.8745 27.4736L84.8745 33.0708L105.417 33.0708L105.417 27.4736Z" fill="#2F3E83" stroke="#2F3E83" stroke-width="0.848122" stroke-linecap="round" stroke-linejoin="round"/>
<path d="M136.044 35.9438L109.426 35.9438L109.426 38.9206L136.044 38.9206L136.044 35.9438Z" fill="#2F3E83"/>
<path d="M109.426 22.4846L78.0623 22.4846L78.0623 25.4614L109.426 25.4614L109.426 22.4846Z" stroke="#2F3E83" stroke-width="0.848122" stroke-linecap="round" stroke-linejoin="round"/>
<path d="M124.664 22.4846L109.426 22.4846L109.426 25.4614L124.664 25.4614L124.664 22.4846Z" stroke="#2F3E83" stroke-width="0.848122" stroke-linecap="round" stroke-linejoin="round"/>
<path d="M68.4446 149.216L72.0965 149.216" stroke="#2F3E83" stroke-width="0.848122" stroke-linecap="round" stroke-linejoin="round"/>
<path d="M74.5771 149.216L78.2298 149.216" stroke="#2F3E83" stroke-width="0.848122" stroke-linecap="round" stroke-linejoin="round"/>
<path d="M71.2571 152.036L74.9097 152.036" stroke="#2F3E83" stroke-width="0.848122" stroke-linecap="round" stroke-linejoin="round"/>
<path d="M78.2314 152.036L81.8841 152.036" stroke="#2F3E83" stroke-width="0.848122" stroke-linecap="round" stroke-linejoin="round"/>
<path d="M103.57 149.216L107.221 149.216" stroke="#2F3E83" stroke-width="0.848122" stroke-linecap="round" stroke-linejoin="round"/>
<path d="M109.702 149.216L113.354 149.216" stroke="#2F3E83" stroke-width="0.848122" stroke-linecap="round" stroke-linejoin="round"/>
<path d="M106.382 152.036L110.035 152.036" stroke="#2F3E83" stroke-width="0.848122" stroke-linecap="round" stroke-linejoin="round"/>
<path d="M113.356 152.036L117.009 152.036" stroke="#2F3E83" stroke-width="0.848122" stroke-linecap="round" stroke-linejoin="round"/>
<path d="M133.693 152.036L130.04 152.036" stroke="#2F3E83" stroke-width="0.848122" stroke-linecap="round" stroke-linejoin="round"/>
<path d="M127.561 152.036L123.908 152.036" stroke="#2F3E83" stroke-width="0.848122" stroke-linecap="round" stroke-linejoin="round"/>
<path d="M130.88 149.216L127.228 149.216" stroke="#2F3E83" stroke-width="0.848122" stroke-linecap="round" stroke-linejoin="round"/>
<path d="M123.905 149.216L121.106 149.216" stroke="#2F3E83" stroke-width="0.848122" stroke-linecap="round" stroke-linejoin="round"/>
<path d="M121.109 117.475L64.3789 117.475L64.3789 128.796L121.109 128.796L121.109 117.475Z" stroke="#2F3E83" stroke-width="0.848122" stroke-linecap="round" stroke-linejoin="round"/>
<path d="M136.966 117.475L121.106 117.475L121.106 128.796L136.966 128.796L136.966 117.475Z" stroke="#2F3E83" stroke-width="0.848122" stroke-linecap="round" stroke-linejoin="round"/>
<path d="M68.4446 117.475L68.4446 128.797" stroke="#2F3E83" stroke-width="0.848122" stroke-linecap="round" stroke-linejoin="round"/>
<path d="M94.573 133.353L94.573 154.583" stroke="#2F3E83" stroke-width="0.848122" stroke-linecap="round" stroke-linejoin="round"/>
<path d="M96.2534 142.508L96.2534 148.2L96.9378 148.2" stroke="#2F3E83" stroke-width="0.848122" stroke-linecap="round" stroke-linejoin="round"/>
<path d="M92.0662 142.508L92.0662 148.2L92.7506 148.2" stroke="#2F3E83" stroke-width="0.848122" stroke-linecap="round" stroke-linejoin="round"/>
<path d="M72.397 13.7957V19.2999" stroke="white" stroke-width="0.848122" stroke-linecap="round" stroke-linejoin="round"/>
<path d="M69.6728 16.5479H75.1221" stroke="white" stroke-width="0.848122" stroke-linecap="round" stroke-linejoin="round"/>
<path d="M3.17749 37.4825V41.7478" stroke="white" stroke-width="0.848122" stroke-linecap="round" stroke-linejoin="round"/>
<path d="M1.06641 39.6151H5.28833" stroke="white" stroke-width="0.848122" stroke-linecap="round" stroke-linejoin="round"/>
<path d="M102.92 1V5.26523" stroke="white" stroke-width="0.848122" stroke-linecap="round" stroke-linejoin="round"/>
<path d="M100.809 3.13257H105.031" stroke="white" stroke-width="0.848122" stroke-linecap="round" stroke-linejoin="round"/>
</svg>
