<svg width="65" height="154" viewBox="0 0 65 154" fill="none" xmlns="http://www.w3.org/2000/svg">
<path d="M47.8752 26.0031C47.9643 25.5444 47.0914 22.9038 46.7651 21.1118C46.3165 18.6426 46.7975 17.0392 47.7926 17.8409C48.2404 18.2017 50.4372 22.9466 50.5076 22.7557L51.7222 19.4557C51.7222 19.4557 53.5158 13.7287 54.4964 13.4536C56.5709 12.8719 53.9579 20.9411 53.9579 20.9411C54.5247 19.7009 55.3644 18.5577 55.9733 17.3385C56.4081 16.468 56.851 15.5991 57.3417 14.7585C57.5628 14.3799 57.8907 13.6041 58.3587 13.4811C58.6632 13.4002 58.9903 13.4342 59.1215 13.7634C59.2404 14.4881 59.124 15.2317 58.7895 15.8855C58.0017 17.9647 57.1099 20.003 56.1174 21.9928C56.7474 20.9759 59.6616 16.3297 60.7183 15.7633C61.1442 15.536 61.447 15.7488 61.5661 16.2625C61.8802 17.5836 58.5077 22.3714 58.3636 22.6174C58.2729 22.7719 57.9142 23.195 57.9247 23.3641C57.9247 23.3641 62.8058 19.5617 63.5604 19.8351C65.6843 20.6134 60.2244 24.3463 59.5369 25.6965C58.2778 28.1689 55.4988 33.5837 54.8113 34.6718L46.2436 29.0337C46.8487 28.0576 47.3936 27.0455 47.8752 26.0031Z" fill="white" stroke="#2F3E83" stroke-width="0.848122" stroke-linecap="round" stroke-linejoin="round"/>
<path d="M51.3502 23.8944C51.3502 23.8944 53.8296 25.3248 53.0264 29.0349" stroke="#2F3E83" stroke-width="0.848122" stroke-linecap="round" stroke-linejoin="round"/>
<path d="M20.1537 37.2742C19.465 36.3545 18.6796 35.511 17.8112 34.7582C22.2695 37.3551 34.7498 44.4745 36.7555 43.7464C39.0657 42.9091 46.2455 29.0376 46.2455 29.0376L54.8132 34.6724C54.8132 34.6724 44.8415 57.2773 40.0924 57.1543C36.3167 57.0564 29.3231 54.6682 24.4072 52.8495C23.1999 46.0626 21.7181 39.6374 20.1537 37.2742Z" fill="#DBEAFF"/>
<path d="M20.1537 37.2742C19.465 36.3545 18.6796 35.511 17.8112 34.7582C22.2695 37.3551 34.7498 44.4745 36.7555 43.7464C39.0657 42.9091 46.2455 29.0376 46.2455 29.0376L54.8132 34.6724C54.8132 34.6724 44.8415 57.2773 40.0924 57.1543C36.3167 57.0564 29.3231 54.6682 24.4072 52.8495C23.1999 46.0626 21.7181 39.6374 20.1537 37.2742Z" stroke="#2F3E83" stroke-width="0.848122" stroke-linecap="round" stroke-linejoin="round"/>
<path d="M62.0686 45V49.1781" stroke="white" stroke-width="0.848122" stroke-linecap="round" stroke-linejoin="round"/>
<path d="M60 47.0895H64.1357" stroke="white" stroke-width="0.848122" stroke-linecap="round" stroke-linejoin="round"/>
<path d="M20.1506 37.2742C23.9928 43.0846 27.3394 73.3801 27.3394 73.3801L24.9482 74.2133C24.6171 73.6762 24.43 73.3801 24.43 73.3801C23.2745 56.5225 21.7344 47.0181 19.9377 41.2619C18.5862 36.9353 16.6324 34.5632 14.5538 32.9193L14.0307 31.5439C16.0032 33.1304 19.1482 35.7533 20.1506 37.2742Z" fill="#ECEEF5"/>
<path d="M20.1506 37.2742C23.9928 43.0846 27.3394 73.3801 27.3394 73.3801L24.9482 74.2133C24.6171 73.6762 24.43 73.3801 24.43 73.3801C23.2745 56.5225 21.7344 47.0181 19.9377 41.2619C18.5862 36.9353 16.6324 34.5632 14.5538 32.9193L14.0307 31.5439C16.0032 33.1304 19.1482 35.7533 20.1506 37.2742Z" fill="#DBEAFF" stroke="#2F3E83" stroke-width="0.848122" stroke-linecap="round" stroke-linejoin="round"/>
<path d="M30.4336 145.753C34.3835 148.141 38.9398 151.198 39.1924 152.727C39.59 155.131 19.5379 153.761 14.9006 152.906C14.6202 152.854 14.363 152.717 14.1648 152.512C13.9667 152.307 13.8375 152.045 13.7954 151.764C13.5176 149.922 13.1362 143.495 12.3128 138.621L24.9744 139.034C25.8028 142.253 27.5348 144 30.4336 145.753Z" fill="#2F3E83"/>
<path d="M30.4336 145.753C34.3835 148.141 38.9398 151.198 39.1924 152.727C39.59 155.131 19.5379 153.761 14.9006 152.906C14.6202 152.854 14.363 152.717 14.1648 152.512C13.9667 152.307 13.8375 152.045 13.7954 151.764C13.5176 149.922 13.1362 143.495 12.3128 138.621L24.9744 139.034C25.8028 142.253 27.5348 144 30.4336 145.753Z" stroke="#2F3E83" stroke-width="0.848122" stroke-linecap="round" stroke-linejoin="round"/>
<path d="M12.3171 128.223L12.3171 95.9879" stroke="#2F3E83" stroke-width="0.848122" stroke-linecap="round" stroke-linejoin="round"/>
<path d="M25.667 130.315L24.9787 139.033" stroke="#2F3E83" stroke-width="0.848122" stroke-linecap="round" stroke-linejoin="round"/>
<path d="M15.9668 36.6442L12.5303 27.588L6.72054 23.7638L6.78208 31.5304C9.62259 33.6038 12.7075 35.3211 15.9668 36.6442Z" fill="white" stroke="#2F3E83" stroke-width="0.848122" stroke-linecap="round" stroke-linejoin="round"/>
<path d="M12.5322 27.589C12.5322 27.589 10.4269 28.0477 9.21803 26.915C9.21803 26.915 10.7184 29.8081 13.52 30.1916L12.5322 27.589Z" fill="#2F3E83"/>
<path d="M12.5322 27.589C12.5322 27.589 10.427 28.0477 9.21803 26.915C9.21803 26.915 10.7184 29.8081 13.52 30.1916L12.5322 27.589Z" stroke="#2F3E83" stroke-width="0.848122" stroke-linecap="round" stroke-linejoin="round"/>
<path d="M24.4296 73.3807C24.4296 73.3807 33.8376 90.8349 37.8757 98.6436" stroke="#2F3E83" stroke-width="0.848122" stroke-linecap="round" stroke-linejoin="round"/>
<path d="M37.676 98.6135C38.4703 100.556 38.981 102.603 39.1927 104.691C39.4639 110.685 29.7869 124.751 24.0508 132.532C23.5825 133.167 23.174 133.844 22.8305 134.554L12.9778 127.104C17.8839 118.798 23.7593 108.359 22.9577 107.293C19.1244 102.196 16.0345 97.908 13.5454 94.3119" stroke="#2F3E83" stroke-width="0.848122" stroke-linecap="round" stroke-linejoin="round"/>
<path d="M22.2323 144.227C23.3834 147.626 24.5546 151.573 24.6443 153.784L21.2728 153.613C16.9245 149.781 9.51553 140.884 7.33744 138.236C7.15606 138.016 7.04837 137.745 7.02893 137.461C7.00869 137.177 7.07913 136.894 7.22812 136.652C8.20465 135.063 10.467 131.366 12.9772 127.109L22.8315 134.557C21.3706 137.577 21.1554 141.05 22.2323 144.227Z" fill="#2F3E83"/>
<path d="M22.2322 144.227C23.4326 147.772 24.6453 151.548 24.64 153.694L21.3554 153.33C17.0204 149.544 9.53087 140.903 7.33729 138.236C7.15591 138.016 7.04821 137.745 7.02878 137.461C7.00854 137.177 7.07898 136.894 7.22797 136.652C8.2045 135.063 10.4669 131.366 12.977 127.109L22.8314 134.557C21.3705 137.577 21.1553 141.05 22.2322 144.227Z" stroke="#2F3E83" stroke-width="0.848122" stroke-linecap="round" stroke-linejoin="round"/>
<path d="M16.6476 78.4885C8.688 64.0879 30.5935 103.5 30.5935 105.904C30.5935 107.937 17.327 130.395 17.327 130.395" stroke="#2F3E83" stroke-width="0.848122" stroke-linecap="round" stroke-linejoin="round"/>
<path d="M15.8375 43.1711C14.6464 38.0257 10.5152 34.2799 8.26741 32.5729C10.6877 34.1907 13.2684 35.5561 15.9679 36.6479L14.5549 32.9264C16.6335 34.5703 18.5874 36.9424 19.9388 41.269C21.7356 47.0244 23.2757 56.5288 24.4312 73.3872L20.5356 74.2245C19.5145 66.4482 17.1218 48.7209 15.8375 43.1711Z" fill="#FA4B98" stroke="#2F3E83" stroke-width="0.848122" stroke-linecap="round" stroke-linejoin="round"/>
<path d="M2.0977 36.5667C5.04996 32.6551 6.7844 31.5338 6.7844 31.5338C6.7844 31.5338 14.1756 35.9891 15.8387 43.1716C17.5019 50.3541 21.021 77.9271 21.021 77.9271C19.259 78.3226 17.4565 78.5081 15.6509 78.4797C15.8328 79.6649 15.9409 80.8598 15.9748 82.0588L5.31231 82.7772C5.31231 82.7772 0.136543 60.9142 0.158405 57.8772C0.180269 54.8401 -0.854561 40.4784 2.0977 36.5667Z" fill="#DBEAFF"/>
<path d="M2.0977 36.5667C5.04996 32.6551 6.7844 31.5338 6.7844 31.5338C6.7844 31.5338 14.1756 35.9891 15.8387 43.1716C17.5019 50.3541 21.021 77.9271 21.021 77.9271C19.259 78.3226 17.4565 78.5081 15.6509 78.4797C15.8328 79.6649 15.9409 80.8598 15.9748 82.0588L5.31231 82.7772C5.31231 82.7772 0.136543 60.9142 0.158406 57.8772C0.180269 54.8401 -0.854561 40.4784 2.0977 36.5667Z" stroke="#2F3E83" stroke-width="0.848122" stroke-linecap="round" stroke-linejoin="round"/>
<path d="M11.3661 40.026C11.3661 40.026 12.6795 47.6567 11.3661 52.6589C10.2543 56.9022 14.3313 69.9493 15.6455 78.4796" stroke="#2F3E83" stroke-width="0.848122" stroke-linecap="round" stroke-linejoin="round"/>
<path d="M4.80005 90.6572L5.43325 89.6394C5.43325 89.6394 4.87374 84.4552 6.30857 82.7085L14.9038 82.1293L14.9038 90.5293C14.9041 91.6943 14.555 92.8326 13.9014 93.797C12.737 95.5153 10.7232 98.2369 8.77013 99.6858C8.41628 99.9552 7.97174 100.077 7.52963 100.028C7.0527 99.9326 9.29888 96.364 10.4827 94.5389C9.28512 96.3405 6.894 99.825 6.30857 99.8574C5.51828 99.8994 5.51828 99.5151 5.34742 99.0483C5.25188 98.7846 6.33205 96.9336 7.30372 95.3511C6.30695 96.8882 5.11746 98.6204 4.80005 98.6204C4.23324 98.6204 4.15227 98.1932 4.15227 97.3809C4.53851 96.1383 5.06968 94.9458 5.73528 93.8269C4.94175 95.2095 3.92878 96.796 3.42513 96.8672C2.5231 96.9926 2.96764 93.8132 4.80005 90.6572Z" fill="white" stroke="#2F3E83" stroke-width="0.848122" stroke-linecap="round" stroke-linejoin="round"/>
<path d="M11.1721 93.4879L10.4814 94.5396" stroke="#2F3E83" stroke-width="0.848122" stroke-linecap="round" stroke-linejoin="round"/>
<path d="M8.771 93.0177L7.30459 95.3485" stroke="#2F3E83" stroke-width="0.848122" stroke-linecap="round" stroke-linejoin="round"/>
<path d="M6.84326 91.7769L5.7307 93.8237" stroke="#2F3E83" stroke-width="0.848122" stroke-linecap="round" stroke-linejoin="round"/>
<path d="M5.87094 15.4348C5.87094 15.4348 6.59083 12.8042 8.6471 13.1564C8.6471 13.1564 8.56935 10.2339 9.93768 10.6055C11.306 10.9771 11.2988 13.0042 11.2988 13.0042C11.2988 13.0042 12.5716 12.8591 12.195 11.2355C11.8185 9.6119 12.4468 9.00764 13.7321 10.0644C14.954 11.0701 16.7909 15.6935 12.8933 16.9764C11.8362 15.0996 8.91796 15.1131 7.58971 16.5403C6.5555 17.6519 6.67638 19.9327 6.88733 20.6575L6.77915 20.8891C6.966 21.5509 6.77668 20.745 6.10158 20.3169C5.77094 19.5906 4.40434 16.5773 4.15521 15.8128C3.89674 15.0172 5.87094 15.4348 5.87094 15.4348Z" fill="#2F3E83" stroke="#2F3E83" stroke-width="0.848122" stroke-linecap="round" stroke-linejoin="round"/>
<path d="M6.88943 20.6581C9.70033 25.4646 13.0316 25.2158 14.2528 23.3006C14.222 21.9728 14.0336 20.6531 13.6915 19.3696C13.5274 18.3775 13.1677 17.4278 12.6333 16.5756C11.9687 15.9048 11.0649 15.5245 10.1199 15.518C9.17492 15.5115 8.26575 15.8794 7.59181 16.5409C6.55763 17.6507 6.67486 19.9332 6.88943 20.6581Z" fill="white" stroke="#2F3E83" stroke-width="0.848122" stroke-linecap="round" stroke-linejoin="round"/>
<path d="M6.84365 21.1491C7.04074 21.886 6.95205 22.6699 6.59622 23.3444C5.71133 22.8411 5.02089 22.0564 4.6348 21.1156C4.21124 19.9233 5.99131 19.5484 6.84365 21.1491Z" fill="white" stroke="#2F3E83" stroke-width="0.848122" stroke-linecap="round" stroke-linejoin="round"/>
<path d="M6.78275 20.8891L6.89093 20.6575C9.70183 25.464 13.0331 25.2152 14.2543 23.3C14.2571 24.9313 13.8786 26.7487 12.3727 27.3775C11.811 27.565 11.2106 27.6057 10.6288 27.4955C10.0469 27.3853 9.50343 27.1281 9.04956 26.7483C7.99042 25.8087 7.15263 24.6464 6.59618 23.3448C6.96749 22.5795 7.03452 21.7016 6.78275 20.8891Z" fill="#2F3E83" stroke="#2F3E83" stroke-width="0.848122" stroke-linecap="round" stroke-linejoin="round"/>
<path d="M13.9077 21.5991C13.1736 21.584 12.5928 20.8758 12.6105 20.0173C12.6281 19.1588 13.2376 18.4751 13.9716 18.4902C14.7057 18.5052 15.2865 19.2133 15.2688 20.0719C15.2511 20.9304 14.6418 21.6142 13.9077 21.5991Z" fill="white" stroke="#2F3E83" stroke-width="0.848122" stroke-linecap="round" stroke-linejoin="round"/>
<path d="M9.54584 21.8308C8.81145 21.8157 8.23101 21.1075 8.24867 20.249C8.26633 19.3904 8.87541 18.7068 9.6098 18.7219C10.3442 18.7369 10.9246 19.445 10.907 20.3036C10.8893 21.1621 10.2802 21.8459 9.54584 21.8308Z" fill="white" stroke="#2F3E83" stroke-width="0.848122" stroke-linecap="round" stroke-linejoin="round"/>
<path d="M28.5391 0.489502L28.5378 5.92882" stroke="white" stroke-width="0.848122" stroke-linecap="round" stroke-linejoin="round"/>
<path d="M25.8162 3.20972L31.2603 3.20972" stroke="white" stroke-width="0.848122" stroke-linecap="round" stroke-linejoin="round"/>
<path d="M12.6052 20.3382C12.3656 20.1466 12.0689 20.0394 11.7625 20.0331C11.456 20.0268 11.1556 20.1218 10.9079 20.3034" stroke="#2F3E83" stroke-width="0.848122" stroke-linecap="round" stroke-linejoin="round"/>
<path d="M8.24464 20.5247L4.34772 19.436" stroke="#2F3E83" stroke-width="0.848122" stroke-linecap="round" stroke-linejoin="round"/>
<path d="M47.4092 8.41328C42.8342 12.6041 39.7555 17.2576 38.75 21.2584" stroke="white" stroke-width="0.848122" stroke-linecap="round" stroke-linejoin="round"/>
<path d="M41.0086 11.968C39.7846 13.4662 38.7158 15.0846 37.8191 16.7985" stroke="white" stroke-width="0.848122" stroke-linecap="round" stroke-linejoin="round"/>
</svg>
