<svg width="35" height="34" viewBox="0 0 35 34" fill="none" xmlns="http://www.w3.org/2000/svg">
<g clip-path="url(#clip0_591_280)">
<path d="M7.52168 26.0936C3.81893 26.0936 0.799072 23.0814 0.799072 19.371C0.799072 15.6607 3.81135 12.6484 7.52168 12.6484C9.77519 12.6484 11.6038 14.477 11.6038 16.7306V22.0039C11.6038 24.2575 9.77519 26.0861 7.52168 26.0861V26.0936ZM7.52168 15.5469C5.41233 15.5469 3.69753 17.2617 3.69753 19.371C3.69753 21.4804 5.41233 23.1952 7.52168 23.1952C8.17421 23.1952 8.71293 22.6641 8.71293 22.0039V16.7306C8.71293 16.078 8.1818 15.5393 7.52168 15.5393V15.5469Z" fill="white"/>
<path d="M28.0843 26.0939C25.8308 26.0939 24.0022 24.2653 24.0022 22.0118V16.7384C24.0022 14.4849 25.8308 12.6562 28.0843 12.6562C31.7871 12.6562 34.8069 15.6685 34.8069 19.3789C34.8069 23.0892 31.7947 26.1015 28.0843 26.1015V26.0939ZM28.0843 15.5471C27.4318 15.5471 26.8931 16.0783 26.8931 16.7384V22.0118C26.8931 22.6643 27.4242 23.203 28.0843 23.203C30.1937 23.203 31.9085 21.4882 31.9085 19.3789C31.9085 17.2695 30.1937 15.5547 28.0843 15.5547V15.5471Z" fill="white"/>
<path d="M25.4436 31.3671H20.4357C19.639 31.3671 18.9865 30.7222 18.9865 29.9179C18.9865 29.1136 19.6315 28.4687 20.4357 28.4687H25.4436C26.0961 28.4687 26.6348 27.9376 26.6348 27.2774V24.6445C26.6348 23.8478 27.2797 23.1953 28.084 23.1953C28.8883 23.1953 29.5333 23.8403 29.5333 24.6445V27.2774C29.5333 29.531 27.7047 31.3596 25.4511 31.3596L25.4436 31.3671Z" fill="white"/>
<path d="M17.803 34.0003C16.7559 34.0003 15.7088 33.6057 14.9121 32.809C13.3187 31.2157 13.3187 28.6283 14.9121 27.0349C16.5055 25.4415 19.0928 25.4415 20.6862 27.0349C22.2796 28.6283 22.2796 31.2157 20.6862 32.809C19.8895 33.6057 18.8425 34.0003 17.7954 34.0003H17.803ZM17.803 28.7345C17.4995 28.7345 17.196 28.8483 16.9607 29.0835C16.4979 29.5464 16.4979 30.3051 16.9607 30.768C17.4236 31.2308 18.1748 31.2308 18.6452 30.768C19.108 30.3051 19.108 29.5464 18.6452 29.0835C18.41 28.8559 18.1065 28.7345 17.803 28.7345Z" fill="#1D84FF"/>
<path d="M27.7502 10.8047C27.1053 10.8047 26.521 10.3722 26.3465 9.7197C25.2994 5.63758 21.8622 2.89846 17.7953 2.89846C13.7283 2.89846 10.2988 5.63758 9.24408 9.7197C9.0468 10.4936 8.25011 10.9565 7.48376 10.7592C6.70983 10.5619 6.24698 9.77282 6.44426 8.99888C7.83279 3.61169 12.3929 0 17.8029 0C23.2128 0 27.7654 3.61169 29.1539 8.99888C29.3512 9.77282 28.8884 10.5619 28.1144 10.7592C27.993 10.7896 27.8716 10.8047 27.7502 10.8047Z" fill="#1D84FF"/>
</g>
<defs>
<clipPath id="clip0_591_280">
<rect width="34" height="34" fill="white" transform="translate(0.799072)"/>
</clipPath>
</defs>
</svg>
